<svg xmlns="http://www.w3.org/2000/svg" width="160" viewBox="0 0 160 51.168">
    <g fill="rgba(255,255,255,0.33)">
        <g font-size="12" font-family="Overpass-Regular, Overpass">
            <text transform="translate(51.123 20.377)">
                <tspan x="0" y="0">P</tspan>
            </text>
            <text transform="translate(57.946 20.377)">
                <tspan x="0" y="0">o</tspan>
            </text>
            <text transform="translate(64.257 20.377)">
                <tspan x="0" y="0">w</tspan>
            </text>
            <text transform="translate(72.359 20.377)">
                <tspan x="0" y="0">e</tspan>
            </text>
            <text transform="translate(78.426 20.377)">
                <tspan x="0" y="0">r</tspan>
            </text>
            <text transform="translate(82.678 20.377)">
                <tspan x="0" y="0">e</tspan>
            </text>
            <text transform="translate(88.745 20.377)">
                <tspan x="0" y="0">d</tspan>
            </text>
            <text transform="translate(97.481 20.377)">
                <tspan x="0" y="0">b</tspan>
            </text>
            <text transform="translate(103.84 20.377)">
                <tspan x="0" y="0">y</tspan>
            </text>
        </g>
        <path d="M116.021 20.562c2.43 0 3.068-2.476 3.068-4.459 0-2.131-.7-4.459-3.068-4.459-2.429 0-3.067 2.476-3.067 4.459 0 2.131.699 4.459 3.067 4.459zm0-1.232c-1.374 0-1.742-1.626-1.742-3.227 0-1.5.331-3.227 1.742-3.227 1.375 0 1.743 1.626 1.743 3.227 0 1.503-.332 3.227-1.743 3.227zM119.813 20.414h1.46l1.043-1.626a4.83 4.83 0 0 0 .319-.567c.086.16.184.357.319.567L124 20.414h1.46l-2.1-3.276 1.926-3.018h-1.46l-.871 1.367c-.135.209-.233.406-.319.567a6.107 6.107 0 0 0-.319-.567l-.871-1.367h-1.46l1.914 3.018zM128.623 20.562a2.274 2.274 0 0 0 2.392-1.774l-1.214-.382a1.179 1.179 0 0 1-1.178.924c-.908 0-1.436-.776-1.436-2.057s.528-2.069 1.485-2.069a1.16 1.16 0 0 1 1.1.813l1.215-.419a2.266 2.266 0 0 0-2.368-1.626c-1.681 0-2.737 1.232-2.737 3.3s1.06 3.29 2.741 3.29zM134.475 20.562a2.688 2.688 0 0 0 2.148-.912l-.835-.862a1.6 1.6 0 0 1-1.3.641 1.628 1.628 0 0 1-1.583-1.687h4.221a5.715 5.715 0 0 0 .049-.825 2.618 2.618 0 0 0-2.7-2.944c-1.717 0-2.846 1.219-2.846 3.289s1.104 3.3 2.846 3.3zm-1.57-3.855a1.489 1.489 0 0 1 1.57-1.6 1.429 1.429 0 0 1 1.424 1.6zM138.034 20.414h1.276v-3.535c0-1.293.711-1.651 1.276-1.651a1.672 1.672 0 0 1 .994.308l.184-1.182a1.562 1.562 0 0 0-1.055-.382 1.428 1.428 0 0 0-1.4.911v-.764h-1.276zM144.85 20.562a2.778 2.778 0 0 0 1.264-.283l.16-1.195a1.762 1.762 0 0 1-.933.3c-.491 0-.613-.3-.613-.714v-3.436h1.484v-1.108h-1.484v-2.6l-1.276.616v1.983h-.97v1.108h.97v3.769c0 .944.405 1.56 1.398 1.56zM52.353 39.383h3.016v-5.757h4.187v-2.868h-4.187v-2.45h6.667V25.44h-9.683z"/>
        <path d="M64.179 29.204v.916a2.24 2.24 0 0 1 1.921-1.152 2.628 2.628 0 0 1 1.636.528v2.892l-.009.066a2.629 2.629 0 0 0-1.806-.7c-.913 0-1.746.478-1.746 2.111v5.517H61.3V29.204zM90.57 39.383h2.877v-6.295c0-3.247-1.647-4.123-3.869-4.123a3.746 3.746 0 0 0-3.178 1.414 2.5 2.5 0 0 0-2.54-1.414 2.761 2.761 0 0 0-2.322 1.175v-.936h-2.873v10.178h2.877v-5.338c0-1.673.377-2.291 1.627-2.291 1.091 0 1.449.6 1.449 2.37v5.258h2.877v-5.338c0-1.673.357-2.291 1.627-2.291 1.091 0 1.448.6 1.448 2.37zM99.658 39.622a4.868 4.868 0 0 0 3.949-1.852l-1.667-1.673a2.668 2.668 0 0 1-2.282 1.071 1.82 1.82 0 0 1-2-1.892h6.489a10.388 10.388 0 0 0 .079-1.494c0-3.267-2-4.82-4.564-4.82-2.957 0-4.822 2.052-4.822 5.318-.003 3.35 1.822 5.342 4.818 5.342zm-1.984-6.514a1.788 1.788 0 0 1 1.865-1.693 1.739 1.739 0 0 1 1.925 1.693zM107.675 39.383h2.54l1.071-4.621c.06-.279.3-1.1.377-1.653.06.558.3 1.394.337 1.653l1.072 4.621h2.54l2.936-10.178h-2.837l-1.111 4.182c-.1.339-.179 1.076-.278 1.494-.119-.418-.238-1.135-.337-1.494l-1.052-4.183h-2.58l-1.071 4.183c-.1.358-.238 1.076-.337 1.494-.119-.418-.2-1.155-.3-1.494l-1.045-4.183h-2.837zM123.886 39.622c2.857 0 4.663-1.972 4.663-5.318 0-3.287-1.806-5.338-4.663-5.338-2.877 0-4.7 2.052-4.7 5.338-.003 3.346 1.823 5.318 4.7 5.318zm0-2.789c-1.111 0-1.825-.936-1.825-2.53s.714-2.55 1.825-2.55c1.131 0 1.786.956 1.786 2.55s-.655 2.53-1.786 2.53zM130.037 39.383h2.877v-5.515c0-1.633.834-2.111 1.747-2.111a2.628 2.628 0 0 1 1.805.7l.377-2.629a2.647 2.647 0 0 0-2-.857 2.241 2.241 0 0 0-1.925 1.155v-.916h-2.877zM146.943 39.383l-3.691-7.171 3.1-3.008h-3.413l-2.56 2.55v-6.752l-2.879 1.354v13.027h2.877v-4.422l.754-.7 2.679 5.119z"/>
        <path d="M116.007 14.876c.382 0 .693.561.693 1.253s-.311 1.253-.693 1.253-.694-.561-.694-1.253.311-1.253.694-1.253zM76.8 39.316h-2.856v-.757a3.146 3.146 0 0 1-2.52 1c-2.143 0-3.81-1.115-3.81-3.346s2.1-3.267 4.107-3.267a5.228 5.228 0 0 1 2.222.359v-.558c0-.956-.655-1.434-1.647-1.434a5.71 5.71 0 0 0-3.235 1.055v-2.719a8.007 8.007 0 0 1 3.434-.754c1.885 0 4.306.478 4.306 3.984zm-4.822-2.191c-.992 0-1.548-.339-1.548-.9 0-.737.794-.976 1.786-.976a5.933 5.933 0 0 1 1.726.239v.916a3.037 3.037 0 0 1-1.963.721zM40.641 10.803a1.269 1.269 0 0 1 1.259 1.275v26.99a1.269 1.269 0 0 1-1.262 1.275h-2.072l-5.66-5.716a.523.523 0 0 0-.372-.156.524.524 0 0 0-.372.156l-2.662 2.69a.534.534 0 0 0-.154.376.534.534 0 0 0 .154.376l2.25 2.272h-8.396l11.186-11.3h.012l3.035-3.065a.535.535 0 0 0 0-.751l-5.053-5.1a.522.522 0 0 0-.744 0l-2.666 2.693a.535.535 0 0 0 0 .751l1.637 1.653a.535.535 0 0 1 0 .751L16.534 40.34h-2.405a1.269 1.269 0 0 1-1.263-1.272v-26.99a1.269 1.269 0 0 1 1.262-1.275h2.355l5.35 5.4a.523.523 0 0 0 .744 0l2.666-2.693a.535.535 0 0 0 0-.751L23.3 10.803h7.748L17.147 24.845a.535.535 0 0 0 0 .751l5.208 5.259a.522.522 0 0 0 .744 0l2.665-2.687a.535.535 0 0 0 0-.751l-1.8-1.815a.535.535 0 0 1 0-.751l13.908-14.048z" fill-rule="evenodd"/>
        <path d="M154.277.005a5.993 5.993 0 0 1 5.648 5.67c.168 13.214 0 26.431 0 39.646a5.993 5.993 0 0 1-5.65 5.816c-1.065.041-145.43.041-148.406.002a6 6 0 0 1-5.794-5.671c-.168-13.214 0-26.431 0-39.646A5.994 5.994 0 0 1 5.725.006C5.973-.004 154.2.002 154.277.005zM5.876 1.059a4.92 4.92 0 0 0-4.75 4.643q-.252 19.866.001 39.739a4.923 4.923 0 0 0 4.623 4.641c1.319.05 119.929.366 148.5 0a4.928 4.928 0 0 0 4.623-4.641q.254-19.868 0-39.739a4.923 4.923 0 0 0-4.623-4.641c-.974-.038-146.044-.032-148.374-.002z"/>
    </g>
</svg>
