  <svg height="31" viewBox="0 0 25 31" xmlns="http://www.w3.org/2000/svg" fill-rule="evenodd" clip-rule="evenodd" stroke-linejoin="round" stroke-miterlimit="1.414">
    <path d="M28.733 0c.721 0 1.306.581 1.306 1.297v27.446c0 .715-.585 1.296-1.306 1.296h-2.146l-5.855-5.813a.55.55 0 0 0-.77 0l-2.758 2.739a.539.539 0 0 0 0 .764l2.327 2.31H10.85l11.572-11.488.003-.002.003.002.003.001.003-.001 3.14-3.117a.54.54 0 0 0 0-.765L20.347 9.48a.547.547 0 0 0-.77 0l-2.758 2.738a.537.537 0 0 0 0 .764l1.693 1.681a.537.537 0 0 1 0 .764L3.794 30.039H1.306A1.302 1.302 0 0 1 0 28.743V1.297C0 .581.585 0 1.306 0h2.437l5.534 5.495a.546.546 0 0 0 .769 0l2.759-2.739a.538.538 0 0 0 0-.764L10.798 0h8.015L4.428 14.281a.538.538 0 0 0 0 .764l5.388 5.349a.546.546 0 0 0 .769 0l2.758-2.738a.538.538 0 0 0 0-.765l-1.859-1.846a.537.537 0 0 1 0-.764L25.869 0h2.864z" fill="#FFF"/>
  </svg>