<svg width="23" height="24" viewBox="0 0 23 24" xmlns="http://www.w3.org/2000/svg" fill-rule="evenodd" clip-rule="evenodd" stroke-linejoin="round" stroke-miterlimit="1.414">
    <g fill="#00e5f3">
        <path d="M13.391 2.781l.001.038c0 1.166-.96 2.126-2.126 2.126a2.136 2.136 0 0 1-2.125-2.126v-.038A2.136 2.136 0 0 1 11.266.694c1.152 0 2.104.936 2.125 2.087zM13.391 21.027a2.136 2.136 0 0 1-2.125 2.164 2.135 2.135 0 0 1-2.125-2.125v-.039a2.135 2.135 0 0 1 2.125-2.086c1.152 0 2.104.935 2.125 2.086z"/>
        <path d="M15.673 11.904c0-.955.342-1.831.912-2.514l5.227-5.274c.345-.352.539-.825.539-1.318A1.89 1.89 0 0 0 20.469.916c-.493 0-.966.194-1.318.539L14.48 6.126h-.017a4.166 4.166 0 0 1-3.084 1.344 4.17 4.17 0 0 1-3.084-1.344L3.574 1.455a1.883 1.883 0 0 0-1.33-.551A1.89 1.89 0 0 0 .363 2.786c0 .498.198.977.551 1.33l5.063 5.062h-.034a3.917 3.917 0 0 1 1.104 2.726c0 1.169-.523 2.28-1.424 3.025L.914 19.692c-.338.35-.527.819-.527 1.306a1.89 1.89 0 0 0 1.882 1.881c.487 0 .955-.189 1.305-.526l4.863-4.862h.015a4.006 4.006 0 0 1 2.927-1.261c1.235 0 2.34.554 3.074 1.424l4.698 4.699c.352.353.831.552 1.33.551a1.89 1.89 0 0 0 1.882-1.882c0-.498-.198-.977-.551-1.33l-5.227-5.273a3.913 3.913 0 0 1-.912-2.515"/>
        <path d="M21.832 14.607a.522.522 0 0 1-.369-.153l-2.18-2.18a.526.526 0 0 1 0-.74l2.18-2.18a.526.526 0 0 1 .739.74l-1.809 1.81 1.809 1.81a.523.523 0 0 1-.368.893h-.002m-20.838 0H.992a.523.523 0 1 1-.368-.893l1.809-1.81-1.809-1.81a.524.524 0 0 1 .739-.74l2.18 2.18a.526.526 0 0 1 0 .74l-2.18 2.18a.522.522 0 0 1-.369.153"/>
    </g>
</svg>
