<svg width="23" height="23" viewBox="0 0 23 23" xmlns="http://www.w3.org/2000/svg" fill-rule="evenodd" clip-rule="evenodd" stroke-linejoin="round" stroke-miterlimit="1.414">
    <path d="M21.406.694a.96.96 0 0 1 .957.962v20.369a.96.96 0 0 1-.957.962h-1.572l-4.288-4.314a.398.398 0 0 0-.563 0l-2.02 2.032a.401.401 0 0 0 0 .567l1.704 1.715H8.309l8.475-8.526.002-.001.002.001.003.001.002-.001 2.3-2.313a.404.404 0 0 0 0-.567l-3.829-3.852a.397.397 0 0 0-.563 0l-2.02 2.033a.402.402 0 0 0 0 .567l1.24 1.247a.404.404 0 0 1 0 .567L3.142 22.987H1.319a.96.96 0 0 1-.956-.962V1.656a.96.96 0 0 1 .956-.962h1.785l4.053 4.078a.398.398 0 0 0 .564 0l2.02-2.032a.405.405 0 0 0 0-.568L8.271.694h5.87L3.606 11.292a.405.405 0 0 0 0 .568l3.946 3.969a.397.397 0 0 0 .563 0l2.02-2.032a.402.402 0 0 0 0-.567l-1.362-1.37a.405.405 0 0 1 0-.568L19.308.694h2.098z" fill="#3c8cff"/>
</svg>
