<svg width="140" height="43" xmlns="http://www.w3.org/2000/svg" fill-rule="evenodd" clip-rule="evenodd" stroke-linejoin="round" stroke-miterlimit="2">
    <g fill="#222" fill-rule="nonzero">
        <path d="M110.111 20.995c-.805-.541-1.693-.926-2.534-1.407-.544-.313-1.124-.59-1.598-.987-.805-.673-.639-1.997.202-2.574 1.207-.818 3.207-.361 3.421 1.311 0 .036.035.06.07.06h1.823c.048 0 .083-.036.071-.084-.094-1.155-.532-2.117-1.337-2.731-.77-.589-1.645-.902-2.581-.902-4.817 0-5.255 5.185-2.663 6.821.296.192 2.841 1.492 3.741 2.057.899.565 1.183 1.6.793 2.418-.356.746-1.279 1.263-2.202 1.203-1.006-.06-1.787-.613-2.06-1.48a2.684 2.684 0 01-.071-.589c0-.036-.035-.072-.071-.072h-1.977c-.035 0-.071.036-.071.072 0 1.456.356 2.261 1.326 2.995a4.702 4.702 0 002.936.987c2.699 0 4.095-1.552 4.379-3.164.249-1.576-.213-2.995-1.597-3.934zM24.28 13.946h-1.835c-.036 0-.059.024-.071.048l-1.622 5.437a.074.074 0 01-.142 0l-1.622-5.437c-.011-.036-.035-.048-.071-.048h-3.018c-.036 0-.071.036-.071.072V27.9c0 .036.035.072.071.072h1.977c.035 0 .071-.036.071-.072V17.35c0-.084.118-.096.142-.024l1.633 5.474.119.384c.012.037.035.049.071.049h1.515c.035 0 .059-.024.071-.049l.118-.384 1.634-5.474c.023-.084.142-.06.142.024V27.9c0 .036.035.072.071.072h1.977c.035 0 .071-.036.071-.072V14.018c0-.036-.036-.072-.071-.072h-1.16zM79.843 13.946c-.036 0-.059.024-.071.048l-1.622 5.437a.074.074 0 01-.142 0l-1.621-5.437c-.012-.036-.036-.048-.071-.048h-3.007c-.036 0-.071.036-.071.072V27.9c0 .036.035.072.071.072h1.977c.035 0 .071-.036.071-.072V17.35c0-.084.118-.096.142-.024l1.633 5.474.119.384c.011.037.035.049.071.049h1.515c.035 0 .059-.024.071-.049l.118-.384 1.634-5.474c.023-.084.142-.06.142.024V27.9c0 .036.035.072.071.072h1.977c.035 0 .071-.036.071-.072V14.018c0-.036-.036-.072-.071-.072h-3.007zM54.346 13.946h-9.34c-.035 0-.071.036-.071.072v1.732c0 .036.036.072.071.072h3.611V27.9c0 .036.035.072.071.072h1.977c.035 0 .071-.036.071-.072V15.822h3.61c.035 0 .071-.036.071-.072v-1.732c0-.036-.024-.072-.071-.072zM66.005 27.973h1.8c.047 0 .083-.048.071-.096l-3.717-13.931c-.012-.036-.036-.048-.071-.048H61.507c-.035 0-.059.024-.071.048l-3.717 13.931c-.011.048.024.096.072.096h1.799c.035 0 .059-.024.071-.048l1.077-4.054c.012-.036.035-.049.071-.049h3.977c.036 0 .059.025.071.049l1.077 4.054c.012.024.048.048.071.048zm-4.723-6.135l1.445-5.426a.074.074 0 01.142 0l1.444 5.426c.012.048-.024.096-.071.096h-2.889c-.047 0-.082-.048-.071-.096zM96.687 27.973h1.8c.047 0 .082-.048.071-.096l-3.717-13.931c-.012-.036-.036-.048-.071-.048H92.189c-.035 0-.059.024-.071.048l-3.717 13.931c-.012.048.024.096.071.096h1.8c.035 0 .059-.024.071-.048l1.077-4.054c.012-.036.035-.049.071-.049h3.977c.036 0 .059.025.071.049l1.077 4.054c.012.024.036.048.071.048zm-4.723-6.135l1.444-5.426a.074.074 0 01.142 0l1.445 5.426c.011.048-.024.096-.071.096h-2.889c-.047 0-.083-.048-.071-.096zM33.536 25.916v-4.307c0-.036.036-.072.071-.072h5.268c.035 0 .071-.036.071-.072v-1.733c0-.036-.036-.072-.071-.072h-5.268c-.035 0-.071-.036-.071-.072v-3.681c0-.036.036-.072.071-.072h5.99c.035 0 .071-.036.071-.072V14.03c0-.036-.036-.072-.071-.072h-8.109c-.035 0-.071.036-.071.072V27.9c0 .037.036.073.071.073h8.357c.036 0 .072-.036.072-.073v-1.828a.077.077 0 00-.072-.072h-6.249c-.036-.012-.06-.036-.06-.084zM128.174 27.852l-6.842-7.181c-.024-.025-.024-.073 0-.097l6.156-6.496a.07.07 0 00-.048-.12h-2.521c-.024 0-.036.012-.048.024l-5.22 5.51c-.047.048-.118.012-.118-.048V14.03c0-.036-.036-.072-.071-.072h-1.977c-.035 0-.071.036-.071.072v13.883c0 .036.036.072.071.072h1.977c.035 0 .071-.036.071-.072v-6.112c0-.06.083-.096.118-.048l5.919 6.208a.088.088 0 00.047.024h2.522c.046-.012.083-.097.035-.133z"/>
    </g>
    <path fill="none" d="M0 0h139.852v42.337H0z"/>
</svg>
