<svg width="125" height="43" xmlns="http://www.w3.org/2000/svg" fill-rule="evenodd" clip-rule="evenodd" stroke-linejoin="round" stroke-miterlimit="2">
    <path d="M72.559 33.399c-1.922-.267-3.471-.735-4.926-1.509-1.308-.681-1.322-.774-.467-2.443 1.041-2.056 1.268-2.39 1.642-2.39.173 0 .814.241 1.428.521 2.256 1.055 4.606 1.415 5.38.801.441-.347.441-.721 0-1.015-.267-.173-.801-.24-2.243-.32-1.028-.054-2.149-.187-2.483-.294-1.789-.574-2.95-1.495-3.631-2.87-.387-.774-.44-1.041-.481-2.163-.04-1.041 0-1.442.241-2.136.56-1.682 1.789-2.843 3.831-3.631 2.563-.988 6.448-.708 9.252.667.828.414 1.014.548 1.041.855.054.427-1.735 3.631-2.189 3.938-.294.187-.401.147-1.669-.427-1.228-.561-1.482-.627-2.577-.681-1.455-.08-1.882.08-1.882.681 0 .614.481.761 2.804.881 1.108.053 2.229.16 2.509.227 1.536.401 2.951 1.535 3.538 2.83.481 1.028.507 3.124.054 4.406-.788 2.296-2.831 3.711-5.941 4.138-1.269.16-1.669.16-3.231-.066zM21.709 32.998c-.201-.2-.214-1.268-.214-12.068 0-10.173.027-11.882.187-12.029.147-.12 1.442-.133 5.18-.093 4.152.04 5.086.08 5.62.267 3.071 1.041 4.766 3.511 4.766 6.902 0 .694-.067 1.535-.147 1.869-.173.787-.08 1.081.441 1.388 1.362.788 2.309 1.963 2.87 3.565.294.867.347 1.214.347 2.79.014 1.335-.04 1.989-.213 2.523-.775 2.47-2.27 3.952-4.766 4.699-.962.294-1.215.307-7.423.361-5.821.04-6.448.026-6.648-.174zm12.215-6.501c.748-.414.988-1.215.587-1.976-.413-.801-.747-.868-4.045-.868-2.496 0-2.99.027-3.097.2-.187.294-.173 2.577.027 2.777.12.12.988.16 3.084.16 2.75 0 2.963-.013 3.444-.293zm-3.231-8.531c.788-.734.668-2.243-.2-2.643-.454-.201-2.884-.201-3.097.013-.214.213-.214 2.536 0 2.75.107.107.654.16 1.575.16 1.255 0 1.455-.026 1.722-.28zM43.149 33.038c-.227-.227-.227-16.941 0-17.168.2-.2 5.14-.227 5.447-.027.173.107.2 1.215.2 8.611 0 7.396-.027 8.504-.2 8.611-.307.2-5.247.173-5.447-.027zM54.416 32.985c-.187-.174-.213-.868-.213-5.541 0-3.431-.054-5.433-.134-5.607-.133-.227-.294-.253-1.602-.253-1.976 0-1.896.133-1.842-3.138.027-2.029.08-2.496.24-2.603.107-.067.801-.133 1.535-.133.735 0 1.429-.067 1.536-.134.16-.107.213-.667.267-3.297.04-1.749.12-3.258.173-3.338.147-.24 5.314-.24 5.541-.013.12.12.16 1.028.16 3.244 0 2.83.026 3.11.24 3.311.214.2.601.227 2.59.227 2.096 0 2.363.026 2.55.24.2.214.227.601.227 2.67 0 3.191.227 2.964-2.911 2.964-1.668 0-2.429.053-2.536.16-.12.12-.16 1.562-.16 5.674 0 5.3-.014 5.513-.254 5.647-.16.08-1.282.133-2.737.133-2.056 0-2.496-.04-2.67-.213zM84.481 33.051c-.227-.12-.241-.841-.241-12.041 0-9.092.04-11.962.161-12.082.12-.12.921-.16 2.803-.16 2.47 0 2.643.013 2.777.253.08.174.133 2.136.133 5.474 0 2.857.04 5.286.08 5.407.121.32.508.253.855-.147 1.802-2.123 3.404-3.778 3.765-3.898.44-.161 6.194-.214 6.568-.067.133.053.213.24.213.48 0 .321-.213.628-1.041 1.496-2.216 2.296-4.833 5.166-4.833 5.286 0 .067 1.362 2.15 3.031 4.633s3.057 4.672 3.084 4.872c.093.601-.214.655-3.565.615-2.777-.04-3.084-.067-3.337-.294-.147-.134-.948-1.242-1.776-2.457-.828-1.201-1.575-2.229-1.669-2.256-.253-.107-.921.441-1.161.948-.16.334-.214.855-.214 2.056 0 1.282-.04 1.655-.213 1.816-.174.173-.601.213-2.697.213-1.442 0-2.59-.066-2.723-.147zM103.424 32.958c-.2-.227-.227-1.015-.227-8.531 0-7.85.014-8.29.241-8.49.213-.201.614-.227 2.736-.227 2.323 0 2.51.013 2.764.267.267.267.267.44.267 8.477s0 8.21-.267 8.477c-.254.254-.441.267-2.777.267-2.269 0-2.55-.026-2.737-.24zM43.389 13.854l-.334-.093-.04-2.39c-.026-1.816.014-2.403.134-2.497.24-.146 5.206-.133 5.447.027.267.174.293 4.566.026 4.833-.2.2-4.632.307-5.233.12zM103.798 13.881c-.534-.134-.601-.401-.601-2.59 0-1.736.04-2.136.214-2.31.174-.173.614-.213 2.79-.213h2.603l.201.32c.187.28.213.681.173 2.403-.026 1.469-.093 2.123-.213 2.243-.121.133-.801.173-2.537.2-1.295.013-2.483-.013-2.63-.053z" fill="#2B1FD8" fill-rule="nonzero"/>
    <path d="M18.177 17.283a1.48 1.48 0 00-2.958 0v14.64a1.48 1.48 0 002.958 0v-14.64z" fill="url(#_Linear1)"/>
    <path fill="none" d="M0 0h124.424v42.337H0z"/>
    <defs>
        <linearGradient id="_Linear1" x1="0" y1="0" x2="1" y2="0" gradientUnits="userSpaceOnUse" gradientTransform="rotate(90 -.297 16.73) scale(14.4201)">
            <stop offset="0" stop-color="#d914af"/>
            <stop offset="1" stop-color="#f42b7a"/>
        </linearGradient>
    </defs>
</svg>
