<svg width="23" height="23" viewBox="0 0 25 25" xmlns="http://www.w3.org/2000/svg" xmlns:serif="http://www.serif.com/" fill-rule="evenodd" clip-rule="evenodd" stroke-linejoin="round">
    <path d="M12.363 22.848c5.59 0 10.122-4.532 10.122-10.122 0-5.591-4.532-10.123-10.122-10.123" fill="#fff" stroke="#8397aa" stroke-width=".3"/>
    <path serif:id="Oval" d="M12.363 2.603C6.772 2.603 2.24 7.135 2.24 12.726c0 5.59 4.532 10.122 10.123 10.122" fill="#fff" stroke="#7db5ff" stroke-width=".3" stroke-linecap="round"/>
    <path d="M10.471 9.628l.018.016.018.014.02.011.02.01.021.007.022.006.022.003.022.001.022-.001.021-.003.022-.005.021-.007.021-.009.019-.011.019-.014.018-.015 1.009-.981.017-.017.014-.019.012-.02.01-.02.007-.022.006-.022.003-.022.001-.022v-.023l-.004-.022-.005-.022-.007-.021-.01-.021-.011-.02-.014-.019-.016-.018-.629-.629h1.252v1.46l-3.756 3.69-.016.018-.014.018-.012.02-.01.021-.008.021-.005.022-.003.022-.002.022.001.023.003.022.006.022.007.021.01.021.011.02.014.018.016.018 1.882 1.882.018.016.018.014.02.011.021.01.021.007.022.005.022.004.022.001.022-.001.022-.004.022-.005.021-.007.021-.01.019-.011.019-.014.018-.016.992-.992.016-.018.014-.019.011-.019.01-.021.007-.021.005-.022.004-.022.001-.022-.001-.022-.004-.022-.005-.022-.007-.021-.01-.021-.011-.02-.014-.018-.016-.018-.705-.705 1.261-1.261v2.802l-3.95 3.95h-.987l-.02-.001-.019-.001-.019-.003-.019-.003-.018-.005-.018-.005-.018-.006-.018-.007-.017-.007-.016-.009-.016-.009-.016-.01-.015-.011-.014-.011-.014-.012-.013-.013-.013-.013-.012-.014-.012-.015-.01-.015-.01-.015-.009-.016-.009-.017-.008-.017-.007-.017-.006-.018-.005-.018-.004-.018-.003-.019-.003-.019-.001-.02-.001-.019V8.074l.001-.019.001-.02.003-.019.003-.019.004-.018.005-.018.006-.018.007-.017.008-.017.009-.017.009-.016.01-.015.01-.015.012-.015.012-.014.013-.013.013-.013.014-.012.014-.011.015-.011.016-.01.016-.009.016-.009.017-.007.018-.007.018-.006.018-.005.018-.005.019-.003.019-.003.019-.001.02-.001h1.039l1.937 1.937zm1.961 8.89H11.07l1.362-1.338v1.338zM7.498 7.891l-.011.001-.011.001h-.008l-.007.002-.012.003-.01.002-.006.002-.008.004-.008.003-.008.004-.007.005-.009.005-.008.006-.004.003-.008.007-.007.007-.007.006-.005.007-.005.006-.005.007-.006.009-.004.007-.004.008-.004.009-.003.007-.002.008-.003.009-.002.009-.002.009-.001.009-.001.009v10.079l.001.009.001.009.002.009.002.009.002.008.003.008.004.01.003.007.004.008.005.009.004.006.005.007.007.008.004.006.007.006.007.007.006.005.008.006.006.005.016.01.006.002.01.005.008.003.009.003.009.003.007.002.01.001.008.002h.923l3.833-3.831v-2.237l-.778.778.568.568.025.028.026.034.022.038.017.038.014.04.01.041.006.041.002.041-.002.041-.006.041-.01.041-.014.04-.017.037-.022.038-.026.034-.025.029-1.001 1-.028.026-.036.026-.037.021-.036.018-.043.015-.04.009-.04.006-.041.002-.042-.002-.039-.006-.041-.009-.042-.015-.037-.018-.037-.021-.035-.026-.028-.026-1.889-1.889-.026-.028-.027-.037-.022-.037-.018-.038-.014-.04-.009-.041-.006-.041-.002-.041.002-.042.006-.041.01-.041.015-.04.018-.039.023-.036.025-.034.026-.03 3.701-3.635V7.891h-.569l.291.292.026.029.026.035.022.037.018.039.013.04.01.04.006.043.002.042-.003.041-.006.041-.01.041-.015.04-.018.038-.023.038-.026.034-.026.029-1.017.987-.03.027-.036.025-.035.02-.039.018-.038.012-.041.011-.041.005-.039.002-.042-.002-.041-.007-.041-.01-.04-.014-.037-.018-.035-.02-.035-.026-.029-.026-1.882-1.883h-.954zm4.061 10.426h.673v-.66l-.673.66z" fill="#7db5ff"/>
    <circle cx="7.183" cy="12.563" r=".325" fill="#fff" stroke="#7db5ff" stroke-width=".22" stroke-linejoin="miter"/>
    <circle serif:id="Oval-2" cx="7.22" cy="18.409" r=".325" fill="#fff" stroke="#7db5ff" stroke-width=".22" stroke-linejoin="miter"/>
    <circle serif:id="Oval-2" cx="10.598" cy="9.63" r=".325" fill="#fff" stroke="#7db5ff" stroke-width=".22" stroke-linejoin="miter"/>
    <path d="M1.374 20.466v3.254h3.197" fill="none" stroke="#8397aa" stroke-width=".49" stroke-linejoin="miter"/>
    <path serif:id="Line-4" d="M23.317 20.466v3.254h-3.196M20.109 1.694h3.254v3.197" fill="none" stroke="#8397aa" stroke-width=".49" stroke-linejoin="miter"/>
    <path d="M17.555 7.691a.385.385 0 0 1 .383.383v10.061c0 .21-.172.383-.383.383l-.985-.008-1.991-1.991a.231.231 0 0 0-.325-.003l-1.01.981a.23.23 0 0 0-.002.33l.69.691h-1.517v-1.322l3.96-3.89a.231.231 0 0 0 .001-.329l-1.882-1.882a.232.232 0 0 0-.327 0l-.993.993a.232.232 0 0 0 0 .327l.706.705-1.465 1.465v-2.802l4.091-4.092h1.049zm-5.14 1.477V7.691h1.503l-1.503 1.477z" fill="#3689ff"/>
    <path serif:id="Line-4" d="M4.617 1.694H1.363v3.197" fill="none" stroke="#8397aa" stroke-width=".49" stroke-linejoin="miter"/>
    <path fill="url(#_Linear1)" d="M1.374 1.737h11.043v21.977H1.374z"/>
    <path serif:id="path-6" fill="none" d="M1.374 1.737h11.043v21.977H1.374z"/>
    <path d="M12.343 1.811v21.977" fill="#fff" stroke="#dfe7eb" stroke-width=".22" stroke-linejoin="miter"/>
    <defs>
        <linearGradient id="_Linear1" x1="0" y1="0" x2="1" y2="0" gradientUnits="userSpaceOnUse" gradientTransform="translate(1.745 12.726) scale(10.2671)">
            <stop offset="0" stop-color="#f7fbfc" stop-opacity="0"/>
            <stop offset="1" stop-color="#ebf5f7" stop-opacity=".898"/>
        </linearGradient>
    </defs>
</svg>
