<svg clip-rule="evenodd" fill-rule="evenodd" height="70" stroke-linejoin="round" stroke-miterlimit="1.414" viewBox="0 0 323 81" width="300" xmlns="http://www.w3.org/2000/svg"><path d="m292.948 23.071h-20.099v47.702h7.153v-40.74h12.958zm6.556 0h4.843v-12.402h6.658v12.402h11.954v6.895h-11.954v30.134c0 2.465 2.767 4.148 4.275 4.148h6.859v6.525h-7.309a10.464 10.464 0 0 1 -7.448-3.126 10.745 10.745 0 0 1 -3.085-7.547v-30.115h-4.831zm-109.664 47.702h32.414v-6.548h-24.891v-25.843a8.46 8.46 0 0 1 2.429-5.942 8.24 8.24 0 0 1 5.865-2.462h8.773v6.875h7.491v-13.782h-18.055a14.13 14.13 0 0 0 -10.088 4.252 14.509 14.509 0 0 0 -4.135 10.247zm-28.023-31.129 9.902-16.573h8.745l-14.036 23.554 15.948 24.148h-8.705l-11.402-17.17-10.233 17.17h-8.924l14.517-24.158-10.043-15.122-4.896-.018.065-8.404h8.117zm77.336 10.745v10.249c0 .903.355 1.769.986 2.406a3.327 3.327 0 0 0 2.377.992c7.381-.022 20.5-.071 20.5-.071v6.808h-23.625c-3.868 0-7.004-3.177-7.004-7.096v-31.688a8.98 8.98 0 0 1 2.578-6.306 8.743 8.743 0 0 1 6.224-2.612h13.614a9.3 9.3 0 0 1 6.62 2.778 9.55 9.55 0 0 1 2.742 6.708v17.832zm0-6.217h18.516v-9.837c0-2.603-2.05-4.713-4.578-4.713h-9.113c-3.017 0-4.825 1.944-4.825 4.713z" fill="#2c2f31"/><path d="m75.469.641c1.89.001 3.424 1.544 3.424 3.445v72.918c0 1.901-1.534 3.445-3.424 3.445h-5.629l-15.351-15.444a1.421 1.421 0 0 0 -2.017 0l-7.232 7.275a1.439 1.439 0 0 0 0 2.03l6.102 6.139h-22.761l30.339-30.523c.003-.002.005-.003.008-.003.004 0 .006.001.009.003a.01.01 0 0 0 .008.004.01.01 0 0 0 .008-.004l8.232-8.281a1.442 1.442 0 0 0 0-2.03l-13.705-13.788a1.42 1.42 0 0 0 -2.017 0l-7.232 7.275a1.442 1.442 0 0 0 0 2.03l4.439 4.466a1.44 1.44 0 0 1 0 2.03l-38.588 38.821h-6.524c-1.89 0-3.424-1.544-3.424-3.445v-72.918c0-1.901 1.534-3.444 3.424-3.445h6.388l14.511 14.598a1.42 1.42 0 0 0 2.018 0l7.231-7.275a1.442 1.442 0 0 0 0-2.03l-5.261-5.293h21.015l-37.715 37.942a1.44 1.44 0 0 0 0 2.03l14.124 14.21c.557.56 1.461.56 2.018 0l7.232-7.275a1.442 1.442 0 0 0 0-2.03l-4.876-4.905a1.442 1.442 0 0 1 0-2.03l37.715-37.942z" fill="#3c8cff"/><path d="m134.523 21.473c0-5.865-5.003-10.62-11.174-10.62h-16.756c-6.171 0-11.174 4.755-11.174 10.62v38.684c0 5.866 5.003 10.621 11.174 10.621h16.756c6.171 0 11.174-4.755 11.174-10.621zm-6.965 12.21-25.173 21.527v4.836c0 2.156 1.839 3.905 4.108 3.905h16.956c2.269 0 4.109-1.749 4.109-3.905zm0-9.747v-2.351c0-2.157-1.84-3.905-4.109-3.905h-16.956c-2.269 0-4.108 1.748-4.108 3.905v23.878z" fill="#2c2f31"/></svg>