<svg width="323" height="81" xmlns="http://www.w3.org/2000/svg" fill-rule="evenodd" clip-rule="evenodd" stroke-linejoin="round" stroke-miterlimit="1.414">
    <path d="M292.948 23.071h-20.099v47.702h7.153v-40.74h12.958l-.012-6.962zm6.556 0h4.843V10.669h6.658v12.402h11.954v6.895h-11.954V60.1c0 2.465 2.767 4.148 4.275 4.148h6.859v6.525h-7.309a10.464 10.464 0 0 1-7.448-3.126 10.745 10.745 0 0 1-3.085-7.547V29.985h-4.831l.038-6.914zM189.84 70.773h32.414v-6.548h-24.891V38.382a8.46 8.46 0 0 1 2.429-5.942 8.24 8.24 0 0 1 5.865-2.462h8.773v6.875h7.491V23.071h-18.055a14.13 14.13 0 0 0-10.088 4.252 14.509 14.509 0 0 0-4.135 10.247l.197 33.203zm-28.023-31.129l9.902-16.573h8.745l-14.036 23.554 15.948 24.148h-8.705l-11.402-17.17-10.233 17.17h-8.924l14.517-24.158-10.043-15.122-4.896-.018.065-8.404h8.117l10.945 16.573zm77.336 10.745v10.249c0 .903.355 1.769.986 2.406a3.327 3.327 0 0 0 2.377.992c7.381-.022 20.5-.071 20.5-.071v6.808h-23.625c-3.868 0-7.004-3.177-7.004-7.096V31.989a8.98 8.98 0 0 1 2.578-6.306 8.743 8.743 0 0 1 6.224-2.612h13.614a9.3 9.3 0 0 1 6.62 2.778 9.55 9.55 0 0 1 2.742 6.708v17.832h-25.012zm0-6.217h18.516v-9.837c0-2.603-2.05-4.713-4.578-4.713h-9.113c-3.017 0-4.825 1.944-4.825 4.713v9.837z" fill="#2c2f31"/>
    <path d="M75.469.641c1.89.001 3.424 1.544 3.424 3.445v72.918c0 1.901-1.534 3.445-3.424 3.445H69.84L54.489 65.005a1.421 1.421 0 0 0-2.017 0L45.24 72.28a1.439 1.439 0 0 0 0 2.03l6.102 6.139H28.581L58.92 49.926c.003-.002.005-.003.008-.003.004 0 .006.001.009.003a.01.01 0 0 0 .008.004.01.01 0 0 0 .008-.004l8.232-8.281a1.442 1.442 0 0 0 0-2.03L53.48 25.827a1.42 1.42 0 0 0-2.017 0l-7.232 7.275a1.442 1.442 0 0 0 0 2.03l4.439 4.466a1.44 1.44 0 0 1 0 2.03L10.082 80.449H3.558c-1.89 0-3.424-1.544-3.424-3.445V4.086C.134 2.185 1.668.642 3.558.641h6.388l14.511 14.598a1.42 1.42 0 0 0 2.018 0l7.231-7.275a1.442 1.442 0 0 0 0-2.03L28.445.641H49.46L11.745 38.583a1.44 1.44 0 0 0 0 2.03l14.124 14.21c.557.56 1.461.56 2.018 0l7.232-7.275a1.442 1.442 0 0 0 0-2.03l-4.876-4.905a1.442 1.442 0 0 1 0-2.03L67.958.641h7.511z" fill="#3c8cff"/>
    <path d="M134.523 21.473c0-5.865-5.003-10.62-11.174-10.62h-16.756c-6.171 0-11.174 4.755-11.174 10.62v38.684c0 5.866 5.003 10.621 11.174 10.621h16.756c6.171 0 11.174-4.755 11.174-10.621V21.473zm-6.965 12.21L102.385 55.21v4.836c0 2.156 1.839 3.905 4.108 3.905h16.956c2.269 0 4.109-1.749 4.109-3.905V33.683zm0-9.747v-2.351c0-2.157-1.84-3.905-4.109-3.905h-16.956c-2.269 0-4.108 1.748-4.108 3.905v23.878l25.173-21.527z" fill="#2c2f31"/>
</svg>
