<svg width="744" height="364" viewBox="0 0 744 364" xmlns="http://www.w3.org/2000/svg" fill-rule="evenodd" clip-rule="evenodd" stroke-linecap="round" stroke-linejoin="round">
    <g fill="none" stroke="#262626" stroke-width=".7">
        <path d="M557.653 126.996l-13.216 11.329 13.216-11.329z"/>
        <path d="M557.653 126.996l-13.216 11.329 13.216-11.329zM557.397 126.611l-13.217-11.33 13.217 11.33z"/>
    </g>
    <g fill="none" stroke="#262626" stroke-width=".7">
        <path d="M557.653 237.987l-13.216 11.329 13.216-11.329zM557.653 237.987l-13.216 11.329 13.216-11.329zM557.397 237.602l-13.217-11.33 13.217 11.33z"/>
    </g>
    <g fill="none" stroke="#262626" stroke-width=".7">
        <path d="M557.653 347.93l-13.216 11.329 13.216-11.329zM557.653 347.93l-13.216 11.329 13.216-11.329zM557.397 347.545l-13.217-11.33 13.217 11.33z"/>
    </g>
    <path d="M502.843 126.906v220.855m54-220.883h-53m53 221.112h-53m53-109.925H429.981" fill="none" stroke="#262626" stroke-width=".7"/>
    <g fill="#262626" fill-rule="nonzero">
        <path d="M633.779 240.654l-.736-2.464h-3.552l-.736 2.464h-2.048l3.664-11.2h1.792l3.664 11.2h-2.048zm-3.776-4.192h2.528l-.992-3.328a8.753 8.753 0 0 1-.272-1.248c-.128.65-.218 1.066-.272 1.248l-.992 3.328zM640.579 240.846c-.906 0-1.64-.27-2.2-.808-.56-.539-.84-1.4-.84-2.584v-4.976h1.84v4.576c0 1.354.56 2.032 1.68 2.032 1.206 0 1.808-.667 1.808-2v-4.608h1.84v8.176h-1.84v-.784c-.522.65-1.285.976-2.288.976zM651.731 240.846c-1.6 0-2.4-.742-2.4-2.224v-4.528h-1.712v-1.616h1.712v-2.496l1.84-.88v3.376h2.784v1.616h-2.784v4.176c0 .629.384.944 1.152.944.448 0 .918-.128 1.408-.384l-.224 1.648c-.469.245-1.061.368-1.776.368zM657.251 240.654V229.95l1.84-.848v4.176c.534-.662 1.307-.992 2.32-.992.896 0 1.624.269 2.184.808.56.538.84 1.394.84 2.568v4.992h-1.84v-4.608c0-.704-.157-1.216-.472-1.536-.314-.32-.722-.48-1.224-.48-.533 0-.968.154-1.304.464-.336.309-.504.816-.504 1.52v4.64h-1.84zM674.419 236.158c0 .469-.021.842-.064 1.12h-5.568c.118.597.355 1.069.712 1.416.358.346.819.52 1.384.52a2.36 2.36 0 0 0 1.808-.8l1.104 1.168c-.768.842-1.744 1.264-2.928 1.264-1.205 0-2.157-.39-2.856-1.168-.698-.779-1.048-1.819-1.048-3.12 0-1.323.352-2.366 1.056-3.128.704-.763 1.654-1.144 2.848-1.144 1.046 0 1.899.328 2.56.984.662.656.992 1.618.992 2.888zm-5.648-.448h3.84c-.053-.598-.242-1.048-.568-1.352a1.66 1.66 0 0 0-1.176-.456c-.586 0-1.058.16-1.416.48-.357.32-.584.762-.68 1.328zM681.123 232.286c.896 0 1.624.269 2.184.808.56.538.84 1.394.84 2.568v4.992h-1.84v-4.608c0-.704-.154-1.216-.464-1.536-.309-.32-.72-.48-1.232-.48-1.205 0-1.808.661-1.808 1.984v4.64h-1.84v-8.176h1.696v1.008c.16-.32.472-.6.936-.84.464-.24.974-.36 1.528-.36zM691.155 240.846c-1.6 0-2.4-.742-2.4-2.224v-4.528h-1.712v-1.616h1.712v-2.496l1.84-.88v3.376h2.784v1.616h-2.784v4.176c0 .629.384.944 1.152.944.448 0 .918-.128 1.408-.384l-.224 1.648c-.469.245-1.061.368-1.776.368zM700.323 231.342a1.05 1.05 0 0 1-.768-.32 1.069 1.069 0 0 1-.32-.784c0-.31.107-.568.32-.776.214-.208.47-.312.768-.312.31 0 .571.104.784.312.214.208.32.466.32.776 0 .309-.106.57-.32.784-.213.213-.474.32-.784.32zm.928 7.696h2.256v1.616h-6.352v-1.616h2.256v-4.944h-2.256v-1.616h4.096v6.56zM710.275 240.846c-1.152 0-2.064-.379-2.736-1.136-.672-.758-1.008-1.803-1.008-3.136 0-1.323.344-2.368 1.032-3.136.688-.768 1.603-1.152 2.744-1.152 1.739 0 2.859.741 3.36 2.224l-1.744.592c-.277-.715-.81-1.072-1.6-1.072-.608 0-1.08.229-1.416.688-.336.458-.504 1.077-.504 1.856 0 .778.168 1.392.504 1.84.336.448.798.672 1.384.672.854 0 1.414-.4 1.68-1.2l1.744.544c-.49 1.61-1.637 2.416-3.44 2.416zM720.035 231.342a1.05 1.05 0 0 1-.768-.32 1.069 1.069 0 0 1-.32-.784c0-.31.107-.568.32-.776.214-.208.47-.312.768-.312.31 0 .571.104.784.312.214.208.32.466.32.776 0 .309-.106.57-.32.784-.213.213-.474.32-.784.32zm.928 7.696h2.256v1.616h-6.352v-1.616h2.256v-4.944h-2.256v-1.616h4.096v6.56zM730.579 240.846c-1.6 0-2.4-.742-2.4-2.224v-4.528h-1.712v-1.616h1.712v-2.496l1.84-.88v3.376h2.784v1.616h-2.784v4.176c0 .629.384.944 1.152.944.448 0 .918-.128 1.408-.384l-.224 1.648c-.469.245-1.061.368-1.776.368zM737.491 243.758l1.248-3.248-3.056-8.032h1.872l1.872 4.992c.086.213.166.469.24.768.022-.075.048-.158.08-.248a9.71 9.71 0 0 0 .096-.288c.032-.102.059-.179.08-.232l1.872-4.992h1.888l-4.288 11.28h-1.904z"/>
    </g>
    <g fill="#262626" fill-rule="nonzero">
        <path d="M632.92 350.056c-.96 0-1.768-.28-2.424-.84a4.601 4.601 0 0 1-1.4-2.104c-.278-.843-.416-1.792-.416-2.848 0-1.056.138-2.006.416-2.848a4.596 4.596 0 0 1 1.4-2.104c.656-.56 1.464-.84 2.424-.84.586 0 1.12.104 1.6.312.48.208.882.493 1.208.856.325.362.597.792.816 1.288.218.496.378 1.021.48 1.576.101.554.152 1.141.152 1.76 0 .618-.051 1.205-.152 1.76a7.099 7.099 0 0 1-.48 1.576 4.848 4.848 0 0 1-.816 1.288 3.442 3.442 0 0 1-1.208.856 3.985 3.985 0 0 1-1.6.312zm0-1.808c.501 0 .928-.198 1.28-.592.352-.395.605-.883.76-1.464a7.525 7.525 0 0 0 .232-1.928c0-1.152-.19-2.104-.568-2.856-.379-.752-.947-1.128-1.704-1.128-.747 0-1.312.386-1.696 1.16-.384.773-.576 1.714-.576 2.824 0 1.141.189 2.09.568 2.848.378.757.946 1.136 1.704 1.136zM640.184 349.864l-2.096-8.176h1.664l1.04 4.208c.074.32.128.586.16.8.064-.384.112-.656.144-.816l.976-4.192h1.408l.976 4.208c.053.17.106.442.16.816.032-.224.085-.496.16-.816l1.008-4.208h1.68l-2.112 8.176h-1.408l-.944-4.096a16.79 16.79 0 0 1-.224-1.12 10.12 10.12 0 0 1-.136.648c-.07.293-.11.45-.12.472l-.896 4.096h-1.44zM653.208 341.496c.896 0 1.624.269 2.184.808.56.538.84 1.394.84 2.568v4.992h-1.84v-4.608c0-.704-.155-1.216-.464-1.536-.31-.32-.72-.48-1.232-.48-1.206 0-1.808.661-1.808 1.984v4.64h-1.84v-8.176h1.696v1.008c.16-.32.472-.6.936-.84.464-.24.973-.36 1.528-.36zM666.216 345.368c0 .469-.022.842-.064 1.12h-5.568c.117.597.354 1.069.712 1.416.357.346.818.52 1.384.52.714 0 1.317-.267 1.808-.8l1.104 1.168c-.768.842-1.744 1.264-2.928 1.264-1.206 0-2.158-.39-2.856-1.168-.699-.779-1.048-1.819-1.048-3.12 0-1.323.352-2.366 1.056-3.128.704-.763 1.653-1.144 2.848-1.144 1.045 0 1.898.328 2.56.984.661.656.992 1.618.992 2.888zm-5.648-.448h3.84c-.054-.598-.243-1.048-.568-1.352a1.663 1.663 0 0 0-1.176-.456c-.587 0-1.059.16-1.416.48-.358.32-.584.762-.68 1.328zM674.472 341.496c.736 0 1.376.144 1.92.432v3.024H674.6v-1.744h-.16c-.843 0-1.494.197-1.952.592-.459.394-.688.986-.688 1.776v2.672h2.288v1.616h-5.856v-1.616h1.728v-4.944h-1.728v-1.616h3.44V343c.224-.47.592-.838 1.104-1.104a3.61 3.61 0 0 1 1.696-.4zM682.248 350.056a4.666 4.666 0 0 1-1.92-.392c-.587-.262-1.056-.616-1.408-1.064l1.2-1.088c.672.65 1.413.976 2.224.976.394 0 .72-.07.976-.208.256-.139.384-.347.384-.624 0-.16-.078-.312-.232-.456a2.116 2.116 0 0 0-.536-.36 18.842 18.842 0 0 0-.896-.384 1.14 1.14 0 0 0-.104-.048l-.104-.04c-.043-.016-.08-.03-.112-.04a34.887 34.887 0 0 1-.88-.392 7.98 7.98 0 0 1-.696-.384c-.272-.166-.47-.323-.592-.472a2.283 2.283 0 0 1-.328-.568 1.995 1.995 0 0 1-.144-.776c0-.694.298-1.24.896-1.64.597-.4 1.349-.6 2.256-.6 1.269 0 2.288.432 3.056 1.296l-1.232 1.008c-.587-.491-1.216-.736-1.888-.736-.416 0-.75.061-1 .184-.251.122-.376.296-.376.52 0 .106.042.21.128.312.085.101.234.208.448.32.213.112.389.197.528.256.138.058.373.152.704.28.981.394 1.632.714 1.952.96.565.448.853 1.029.864 1.744 0 .757-.286 1.349-.856 1.776-.571.426-1.342.64-2.312.64zM688.472 349.864V339.16l1.84-.848v4.176c.533-.662 1.306-.992 2.32-.992.896 0 1.624.269 2.184.808.56.538.84 1.394.84 2.568v4.992h-1.84v-4.608c0-.704-.158-1.216-.472-1.536-.315-.32-.723-.48-1.224-.48-.534 0-.968.154-1.304.464-.336.309-.504.816-.504 1.52v4.64h-1.84zM701.976 340.552c-.299 0-.555-.107-.768-.32a1.065 1.065 0 0 1-.32-.784c0-.31.106-.568.32-.776a1.06 1.06 0 0 1 .768-.312c.309 0 .57.104.784.312.213.208.32.466.32.776 0 .309-.107.57-.32.784-.214.213-.475.32-.784.32zm.928 7.696h2.256v1.616h-6.352v-1.616h2.256v-4.944h-2.256v-1.616h4.096v6.56zM708.248 353.08v-11.392h1.84v.624c.501-.544 1.168-.816 2-.816 1.098 0 1.97.378 2.616 1.136.645.757.968 1.808.968 3.152 0 1.312-.334 2.352-1 3.12-.667.768-1.523 1.152-2.568 1.152-.854 0-1.526-.283-2.016-.848v3.024l-1.84.848zm3.584-4.784c.629 0 1.117-.216 1.464-.648.346-.432.52-1.054.52-1.864 0-.779-.174-1.398-.52-1.856-.347-.459-.84-.688-1.48-.688-.768 0-1.344.272-1.728.816v3.424c.384.544.965.816 1.744.816z"/>
    </g>
    <g fill="#262626" fill-rule="nonzero">
        <path d="M45.045 325.228v-11.2h2.816c.725 0 1.381.107 1.968.32.587.214 1.075.496 1.464.848s.715.771.976 1.256c.261.486.451.992.568 1.52.117.528.176 1.08.176 1.656a7.64 7.64 0 0 1-.16 1.568 5.936 5.936 0 0 1-.544 1.512 4.796 4.796 0 0 1-.968 1.296c-.389.368-.888.664-1.496.888-.608.224-1.291.336-2.048.336h-2.752zm1.904-1.792h1.04c.544 0 1.021-.112 1.432-.336.411-.224.728-.525.952-.904a4.49 4.49 0 0 0 .496-1.216 5.6 5.6 0 0 0 .16-1.352c0-1.045-.24-1.941-.72-2.688-.48-.746-1.195-1.12-2.144-1.12h-1.216v7.616zM58.677 315.916c-.299 0-.555-.106-.768-.32a1.066 1.066 0 0 1-.32-.784c0-.309.107-.568.32-.776a1.06 1.06 0 0 1 .768-.312c.309 0 .571.104.784.312.213.208.32.467.32.776 0 .31-.107.571-.32.784-.213.214-.475.32-.784.32zm.928 7.696h2.256v1.616h-6.352v-1.616h2.256v-4.944h-2.256v-1.616h4.096v6.56zM67.989 328.476l-.992-1.504c1.141-.085 1.928-.261 2.36-.528.432-.266.648-.698.648-1.296v-.48c-.437.502-1.072.752-1.904.752-1.003 0-1.819-.37-2.448-1.112-.629-.741-.944-1.8-.944-3.176 0-1.312.315-2.352.944-3.12.629-.768 1.456-1.152 2.48-1.152.779 0 1.403.235 1.872.704v-.512h1.84v7.312c0 1.398-.291 2.408-.872 3.032-.581.624-1.576.984-2.984 1.08zm.432-4.816c.693 0 1.221-.277 1.584-.832v-3.408c-.384-.544-.912-.816-1.584-.816-.608 0-1.072.216-1.392.648-.32.432-.48 1.059-.48 1.88 0 .779.163 1.395.488 1.848.325.454.787.68 1.384.68zM78.389 315.916c-.299 0-.555-.106-.768-.32a1.066 1.066 0 0 1-.32-.784c0-.309.107-.568.32-.776a1.06 1.06 0 0 1 .768-.312c.309 0 .571.104.784.312.213.208.32.467.32.776 0 .31-.107.571-.32.784-.213.214-.475.32-.784.32zm.928 7.696h2.256v1.616h-6.352v-1.616h2.256v-4.944h-2.256v-1.616h4.096v6.56zM88.933 325.42c-1.6 0-2.4-.741-2.4-2.224v-4.528h-1.712v-1.616h1.712v-2.496l1.84-.88v3.376h2.784v1.616h-2.784v4.176c0 .63.384.944 1.152.944.448 0 .917-.128 1.408-.384l-.224 1.648c-.469.246-1.061.368-1.776.368zM97.413 325.42c-.896 0-1.624-.234-2.184-.704-.56-.469-.84-1.141-.84-2.016 0-.885.32-1.557.96-2.016.64-.458 1.408-.688 2.304-.688.779 0 1.456.144 2.032.432v-.48c0-.981-.539-1.472-1.616-1.472-.896 0-1.76.278-2.592.832l-.56-1.504c.992-.629 2.096-.944 3.312-.944 2.165 0 3.248 1.024 3.248 3.072v5.296h-1.792v-.64c-.576.555-1.333.832-2.272.832zm.336-1.616c.768 0 1.413-.272 1.936-.816v-1.056c-.491-.245-1.072-.368-1.744-.368-.512 0-.936.096-1.272.288-.336.192-.504.475-.504.848 0 .331.139.598.416.8.277.203.667.304 1.168.304zM108.805 323.612h2.384v1.616h-6.608v-1.616h2.384v-8.32h-1.904l-.848-1.616h4.592v9.936zM127.765 325.42c-1.152 0-2.064-.378-2.736-1.136-.672-.757-1.008-1.802-1.008-3.136 0-1.322.344-2.368 1.032-3.136.688-.768 1.603-1.152 2.744-1.152 1.739 0 2.859.742 3.36 2.224l-1.744.592c-.277-.714-.811-1.072-1.6-1.072-.608 0-1.08.23-1.416.688-.336.459-.504 1.078-.504 1.856 0 .779.168 1.392.504 1.84.336.448.797.672 1.384.672.853 0 1.413-.4 1.68-1.2l1.744.544c-.491 1.611-1.637 2.416-3.44 2.416zM139.589 316.86c.736 0 1.376.144 1.92.432v3.024h-1.792v-1.744h-.16c-.843 0-1.493.198-1.952.592-.459.395-.688.987-.688 1.776v2.672h2.288v1.616h-5.856v-1.616h1.728v-4.944h-1.728v-1.616h3.44v1.312c.224-.469.592-.837 1.104-1.104a3.623 3.623 0 0 1 1.696-.4zM145.125 328.332l1.248-3.248-3.056-8.032h1.872l1.872 4.992c.085.214.165.47.24.768.021-.074.048-.157.08-.248a8.09 8.09 0 0 0 .096-.288c.032-.101.059-.178.08-.232l1.872-4.992h1.888l-4.288 11.28h-1.904zM153.653 328.444v-11.392h1.84v.624c.501-.544 1.168-.816 2-.816 1.099 0 1.971.379 2.616 1.136.645.758.968 1.808.968 3.152 0 1.312-.333 2.352-1 3.12-.667.768-1.523 1.152-2.568 1.152-.853 0-1.525-.282-2.016-.848v3.024l-1.84.848zm3.584-4.784c.629 0 1.117-.216 1.464-.648.347-.432.52-1.053.52-1.864 0-.778-.173-1.397-.52-1.856-.347-.458-.84-.688-1.48-.688-.768 0-1.344.272-1.728.816v3.424c.384.544.965.816 1.744.816zM167.781 325.42c-1.6 0-2.4-.741-2.4-2.224v-4.528h-1.712v-1.616h1.712v-2.496l1.84-.88v3.376h2.784v1.616h-2.784v4.176c0 .63.384.944 1.152.944.448 0 .917-.128 1.408-.384l-.224 1.648c-.469.246-1.061.368-1.776.368zM176.885 325.42c-1.205 0-2.16-.381-2.864-1.144-.704-.762-1.056-1.805-1.056-3.128 0-1.312.352-2.354 1.056-3.128.704-.773 1.659-1.16 2.864-1.16 1.216 0 2.173.387 2.872 1.16.699.774 1.048 1.816 1.048 3.128s-.349 2.352-1.048 3.12c-.699.768-1.656 1.152-2.872 1.152zm0-1.76c.661 0 1.171-.224 1.528-.672.357-.448.536-1.061.536-1.84 0-.778-.179-1.397-.536-1.856-.357-.458-.867-.688-1.528-.688-.651 0-1.157.23-1.52.688-.363.459-.544 1.078-.544 1.856 0 .768.181 1.379.544 1.832.363.454.869.68 1.52.68zM186.261 328.476l-.992-1.504c1.141-.085 1.928-.261 2.36-.528.432-.266.648-.698.648-1.296v-.48c-.437.502-1.072.752-1.904.752-1.003 0-1.819-.37-2.448-1.112-.629-.741-.944-1.8-.944-3.176 0-1.312.315-2.352.944-3.12.629-.768 1.456-1.152 2.48-1.152.779 0 1.403.235 1.872.704v-.512h1.84v7.312c0 1.398-.291 2.408-.872 3.032-.581.624-1.576.984-2.984 1.08zm.432-4.816c.693 0 1.221-.277 1.584-.832v-3.408c-.384-.544-.912-.816-1.584-.816-.608 0-1.072.216-1.392.648-.32.432-.48 1.059-.48 1.88 0 .779.163 1.395.488 1.848.325.454.787.68 1.384.68zM198.725 316.86c.736 0 1.376.144 1.92.432v3.024h-1.792v-1.744h-.16c-.843 0-1.493.198-1.952.592-.459.395-.688.987-.688 1.776v2.672h2.288v1.616h-5.856v-1.616h1.728v-4.944h-1.728v-1.616h3.44v1.312c.224-.469.592-.837 1.104-1.104a3.623 3.623 0 0 1 1.696-.4zM205.829 325.42c-.896 0-1.624-.234-2.184-.704-.56-.469-.84-1.141-.84-2.016 0-.885.32-1.557.96-2.016.64-.458 1.408-.688 2.304-.688.779 0 1.456.144 2.032.432v-.48c0-.981-.539-1.472-1.616-1.472-.896 0-1.76.278-2.592.832l-.56-1.504c.992-.629 2.096-.944 3.312-.944 2.165 0 3.248 1.024 3.248 3.072v5.296h-1.792v-.64c-.576.555-1.333.832-2.272.832zm.336-1.616c.768 0 1.413-.272 1.936-.816v-1.056c-.491-.245-1.072-.368-1.744-.368-.512 0-.936.096-1.272.288-.336.192-.504.475-.504.848 0 .331.139.598.416.8.277.203.667.304 1.168.304zM212.789 328.444v-11.392h1.84v.624c.501-.544 1.168-.816 2-.816 1.099 0 1.971.379 2.616 1.136.645.758.968 1.808.968 3.152 0 1.312-.333 2.352-1 3.12-.667.768-1.523 1.152-2.568 1.152-.853 0-1.525-.282-2.016-.848v3.024l-1.84.848zm3.584-4.784c.629 0 1.117-.216 1.464-.648.347-.432.52-1.053.52-1.864 0-.778-.173-1.397-.52-1.856-.347-.458-.84-.688-1.48-.688-.768 0-1.344.272-1.728.816v3.424c.384.544.965.816 1.744.816zM222.581 325.228v-10.704l1.84-.848v4.176c.533-.661 1.307-.992 2.32-.992.896 0 1.624.27 2.184.808.56.539.84 1.395.84 2.568v4.992h-1.84v-4.608c0-.704-.157-1.216-.472-1.536-.315-.32-.723-.48-1.224-.48-.533 0-.968.155-1.304.464-.336.31-.504.816-.504 1.52v4.64h-1.84zM236.085 315.916c-.299 0-.555-.106-.768-.32a1.066 1.066 0 0 1-.32-.784c0-.309.107-.568.32-.776a1.06 1.06 0 0 1 .768-.312c.309 0 .571.104.784.312.213.208.32.467.32.776 0 .31-.107.571-.32.784-.213.214-.475.32-.784.32zm.928 7.696h2.256v1.616h-6.352v-1.616h2.256v-4.944h-2.256v-1.616h4.096v6.56zM246.037 325.42c-1.152 0-2.064-.378-2.736-1.136-.672-.757-1.008-1.802-1.008-3.136 0-1.322.344-2.368 1.032-3.136.688-.768 1.603-1.152 2.744-1.152 1.739 0 2.859.742 3.36 2.224l-1.744.592c-.277-.714-.811-1.072-1.6-1.072-.608 0-1.08.23-1.416.688-.336.459-.504 1.078-.504 1.856 0 .779.168 1.392.504 1.84.336.448.797.672 1.384.672.853 0 1.413-.4 1.68-1.2l1.744.544c-.491 1.611-1.637 2.416-3.44 2.416zM117.813 339.916c-.299 0-.555-.106-.768-.32a1.066 1.066 0 0 1-.32-.784c0-.309.107-.568.32-.776a1.06 1.06 0 0 1 .768-.312c.309 0 .571.104.784.312.213.208.32.467.32.776 0 .31-.107.571-.32.784-.213.214-.475.32-.784.32zm.928 7.696h2.256v1.616h-6.352v-1.616h2.256v-4.944h-2.256v-1.616h4.096v6.56zM129.829 340.86c.683 0 1.187.238 1.512.712.325.475.488 1.272.488 2.392v5.264h-1.68v-4.992c0-.576-.053-.989-.16-1.24-.107-.25-.304-.376-.592-.376-.277 0-.499.144-.664.432-.165.288-.248.688-.248 1.2v4.976h-1.68v-5.04c0-1.045-.256-1.568-.768-1.568-.299 0-.536.144-.712.432-.176.288-.264.688-.264 1.2v4.976h-1.68v-8.176h1.568v1.088c.299-.853.837-1.28 1.616-1.28.341 0 .643.118.904.352.261.235.445.512.552.832.491-.789 1.093-1.184 1.808-1.184zM133.941 352.444v-11.392h1.84v.624c.501-.544 1.168-.816 2-.816 1.099 0 1.971.379 2.616 1.136.645.758.968 1.808.968 3.152 0 1.312-.333 2.352-1 3.12-.667.768-1.523 1.152-2.568 1.152-.853 0-1.525-.282-2.016-.848v3.024l-1.84.848zm3.584-4.784c.629 0 1.117-.216 1.464-.648.347-.432.52-1.053.52-1.864 0-.778-.173-1.397-.52-1.856-.347-.458-.84-.688-1.48-.688-.768 0-1.344.272-1.728.816v3.424c.384.544.965.816 1.744.816zM149.445 340.86c.736 0 1.376.144 1.92.432v3.024h-1.792v-1.744h-.16c-.843 0-1.493.198-1.952.592-.459.395-.688.987-.688 1.776v2.672h2.288v1.616h-5.856v-1.616h1.728v-4.944h-1.728v-1.616h3.44v1.312c.224-.469.592-.837 1.104-1.104a3.623 3.623 0 0 1 1.696-.4zM157.237 339.916c-.299 0-.555-.106-.768-.32a1.066 1.066 0 0 1-.32-.784c0-.309.107-.568.32-.776a1.06 1.06 0 0 1 .768-.312c.309 0 .571.104.784.312.213.208.32.467.32.776 0 .31-.107.571-.32.784-.213.214-.475.32-.784.32zm.928 7.696h2.256v1.616h-6.352v-1.616h2.256v-4.944h-2.256v-1.616h4.096v6.56zM167.605 340.86c.896 0 1.624.27 2.184.808.56.539.84 1.395.84 2.568v4.992h-1.84v-4.608c0-.704-.155-1.216-.464-1.536-.309-.32-.72-.48-1.232-.48-1.205 0-1.808.662-1.808 1.984v4.64h-1.84v-8.176h1.696v1.008c.16-.32.472-.6.936-.84.464-.24.973-.36 1.528-.36zM177.637 349.42c-1.6 0-2.4-.741-2.4-2.224v-4.528h-1.712v-1.616h1.712v-2.496l1.84-.88v3.376h2.784v1.616h-2.784v4.176c0 .63.384.944 1.152.944.448 0 .917-.128 1.408-.384l-.224 1.648c-.469.246-1.061.368-1.776.368z"/>
    </g>
    <path d="M84.615 255.548l50.47 29.328a17.3 17.3 0 0 0 17.28.05l51.054-29.28a1.728 1.728 0 0 0-.004-3l-51.409-29.297a17.297 17.297 0 0 0-17.236.072L84.615 252.56a1.728 1.728 0 0 0 0 2.988z" fill="none" stroke="#262626" stroke-width=".7"/>
    <path d="M144.074 237.488c.505-.336.505-.84 0-1.01-.505-.336-1.346-.336-1.85 0-.505.337-.505.674 0 1.01.504.169 1.345.169 1.85 0z" fill="#f7f7f7" stroke="#262626" stroke-width=".7"/>
    <path d="M88.695 253.274c-.505.336-.505.673 0 1.01.505.336 1.346.336 1.851 0 .505-.337.505-.842 0-1.01-.505-.337-1.346-.337-1.85 0h-.001zm51.846-45.457l-55.529 32.14c-1.514.84-1.514 2.187 0 3.196l55.529 32.14c1.514.84 3.87.84 5.384 0l7.067-4.039c-1.177-.673-1.177-1.85 0-2.524 1.178-.673 3.03-.673 4.207 0l44.254-25.577c1.515-.84 1.515-2.187 0-3.197l-55.528-32.139c-1.514-.841-4.038-.841-5.384 0z" fill="#e6e5e5" stroke="#262626" stroke-width=".7"/>
    <path d="M143.232 270.684c-.84 0-1.85-1.169-2.523-1.505l-55.528-32.14c-.505-.336-.842-.672-.842-1.177 0-.337.337-.841.842-1.178l55.528-32.139c.673-.337 1.514-.505 2.524-.505.841 0 1.85.168 2.524.505l55.528 32.139c.505.337.841.673.841 1.178 0 .336-.336.841-.84 1.178l-43.919 25.408a4.653 4.653 0 0 0-2.187-.505c-.841 0-1.683.169-2.356.505-.673.505-1.178 1.01-1.178 1.683 0 .505.169.841.505 1.178l-6.394 3.701c-.841.505-1.683 1.674-2.524 1.674h-.001z" fill="#fff" fill-rule="nonzero" stroke="#262626" stroke-width=".7"/>
    <path d="M89.695 235.357c-.505.337-.505.673 0 1.01.505.336 1.346.336 1.851 0 .505-.337.505-.842 0-1.01-.505-.336-1.346-.336-1.85 0h-.001zm0 6.17c-.505.336-.505.673 0 1.01.505.336 1.346.336 1.851 0 .505-.337.505-.842 0-1.01-.505-.337-1.346-.337-1.85 0h-.001zm108.108-.435c-.505.337-.505.673 0 1.01.505.336 1.346.336 1.851 0 .505-.337.505-.842 0-1.01-.505-.336-1.346-.336-1.85 0h-.001zm-43.871 28.606c-.505.336-.505.673 0 1.01.505.336 1.346.336 1.85 0 .506-.337.506-.842 0-1.01-.504-.337-1.345-.337-1.85 0zm0-5.609c-.505.336-.505.673 0 1.01.505.336 1.346.336 1.85 0 .506-.337.506-.842 0-1.01-.504-.337-1.345-.337-1.85 0zm44.941-10.815c-.505.336-.505.673 0 1.01.505.336 1.346.336 1.851 0 .505-.337.505-.842 0-1.01-.505-.337-1.346-.337-1.85 0h-.001z" fill="none" stroke="#262626" stroke-width=".7"/>
    <path d="M202.014 234.347l-6.394-3.701v10.432l6.394-3.702c1.515-.841 1.515-2.187 0-3.029z" fill="#fff" stroke="#262626" stroke-width=".7"/>
    <path d="M110.725 236.196l31.48 18.292a3.46 3.46 0 0 0 3.455.01l31.807-18.242a1.728 1.728 0 0 0-.004-3l-32.005-18.239a3.458 3.458 0 0 0-3.447.014l-31.286 18.176a1.729 1.729 0 0 0 0 2.989z" fill="#0971ff" stroke="#262626" stroke-width=".7" stroke-linecap="butt" stroke-linejoin="miter"/>
    <path d="M158.113 232.781l-15.105-.083c-.265 0-.483.111-.489.249l-.04.833c-.007.138-.225.25-.49.25l-2.897-.017c-.266 0-.475-.117-.468-.255l.133-2.89c.009-.14.23-.252.496-.25l15.174.155-3.902-2.125-.044.966c-.007.14-.23.253-.498.25l-2.906-.038c-.261-.004-.466-.117-.459-.255l.14-2.976-1.482-.805a1.348 1.348 0 0 0-1.117-.007l-15.054 7.646c-.316.161-.328.424-.028.589l1.407.766 15.285.083c.266 0 .484-.11.491-.25l.04-.83c.005-.14.224-.25.489-.25l2.897.016c.267 0 .475.117.468.255l-.135 2.891c-.006.139-.228.249-.494.249l-15.355-.156 4.079 2.221.049-1.061c.006-.141.23-.253.496-.249l2.905.038c.262.003.467.116.46.255l-.142 3.058 1.392.769c.3.164.803.167 1.119.007l15.052-7.647c.316-.16.328-.425.028-.588" fill="#fff"/>
    <g fill="#2c2f31" fill-rule="nonzero">
        <path d="M125.621 11.78l-.736-2.464h-3.552l-.736 2.464h-2.048l3.664-11.2h1.792l3.664 11.2h-2.048zm-3.776-4.192h2.528l-.992-3.328a8.692 8.692 0 0 1-.272-1.248c-.128.651-.218 1.067-.272 1.248l-.992 3.328zM133.013 11.972c-.693 0-1.333-.13-1.92-.392-.586-.261-1.056-.616-1.408-1.064l1.2-1.088c.672.651 1.414.976 2.224.976.395 0 .72-.069.976-.208.256-.138.384-.346.384-.624 0-.16-.077-.312-.232-.456a2.081 2.081 0 0 0-.536-.36 17.97 17.97 0 0 0-.896-.384 1.545 1.545 0 0 0-.104-.048l-.104-.04-.112-.04c-.394-.17-.688-.301-.88-.392a7.479 7.479 0 0 1-.696-.384c-.272-.165-.469-.322-.592-.472a2.278 2.278 0 0 1-.328-.568 1.991 1.991 0 0 1-.144-.776c0-.693.299-1.24.896-1.64.598-.4 1.35-.6 2.256-.6 1.27 0 2.288.432 3.056 1.296l-1.232 1.008c-.586-.49-1.216-.736-1.888-.736-.416 0-.749.062-1 .184-.25.123-.376.296-.376.52 0 .107.043.211.128.312.086.102.235.208.448.32.214.112.39.198.528.256.139.059.374.152.704.28.982.395 1.632.715 1.952.96.566.448.854 1.03.864 1.744 0 .758-.285 1.35-.856 1.776-.57.427-1.341.64-2.312.64zM142.869 11.972c-.693 0-1.333-.13-1.92-.392-.586-.261-1.056-.616-1.408-1.064l1.2-1.088c.672.651 1.414.976 2.224.976.395 0 .72-.069.976-.208.256-.138.384-.346.384-.624 0-.16-.077-.312-.232-.456a2.081 2.081 0 0 0-.536-.36 17.97 17.97 0 0 0-.896-.384 1.545 1.545 0 0 0-.104-.048l-.104-.04-.112-.04c-.394-.17-.688-.301-.88-.392a7.479 7.479 0 0 1-.696-.384c-.272-.165-.469-.322-.592-.472a2.278 2.278 0 0 1-.328-.568 1.991 1.991 0 0 1-.144-.776c0-.693.299-1.24.896-1.64.598-.4 1.35-.6 2.256-.6 1.27 0 2.288.432 3.056 1.296l-1.232 1.008c-.586-.49-1.216-.736-1.888-.736-.416 0-.749.062-1 .184-.25.123-.376.296-.376.52 0 .107.043.211.128.312.086.102.235.208.448.32.214.112.39.198.528.256.139.059.374.152.704.28.982.395 1.632.715 1.952.96.566.448.854 1.03.864 1.744 0 .758-.285 1.35-.856 1.776-.57.427-1.341.64-2.312.64zM156.405 7.284c0 .47-.021.843-.064 1.12h-5.568c.118.598.355 1.07.712 1.416.358.347.819.52 1.384.52.715 0 1.318-.266 1.808-.8l1.104 1.168c-.768.843-1.744 1.264-2.928 1.264-1.205 0-2.157-.389-2.856-1.168-.698-.778-1.048-1.818-1.048-3.12 0-1.322.352-2.365 1.056-3.128.704-.762 1.654-1.144 2.848-1.144 1.046 0 1.899.328 2.56.984.662.656.992 1.619.992 2.888zm-5.648-.448h3.84c-.053-.597-.242-1.048-.568-1.352a1.66 1.66 0 0 0-1.176-.456c-.586 0-1.058.16-1.416.48-.357.32-.584.763-.68 1.328zM163.285 11.972c-1.6 0-2.4-.741-2.4-2.224V5.22h-1.712V3.604h1.712V1.108l1.84-.88v3.376h2.784V5.22h-2.784v4.176c0 .63.384.944 1.152.944.448 0 .918-.128 1.408-.384l-.224 1.648c-.469.246-1.061.368-1.776.368z"/>
    </g>
    <path d="M125.946 42.785l-2.967 1.715-11.364 6.571a4.046 4.046 0 0 0-2.025 3.511l-.009 31.881c0 1.372.697 2.653 1.837 3.384.094.081 28.048 16.21 28.155 16.271.388.26 1.227.543 2.063.543 1.517-.019-.419.861 29.966-16.687a4.044 4.044 0 0 0 2.027-3.511c0-34.111.034-31.988-.072-32.571a4.047 4.047 0 0 0-1.966-2.766l-11.532-6.648-6.34-3.654-9.713-5.599a5.005 5.005 0 0 0-4.984 0l-.995.598" fill="#fff" fill-rule="nonzero" stroke="#262626" stroke-width=".7"/>
    <path d="M173.629 54.645v31.819a4.045 4.045 0 0 1-2.027 3.511l-10.197 5.887-6.382 3.686-11.38 6.571a4.171 4.171 0 0 1-2.007.543l.036-33.377v-.009c0-1.565.832-3.001 2.19-3.78l11.161-6.441 6.382-3.685 10.431-6.018a1.221 1.221 0 0 1 1.721.541c.045.244.072.497.072.752z" fill="#fff" fill-rule="nonzero" stroke="#262626" stroke-width=".7"/>
    <path d="M135.303 67.071l4.181 2.417a4.375 4.375 0 0 1 2.187 3.789v.009l-.036 33.375c-.65 0-1.302-.143-1.889-.461l-11.637-6.719-6.304-3.637-10.388-5.996a4.016 4.016 0 0 1-1.801-2.851v-32.65c0-.943 1.014-1.519 1.827-1.059l10.362 5.985 6.304 3.643 2.317 1.338 4.877 2.817z" fill="#e7fff0" fill-rule="nonzero" stroke="#262626" stroke-width=".7"/>
    <path d="M160.059 44.478l-6.339-3.654-31.935 18.438.019.012v36.571l6.305 3.637V62.916l.008.004 31.942-18.442z" fill="#41ff8b" fill-rule="nonzero" stroke="#262626" stroke-width=".7"/>
    <path d="M155.07 63.027l-.047.027v36.494l6.382-3.686V59.371l-.001.001-13.45-7.889-6.347 3.542 13.463 8.002z" fill="#41ff8b" fill-rule="nonzero" stroke="#262626" stroke-width=".7"/>
    <path d="M154.128 57.082c-.77.443-2.815.659-7.826-2.914-1.564-1.109-3.629-2.434-4.761-3.251 4.154-2.664 9.158-5.107 12.657 1.374 1.054 1.958 1.026 3.334.559 4.139a1.704 1.704 0 0 1-.629.652M129.28 37.169c5.384 2.013 10.207 14.31 10.207 14.31.974.734 3.132 2.387 4.105 3.067.547.38 1.089.758 1.632 1.143 3.287 2.343 5.885 3.502 7.861 3.502.745 0 1.403-.163 1.975-.494.017-.01.032-.025.049-.035l4.271-2.181c1.653-.957 2.846-3.438.778-7.284-1.404-2.61-3.134-4.19-5.151-4.684-2.84-.704-4.91.496-7.791 1.957-.611.282-1.725 1.038-1.725 1.038a232.502 232.502 0 0 0-3.625-6.038c-.239-.391-.477-.781-.711-1.171-.925-1.533-1.876-3.118-3.129-4.475-1.159-1.265-2.908-1.744-4.346-1.19-.066.025-.126.057-.191.082l-.083.042c-.04.019-.081.04-.119.061l-4.007 2.35" fill="#41ff8b" fill-rule="nonzero" stroke="#262626" stroke-width=".7" stroke-linecap="butt" stroke-miterlimit="1.414"/>
    <path d="M154.128 57.082c-.77.443-2.815.659-7.826-2.914-1.564-1.109-3.629-2.434-4.761-3.251 4.154-2.664 9.158-5.107 12.657 1.374 1.054 1.958 1.026 3.334.559 4.139a1.704 1.704 0 0 1-.629.652zm-14.445-5.465c.973.734 2.936 2.249 3.909 2.929.547.38 1.089.758 1.632 1.143 3.287 2.343 5.885 3.502 7.861 3.502.745 0 1.403-.163 1.975-.494.017-.01.032-.025.049-.035l4.271-2.181c1.653-.957 2.846-3.438.778-7.284-1.404-2.61-3.134-4.19-5.151-4.684-2.84-.704-4.91.496-7.791 1.957-.611.282-1.725 1.038-1.725 1.038a232.502 232.502 0 0 0-3.625-6.038c-.239-.391-.477-.781-.711-1.171-.925-1.533-1.876-3.118-3.129-4.475-1.159-1.265-2.908-1.744-4.346-1.19-.066.025-.126.057-.191.082l-.083.042c-.04.019-.081.04-.119.061l-5.99 3.308" fill="none" stroke="#262626" stroke-width=".7"/>
    <path d="M138.153 48.486s-2.508-1.1-4.374-2.597c-4.657-3.738-2.848-7.835-3.564-8.056-.799-.25-1.643-.25-2.407.04-1.271.49-2.034 1.691-2.057 3.217 0 .222.011.444.028.665.565 5.658 9.152 7.701 13.801 9.728-.785-1.271-.984-1.923-1.427-2.997z" fill="#41ff8b" fill-rule="nonzero" stroke="#262626" stroke-width=".7"/>
    <path d="M119.146 57.761l12.995 7.495" fill="none" stroke="#262626" stroke-width=".7" stroke-miterlimit="1.5"/>
    <path d="M261.437 73.914c0-.235.133-.453.347-.571l17.503-9.708v-9.381l-25.331 13.549-.214 36.375 7.705-3.422" fill="#fff" fill-rule="nonzero" stroke="#262626" stroke-width=".7"/>
    <path d="M266.863 31.132l-25.536 12.747 12.831 23.805 25.129-13.455-12.424-23.097z" fill="#f67069" fill-rule="nonzero" stroke="#262626" stroke-width=".7"/>
    <path d="M263.503 99.634v-5.498l12.589 6.697v5.498l-12.589-6.697zm.051-17.707l12.684 7.094v5.498l-12.684-7.094v-5.498zm15.421 28.84V83.274l-4.432-2.429-13.295-7.287v27.494l17.727 9.715z" fill="#fff" fill-rule="nonzero" stroke="#262626" stroke-width=".7"/>
    <path d="M294.167 87.563l-4.773 2.615V84.68l4.773-2.616v5.499zm0 12.286l-4.773 2.615v-5.498l4.773-2.616v5.499zm-8.263-7.758l-4.773 2.616v-5.499l4.773-2.615v5.498zm0 12.286l-4.773 2.616v-5.499l4.773-2.615v5.498zm-2.686-23.532l-4.432 2.429v27.493l17.726-9.715V73.558l-13.294 7.287z" fill="#fff" fill-rule="nonzero" stroke="#262626" stroke-width=".7" stroke-linecap="butt" stroke-miterlimit="1.414"/>
    <path d="M294.167 87.563l-4.773 2.615V84.68l4.773-2.616v5.499zm0 12.286l-4.773 2.615v-5.498l4.773-2.616v5.499zm-8.263-7.758l-4.773 2.616v-5.499l4.773-2.615v5.498zm0 12.286l-4.773 2.616v-5.499l4.773-2.615v5.498zm-2.686-23.532l-4.432 2.429v27.493l17.726-9.715V73.558l-13.294 7.287z" fill="none" stroke="#262626" stroke-width=".7"/>
    <path d="M279.011 63.681l-17.62 9.853 17.489 10.095 17.627-10.177-17.496-9.771z" fill="#f67069" fill-rule="nonzero" stroke="#262626" stroke-width=".7"/>
    <path d="M241.387 53.768c2.564 1.405 4.641 4.822 4.641 7.631s-2.078 3.948-4.641 2.543c-2.563-1.406-4.642-4.822-4.642-7.631 0-2.81 2.079-3.949 4.642-2.543zm-5.932 40.439V80.168l11.589 6.399v13.994l6.699 3.669V66.847l-11.71-21.573-.713-1.395-.792.69-11.617 8.669v37.383l6.544 3.586z" fill="#fff" fill-rule="nonzero" stroke="#262626" stroke-width=".7"/>
    <path d="M243.013 57.997l-.415-.515-1.296 1.844-1.194-1.485-.239.34 1.608 2.001 1.536-2.185z" fill="#414042" fill-rule="nonzero" stroke="#262626" stroke-width=".7" stroke-linecap="butt" stroke-miterlimit="1.414"/>
    <path d="M599.149 361.255c-7.854 4.513-14.207.874-14.189-8.129.019-9.005 6.402-19.961 14.257-24.475 7.856-4.513 14.209-.873 14.19 8.13-.019 9.003-6.402 19.96-14.258 24.474z" fill="#7000ff" fill-rule="nonzero" stroke="#262626" stroke-linecap="butt" stroke-miterlimit="1.414"/>
    <g fill="#fff" fill-rule="nonzero">
        <path d="M605.929 333.188c1.05 1.521 1.772 4.697 1.499 8.53-.252 3.531-1.642 6.831-3.319 10.125-.067.132-.027.299.089.371a.213.213 0 0 0 .102.034.242.242 0 0 0 .23-.14c1.698-3.336 3.107-6.68 3.376-10.265l.015-.206c.266-3.913-.491-7.175-1.606-8.789a.224.224 0 0 0-.341-.044.299.299 0 0 0-.045.384zm-6.11-.515c-4.486 2.153-7.622 6.735-8.833 12.902a.26.26 0 0 0 .208.302c.161.013.28-.075.306-.204 1.178-6.004 4.214-10.456 8.548-12.538 1.956-.939 3.619-1.049 4.809-.319.04.022.085.034.131.034a.261.261 0 0 0 .262-.257.255.255 0 0 0-.117-.214 3.803 3.803 0 0 0-1.745-.543c-1.065-.071-2.262.21-3.569.837z"/>
        <path d="M592.14 348.428c-.181 2.527.23 4.628 1.186 6.075.051.077.044.317-.134.591-.194.299-.431.407-.534.404-.031 0-.037-.008-.046-.023-.92-1.576-1.307-3.807-1.118-6.453v-.018a.26.26 0 0 0-.262-.257.262.262 0 0 0-.262.24c-.196 2.746.214 5.078 1.187 6.742.1.172.286.279.488.282.342.008.731-.245.989-.643.268-.411.32-.86.132-1.144-.881-1.333-1.273-3.379-1.103-5.76.47-6.605 3.291-11.61 7.74-13.731 1.719-.819 3.167-.896 4.188-.222 1.454.959 2.083 3.418 1.82 7.113-.408 5.73-3.88 11.89-7.74 13.73-1.11.529-2.132.651-3.039.361-.358-.114-.828.106-1.17.549-.298.385-.424.84-.329 1.184a.63.63 0 0 0 .368.429c.42.173.865.275 1.329.307.924.063 1.923-.152 2.949-.641 1.387-.662 2.796-1.817 4.074-3.343a.254.254 0 0 0 .048-.148.262.262 0 0 0-.263-.258.26.26 0 0 0-.19.081c-1.231 1.468-2.58 2.577-3.899 3.207-1.402.668-2.732.779-3.845.322-.013-.005-.045-.018-.064-.089-.042-.152.015-.449.241-.742.226-.292.486-.402.589-.371 1.026.328 2.213.194 3.431-.387 4.01-1.912 7.614-8.262 8.033-14.156.281-3.943-.408-6.491-2.049-7.574a3.341 3.341 0 0 0-1.63-.533c-.906-.062-1.947.178-3.082.72-4.621 2.204-7.55 7.363-8.033 14.156z"/>
        <path d="M592.14 348.428c-.181 2.527.23 4.628 1.186 6.075.051.077.044.317-.134.591-.194.299-.431.407-.534.404-.031 0-.037-.008-.046-.023-.92-1.576-1.307-3.807-1.118-6.453v-.018a.26.26 0 0 0-.262-.257.262.262 0 0 0-.262.24c-.196 2.746.214 5.078 1.187 6.742.1.172.286.279.488.282.342.008.731-.245.989-.643.268-.411.32-.86.132-1.144-.881-1.333-1.273-3.379-1.103-5.76.47-6.605 3.291-11.61 7.74-13.731 1.719-.819 3.167-.896 4.188-.222 1.454.959 2.083 3.418 1.82 7.113-.408 5.73-3.88 11.89-7.74 13.73-1.11.529-2.132.651-3.039.361-.358-.114-.828.106-1.17.549-.298.385-.424.84-.329 1.184a.63.63 0 0 0 .368.429c.42.173.865.275 1.329.307.924.063 1.923-.152 2.949-.641 1.387-.662 2.796-1.817 4.074-3.343a.254.254 0 0 0 .048-.148.262.262 0 0 0-.263-.258.26.26 0 0 0-.19.081c-1.231 1.468-2.58 2.577-3.899 3.207-1.402.668-2.732.779-3.845.322-.013-.005-.045-.018-.064-.089-.042-.152.015-.449.241-.742.226-.292.486-.402.589-.371 1.026.328 2.213.194 3.431-.387 4.01-1.912 7.614-8.262 8.033-14.156.281-3.943-.408-6.491-2.049-7.574a3.341 3.341 0 0 0-1.63-.533c-.906-.062-1.947.178-3.082.72-4.621 2.204-7.55 7.363-8.033 14.156z"/>
        <path d="M600.235 336.292c-.091.347-.04.656.139.849.143.155.349.217.58.176.642-.116 1.177.013 1.588.381.834.748 1.181 2.462 1.004 4.958-.109 1.525-.497 3.126-1.123 4.629-.149.356-.136.7.034.919.1.129.245.204.412.215a.716.716 0 0 0 .145-.006c.387-.055.805-.433.993-.9.716-1.777 1.162-3.653 1.288-5.424l.001-.02a.259.259 0 0 0-.518-.015c-.122 1.718-.555 3.54-1.252 5.267-.127.316-.405.555-.585.581-.057.009-.069-.008-.075-.015-.035-.045-.055-.191.034-.404.647-1.555 1.049-3.212 1.161-4.792.192-2.699-.202-4.508-1.174-5.378-.536-.48-1.217-.65-2.025-.505-.078.014-.101-.011-.109-.019-.044-.048-.068-.18-.018-.369.11-.421.481-.783.74-.827.779-.13 1.436.012 1.951.419.799.633 1.262 1.882 1.377 3.711a.259.259 0 0 0 .259.241h.016a.261.261 0 0 0 .242-.275c-.125-1.981-.653-3.355-1.572-4.082a2.656 2.656 0 0 0-1.502-.57 3.654 3.654 0 0 0-.855.047c-.493.083-1.001.614-1.156 1.208z"/>
        <path d="M593.403 348.052c-.215 3.017.558 5.415 2.066 6.416.436.292.945.466 1.472.501.642.044 1.333-.106 2.051-.45 1.155-.554 2.309-1.588 3.336-2.991.244-.333.352-.716.288-1.024a.621.621 0 0 0-.299-.428c-.354-.21-.864-.017-1.242.471-.696.899-1.457 1.563-2.2 1.919-.732.351-1.396.393-1.972.124-.718-.335-1.268-1.159-1.546-2.321-.054-.223.142-.662.466-.872.133-.087.222-.089.25-.077.018.007.028.035.033.058.257 1.067.746 1.796 1.415 2.108.508.237 1.094.21 1.693-.078 1.903-.912 3.646-4.374 3.884-7.717.174-2.443-.208-3.993-1.136-4.608-.567-.376-1.306-.364-2.136.033-2.047.982-3.44 3.545-3.822 7.034-.032.292-.282.646-.546.773-.09.043-.155.045-.178.03-.019-.013-.051-.072-.037-.202.378-3.496 1.673-6.296 3.647-7.884.478-.384.756-1.042.632-1.499a.611.611 0 0 0-.567-.475c-.233-.016-.497.083-.743.282-2.761 2.242-4.469 6.105-4.809 10.877zm.524.036c.33-4.63 1.97-8.364 4.619-10.515.154-.124.29-.171.371-.165.011 0 .022.002.033.006.013.004.045.014.065.088.063.232-.109.686-.457.966-2.081 1.675-3.444 4.598-3.837 8.228-.032.297.062.545.259.68.191.132.449.136.709.011.426-.204.786-.712.838-1.182.362-3.308 1.649-5.722 3.53-6.624.661-.317 1.203-.341 1.613-.069.739.49 1.061 1.961.905 4.143-.227 3.179-1.838 6.449-3.591 7.29-.458.219-.874.245-1.238.075-.513-.239-.913-.864-1.128-1.761a.577.577 0 0 0-.351-.418c-.217-.084-.477-.04-.733.126-.482.313-.797.964-.688 1.42.316 1.318.967 2.266 1.833 2.67.718.334 1.557.29 2.426-.126.817-.392 1.643-1.108 2.388-2.071.23-.297.486-.381.567-.333.025.014.037.056.042.08.028.135-.023.379-.199.62-.977 1.334-2.064 2.312-3.141 2.828-.63.302-1.232.434-1.784.396a2.471 2.471 0 0 1-1.216-.411c-1.351-.896-2.037-3.121-1.835-5.952z"/>
        <path d="M593.403 348.052c-.215 3.017.558 5.415 2.066 6.416.436.292.945.466 1.472.501.642.044 1.333-.106 2.051-.45 1.155-.554 2.309-1.588 3.336-2.991.244-.333.352-.716.288-1.024a.621.621 0 0 0-.299-.428c-.354-.21-.864-.017-1.242.471-.696.899-1.457 1.563-2.2 1.919-.732.351-1.396.393-1.972.124-.718-.335-1.268-1.159-1.546-2.321-.054-.223.142-.662.466-.872.133-.087.222-.089.25-.077.018.007.028.035.033.058.257 1.067.746 1.796 1.415 2.108.508.237 1.094.21 1.693-.078 1.903-.912 3.646-4.374 3.884-7.717.174-2.443-.208-3.993-1.136-4.608-.567-.376-1.306-.364-2.136.033-2.047.982-3.44 3.545-3.822 7.034-.032.292-.282.646-.546.773-.09.043-.155.045-.178.03-.019-.013-.051-.072-.037-.202.378-3.496 1.673-6.296 3.647-7.884.478-.384.756-1.042.632-1.499a.611.611 0 0 0-.567-.475c-.233-.016-.497.083-.743.282-2.761 2.242-4.469 6.105-4.809 10.877zm.524.036c.33-4.63 1.97-8.364 4.619-10.515.154-.124.29-.171.371-.165.011 0 .022.002.033.006.013.004.045.014.065.088.063.232-.109.686-.457.966-2.081 1.675-3.444 4.598-3.837 8.228-.032.297.062.545.259.68.191.132.449.136.709.011.426-.204.786-.712.838-1.182.362-3.308 1.649-5.722 3.53-6.624.661-.317 1.203-.341 1.613-.069.739.49 1.061 1.961.905 4.143-.227 3.179-1.838 6.449-3.591 7.29-.458.219-.874.245-1.238.075-.513-.239-.913-.864-1.128-1.761a.577.577 0 0 0-.351-.418c-.217-.084-.477-.04-.733.126-.482.313-.797.964-.688 1.42.316 1.318.967 2.266 1.833 2.67.718.334 1.557.29 2.426-.126.817-.392 1.643-1.108 2.388-2.071.23-.297.486-.381.567-.333.025.014.037.056.042.08.028.135-.023.379-.199.62-.977 1.334-2.064 2.312-3.141 2.828-.63.302-1.232.434-1.784.396a2.471 2.471 0 0 1-1.216-.411c-1.351-.896-2.037-3.121-1.835-5.952z"/>
        <path d="M597.145 346.15c-.124 1.747.233 3.072.958 3.545.164.107.34.167.524.18.202.014.414-.03.629-.131.74-.349 1.446-1.365 1.94-2.787a.256.256 0 0 0-.168-.326.268.268 0 0 0-.336.161c-.435 1.255-1.075 2.209-1.669 2.49-.237.111-.44.107-.624-.013-.449-.293-.846-1.36-.724-3.083.186-2.603 1.006-4.492 2.194-5.052.305-.143.558-.155.752-.036.246.152.654.667.627 2.42-.004.292-.266.68-.55.814-.103.048-.162.041-.179.03-.02-.012-.041-.061-.039-.141.023-1.345-.247-1.668-.451-1.794a.532.532 0 0 0-.517-.018c-.724.342-.982 1.89-1.07 3.129a9.12 9.12 0 0 0-.022.562c-.005.582.052 1.598.487 1.879a.27.27 0 0 0 .362-.07.258.258 0 0 0-.068-.358c-.085-.059-.258-.491-.25-1.447.001-.17.008-.349.021-.53.161-2.261.67-2.645.782-2.704.043.051.212.313.194 1.341-.004.257.1.47.285.584.191.118.445.118.698-.001.46-.217.842-.786.849-1.268.023-1.527-.271-2.49-.874-2.861a1.077 1.077 0 0 0-.502-.16c-.212-.015-.468.026-.768.167-1.382.652-2.29 2.648-2.491 5.478z"/>
        <path d="M597.145 346.15c-.124 1.747.233 3.072.958 3.545.164.107.34.167.524.18.202.014.414-.03.629-.131.74-.349 1.446-1.365 1.94-2.787a.256.256 0 0 0-.168-.326.268.268 0 0 0-.336.161c-.435 1.255-1.075 2.209-1.669 2.49-.237.111-.44.107-.624-.013-.449-.293-.846-1.36-.724-3.083.186-2.603 1.006-4.492 2.194-5.052.305-.143.558-.155.752-.036.246.152.654.667.627 2.42-.004.292-.266.68-.55.814-.103.048-.162.041-.179.03-.02-.012-.041-.061-.039-.141.023-1.345-.247-1.668-.451-1.794a.532.532 0 0 0-.517-.018c-.724.342-.982 1.89-1.07 3.129a9.12 9.12 0 0 0-.022.562c-.005.582.052 1.598.487 1.879a.27.27 0 0 0 .362-.07.258.258 0 0 0-.068-.358c-.085-.059-.258-.491-.25-1.447.001-.17.008-.349.021-.53.161-2.261.67-2.645.782-2.704.043.051.212.313.194 1.341-.004.257.1.47.285.584.191.118.445.118.698-.001.46-.217.842-.786.849-1.268.023-1.527-.271-2.49-.874-2.861a1.077 1.077 0 0 0-.502-.16c-.212-.015-.468.026-.768.167-1.382.652-2.29 2.648-2.491 5.478z"/>
    </g>
    <path d="M21.875 158.501H262.73m-240.883-31v30m241.112-30v30m-119.925-30v74.516" fill="none" stroke="#262626" stroke-width=".7"/>
    <g stroke="#262626" stroke-width=".7">
        <path d="M404.583 244.046l21.577-7.112m-45.194-20.29l8.133 9.02m-34.195 29.408l49.679-11.026m-15.485-18.381l16.047 18.6m-62.567-20.605l12.106 31.975m-43.376 14.789l43.376-14.789m-12.106-31.975l46.863 2.787m-21.119-38.746l12.865 28.381m-37.827 7.236l-14.284-23.1m24.484 54.977l-46.272-14.227m72.995-25.889l37.998-12.031m13.023 63.781l-6.146-28.991" fill="none"/>
        <path d="M421.423 197.974a4.53 4.53 0 0 1 2.564 5.867 4.53 4.53 0 0 1-5.866 2.566 4.528 4.528 0 0 1 3.302-8.433zM370.656 185.05a4.527 4.527 0 0 1-3.302 8.432 4.528 4.528 0 0 1 3.302-8.432zM427.151 234.403a4.529 4.529 0 0 1-3.302 8.432 4.528 4.528 0 0 1 3.302-8.432zM356.115 251.98a4.53 4.53 0 0 1-3.301 8.433 4.528 4.528 0 0 1 3.301-8.433zM309.281 237.534a4.528 4.528 0 0 1-3.301 8.433 4.528 4.528 0 0 1 3.301-8.433zM331.068 196.783a4.53 4.53 0 0 1 2.564 5.867 4.53 4.53 0 0 1-5.866 2.566 4.528 4.528 0 0 1 3.302-8.433zM315.206 267.088a4.528 4.528 0 0 1-3.301 8.433 4.528 4.528 0 0 1 3.301-8.433zM433.076 263.957a4.529 4.529 0 0 1-3.302 8.433 4.53 4.53 0 0 1-2.564-5.867 4.53 4.53 0 0 1 5.866-2.566zM382.959 213.21a4.528 4.528 0 0 1-3.302 8.433 4.53 4.53 0 0 1-2.564-5.867 4.53 4.53 0 0 1 5.866-2.566zM390.872 222.793a4.528 4.528 0 0 1-3.302 8.432 4.529 4.529 0 0 1 3.302-8.432zM406.879 240.606a4.53 4.53 0 0 1-3.302 8.433 4.528 4.528 0 0 1 3.302-8.433zM380.723 244.326a4.528 4.528 0 0 1-3.302 8.432 4.529 4.529 0 0 1 3.302-8.432zM345.132 220.446a4.53 4.53 0 0 1 2.564 5.867 4.53 4.53 0 0 1-5.866 2.566 4.53 4.53 0 0 1 3.302-8.433z" fill="#fff"/>
    </g>
    <g fill="#262626" fill-rule="nonzero">
        <path d="M344.035 325.068v-11.2h3.952c1.29 0 2.237.336 2.84 1.008.602.672.904 1.494.904 2.464 0 .918-.315 1.726-.944 2.424-.63.699-1.563 1.048-2.8 1.048h-2.048v4.256h-1.904zm1.904-6.048h2.144c.576 0 1.005-.165 1.288-.496.282-.33.424-.725.424-1.184 0-.437-.136-.826-.408-1.168-.272-.341-.707-.512-1.304-.512h-2.144v3.36zM359.731 316.7c.736 0 1.376.144 1.92.432v3.024h-1.792v-1.744h-.16c-.843 0-1.494.198-1.952.592-.459.395-.688.987-.688 1.776v2.672h2.288v1.616h-5.856v-1.616h1.728v-4.944h-1.728v-1.616h3.44v1.312c.224-.469.592-.837 1.104-1.104a3.623 3.623 0 0 1 1.696-.4zM367.459 325.26c-1.206 0-2.16-.381-2.864-1.144-.704-.762-1.056-1.805-1.056-3.128 0-1.312.352-2.354 1.056-3.128.704-.773 1.658-1.16 2.864-1.16 1.216 0 2.173.387 2.872 1.16.698.774 1.048 1.816 1.048 3.128s-.35 2.352-1.048 3.12c-.699.768-1.656 1.152-2.872 1.152zm0-1.76c.661 0 1.17-.224 1.528-.672.357-.448.536-1.061.536-1.84 0-.778-.179-1.397-.536-1.856-.358-.458-.867-.688-1.528-.688-.651 0-1.158.23-1.52.688-.363.459-.544 1.078-.544 1.856 0 .768.181 1.379.544 1.832.362.454.869.68 1.52.68zM377.315 325.26c-1.206 0-2.16-.381-2.864-1.144-.704-.762-1.056-1.805-1.056-3.128 0-1.312.352-2.354 1.056-3.128.704-.773 1.658-1.16 2.864-1.16 1.216 0 2.173.387 2.872 1.16.698.774 1.048 1.816 1.048 3.128s-.35 2.352-1.048 3.12c-.699.768-1.656 1.152-2.872 1.152zm0-1.76c.661 0 1.17-.224 1.528-.672.357-.448.536-1.061.536-1.84 0-.778-.179-1.397-.536-1.856-.358-.458-.867-.688-1.528-.688-.651 0-1.158.23-1.52.688-.363.459-.544 1.078-.544 1.856 0 .768.181 1.379.544 1.832.362.454.869.68 1.52.68zM389.107 315.308c-.395 0-.72.07-.976.208-.256.139-.384.342-.384.608v.768h2.752v1.616h-2.752v4.944h2.176v1.616h-5.776v-1.616h1.76v-4.944h-1.76v-1.616h1.76v-1.12c0-.768.274-1.309.824-1.624.549-.314 1.208-.472 1.976-.472.778 0 1.429.134 1.952.4v1.52a3.986 3.986 0 0 0-1.552-.288z"/>
    </g>
    <path d="M203.969 241.374h98.691" fill="none" stroke="#262626" stroke-width=".7" stroke-miterlimit="1.5"/>
    <path d="M607.73 226.9c-.017 8.174-5.813 18.122-12.945 22.222-7.131 4.097-12.899.793-12.883-7.381.017-8.176 5.813-18.124 12.945-22.222 7.131-4.097 12.9-.792 12.883 7.381" fill="#00cfea" stroke="#262626" stroke-width=".7"/>
    <path d="M588.084 250.909l-.516 20.908 8.817-8.805 5.679 1.406.481-22.352" fill="none" stroke="#262626" stroke-width=".7" stroke-miterlimit="1.5"/>
    <path d="M36.452 85.064L5.06 102.621a1.823 1.823 0 0 1-.89.232 1.833 1.833 0 0 1-1.824-1.824v-.004l.097-46.661c.003-1.127.691-2.435 1.538-2.922l31.978-17.838c.847-.486 1.531.034 1.529 1.161l-.102 48.711a1.823 1.823 0 0 1-.934 1.588z" fill="#fff" stroke="#262626" stroke-width=".7" stroke-linecap="butt" stroke-linejoin="miter"/>
    <path d="M45.968 89.012l-31.392 17.557a1.826 1.826 0 0 1-.89.232 1.833 1.833 0 0 1-1.824-1.824v-.004l.097-46.661c.002-1.127.691-2.435 1.538-2.922l31.978-17.838c.846-.486 1.531.034 1.528 1.161l-.101 48.711a1.827 1.827 0 0 1-.934 1.588z" fill="#fff" stroke="#262626" stroke-width=".7" stroke-linecap="butt" stroke-linejoin="miter"/>
    <path d="M55.994 93.733l-31.392 17.556a1.823 1.823 0 0 1-.89.232c-1 0-1.824-.823-1.824-1.824v-.004l.098-46.661c.002-1.127.69-2.435 1.537-2.922l31.978-17.837c.847-.487 1.531.033 1.529 1.161l-.102 48.711a1.826 1.826 0 0 1-.934 1.588z" fill="#fff" stroke="#262626" stroke-width=".7" stroke-linecap="butt" stroke-linejoin="miter"/>
    <path d="M51.551 78.495L28.785 90.867c-.772.444-1.396-.03-1.394-1.058l.026-12.3c.001-1.028.629-2.221 1.402-2.665l22.766-12.373c.772-.444 1.396.03 1.394 1.058l-.026 12.3c-.002 1.028-.63 2.222-1.402 2.665v.001z" fill="#f2f2f2" stroke="#262626" stroke-width=".7" stroke-linecap="butt" stroke-miterlimit="1.414"/>
    <path d="M53.707 63.355c-.008 3.812-2.711 8.451-6.037 10.363-3.326 1.911-6.015.37-6.008-3.442.008-3.813 2.711-8.452 6.037-10.363 3.326-1.911 6.016-.37 6.008 3.442" fill="#0c71ff" stroke="#262626" stroke-width=".7"/>
    <path d="M27.491 98.226l23.291-13.382-23.291 13.382zm-.006 2.79l23.291-13.381-23.291 13.381zm-.005 2.531l23.29-13.381-23.29 13.381zm18.775-48.652L27.256 65.812c-.219.125-.395-.009-.395-.3l.002-.648c0-.29.178-.628.396-.754l18.999-10.916c.219-.125.395.009.395.3l-.001.648c0 .291-.178.627-.397.753M27.102 68.747l11.991-6.889-11.991 6.889z" fill="none" stroke="#262626" stroke-width=".7" stroke-linecap="butt" stroke-linejoin="miter"/>
    <path d="M609.893 122.188c-.018 8.829-6.279 19.574-13.983 24.002-7.702 4.426-13.932.857-13.915-7.972.019-8.831 6.279-19.576 13.983-24.002 7.702-4.425 13.933-.856 13.915 7.972" fill="#41ff8b" stroke="#262626" stroke-width=".7"/>
    <path d="M602.059 121.873c1.363.112 2.304 1.677 1.634 2.962-2.245 3.855-4.669 7.604-7.004 11.405-.707 1.093-2.403 1.227-3.263.205-2.468-3.225-6.224-7.351-2.755-8.342.779-.222 1.659.083 2.165.745l2.007 2.755 5.446-8.859c.412-.576.848-.904 1.77-.871z" fill="#fff" fill-rule="nonzero"/>
    <g fill="#2c2f31" fill-rule="nonzero">
        <path d="M627.979 133.049v-11.2h7.184v1.808h-5.28v2.704h3.44v1.808h-3.44v3.072h5.616v1.808h-7.52zM637.499 133.049l2.992-4.24-2.784-3.936h2.112l1.28 1.808c.256.384.4.619.432.704a9.29 9.29 0 0 1 .448-.704l1.28-1.808h2.112l-2.768 3.936 2.976 4.24h-2.112l-1.488-2.096a9.075 9.075 0 0 1-.448-.704c-.032.086-.176.32-.432.704l-1.472 2.096h-2.128zM651.467 123.737c-.299 0-.555-.106-.768-.32a1.066 1.066 0 0 1-.32-.784c0-.309.107-.568.32-.776a1.06 1.06 0 0 1 .768-.312c.309 0 .571.104.784.312.213.208.32.467.32.776 0 .31-.107.571-.32.784-.213.214-.475.32-.784.32zm.928 7.696h2.256v1.616h-6.352v-1.616h2.256v-4.944h-2.256v-1.616h4.096v6.56zM661.307 133.241c-.693 0-1.333-.13-1.92-.392-.587-.261-1.056-.616-1.408-1.064l1.2-1.088c.672.651 1.413.976 2.224.976.395 0 .72-.069.976-.208.256-.138.384-.346.384-.624 0-.16-.077-.312-.232-.456a2.098 2.098 0 0 0-.536-.36 18.396 18.396 0 0 0-.896-.384 1.814 1.814 0 0 0-.104-.048l-.104-.04a4.646 4.646 0 0 0-.112-.04c-.395-.17-.688-.301-.88-.392a7.479 7.479 0 0 1-.696-.384c-.272-.165-.469-.322-.592-.472a2.247 2.247 0 0 1-.328-.568 1.991 1.991 0 0 1-.144-.776c0-.693.299-1.24.896-1.64.597-.4 1.349-.6 2.256-.6 1.269 0 2.288.432 3.056 1.296l-1.232 1.008c-.587-.49-1.216-.736-1.888-.736-.416 0-.749.062-1 .184-.251.123-.376.296-.376.52 0 .107.043.211.128.312.085.102.235.208.448.32.213.112.389.198.528.256.139.059.373.152.704.28.981.395 1.632.715 1.952.96.565.448.853 1.03.864 1.744 0 .758-.285 1.35-.856 1.776-.571.427-1.341.64-2.312.64zM671.867 133.241c-1.6 0-2.4-.741-2.4-2.224v-4.528h-1.712v-1.616h1.712v-2.496l1.84-.88v3.376h2.784v1.616h-2.784v4.176c0 .63.384.944 1.152.944.448 0 .917-.128 1.408-.384l-.224 1.648c-.469.246-1.061.368-1.776.368zM684.699 128.553c0 .47-.021.843-.064 1.12h-5.568c.117.598.355 1.07.712 1.416.357.347.819.52 1.384.52.715 0 1.317-.266 1.808-.8l1.104 1.168c-.768.843-1.744 1.264-2.928 1.264-1.205 0-2.157-.389-2.856-1.168-.699-.778-1.048-1.818-1.048-3.12 0-1.322.352-2.365 1.056-3.128.704-.762 1.653-1.144 2.848-1.144 1.045 0 1.899.328 2.56.984.661.656.992 1.619.992 2.888zm-5.648-.448h3.84c-.053-.597-.243-1.048-.568-1.352a1.66 1.66 0 0 0-1.176-.456c-.587 0-1.059.16-1.416.48-.357.32-.584.763-.68 1.328zM691.403 124.681c.896 0 1.624.27 2.184.808.56.539.84 1.395.84 2.568v4.992h-1.84v-4.608c0-.704-.155-1.216-.464-1.536-.309-.32-.72-.48-1.232-.48-1.205 0-1.808.662-1.808 1.984v4.64h-1.84v-8.176h1.696v1.008c.16-.32.472-.6.936-.84.464-.24.973-.36 1.528-.36zM700.843 133.241c-1.152 0-2.064-.378-2.736-1.136-.672-.757-1.008-1.802-1.008-3.136 0-1.322.344-2.368 1.032-3.136.688-.768 1.603-1.152 2.744-1.152 1.739 0 2.859.742 3.36 2.224l-1.744.592c-.277-.714-.811-1.072-1.6-1.072-.608 0-1.08.23-1.416.688-.336.459-.504 1.078-.504 1.856 0 .779.168 1.392.504 1.84.336.448.797.672 1.384.672.853 0 1.413-.4 1.68-1.2l1.744.544c-.491 1.611-1.637 2.416-3.44 2.416zM714.267 128.553c0 .47-.021.843-.064 1.12h-5.568c.117.598.355 1.07.712 1.416.357.347.819.52 1.384.52.715 0 1.317-.266 1.808-.8l1.104 1.168c-.768.843-1.744 1.264-2.928 1.264-1.205 0-2.157-.389-2.856-1.168-.699-.778-1.048-1.818-1.048-3.12 0-1.322.352-2.365 1.056-3.128.704-.762 1.653-1.144 2.848-1.144 1.045 0 1.899.328 2.56.984.661.656.992 1.619.992 2.888zm-5.648-.448h3.84c-.053-.597-.243-1.048-.568-1.352a1.66 1.66 0 0 0-1.176-.456c-.587 0-1.059.16-1.416.48-.357.32-.584.763-.68 1.328z"/>
    </g>
</svg>
