<svg width="745" height="424" xmlns="http://www.w3.org/2000/svg" fill-rule="evenodd" clip-rule="evenodd" stroke-linecap="round" stroke-linejoin="round">
    <path d="M558.75 166.478l-13.216 11.329 13.216-11.329zm0 0l-13.216 11.329 13.216-11.329zm-.256-.385l-13.217-11.33 13.217 11.33zm.256 121.376l-13.216 11.329 13.216-11.329zm0 0l-13.216 11.329 13.216-11.329zm-.256-.385l-13.217-11.33 13.217 11.33zm.256 120.328l-13.216 11.329 13.216-11.329zm0 0l-13.216 11.329 13.216-11.329zm-.256-.385l-13.217-11.33 13.217 11.33zM503.94 166.388v240.855m54-240.883h-53m53 241.112h-53m53-119.925H431.077" fill="none" stroke="#262626"/>
    <path d="M634.876 290.135l-.736-2.464h-3.552l-.736 2.464h-2.048l3.664-11.2h1.792l3.664 11.2h-2.048zm-3.776-4.192h2.528l-.992-3.328a8.428 8.428 0 0 1-.272-1.248 18.714 18.714 0 0 1-.272 1.248l-.992 3.328zm10.576 4.384c-.907 0-1.64-.269-2.2-.808-.56-.538-.84-1.4-.84-2.584v-4.976h1.84v4.576c0 1.355.56 2.032 1.68 2.032 1.205 0 1.808-.666 1.808-2v-4.608h1.84v8.176h-1.84v-.784c-.523.651-1.286.976-2.288.976zm11.152 0c-1.6 0-2.4-.741-2.4-2.224v-4.528h-1.712v-1.616h1.712v-2.496l1.84-.88v3.376h2.784v1.616h-2.784v4.176c0 .63.384.944 1.152.944.448 0 .917-.128 1.408-.384l-.224 1.648c-.47.246-1.062.368-1.776.368zm5.52-.192v-10.704l1.84-.848v4.176c.533-.661 1.306-.992 2.32-.992.896 0 1.624.27 2.184.808.56.539.84 1.395.84 2.568v4.992h-1.84v-4.608c0-.704-.158-1.216-.472-1.536-.315-.32-.723-.48-1.224-.48-.534 0-.968.155-1.304.464-.336.31-.504.816-.504 1.52v4.64h-1.84zm17.168-4.496c0 .47-.022.843-.064 1.12h-5.568c.117.598.354 1.07.712 1.416.357.347.818.52 1.384.52a2.36 2.36 0 0 0 1.808-.8l1.104 1.168c-.768.843-1.744 1.264-2.928 1.264-1.206 0-2.158-.389-2.856-1.168-.699-.778-1.048-1.818-1.048-3.12 0-1.322.352-2.365 1.056-3.128.704-.762 1.653-1.144 2.848-1.144 1.045 0 1.898.328 2.56.984.661.656.992 1.619.992 2.888zm-5.648-.448h3.84c-.054-.597-.243-1.048-.568-1.352a1.663 1.663 0 0 0-1.176-.456c-.587 0-1.059.16-1.416.48-.358.32-.584.763-.68 1.328zm12.352-3.424c.896 0 1.624.27 2.184.808.56.539.84 1.395.84 2.568v4.992h-1.84v-4.608c0-.704-.155-1.216-.464-1.536-.31-.32-.72-.48-1.232-.48-1.206 0-1.808.662-1.808 1.984v4.64h-1.84v-8.176h1.696v1.008c.16-.32.472-.6.936-.84.464-.24.973-.36 1.528-.36zm10.032 8.56c-1.6 0-2.4-.741-2.4-2.224v-4.528h-1.712v-1.616h1.712v-2.496l1.84-.88v3.376h2.784v1.616h-2.784v4.176c0 .63.384.944 1.152.944.448 0 .917-.128 1.408-.384l-.224 1.648c-.47.246-1.062.368-1.776.368zm9.168-9.504c-.299 0-.555-.106-.768-.32a1.062 1.062 0 0 1-.32-.784c0-.309.106-.568.32-.776a1.06 1.06 0 0 1 .768-.312c.309 0 .57.104.784.312.213.208.32.467.32.776 0 .31-.107.571-.32.784-.214.214-.475.32-.784.32zm.928 7.696h2.256v1.616h-6.352v-1.616h2.256v-4.944h-2.256v-1.616h4.096v6.56zm9.024 1.808c-1.152 0-2.064-.378-2.736-1.136-.672-.757-1.008-1.802-1.008-3.136 0-1.322.344-2.368 1.032-3.136.688-.768 1.602-1.152 2.744-1.152 1.738 0 2.858.742 3.36 2.224l-1.744.592c-.278-.714-.811-1.072-1.6-1.072-.608 0-1.08.23-1.416.688-.336.459-.504 1.078-.504 1.856 0 .779.168 1.392.504 1.84.336.448.797.672 1.384.672.853 0 1.413-.4 1.68-1.2l1.744.544c-.491 1.611-1.638 2.416-3.44 2.416zm9.76-9.504c-.299 0-.555-.106-.768-.32a1.062 1.062 0 0 1-.32-.784c0-.309.106-.568.32-.776a1.06 1.06 0 0 1 .768-.312c.309 0 .57.104.784.312.213.208.32.467.32.776 0 .31-.107.571-.32.784-.214.214-.475.32-.784.32zm.928 7.696h2.256v1.616h-6.352v-1.616h2.256v-4.944h-2.256v-1.616h4.096v6.56zm9.616 1.808c-1.6 0-2.4-.741-2.4-2.224v-4.528h-1.712v-1.616h1.712v-2.496l1.84-.88v3.376h2.784v1.616h-2.784v4.176c0 .63.384.944 1.152.944.448 0 .917-.128 1.408-.384l-.224 1.648c-.47.246-1.062.368-1.776.368zm6.912 2.912l1.248-3.248-3.056-8.032h1.872l1.872 4.992c.085.214.165.47.24.768.021-.074.048-.157.08-.248a8.09 8.09 0 0 0 .096-.288 3.35 3.35 0 0 1 .08-.232l1.872-4.992h1.888l-4.288 11.28h-1.904zM630.062 172.594v-11.2h7.184v1.808h-5.28v2.704h3.44v1.808h-3.44v3.072h5.616v1.808h-7.52zm9.52 0l2.992-4.24-2.784-3.936h2.112l1.28 1.808c.256.384.4.619.432.704a9.29 9.29 0 0 1 .448-.704l1.28-1.808h2.112l-2.768 3.936 2.976 4.24h-2.112l-1.488-2.096a9.075 9.075 0 0 1-.448-.704c-.032.086-.176.32-.432.704l-1.472 2.096h-2.128zm13.968-9.312c-.299 0-.555-.106-.768-.32a1.066 1.066 0 0 1-.32-.784c0-.309.107-.568.32-.776a1.06 1.06 0 0 1 .768-.312c.309 0 .571.104.784.312.213.208.32.467.32.776 0 .31-.107.571-.32.784-.213.214-.475.32-.784.32zm.928 7.696h2.256v1.616h-6.352v-1.616h2.256v-4.944h-2.256v-1.616h4.096v6.56zm8.912 1.808c-.693 0-1.333-.13-1.92-.392-.587-.261-1.056-.616-1.408-1.064l1.2-1.088c.672.651 1.413.976 2.224.976.395 0 .72-.069.976-.208.256-.138.384-.346.384-.624 0-.16-.077-.312-.232-.456a2.098 2.098 0 0 0-.536-.36 18.396 18.396 0 0 0-.896-.384 1.814 1.814 0 0 0-.104-.048l-.104-.04a4.646 4.646 0 0 0-.112-.04c-.395-.17-.688-.301-.88-.392a7.479 7.479 0 0 1-.696-.384c-.272-.165-.469-.322-.592-.472a2.247 2.247 0 0 1-.328-.568 1.991 1.991 0 0 1-.144-.776c0-.693.299-1.24.896-1.64.597-.4 1.349-.6 2.256-.6 1.269 0 2.288.432 3.056 1.296l-1.232 1.008c-.587-.49-1.216-.736-1.888-.736-.416 0-.749.062-1 .184-.251.123-.376.296-.376.52 0 .107.043.211.128.312.085.102.235.208.448.32.213.112.389.198.528.256.139.059.373.152.704.28.981.395 1.632.715 1.952.96.565.448.853 1.03.864 1.744 0 .758-.285 1.35-.856 1.776-.571.427-1.341.64-2.312.64zm10.56 0c-1.6 0-2.4-.741-2.4-2.224v-4.528h-1.712v-1.616h1.712v-2.496l1.84-.88v3.376h2.784v1.616h-2.784v4.176c0 .63.384.944 1.152.944.448 0 .917-.128 1.408-.384l-.224 1.648c-.469.246-1.061.368-1.776.368zm8.48 0c-.896 0-1.624-.234-2.184-.704-.56-.469-.84-1.141-.84-2.016 0-.885.32-1.557.96-2.016.64-.458 1.408-.688 2.304-.688.779 0 1.456.144 2.032.432v-.48c0-.981-.539-1.472-1.616-1.472-.896 0-1.76.278-2.592.832l-.56-1.504c.992-.629 2.096-.944 3.312-.944 2.165 0 3.248 1.024 3.248 3.072v5.296h-1.792v-.64c-.576.555-1.333.832-2.272.832zm.336-1.616c.768 0 1.413-.272 1.936-.816v-1.056c-.491-.245-1.072-.368-1.744-.368-.512 0-.936.096-1.272.288-.336.192-.504.475-.504.848 0 .331.139.598.416.8.277.203.667.304 1.168.304zm10.72-6.944c.896 0 1.624.27 2.184.808.56.539.84 1.395.84 2.568v4.992h-1.84v-4.608c0-.704-.155-1.216-.464-1.536-.309-.32-.72-.48-1.232-.48-1.205 0-1.808.662-1.808 1.984v4.64h-1.84v-8.176h1.696v1.008c.16-.32.472-.6.936-.84.464-.24.973-.36 1.528-.36zm9.44 8.56c-1.152 0-2.064-.378-2.736-1.136-.672-.757-1.008-1.802-1.008-3.136 0-1.322.344-2.368 1.032-3.136.688-.768 1.603-1.152 2.744-1.152 1.739 0 2.859.742 3.36 2.224l-1.744.592c-.277-.714-.811-1.072-1.6-1.072-.608 0-1.08.23-1.416.688-.336.459-.504 1.078-.504 1.856 0 .779.168 1.392.504 1.84.336.448.797.672 1.384.672.853 0 1.413-.4 1.68-1.2l1.744.544c-.491 1.611-1.637 2.416-3.44 2.416zm13.424-4.688c0 .47-.021.843-.064 1.12h-5.568c.117.598.355 1.07.712 1.416.357.347.819.52 1.384.52.715 0 1.317-.266 1.808-.8l1.104 1.168c-.768.843-1.744 1.264-2.928 1.264-1.205 0-2.157-.389-2.856-1.168-.699-.778-1.048-1.818-1.048-3.12 0-1.322.352-2.365 1.056-3.128.704-.762 1.653-1.144 2.848-1.144 1.045 0 1.899.328 2.56.984.661.656.992 1.619.992 2.888zm-5.648-.448h3.84c-.053-.597-.243-1.048-.568-1.352a1.66 1.66 0 0 0-1.176-.456c-.587 0-1.059.16-1.416.48-.357.32-.584.763-.68 1.328zm-76.686 241.888c-.96 0-1.768-.28-2.424-.84a4.601 4.601 0 0 1-1.4-2.104c-.277-.843-.416-1.792-.416-2.848 0-1.056.139-2.006.416-2.848a4.596 4.596 0 0 1 1.4-2.104c.656-.56 1.464-.84 2.424-.84.587 0 1.12.104 1.6.312.48.208.883.493 1.208.856.325.362.597.792.816 1.288a6.98 6.98 0 0 1 .48 1.576c.101.554.152 1.141.152 1.76 0 .618-.051 1.205-.152 1.76a6.995 6.995 0 0 1-.48 1.576 4.848 4.848 0 0 1-.816 1.288 3.433 3.433 0 0 1-1.208.856 3.982 3.982 0 0 1-1.6.312zm0-1.808c.501 0 .928-.198 1.28-.592.352-.395.605-.883.76-1.464a7.481 7.481 0 0 0 .232-1.928c0-1.152-.189-2.104-.568-2.856-.379-.752-.947-1.128-1.704-1.128-.747 0-1.312.386-1.696 1.16-.384.773-.576 1.714-.576 2.824 0 1.141.189 2.09.568 2.848.379.757.947 1.136 1.704 1.136zm7.264 1.616l-2.096-8.176h1.664l1.04 4.208c.075.32.128.586.16.8.064-.384.112-.656.144-.816l.976-4.192h1.408l.976 4.208c.053.17.107.442.16.816.032-.224.085-.496.16-.816l1.008-4.208h1.68l-2.112 8.176h-1.408l-.944-4.096a16.79 16.79 0 0 1-.224-1.12 9.457 9.457 0 0 1-.136.648c-.069.293-.109.45-.12.472l-.896 4.096h-1.44zm13.024-8.368c.896 0 1.624.269 2.184.808.56.538.84 1.394.84 2.568v4.992h-1.84v-4.608c0-.704-.155-1.216-.464-1.536-.309-.32-.72-.48-1.232-.48-1.205 0-1.808.661-1.808 1.984v4.64h-1.84v-8.176h1.696v1.008c.16-.32.472-.6.936-.84.464-.24.973-.36 1.528-.36zm13.008 3.872c0 .469-.021.842-.064 1.12h-5.568c.117.597.355 1.069.712 1.416.357.346.819.52 1.384.52.715 0 1.317-.267 1.808-.8l1.104 1.168c-.768.842-1.744 1.264-2.928 1.264-1.205 0-2.157-.39-2.856-1.168-.699-.779-1.048-1.819-1.048-3.12 0-1.323.352-2.366 1.056-3.128.704-.763 1.653-1.144 2.848-1.144 1.045 0 1.899.328 2.56.984.661.656.992 1.618.992 2.888zm-5.648-.448h3.84c-.053-.598-.243-1.048-.568-1.352a1.66 1.66 0 0 0-1.176-.456c-.587 0-1.059.16-1.416.48-.357.32-.584.762-.68 1.328zm13.904-3.424c.736 0 1.376.144 1.92.432v3.024h-1.792v-1.744h-.16c-.843 0-1.493.197-1.952.592-.459.394-.688.986-.688 1.776v2.672h2.288v1.616h-5.856v-1.616h1.728v-4.944h-1.728v-1.616h3.44v1.312c.224-.47.592-.838 1.104-1.104a3.61 3.61 0 0 1 1.696-.4zm7.776 8.56a4.672 4.672 0 0 1-1.92-.392c-.587-.262-1.056-.616-1.408-1.064l1.2-1.088c.672.65 1.413.976 2.224.976.395 0 .72-.07.976-.208.256-.139.384-.347.384-.624 0-.16-.077-.312-.232-.456a2.098 2.098 0 0 0-.536-.36 18.396 18.396 0 0 0-.896-.384 1.027 1.027 0 0 0-.104-.048 3.794 3.794 0 0 0-.104-.04c-.043-.016-.08-.03-.112-.04a34.887 34.887 0 0 1-.88-.392 7.98 7.98 0 0 1-.696-.384c-.272-.166-.469-.323-.592-.472a2.283 2.283 0 0 1-.328-.568 1.995 1.995 0 0 1-.144-.776c0-.694.299-1.24.896-1.64.597-.4 1.349-.6 2.256-.6 1.269 0 2.288.432 3.056 1.296l-1.232 1.008c-.587-.491-1.216-.736-1.888-.736-.416 0-.749.061-1 .184-.251.122-.376.296-.376.52 0 .106.043.21.128.312.085.101.235.208.448.32.213.112.389.197.528.256.139.058.373.152.704.28.981.394 1.632.714 1.952.96.565.448.853 1.029.864 1.744 0 .757-.285 1.349-.856 1.776-.571.426-1.341.64-2.312.64zm6.224-.192v-10.704l1.84-.848v4.176c.533-.662 1.307-.992 2.32-.992.896 0 1.624.269 2.184.808.56.538.84 1.394.84 2.568v4.992h-1.84v-4.608c0-.704-.157-1.216-.472-1.536-.315-.32-.723-.48-1.224-.48-.533 0-.968.154-1.304.464-.336.309-.504.816-.504 1.52v4.64h-1.84zm13.504-9.312c-.299 0-.555-.107-.768-.32a1.069 1.069 0 0 1-.32-.784c0-.31.107-.568.32-.776a1.06 1.06 0 0 1 .768-.312c.309 0 .571.104.784.312.213.208.32.466.32.776 0 .309-.107.57-.32.784-.213.213-.475.32-.784.32zm.928 7.696h2.256v1.616h-6.352v-1.616h2.256v-4.944h-2.256v-1.616H704v6.56zm5.344 4.832V401.17h1.84v.624c.501-.544 1.168-.816 2-.816 1.099 0 1.971.378 2.616 1.136.645.757.968 1.808.968 3.152 0 1.312-.333 2.352-1 3.12-.667.768-1.523 1.152-2.568 1.152-.853 0-1.525-.283-2.016-.848v3.024l-1.84.848zm3.584-4.784c.629 0 1.117-.216 1.464-.648.347-.432.52-1.054.52-1.864 0-.779-.173-1.398-.52-1.856-.347-.459-.84-.688-1.48-.688-.768 0-1.344.272-1.728.816v3.424c.384.544.965.816 1.744.816zM46.141 365.71v-11.2h2.816c.726 0 1.382.107 1.968.32.587.214 1.075.496 1.464.848.39.352.715.771.976 1.256.262.486.451.992.568 1.52.118.528.176 1.08.176 1.656a7.64 7.64 0 0 1-.16 1.568 5.899 5.899 0 0 1-.544 1.512 4.775 4.775 0 0 1-.968 1.296c-.389.368-.888.664-1.496.888-.608.224-1.29.336-2.048.336h-2.752zm1.904-1.792h1.04c.544 0 1.022-.112 1.432-.336.411-.224.728-.525.952-.904.224-.378.39-.784.496-1.216a5.6 5.6 0 0 0 .16-1.352c0-1.045-.24-1.941-.72-2.688-.48-.746-1.194-1.12-2.144-1.12h-1.216v7.616zm11.728-7.52c-.298 0-.554-.106-.768-.32a1.066 1.066 0 0 1-.32-.784c0-.309.107-.568.32-.776.214-.208.47-.312.768-.312.31 0 .571.104.784.312.214.208.32.467.32.776 0 .31-.106.571-.32.784-.213.214-.474.32-.784.32zm.928 7.696h2.256v1.616h-6.352v-1.616h2.256v-4.944h-2.256v-1.616h4.096v6.56zm8.384 4.864l-.992-1.504c1.142-.085 1.928-.261 2.36-.528.432-.266.648-.698.648-1.296v-.48c-.437.502-1.072.752-1.904.752-1.002 0-1.818-.37-2.448-1.112-.629-.741-.944-1.8-.944-3.176 0-1.312.315-2.352.944-3.12.63-.768 1.456-1.152 2.48-1.152.779 0 1.403.235 1.872.704v-.512h1.84v7.312c0 1.398-.29 2.408-.872 3.032-.581.624-1.576.984-2.984 1.08zm.432-4.816c.694 0 1.222-.277 1.584-.832v-3.408c-.384-.544-.912-.816-1.584-.816-.608 0-1.072.216-1.392.648-.32.432-.48 1.059-.48 1.88 0 .779.163 1.395.488 1.848.326.454.787.68 1.384.68zm9.968-7.744c-.298 0-.554-.106-.768-.32a1.066 1.066 0 0 1-.32-.784c0-.309.107-.568.32-.776.214-.208.47-.312.768-.312.31 0 .571.104.784.312.214.208.32.467.32.776 0 .31-.106.571-.32.784-.213.214-.474.32-.784.32zm.928 7.696h2.256v1.616h-6.352v-1.616h2.256v-4.944h-2.256v-1.616h4.096v6.56zm9.616 1.808c-1.6 0-2.4-.741-2.4-2.224v-4.528h-1.712v-1.616h1.712v-2.496l1.84-.88v3.376h2.784v1.616h-2.784v4.176c0 .63.384.944 1.152.944.448 0 .918-.128 1.408-.384l-.224 1.648c-.469.246-1.061.368-1.776.368zm8.48 0c-.896 0-1.624-.234-2.184-.704-.56-.469-.84-1.141-.84-2.016 0-.885.32-1.557.96-2.016.64-.458 1.408-.688 2.304-.688.779 0 1.456.144 2.032.432v-.48c0-.981-.538-1.472-1.616-1.472-.896 0-1.76.278-2.592.832l-.56-1.504c.992-.629 2.096-.944 3.312-.944 2.166 0 3.248 1.024 3.248 3.072v5.296h-1.792v-.64c-.576.555-1.333.832-2.272.832zm.336-1.616c.768 0 1.414-.272 1.936-.816v-1.056c-.49-.245-1.072-.368-1.744-.368-.512 0-.936.096-1.272.288-.336.192-.504.475-.504.848 0 .331.139.598.416.8.278.203.667.304 1.168.304zm11.056-.192h2.384v1.616h-6.608v-1.616h2.384v-8.32h-1.904l-.848-1.616h4.592v9.936zm18.96 1.808c-1.152 0-2.064-.378-2.736-1.136-.672-.757-1.008-1.802-1.008-3.136 0-1.322.344-2.368 1.032-3.136.688-.768 1.603-1.152 2.744-1.152 1.739 0 2.859.742 3.36 2.224l-1.744.592c-.277-.714-.81-1.072-1.6-1.072-.608 0-1.08.23-1.416.688-.336.459-.504 1.078-.504 1.856 0 .779.168 1.392.504 1.84.336.448.798.672 1.384.672.854 0 1.414-.4 1.68-1.2l1.744.544c-.49 1.611-1.637 2.416-3.44 2.416zm11.824-8.56c.736 0 1.376.144 1.92.432v3.024h-1.792v-1.744h-.16c-.842 0-1.493.198-1.952.592-.458.395-.688.987-.688 1.776v2.672h2.288v1.616h-5.856v-1.616h1.728v-4.944h-1.728v-1.616h3.44v1.312c.224-.469.592-.837 1.104-1.104a3.626 3.626 0 0 1 1.696-.4zm5.536 11.472l1.248-3.248-3.056-8.032h1.872l1.872 4.992c.086.214.166.47.24.768a5.25 5.25 0 0 1 .08-.248 8.09 8.09 0 0 0 .096-.288c.032-.101.059-.178.08-.232l1.872-4.992h1.888l-4.288 11.28h-1.904zm8.528.112v-11.392h1.84v.624c.502-.544 1.168-.816 2-.816 1.099 0 1.971.379 2.616 1.136.646.758.968 1.808.968 3.152 0 1.312-.333 2.352-1 3.12-.666.768-1.522 1.152-2.568 1.152-.853 0-1.525-.282-2.016-.848v3.024l-1.84.848zm3.584-4.784c.63 0 1.118-.216 1.464-.648.347-.432.52-1.053.52-1.864 0-.778-.173-1.397-.52-1.856-.346-.458-.84-.688-1.48-.688-.768 0-1.344.272-1.728.816v3.424c.384.544.966.816 1.744.816zm10.544 1.76c-1.6 0-2.4-.741-2.4-2.224v-4.528h-1.712v-1.616h1.712v-2.496l1.84-.88v3.376h2.784v1.616h-2.784v4.176c0 .63.384.944 1.152.944.448 0 .918-.128 1.408-.384l-.224 1.648c-.469.246-1.061.368-1.776.368zm9.104 0c-1.205 0-2.16-.381-2.864-1.144-.704-.762-1.056-1.805-1.056-3.128 0-1.312.352-2.354 1.056-3.128.704-.773 1.659-1.16 2.864-1.16 1.216 0 2.174.387 2.872 1.16.699.774 1.048 1.816 1.048 3.128s-.349 2.352-1.048 3.12c-.698.768-1.656 1.152-2.872 1.152zm0-1.76c.662 0 1.171-.224 1.528-.672.358-.448.536-1.061.536-1.84 0-.778-.178-1.397-.536-1.856-.357-.458-.866-.688-1.528-.688-.65 0-1.157.23-1.52.688-.362.459-.544 1.078-.544 1.856 0 .768.182 1.379.544 1.832.363.454.87.68 1.52.68zm9.376 4.816l-.992-1.504c1.142-.085 1.928-.261 2.36-.528.432-.266.648-.698.648-1.296v-.48c-.437.502-1.072.752-1.904.752-1.002 0-1.818-.37-2.448-1.112-.629-.741-.944-1.8-.944-3.176 0-1.312.315-2.352.944-3.12.63-.768 1.456-1.152 2.48-1.152.779 0 1.403.235 1.872.704v-.512h1.84v7.312c0 1.398-.29 2.408-.872 3.032-.581.624-1.576.984-2.984 1.08zm.432-4.816c.694 0 1.222-.277 1.584-.832v-3.408c-.384-.544-.912-.816-1.584-.816-.608 0-1.072.216-1.392.648-.32.432-.48 1.059-.48 1.88 0 .779.163 1.395.488 1.848.326.454.787.68 1.384.68zm12.032-6.8c.736 0 1.376.144 1.92.432v3.024h-1.792v-1.744h-.16c-.842 0-1.493.198-1.952.592-.458.395-.688.987-.688 1.776v2.672h2.288v1.616h-5.856v-1.616h1.728v-4.944h-1.728v-1.616h3.44v1.312c.224-.469.592-.837 1.104-1.104a3.626 3.626 0 0 1 1.696-.4zm7.104 8.56c-.896 0-1.624-.234-2.184-.704-.56-.469-.84-1.141-.84-2.016 0-.885.32-1.557.96-2.016.64-.458 1.408-.688 2.304-.688.779 0 1.456.144 2.032.432v-.48c0-.981-.538-1.472-1.616-1.472-.896 0-1.76.278-2.592.832l-.56-1.504c.992-.629 2.096-.944 3.312-.944 2.166 0 3.248 1.024 3.248 3.072v5.296h-1.792v-.64c-.576.555-1.333.832-2.272.832zm.336-1.616c.768 0 1.414-.272 1.936-.816v-1.056c-.49-.245-1.072-.368-1.744-.368-.512 0-.936.096-1.272.288-.336.192-.504.475-.504.848 0 .331.139.598.416.8.278.203.667.304 1.168.304zm6.624 4.64v-11.392h1.84v.624c.502-.544 1.168-.816 2-.816 1.099 0 1.971.379 2.616 1.136.646.758.968 1.808.968 3.152 0 1.312-.333 2.352-1 3.12-.666.768-1.522 1.152-2.568 1.152-.853 0-1.525-.282-2.016-.848v3.024l-1.84.848zm3.584-4.784c.63 0 1.118-.216 1.464-.648.347-.432.52-1.053.52-1.864 0-.778-.173-1.397-.52-1.856-.346-.458-.84-.688-1.48-.688-.768 0-1.344.272-1.728.816v3.424c.384.544.966.816 1.744.816zm6.208 1.568v-10.704l1.84-.848v4.176c.534-.661 1.307-.992 2.32-.992.896 0 1.624.27 2.184.808.56.539.84 1.395.84 2.568v4.992h-1.84v-4.608c0-.704-.157-1.216-.472-1.536-.314-.32-.722-.48-1.224-.48-.533 0-.968.155-1.304.464-.336.31-.504.816-.504 1.52v4.64h-1.84zm13.504-9.312c-.298 0-.554-.106-.768-.32a1.066 1.066 0 0 1-.32-.784c0-.309.107-.568.32-.776.214-.208.47-.312.768-.312.31 0 .571.104.784.312.214.208.32.467.32.776 0 .31-.106.571-.32.784-.213.214-.474.32-.784.32zm.928 7.696h2.256v1.616h-6.352v-1.616h2.256v-4.944h-2.256v-1.616h4.096v6.56zm9.024 1.808c-1.152 0-2.064-.378-2.736-1.136-.672-.757-1.008-1.802-1.008-3.136 0-1.322.344-2.368 1.032-3.136.688-.768 1.603-1.152 2.744-1.152 1.739 0 2.859.742 3.36 2.224l-1.744.592c-.277-.714-.81-1.072-1.6-1.072-.608 0-1.08.23-1.416.688-.336.459-.504 1.078-.504 1.856 0 .779.168 1.392.504 1.84.336.448.798.672 1.384.672.854 0 1.414-.4 1.68-1.2l1.744.544c-.49 1.611-1.637 2.416-3.44 2.416zm-128.224 14.496c-.298 0-.554-.106-.768-.32a1.066 1.066 0 0 1-.32-.784c0-.309.107-.568.32-.776.214-.208.47-.312.768-.312.31 0 .571.104.784.312.214.208.32.467.32.776 0 .31-.106.571-.32.784-.213.214-.474.32-.784.32zm.928 7.696h2.256v1.616h-6.352v-1.616h2.256v-4.944h-2.256v-1.616h4.096v6.56zm11.088-6.752c.683 0 1.187.238 1.512.712.326.475.488 1.272.488 2.392v5.264h-1.68v-4.992c0-.576-.053-.989-.16-1.24-.106-.25-.304-.376-.592-.376-.277 0-.498.144-.664.432-.165.288-.248.688-.248 1.2v4.976h-1.68v-5.04c0-1.045-.256-1.568-.768-1.568-.298 0-.536.144-.712.432-.176.288-.264.688-.264 1.2v4.976h-1.68v-8.176h1.568v1.088c.299-.853.838-1.28 1.616-1.28.342 0 .643.118.904.352.262.235.446.512.552.832.491-.789 1.094-1.184 1.808-1.184zm4.112 11.584v-11.392h1.84v.624c.502-.544 1.168-.816 2-.816 1.099 0 1.971.379 2.616 1.136.646.758.968 1.808.968 3.152 0 1.312-.333 2.352-1 3.12-.666.768-1.522 1.152-2.568 1.152-.853 0-1.525-.282-2.016-.848v3.024l-1.84.848zm3.584-4.784c.63 0 1.118-.216 1.464-.648.347-.432.52-1.053.52-1.864 0-.778-.173-1.397-.52-1.856-.346-.458-.84-.688-1.48-.688-.768 0-1.344.272-1.728.816v3.424c.384.544.966.816 1.744.816zm11.92-6.8c.736 0 1.376.144 1.92.432v3.024h-1.792v-1.744h-.16c-.842 0-1.493.198-1.952.592-.458.395-.688.987-.688 1.776v2.672h2.288v1.616h-5.856v-1.616h1.728v-4.944h-1.728v-1.616h3.44v1.312c.224-.469.592-.837 1.104-1.104a3.626 3.626 0 0 1 1.696-.4zm7.792-.944c-.298 0-.554-.106-.768-.32a1.066 1.066 0 0 1-.32-.784c0-.309.107-.568.32-.776.214-.208.47-.312.768-.312.31 0 .571.104.784.312.214.208.32.467.32.776 0 .31-.106.571-.32.784-.213.214-.474.32-.784.32zm.928 7.696h2.256v1.616h-6.352v-1.616h2.256v-4.944h-2.256v-1.616h4.096v6.56zm9.44-6.752c.896 0 1.624.27 2.184.808.56.539.84 1.395.84 2.568v4.992h-1.84v-4.608c0-.704-.154-1.216-.464-1.536-.309-.32-.72-.48-1.232-.48-1.205 0-1.808.662-1.808 1.984v4.64h-1.84v-8.176h1.696v1.008c.16-.32.472-.6.936-.84.464-.24.974-.36 1.528-.36zm10.032 8.56c-1.6 0-2.4-.741-2.4-2.224v-4.528h-1.712v-1.616h1.712v-2.496l1.84-.88v3.376h2.784v1.616h-2.784v4.176c0 .63.384.944 1.152.944.448 0 .918-.128 1.408-.384l-.224 1.648c-.469.246-1.061.368-1.776.368z" fill="#262626" fill-rule="nonzero"/>
    <path d="M85.711 305.029l50.47 29.328a17.296 17.296 0 0 0 17.28.05l51.054-29.28a1.726 1.726 0 0 0-.004-3l-51.409-29.297a17.302 17.302 0 0 0-17.236.072l-50.155 29.139a1.73 1.73 0 0 0 0 2.988z" fill="none" stroke="#262626"/>
    <path d="M145.17 286.969c.505-.336.505-.84 0-1.01-.505-.336-1.346-.336-1.85 0-.505.337-.505.674 0 1.01.504.169 1.345.169 1.85 0z" fill="#f7f7f7" stroke="#262626"/>
    <path d="M89.791 302.755c-.505.336-.505.673 0 1.01.505.336 1.346.336 1.851 0 .505-.337.505-.842 0-1.01-.505-.337-1.346-.337-1.85 0h-.001zm51.846-45.457l-55.529 32.14c-1.514.84-1.514 2.187 0 3.196l55.529 32.14c1.514.84 3.87.84 5.384 0l7.067-4.039c-1.177-.673-1.177-1.85 0-2.524 1.178-.673 3.03-.673 4.207 0l44.254-25.577c1.515-.84 1.515-2.187 0-3.197l-55.528-32.139c-1.514-.841-4.038-.841-5.384 0z" fill="#e6e5e5" stroke="#262626"/>
    <path d="M144.328 320.165c-.84 0-1.85-1.169-2.523-1.505l-55.528-32.14c-.505-.336-.842-.672-.842-1.177 0-.337.337-.841.842-1.178l55.528-32.139c.673-.337 1.514-.505 2.524-.505.841 0 1.85.168 2.524.505l55.528 32.139c.505.337.841.673.841 1.178 0 .336-.336.841-.84 1.178l-43.919 25.408a4.675 4.675 0 0 0-2.187-.505c-.841 0-1.683.169-2.356.505-.673.505-1.178 1.01-1.178 1.683 0 .505.169.841.505 1.178l-6.394 3.701c-.841.505-1.683 1.674-2.524 1.674h-.001z" fill="#fff" fill-rule="nonzero" stroke="#262626"/>
    <path d="M90.791 284.838c-.505.337-.505.673 0 1.01.505.336 1.346.336 1.851 0 .505-.337.505-.842 0-1.01-.505-.336-1.346-.336-1.85 0h-.001zm0 6.17c-.505.336-.505.673 0 1.01.505.336 1.346.336 1.851 0 .505-.337.505-.842 0-1.01-.505-.337-1.346-.337-1.85 0h-.001zm108.108-.435c-.505.337-.505.673 0 1.01.505.336 1.346.336 1.851 0 .505-.337.505-.842 0-1.01-.505-.336-1.346-.336-1.85 0h-.001zm-43.871 28.606c-.505.336-.505.673 0 1.01.505.336 1.346.336 1.85 0 .506-.337.506-.842 0-1.01-.504-.337-1.345-.337-1.85 0zm0-5.609c-.505.336-.505.673 0 1.01.505.336 1.346.336 1.85 0 .506-.337.506-.842 0-1.01-.504-.337-1.345-.337-1.85 0zm44.941-10.815c-.505.336-.505.673 0 1.01.505.336 1.346.336 1.851 0 .505-.337.505-.842 0-1.01-.505-.337-1.346-.337-1.85 0h-.001z" fill="none" stroke="#262626"/>
    <path d="M203.11 283.828l-6.394-3.701v10.432l6.394-3.702c1.515-.841 1.515-2.187 0-3.029z" fill="#fff" stroke="#262626"/>
    <path d="M111.821 285.677l31.48 18.292a3.456 3.456 0 0 0 3.455.01l31.807-18.242a1.726 1.726 0 0 0-.004-3l-32.005-18.239a3.463 3.463 0 0 0-3.447.014l-31.286 18.176a1.73 1.73 0 0 0 0 2.989z" fill="#0971ff" stroke="#262626" stroke-linecap="butt" stroke-linejoin="miter"/>
    <path d="M159.209 282.263l-15.105-.083c-.264 0-.482.111-.489.249l-.04.833c-.007.138-.225.25-.49.25l-2.897-.017c-.266 0-.474-.117-.468-.255l.134-2.89c.008-.14.229-.252.496-.25l15.173.155-3.901-2.125-.045.966c-.007.14-.23.253-.498.25l-2.905-.039c-.262-.003-.467-.116-.46-.254l.14-2.976-1.482-.806a1.352 1.352 0 0 0-1.117-.006l-15.053 7.645c-.317.162-.328.425-.029.59l1.407.766 15.285.083c.266 0 .484-.11.491-.25l.04-.831c.005-.139.225-.249.49-.249l2.897.016c.266 0 .474.117.468.255l-.135 2.89c-.007.14-.228.25-.495.25l-15.354-.156 4.079 2.221.048-1.061c.007-.141.23-.253.496-.25l2.906.039c.261.003.466.116.459.255l-.141 3.058 1.392.769c.299.164.802.167 1.119.007l15.051-7.647c.316-.16.328-.425.028-.588" fill="#fff"/>
    <path d="M126.718 12.437l-.736-2.464h-3.552l-.736 2.464h-2.048l3.664-11.2h1.792l3.664 11.2h-2.048zm-3.776-4.192h2.528l-.992-3.328a8.486 8.486 0 0 1-.272-1.248c-.128.65-.219 1.066-.272 1.248l-.992 3.328zm11.168 4.384a4.666 4.666 0 0 1-1.92-.392c-.587-.262-1.056-.616-1.408-1.064l1.2-1.088c.672.65 1.413.976 2.224.976.394 0 .72-.07.976-.208.256-.139.384-.347.384-.624 0-.16-.078-.312-.232-.456a2.116 2.116 0 0 0-.536-.36 18.842 18.842 0 0 0-.896-.384 1.14 1.14 0 0 0-.104-.048l-.104-.04c-.043-.016-.08-.03-.112-.04a34.887 34.887 0 0 1-.88-.392 7.98 7.98 0 0 1-.696-.384c-.272-.166-.47-.323-.592-.472a2.283 2.283 0 0 1-.328-.568 1.995 1.995 0 0 1-.144-.776c0-.694.298-1.24.896-1.64.597-.4 1.349-.6 2.256-.6 1.269 0 2.288.432 3.056 1.296l-1.232 1.008c-.587-.491-1.216-.736-1.888-.736-.416 0-.75.061-1 .184-.251.122-.376.296-.376.52 0 .106.042.21.128.312.085.101.234.208.448.32.213.112.389.197.528.256.138.058.373.152.704.28.981.394 1.632.714 1.952.96.565.448.853 1.029.864 1.744 0 .757-.286 1.349-.856 1.776-.571.426-1.342.64-2.312.64zm9.856 0a4.666 4.666 0 0 1-1.92-.392c-.587-.262-1.056-.616-1.408-1.064l1.2-1.088c.672.65 1.413.976 2.224.976.394 0 .72-.07.976-.208.256-.139.384-.347.384-.624 0-.16-.078-.312-.232-.456a2.116 2.116 0 0 0-.536-.36 18.842 18.842 0 0 0-.896-.384 1.14 1.14 0 0 0-.104-.048l-.104-.04c-.043-.016-.08-.03-.112-.04a34.887 34.887 0 0 1-.88-.392 7.98 7.98 0 0 1-.696-.384c-.272-.166-.47-.323-.592-.472a2.283 2.283 0 0 1-.328-.568 1.995 1.995 0 0 1-.144-.776c0-.694.298-1.24.896-1.64.597-.4 1.349-.6 2.256-.6 1.269 0 2.288.432 3.056 1.296l-1.232 1.008c-.587-.491-1.216-.736-1.888-.736-.416 0-.75.061-1 .184-.251.122-.376.296-.376.52 0 .106.042.21.128.312.085.101.234.208.448.32.213.112.389.197.528.256.138.058.373.152.704.28.981.394 1.632.714 1.952.96.565.448.853 1.029.864 1.744 0 .757-.286 1.349-.856 1.776-.571.426-1.342.64-2.312.64zm13.536-4.688c0 .469-.022.842-.064 1.12h-5.568c.117.597.354 1.069.712 1.416.357.346.818.52 1.384.52.714 0 1.317-.267 1.808-.8l1.104 1.168c-.768.842-1.744 1.264-2.928 1.264-1.206 0-2.158-.39-2.856-1.168-.699-.779-1.048-1.819-1.048-3.12 0-1.323.352-2.366 1.056-3.128.704-.763 1.653-1.144 2.848-1.144 1.045 0 1.898.328 2.56.984.661.656.992 1.618.992 2.888zm-5.648-.448h3.84c-.054-.598-.243-1.048-.568-1.352a1.663 1.663 0 0 0-1.176-.456c-.587 0-1.059.16-1.416.48-.358.32-.584.762-.68 1.328zm12.528 5.136c-1.6 0-2.4-.742-2.4-2.224V5.877h-1.712V4.261h1.712V1.765l1.84-.88v3.376h2.784v1.616h-2.784v4.176c0 .629.384.944 1.152.944.448 0 .917-.128 1.408-.384l-.224 1.648c-.47.245-1.062.368-1.776.368z" fill="#2c2f31" fill-rule="nonzero"/>
    <g fill="#fff">
        <text x="5630.27" y="130.464" font-family="'Roboto-Bold','Roboto'" font-weight="700" font-size=".67" stroke="#262626" stroke-width="1.33" stroke-linecap="butt" stroke-miterlimit="1.414" transform="translate(-4212.01 -49.284) scale(.75354)">
            tt
        </text>
        <path d="M30.63 49.063h.352v.025h-.353z"/>
    </g>
    <g stroke="#262626">
        <path d="M127.042 55.267l-2.967 1.715-11.364 6.571a4.046 4.046 0 0 0-2.025 3.511l-.009 31.881c0 1.372.697 2.653 1.837 3.384.095.081 28.049 16.209 28.156 16.271.387.259 1.226.543 2.062.543 1.517-.019-.419.861 29.966-16.687a4.044 4.044 0 0 0 2.027-3.511c0-34.111.034-31.988-.072-32.571a4.046 4.046 0 0 0-1.965-2.766l-11.533-6.648-6.339-3.654-9.714-5.599a5.005 5.005 0 0 0-4.984 0l-.995.598" fill="#fff" fill-rule="nonzero"/>
        <path d="M174.725 67.127v31.819a4.047 4.047 0 0 1-2.027 3.511l-10.197 5.887-6.382 3.686-11.38 6.571a4.18 4.18 0 0 1-2.007.543l.036-33.377v-.009a4.35 4.35 0 0 1 2.19-3.78l11.161-6.441 6.382-3.685 10.431-6.018a1.221 1.221 0 0 1 1.721.541c.045.244.072.496.072.752z" fill="#fff" fill-rule="nonzero"/>
        <path d="M136.399 79.553l4.181 2.416a4.378 4.378 0 0 1 2.188 3.789v.01l-.036 33.375c-.65 0-1.302-.143-1.889-.461l-11.638-6.719-6.304-3.637-10.387-5.996a4.013 4.013 0 0 1-1.801-2.851v-32.65a1.22 1.22 0 0 1 1.827-1.059l10.361 5.984 6.304 3.644 2.317 1.338 4.877 2.817z" fill="#e7fff0" fill-rule="nonzero"/>
        <path d="M161.155 56.96l-6.339-3.654-31.935 18.438.019.012v36.571l6.306 3.637V75.398l.008.004 31.941-18.442z" fill="#41ff8b" fill-rule="nonzero"/>
        <path d="M156.167 75.509l-.048.027v36.494l6.382-3.687v-36.49l-.001.001-13.449-7.89-6.347 3.543 13.463 8.002z" fill="#41ff8b" fill-rule="nonzero"/>
        <path d="M155.224 69.564c-.769.443-2.815.658-7.826-2.914-1.563-1.109-3.629-2.434-4.761-3.251 4.154-2.664 9.158-5.107 12.657 1.374 1.054 1.958 1.026 3.334.56 4.138a1.702 1.702 0 0 1-.63.653m-24.847-19.913c5.383 2.013 10.207 14.309 10.207 14.309.973.735 3.131 2.388 4.104 3.068.548.38 1.089.758 1.632 1.143 3.287 2.343 5.885 3.502 7.861 3.502.746 0 1.404-.163 1.976-.494.017-.01.031-.025.048-.035l4.271-2.181c1.654-.957 2.847-3.439.779-7.284-1.405-2.61-3.135-4.19-5.151-4.685-2.841-.703-4.911.497-7.791 1.958-.612.282-1.726 1.037-1.726 1.037a234.147 234.147 0 0 0-3.624-6.037c-.239-.391-.478-.782-.711-1.171-.926-1.533-1.877-3.118-3.129-4.475-1.159-1.265-2.908-1.744-4.347-1.19-.065.025-.126.057-.19.081l-.084.043c-.04.019-.081.04-.119.061l-4.006 2.35" fill="#41ff8b" fill-rule="nonzero" stroke-linecap="butt" stroke-miterlimit="1.414"/>
        <path d="M155.224 69.564c-.769.443-2.815.658-7.826-2.914-1.563-1.109-3.629-2.434-4.761-3.251 4.154-2.664 9.158-5.107 12.657 1.374 1.054 1.958 1.026 3.334.56 4.138a1.702 1.702 0 0 1-.63.653zm-14.444-5.466c.973.735 2.935 2.25 3.908 2.93.548.38 1.089.758 1.632 1.143 3.287 2.343 5.885 3.502 7.861 3.502.746 0 1.404-.163 1.976-.494.017-.01.031-.025.048-.035l4.271-2.181c1.654-.957 2.847-3.439.779-7.284-1.405-2.61-3.135-4.19-5.151-4.685-2.841-.703-4.911.497-7.791 1.958-.612.282-1.726 1.037-1.726 1.037a234.147 234.147 0 0 0-3.624-6.037c-.239-.391-.478-.782-.711-1.171-.926-1.533-1.877-3.118-3.129-4.475-1.159-1.265-2.908-1.744-4.347-1.19-.065.025-.126.057-.19.081l-.084.043c-.04.019-.081.04-.119.061l-5.99 3.308" fill="none"/>
        <path d="M139.25 60.968s-2.509-1.101-4.374-2.598c-4.657-3.737-2.848-7.834-3.565-8.056-.798-.25-1.643-.25-2.407.041-1.27.49-2.034 1.691-2.056 3.217 0 .222.011.444.028.664.565 5.659 9.152 7.702 13.801 9.728-.785-1.271-.985-1.922-1.427-2.996z" fill="#41ff8b" fill-rule="nonzero"/>
        <path d="M120.243 70.243l12.995 7.494" fill="none" stroke-miterlimit="1.5"/>
    </g>
    <g stroke="#262626">
        <path d="M264.039 88.377c0-.246.139-.474.364-.597l18.313-10.158v-9.815l-26.504 14.175-.224 38.06 8.062-3.581" fill="#fff" fill-rule="nonzero"/>
        <path d="M269.717 43.614l-26.719 13.337 13.425 24.908 26.293-14.079-12.999-24.166z" fill="#f67069" fill-rule="nonzero"/>
        <path d="M266.201 115.288v-5.753l13.172 7.007v5.753l-13.172-7.007zm.053-18.528l13.271 7.423v5.753l-13.271-7.423V96.76zm16.135 30.176V98.17l-4.637-2.542-13.91-7.624v28.767l18.547 10.165z" fill="#fff" fill-rule="nonzero"/>
        <path d="M298.285 102.657l-4.994 2.737v-5.753l4.994-2.737v5.753zm0 12.855l-4.994 2.737v-5.753l4.994-2.737v5.753zm-8.646-8.116l-4.994 2.736v-5.753l4.994-2.737v5.754zm0 12.855l-4.994 2.736v-5.753l4.994-2.737v5.754zm-2.81-24.623l-4.637 2.542v28.766l18.547-10.165V88.004l-13.91 7.624z" fill="#fff" fill-rule="nonzero" stroke-linecap="butt" stroke-miterlimit="1.414"/>
        <path d="M298.285 102.657l-4.994 2.737v-5.753l4.994-2.737v5.753zm0 12.855l-4.994 2.737v-5.753l4.994-2.737v5.753zm-8.646-8.116l-4.994 2.736v-5.753l4.994-2.737v5.754zm0 12.855l-4.994 2.736v-5.753l4.994-2.737v5.754zm-2.81-24.623l-4.637 2.542v28.766l18.547-10.165V88.004l-13.91 7.624z" fill="none"/>
        <path d="M282.29 78.211l-18.546 10.166 18.546 10.164 18.547-10.164-18.547-10.166z" fill="#f67069" fill-rule="nonzero"/>
        <path d="M243.061 67.298c2.683 1.47 4.856 5.045 4.856 7.984 0 2.94-2.174 4.131-4.856 2.661-2.681-1.471-4.857-5.045-4.857-7.985 0-2.939 2.176-4.131 4.857-2.66zm-6.207 42.311V94.921l13.183 7.271v14.642l5.952 3.262V80.982l-12.252-22.571-.746-1.46-.829.722-12.155 9.07v39.114l6.847 3.752z" fill="#fff" fill-rule="nonzero"/>
        <path d="M244.763 71.723l-.435-.539-1.356 1.929-1.249-1.553-.25.355 1.682 2.094 1.608-2.286z" fill="#414042" fill-rule="nonzero" stroke-linecap="butt" stroke-miterlimit="1.414"/>
    </g>
    <path d="M600.246 420.737c-7.854 4.513-14.208.873-14.19-8.129.019-9.005 6.402-19.961 14.258-24.475 7.856-4.513 14.209-.873 14.189 8.13-.019 9.003-6.402 19.96-14.257 24.474z" fill="#7000ff" fill-rule="nonzero" stroke="#262626" stroke-linecap="butt" stroke-miterlimit="1.414"/>
    <g fill="#fff" fill-rule="nonzero">
        <path d="M607.025 392.67c1.05 1.521 1.772 4.696 1.499 8.53-.251 3.531-1.642 6.83-3.318 10.125-.068.132-.028.299.089.371a.217.217 0 0 0 .102.034.245.245 0 0 0 .23-.14c1.698-3.336 3.107-6.68 3.375-10.265l.015-.206c.267-3.913-.491-7.175-1.605-8.79a.226.226 0 0 0-.342-.043.301.301 0 0 0-.045.384zm-6.11-.516c-4.485 2.154-7.622 6.736-8.832 12.903a.259.259 0 0 0 .207.301c.162.014.281-.074.306-.204 1.179-6.003 4.214-10.456 8.548-12.537 1.956-.939 3.619-1.049 4.809-.32a.262.262 0 0 0 .393-.223.256.256 0 0 0-.116-.213 3.81 3.81 0 0 0-1.745-.543c-1.065-.071-2.263.209-3.57.836z"/>
        <path d="M593.236 407.91c-.18 2.527.23 4.628 1.187 6.075.05.077.043.317-.135.59-.194.3-.43.408-.534.405-.03 0-.037-.008-.045-.023-.921-1.576-1.308-3.807-1.119-6.453l.001-.018a.261.261 0 0 0-.263-.257.26.26 0 0 0-.261.239c-.197 2.747.214 5.079 1.186 6.743.1.172.287.279.488.281.343.009.731-.244.99-.642.267-.411.319-.86.131-1.144-.881-1.333-1.273-3.379-1.103-5.76.47-6.605 3.291-11.61 7.74-13.731 1.719-.82 3.167-.896 4.189-.222 1.453.959 2.083 3.418 1.82 7.113-.409 5.73-3.881 11.89-7.74 13.73-1.11.529-2.133.651-3.04.361-.358-.114-.828.106-1.169.549-.298.385-.425.839-.329 1.184a.63.63 0 0 0 .367.429c.421.172.865.275 1.33.307.924.063 1.922-.152 2.948-.641 1.388-.662 2.796-1.817 4.074-3.343a.247.247 0 0 0 .048-.148.264.264 0 1 0-.453-.178c-1.231 1.469-2.579 2.578-3.899 3.208-1.402.668-2.731.779-3.845.322-.012-.005-.045-.018-.064-.089-.042-.153.016-.45.241-.742.226-.292.487-.402.589-.371 1.027.328 2.213.193 3.432-.387 4.01-1.912 7.613-8.262 8.033-14.156.28-3.943-.409-6.491-2.05-7.574a3.335 3.335 0 0 0-1.63-.533c-.906-.062-1.946.178-3.082.72-4.621 2.204-7.549 7.363-8.033 14.156z"/>
        <path d="M593.236 407.91c-.18 2.527.23 4.628 1.187 6.075.05.077.043.317-.135.59-.194.3-.43.408-.534.405-.03 0-.037-.008-.045-.023-.921-1.576-1.308-3.807-1.119-6.453l.001-.018a.261.261 0 0 0-.263-.257.26.26 0 0 0-.261.239c-.197 2.747.214 5.079 1.186 6.743.1.172.287.279.488.281.343.009.731-.244.99-.642.267-.411.319-.86.131-1.144-.881-1.333-1.273-3.379-1.103-5.76.47-6.605 3.291-11.61 7.74-13.731 1.719-.82 3.167-.896 4.189-.222 1.453.959 2.083 3.418 1.82 7.113-.409 5.73-3.881 11.89-7.74 13.73-1.11.529-2.133.651-3.04.361-.358-.114-.828.106-1.169.549-.298.385-.425.839-.329 1.184a.63.63 0 0 0 .367.429c.421.172.865.275 1.33.307.924.063 1.922-.152 2.948-.641 1.388-.662 2.796-1.817 4.074-3.343a.247.247 0 0 0 .048-.148.264.264 0 1 0-.453-.178c-1.231 1.469-2.579 2.578-3.899 3.208-1.402.668-2.731.779-3.845.322-.012-.005-.045-.018-.064-.089-.042-.153.016-.45.241-.742.226-.292.487-.402.589-.371 1.027.328 2.213.193 3.432-.387 4.01-1.912 7.613-8.262 8.033-14.156.28-3.943-.409-6.491-2.05-7.574a3.335 3.335 0 0 0-1.63-.533c-.906-.062-1.946.178-3.082.72-4.621 2.204-7.549 7.363-8.033 14.156z"/>
        <path d="M601.331 395.774c-.091.346-.04.656.139.849.144.155.35.217.581.175.642-.115 1.176.014 1.587.382.835.747 1.182 2.462 1.004 4.958-.109 1.525-.497 3.126-1.123 4.629-.149.356-.136.699.034.919.1.129.246.204.412.215a.713.713 0 0 0 .145-.006c.387-.055.805-.434.993-.9.716-1.777 1.162-3.653 1.288-5.424a.259.259 0 0 0-.516-.035c-.122 1.718-.555 3.54-1.252 5.267-.128.316-.406.555-.585.581-.058.009-.07-.008-.076-.015-.035-.045-.055-.191.034-.405.648-1.554 1.049-3.211 1.161-4.791.193-2.699-.202-4.508-1.173-5.378-.536-.48-1.218-.65-2.025-.505-.079.014-.102-.011-.109-.019-.045-.048-.068-.181-.019-.369.11-.421.482-.783.741-.827.779-.13 1.436.011 1.95.419.799.633 1.263 1.882 1.378 3.711a.258.258 0 0 0 .258.241h.016a.261.261 0 0 0 .242-.275c-.124-1.981-.653-3.355-1.571-4.082a2.664 2.664 0 0 0-1.503-.571 3.704 3.704 0 0 0-.854.048c-.494.083-1.002.614-1.157 1.208z"/>
        <path d="M594.499 407.534c-.215 3.017.558 5.415 2.067 6.415.436.293.944.466 1.471.502.642.044 1.333-.106 2.051-.45 1.156-.554 2.309-1.588 3.337-2.991.244-.333.351-.716.288-1.024a.623.623 0 0 0-.3-.428c-.353-.21-.864-.017-1.242.471-.696.899-1.457 1.563-2.2 1.919-.732.351-1.395.393-1.971.124-.719-.335-1.268-1.159-1.547-2.321-.053-.223.143-.662.466-.872.133-.087.222-.089.25-.077.018.007.028.035.034.057.256 1.068.745 1.797 1.414 2.109.508.237 1.094.21 1.693-.078 1.904-.912 3.646-4.375 3.884-7.718.175-2.442-.208-3.992-1.135-4.607-.568-.376-1.306-.364-2.136.033-2.047.982-3.441 3.545-3.822 7.033-.032.293-.282.647-.546.774-.09.043-.156.045-.179.03-.018-.013-.051-.072-.037-.202.378-3.496 1.673-6.296 3.648-7.884.477-.384.756-1.043.632-1.499a.613.613 0 0 0-.567-.475c-.234-.017-.497.083-.743.282-2.762 2.242-4.47 6.105-4.81 10.877zm.524.036c.33-4.63 1.97-8.364 4.619-10.515.154-.124.29-.171.372-.166a.123.123 0 0 1 .032.007c.013.004.046.014.066.088.062.232-.11.686-.458.966-2.081 1.675-3.444 4.597-3.836 8.228-.033.297.062.545.258.68.191.131.45.135.71.011.425-.204.785-.712.837-1.182.362-3.308 1.649-5.722 3.53-6.624.661-.317 1.204-.341 1.613-.07.739.491 1.061 1.962.906 4.144-.228 3.179-1.838 6.449-3.592 7.29-.457.219-.874.245-1.238.075-.513-.239-.913-.864-1.128-1.761a.578.578 0 0 0-.351-.419c-.216-.083-.477-.039-.733.127-.482.313-.797.964-.688 1.42.316 1.318.967 2.266 1.834 2.67.718.334 1.556.29 2.426-.127.817-.391 1.642-1.107 2.388-2.07.23-.297.485-.381.566-.334.026.015.038.057.042.081.028.135-.022.379-.199.62-.977 1.334-2.064 2.312-3.141 2.828-.63.302-1.231.434-1.784.396a2.478 2.478 0 0 1-1.216-.411c-1.35-.896-2.037-3.121-1.835-5.952z"/>
        <path d="M594.499 407.534c-.215 3.017.558 5.415 2.067 6.415.436.293.944.466 1.471.502.642.044 1.333-.106 2.051-.45 1.156-.554 2.309-1.588 3.337-2.991.244-.333.351-.716.288-1.024a.623.623 0 0 0-.3-.428c-.353-.21-.864-.017-1.242.471-.696.899-1.457 1.563-2.2 1.919-.732.351-1.395.393-1.971.124-.719-.335-1.268-1.159-1.547-2.321-.053-.223.143-.662.466-.872.133-.087.222-.089.25-.077.018.007.028.035.034.057.256 1.068.745 1.797 1.414 2.109.508.237 1.094.21 1.693-.078 1.904-.912 3.646-4.375 3.884-7.718.175-2.442-.208-3.992-1.135-4.607-.568-.376-1.306-.364-2.136.033-2.047.982-3.441 3.545-3.822 7.033-.032.293-.282.647-.546.774-.09.043-.156.045-.179.03-.018-.013-.051-.072-.037-.202.378-3.496 1.673-6.296 3.648-7.884.477-.384.756-1.043.632-1.499a.613.613 0 0 0-.567-.475c-.234-.017-.497.083-.743.282-2.762 2.242-4.47 6.105-4.81 10.877zm.524.036c.33-4.63 1.97-8.364 4.619-10.515.154-.124.29-.171.372-.166a.123.123 0 0 1 .032.007c.013.004.046.014.066.088.062.232-.11.686-.458.966-2.081 1.675-3.444 4.597-3.836 8.228-.033.297.062.545.258.68.191.131.45.135.71.011.425-.204.785-.712.837-1.182.362-3.308 1.649-5.722 3.53-6.624.661-.317 1.204-.341 1.613-.07.739.491 1.061 1.962.906 4.144-.228 3.179-1.838 6.449-3.592 7.29-.457.219-.874.245-1.238.075-.513-.239-.913-.864-1.128-1.761a.578.578 0 0 0-.351-.419c-.216-.083-.477-.039-.733.127-.482.313-.797.964-.688 1.42.316 1.318.967 2.266 1.834 2.67.718.334 1.556.29 2.426-.127.817-.391 1.642-1.107 2.388-2.07.23-.297.485-.381.566-.334.026.015.038.057.042.081.028.135-.022.379-.199.62-.977 1.334-2.064 2.312-3.141 2.828-.63.302-1.231.434-1.784.396a2.478 2.478 0 0 1-1.216-.411c-1.35-.896-2.037-3.121-1.835-5.952z"/>
        <path d="M598.241 405.631c-.124 1.747.234 3.073.958 3.546.164.107.34.167.524.18.203.014.415-.03.629-.131.74-.349 1.447-1.365 1.94-2.787a.257.257 0 0 0 .014-.082.258.258 0 0 0-.181-.244.269.269 0 0 0-.337.161c-.435 1.255-1.074 2.209-1.669 2.49-.236.111-.44.107-.623-.013-.449-.293-.847-1.36-.724-3.083.185-2.603 1.005-4.492 2.193-5.052.305-.143.558-.155.752-.036.247.152.655.667.628 2.42-.004.292-.267.68-.551.814-.103.048-.162.04-.179.03-.02-.012-.04-.061-.039-.141.023-1.345-.247-1.668-.451-1.794a.53.53 0 0 0-.517-.018c-.724.342-.981 1.89-1.069 3.129a9.106 9.106 0 0 0-.023.562c-.005.581.052 1.598.487 1.879.12.076.281.045.362-.07a.258.258 0 0 0-.067-.358c-.085-.059-.258-.491-.251-1.447.002-.17.009-.349.021-.53.161-2.261.67-2.645.782-2.704.044.05.213.313.195 1.341-.005.257.099.47.284.584.192.118.445.118.698-.001.461-.218.842-.786.849-1.268.024-1.527-.27-2.49-.874-2.862a1.087 1.087 0 0 0-.502-.159c-.211-.015-.467.026-.768.167-1.381.652-2.289 2.648-2.491 5.477z"/>
        <path d="M598.241 405.631c-.124 1.747.234 3.073.958 3.546.164.107.34.167.524.18.203.014.415-.03.629-.131.74-.349 1.447-1.365 1.94-2.787a.257.257 0 0 0 .014-.082.258.258 0 0 0-.181-.244.269.269 0 0 0-.337.161c-.435 1.255-1.074 2.209-1.669 2.49-.236.111-.44.107-.623-.013-.449-.293-.847-1.36-.724-3.083.185-2.603 1.005-4.492 2.193-5.052.305-.143.558-.155.752-.036.247.152.655.667.628 2.42-.004.292-.267.68-.551.814-.103.048-.162.04-.179.03-.02-.012-.04-.061-.039-.141.023-1.345-.247-1.668-.451-1.794a.53.53 0 0 0-.517-.018c-.724.342-.981 1.89-1.069 3.129a9.106 9.106 0 0 0-.023.562c-.005.581.052 1.598.487 1.879.12.076.281.045.362-.07a.258.258 0 0 0-.067-.358c-.085-.059-.258-.491-.251-1.447.002-.17.009-.349.021-.53.161-2.261.67-2.645.782-2.704.044.05.213.313.195 1.341-.005.257.099.47.284.584.192.118.445.118.698-.001.461-.218.842-.786.849-1.268.024-1.527-.27-2.49-.874-2.862a1.087 1.087 0 0 0-.502-.159c-.211-.015-.467.026-.768.167-1.381.652-2.289 2.648-2.491 5.477z"/>
    </g>
    <path d="M22.971 190.983h240.856m-240.884-54v53m241.112-53v53m-119.925-53v114.516" fill="none" stroke="#262626"/>
    <g stroke="#262626">
        <path d="M405.679 293.528l21.577-7.112m-45.194-20.29l8.133 9.02m-34.194 29.408l49.678-11.027m-15.484-18.38l16.046 18.6m-62.566-20.605l12.106 31.975m-43.377 14.789l43.377-14.789m-12.106-31.975l46.862 2.787m-21.119-38.746l12.865 28.381m-37.827 7.236l-14.284-23.1m24.485 54.977l-46.272-14.228m72.994-25.888l37.998-12.031m13.023 63.781l-6.145-28.991" fill="none"/>
        <path d="M422.519 247.456a4.53 4.53 0 0 1-3.301 8.433 4.528 4.528 0 0 1 3.301-8.433zm-50.767-12.925a4.528 4.528 0 0 1-3.301 8.433 4.53 4.53 0 0 1 3.301-8.433zm56.495 49.354a4.529 4.529 0 0 1-3.301 8.432 4.529 4.529 0 0 1 3.301-8.432zm-71.035 17.577a4.529 4.529 0 0 1-3.302 8.433 4.53 4.53 0 0 1-2.564-5.867 4.53 4.53 0 0 1 5.866-2.566zm-46.834-14.446a4.527 4.527 0 0 1-3.302 8.432 4.527 4.527 0 0 1 3.302-8.432zm21.787-40.751a4.529 4.529 0 0 1-3.302 8.433 4.53 4.53 0 0 1-2.564-5.867 4.53 4.53 0 0 1 5.866-2.566zm-15.862 70.305a4.529 4.529 0 0 1-3.302 8.433 4.53 4.53 0 0 1-2.564-5.867 4.53 4.53 0 0 1 5.866-2.566zm117.869-3.131a4.53 4.53 0 0 1-3.302 8.433 4.528 4.528 0 0 1 3.302-8.433zm-50.117-50.747a4.53 4.53 0 0 1 2.564 5.867 4.53 4.53 0 0 1-5.866 2.566 4.528 4.528 0 0 1 3.302-8.433zm7.913 9.583a4.529 4.529 0 0 1-3.302 8.432 4.528 4.528 0 0 1 3.302-8.432zm16.007 17.813a4.529 4.529 0 0 1-3.301 8.432 4.529 4.529 0 0 1 3.301-8.432zm-26.156 3.72a4.529 4.529 0 0 1-3.302 8.432 4.529 4.529 0 0 1 3.302-8.432zm-35.591-23.88a4.528 4.528 0 0 1-3.301 8.433 4.528 4.528 0 0 1 3.301-8.433z" fill="#fff"/>
    </g>
    <path d="M345.131 366.835v-11.2h3.952c1.291 0 2.237.336 2.84 1.008.603.672.904 1.493.904 2.464 0 .917-.315 1.725-.944 2.424-.629.698-1.563 1.048-2.8 1.048h-2.048v4.256h-1.904zm1.904-6.048h2.144c.576 0 1.005-.166 1.288-.496.283-.331.424-.726.424-1.184 0-.438-.136-.827-.408-1.168-.272-.342-.707-.512-1.304-.512h-2.144v3.36zm13.792-2.32c.736 0 1.376.144 1.92.432v3.024h-1.792v-1.744h-.16c-.843 0-1.493.197-1.952.592-.459.394-.688.986-.688 1.776v2.672h2.288v1.616h-5.856v-1.616h1.728v-4.944h-1.728v-1.616h3.44v1.312c.224-.47.592-.838 1.104-1.104a3.61 3.61 0 0 1 1.696-.4zm7.728 8.56c-1.205 0-2.16-.382-2.864-1.144-.704-.763-1.056-1.806-1.056-3.128 0-1.312.352-2.355 1.056-3.128.704-.774 1.659-1.16 2.864-1.16 1.216 0 2.173.386 2.872 1.16.699.773 1.048 1.816 1.048 3.128s-.349 2.352-1.048 3.12c-.699.768-1.656 1.152-2.872 1.152zm0-1.76c.661 0 1.171-.224 1.528-.672.357-.448.536-1.062.536-1.84 0-.779-.179-1.398-.536-1.856-.357-.459-.867-.688-1.528-.688-.651 0-1.157.229-1.52.688-.363.458-.544 1.077-.544 1.856 0 .768.181 1.378.544 1.832.363.453.869.68 1.52.68zm9.856 1.76c-1.205 0-2.16-.382-2.864-1.144-.704-.763-1.056-1.806-1.056-3.128 0-1.312.352-2.355 1.056-3.128.704-.774 1.659-1.16 2.864-1.16 1.216 0 2.173.386 2.872 1.16.699.773 1.048 1.816 1.048 3.128s-.349 2.352-1.048 3.12c-.699.768-1.656 1.152-2.872 1.152zm0-1.76c.661 0 1.171-.224 1.528-.672.357-.448.536-1.062.536-1.84 0-.779-.179-1.398-.536-1.856-.357-.459-.867-.688-1.528-.688-.651 0-1.157.229-1.52.688-.363.458-.544 1.077-.544 1.856 0 .768.181 1.378.544 1.832.363.453.869.68 1.52.68zm11.792-8.192c-.395 0-.72.069-.976.208-.256.138-.384.341-.384.608v.768h2.752v1.616h-2.752v4.944h2.176v1.616h-5.776v-1.616h1.76v-4.944h-1.76v-1.616h1.76v-1.12c0-.768.275-1.31.824-1.624.549-.315 1.208-.472 1.976-.472.779 0 1.429.133 1.952.4v1.52a3.986 3.986 0 0 0-1.552-.288z" fill="#262626" fill-rule="nonzero"/>
    <path d="M205.065 290.856h98.692" fill="none" stroke="#262626" stroke-miterlimit="1.5"/>
    <path d="M608.827 276.381c-.017 8.174-5.813 18.123-12.946 22.223-7.131 4.097-12.898.792-12.883-7.382.017-8.175 5.813-18.123 12.946-22.221 7.131-4.097 12.9-.792 12.883 7.38" fill="#00cfea" stroke="#262626"/>
    <path d="M588.664 301.121v20.178l8.817-8.805 5.68 1.406.481-22.352" fill="none" stroke="#262626" stroke-miterlimit="1.5"/>
    <path d="M39.265 97.023L5.154 116.1a1.987 1.987 0 0 1-.967.252 1.991 1.991 0 0 1-1.982-1.982v-.004l.105-50.702c.003-1.225.751-2.647 1.671-3.175l34.748-19.383c.919-.529 1.663.036 1.661 1.262l-.111 52.929a1.983 1.983 0 0 1-1.014 1.726z" fill="#fff" stroke="#262626" stroke-linecap="butt" stroke-linejoin="miter"/>
    <path d="M49.604 101.313L15.493 120.39a1.981 1.981 0 0 1-.967.252 1.992 1.992 0 0 1-1.982-1.982v-.004l.106-50.702c.003-1.225.751-2.647 1.671-3.175l34.748-19.383c.919-.529 1.663.036 1.66 1.262l-.11 52.929a1.985 1.985 0 0 1-1.015 1.726z" fill="#fff" stroke="#262626" stroke-linecap="butt" stroke-linejoin="miter"/>
    <path d="M60.499 106.442l-34.111 19.077a1.981 1.981 0 0 1-.967.252 1.992 1.992 0 0 1-1.982-1.982v-.004l.106-50.702c.003-1.225.75-2.647 1.671-3.175l34.747-19.383c.92-.529 1.664.036 1.661 1.262l-.11 52.929a1.984 1.984 0 0 1-1.015 1.726z" fill="#fff" stroke="#262626" stroke-linecap="butt" stroke-linejoin="miter"/>
    <path d="M55.671 89.885l-24.738 13.443c-.839.483-1.517-.033-1.514-1.149l.027-13.365c.002-1.117.685-2.414 1.524-2.897l24.738-13.445c.839-.482 1.516.033 1.515 1.15l-.028 13.366c-.003 1.116-.685 2.414-1.524 2.896v.001z" fill="#f2f2f2" stroke="#262626" stroke-linecap="butt" stroke-miterlimit="1.414"/>
    <path d="M58.014 73.433c-.009 4.142-2.946 9.183-6.56 11.261-3.614 2.076-6.536.402-6.528-3.741.008-4.142 2.945-9.184 6.56-11.26 3.613-2.076 6.537-.402 6.528 3.74" fill="#0c71ff" stroke="#262626"/>
    <path d="M29.527 111.324l25.308-14.541-25.308 14.541zm-.006 3.032l25.307-14.54-25.307 14.54zm-.006 2.75l25.307-14.54-25.307 14.54zm20.402-52.865L29.272 76.103c-.238.136-.429-.01-.429-.326l.002-.704c0-.316.193-.682.43-.819L49.92 62.392c.238-.136.429.01.429.326l-.002.704c0 .316-.193.682-.43.819M29.105 79.292l13.029-7.486-13.029 7.486z" fill="none" stroke="#262626" stroke-linecap="butt" stroke-linejoin="miter"/>
    <path d="M610.989 161.67c-.018 8.829-6.278 19.574-13.982 24.002-7.703 4.426-13.932.857-13.915-7.972.018-8.831 6.279-19.576 13.982-24.002 7.703-4.425 13.934-.856 13.915 7.972" fill="#41ff8b" stroke="#262626"/>
    <path d="M603.155 161.355c1.363.112 2.304 1.677 1.634 2.962-2.245 3.855-4.668 7.604-7.003 11.405-.708 1.093-2.404 1.227-3.264.205-2.467-3.225-6.224-7.352-2.755-8.342.78-.222 1.659.083 2.166.745l2.007 2.755 5.445-8.86c.412-.575.848-.903 1.77-.87z" fill="#fff" fill-rule="nonzero"/>
</svg>
