<svg width="846" viewBox="0 0 846 472" xmlns="http://www.w3.org/2000/svg" fill-rule="evenodd" clip-rule="evenodd" stroke-linecap="round" stroke-linejoin="round">
    <path d="M272.249 458.024h-5.834v4.773h6.781v1.459h-8.543v-13.468h8.448v1.458h-6.686v4.338h5.834v1.44zM278.507 457.91l2.216-3.656h1.99l-3.278 4.944 3.39 5.058h-1.988l-2.311-3.75-2.311 3.75h-1.99l3.373-5.058-3.277-4.944h1.989l2.197 3.656zM292.99 459.369c0 1.515-.36 2.746-1.06 3.675-.682.928-1.63 1.401-2.823 1.401-1.212 0-2.178-.397-2.86-1.155v4.811h-1.724v-13.847h1.572l.076 1.099c.701-.853 1.667-1.288 2.917-1.288 1.194 0 2.14.454 2.842 1.364.7.909 1.06 2.16 1.06 3.77v.17zm-1.723-.209c0-1.117-.228-2.008-.72-2.67-.474-.645-1.137-.967-1.97-.967-1.042 0-1.819.455-2.33 1.364v4.793c.511.909 1.288 1.364 2.349 1.364.814 0 1.458-.322 1.95-.966.493-.663.72-1.63.72-2.918zM294.696 459.16c0-.985.208-1.856.587-2.652a4.258 4.258 0 011.61-1.8c.682-.435 1.478-.643 2.35-.643 1.363 0 2.462.473 3.314 1.42.834.929 1.25 2.198 1.25 3.751v.133c0 .966-.17 1.837-.55 2.614-.378.776-.908 1.383-1.61 1.818-.681.417-1.477.644-2.386.644-1.345 0-2.444-.473-3.296-1.42-.833-.947-1.27-2.198-1.27-3.751v-.114zm1.724.209c0 1.098.265 1.989.776 2.67.512.664 1.213 1.005 2.065 1.005.871 0 1.572-.341 2.084-1.023.511-.682.757-1.63.757-2.86 0-1.1-.265-1.99-.776-2.672-.53-.681-1.213-1.022-2.084-1.022-.833 0-1.515.34-2.046 1.004-.511.681-.776 1.648-.776 2.898zM311.788 461.604c0-.474-.17-.834-.53-1.08-.341-.265-.948-.473-1.819-.663-.871-.19-1.553-.398-2.065-.663-.511-.265-.871-.568-1.117-.928a2.184 2.184 0 01-.38-1.27c0-.833.36-1.514 1.043-2.083.7-.568 1.59-.852 2.67-.852 1.137 0 2.046.284 2.766.871.701.587 1.042 1.345 1.042 2.254h-1.705c0-.473-.208-.871-.606-1.212-.398-.341-.89-.511-1.496-.511-.625 0-1.118.132-1.459.416-.36.265-.53.625-.53 1.061 0 .417.151.72.492.928.322.209.91.417 1.762.606.852.19 1.553.417 2.084.682.53.266.928.588 1.174.947.265.38.379.834.379 1.383 0 .89-.36 1.61-1.061 2.14-.72.55-1.648.815-2.785.815-.814 0-1.515-.151-2.14-.435-.606-.284-1.099-.682-1.44-1.175-.34-.511-.53-1.06-.53-1.667h1.724c.019.587.246 1.042.682 1.364.435.341 1.004.512 1.704.512.645 0 1.156-.133 1.554-.398.398-.265.587-.606.587-1.042zM319.888 464.445c-1.364 0-2.462-.454-3.315-1.345-.852-.89-1.288-2.083-1.288-3.58v-.303c0-1.004.19-1.875.568-2.652.38-.795.91-1.402 1.592-1.837a4.048 4.048 0 012.216-.663c1.307 0 2.31.435 3.05 1.288.72.852 1.08 2.084 1.08 3.675v.72h-6.782c.019.985.303 1.78.852 2.386.569.606 1.27.91 2.103.91.606 0 1.118-.114 1.553-.36a4.511 4.511 0 001.099-.985l1.042.814c-.834 1.288-2.103 1.932-3.77 1.932zm-.227-8.978c-.682 0-1.27.246-1.724.757-.473.493-.758 1.213-.871 2.103h5v-.114c-.037-.871-.284-1.553-.7-2.027-.417-.473-.985-.72-1.705-.72zM561.444 225.373h-1.78l-6.782-10.38v10.38h-1.78v-13.468h1.78l6.8 10.418v-10.418h1.762v13.468zM563.867 220.277c0-.985.208-1.856.587-2.651a4.258 4.258 0 011.61-1.8c.682-.436 1.477-.644 2.349-.644 1.364 0 2.462.474 3.315 1.42.833.929 1.25 2.198 1.25 3.751v.133c0 .966-.17 1.837-.55 2.614-.378.777-.909 1.383-1.61 1.818-.682.417-1.477.644-2.386.644-1.345 0-2.444-.473-3.296-1.42-.834-.947-1.27-2.198-1.27-3.75v-.115zm1.723.209c0 1.099.265 1.989.777 2.67.511.664 1.212 1.005 2.065 1.005.871 0 1.572-.341 2.083-1.023.512-.682.758-1.63.758-2.86 0-1.1-.265-1.99-.777-2.671-.53-.682-1.212-1.023-2.083-1.023-.834 0-1.516.34-2.046 1.004-.512.682-.777 1.648-.777 2.898zM577.454 212.947v2.424h1.876v1.326h-1.876v6.195c0 .397.076.7.246.909.17.19.455.303.853.303.19 0 .473-.038.814-.114v1.383a4.64 4.64 0 01-1.307.19c-.776 0-1.345-.228-1.742-.701-.38-.455-.569-1.118-.569-1.97v-6.195h-1.837v-1.326h1.837v-2.424h1.705zM587.506 225.373c-.113-.19-.19-.55-.246-1.06-.796.833-1.743 1.25-2.86 1.25-.985 0-1.78-.285-2.425-.834-.625-.568-.947-1.27-.947-2.122 0-1.041.398-1.856 1.193-2.443.796-.568 1.913-.853 3.334-.853h1.667v-.795c0-.587-.17-1.08-.53-1.42-.36-.36-.89-.531-1.573-.531-.625 0-1.136.151-1.534.454-.417.303-.625.682-.625 1.118h-1.724c0-.493.17-.985.53-1.44.36-.473.834-.833 1.44-1.117a5 5 0 012.008-.398c1.156 0 2.046.284 2.709.871.644.569.985 1.364 1.023 2.368v4.603c0 .928.114 1.667.34 2.197v.152h-1.78zm-2.841-1.307c.53 0 1.042-.133 1.515-.417a2.382 2.382 0 001.042-1.08v-2.045h-1.326c-2.103 0-3.144.606-3.144 1.837 0 .53.17.947.53 1.25.36.303.815.455 1.383.455zM596.465 216.906a4.08 4.08 0 00-.852-.076c-1.118 0-1.876.492-2.274 1.44v7.103h-1.723v-10.002h1.667l.038 1.156c.549-.89 1.344-1.345 2.386-1.345.322 0 .588.038.758.133v1.59zM599.9 225.373h-1.723v-10.002h1.724v10.002zm-1.856-12.654c0-.284.076-.511.247-.72.17-.189.416-.284.757-.284s.588.095.758.285c.17.208.265.435.265.72a.992.992 0 01-.265.681c-.17.19-.417.284-.758.284-.34 0-.587-.094-.757-.284a.976.976 0 01-.247-.682zM604.232 223.971h5.854v1.402h-7.937v-1.25l5.512-7.35h-5.436v-1.402h7.596v1.213l-5.589 7.387zM616.178 225.562c-1.364 0-2.463-.454-3.315-1.344-.853-.89-1.288-2.084-1.288-3.58v-.304c0-1.004.19-1.875.568-2.652.379-.795.91-1.401 1.591-1.837a4.048 4.048 0 012.216-.663c1.307 0 2.311.436 3.05 1.288.72.852 1.08 2.084 1.08 3.675v.72h-6.782c.02.985.303 1.78.853 2.386.568.607 1.269.91 2.102.91.607 0 1.118-.114 1.554-.36a4.511 4.511 0 001.098-.985l1.042.814c-.833 1.288-2.102 1.932-3.77 1.932zm-.228-8.978c-.682 0-1.269.246-1.723.757-.474.493-.758 1.213-.872 2.103h5.001v-.114c-.038-.871-.284-1.553-.7-2.026-.418-.474-.986-.72-1.706-.72z" fill="#fff" fill-rule="nonzero"/>
    <path fill="#0c4898" stroke="#0c71ff" stroke-width="2" d="M17727.2 12792.4h206.354v63.254H17727.2z" transform="matrix(.74902 0 0 1 -12834.288 -12385.657)"/>
    <path d="M500.414 439.691v5h-2.94v-14.22h5.56c1.06 0 2 .2 2.82.58.8.4 1.42.96 1.86 1.68.44.72.66 1.54.66 2.44 0 1.4-.48 2.5-1.44 3.3-.94.8-2.26 1.22-3.96 1.22h-2.56zm0-2.38h2.62c.78 0 1.36-.18 1.76-.54.42-.38.62-.9.62-1.58s-.2-1.26-.62-1.68c-.4-.44-.98-.66-1.7-.66h-2.68v4.46zM516.134 436.771a6.5 6.5 0 00-1.02-.08c-1.06 0-1.76.36-2.1 1.08v6.92h-2.82v-10.56h2.68l.06 1.26c.58-.98 1.36-1.46 2.36-1.46.32 0 .6.04.88.12l-.04 2.72zM516.654 439.311c0-1.04.2-1.98.62-2.8.4-.82.98-1.46 1.74-1.9.76-.46 1.64-.68 2.64-.68 1.42 0 2.58.44 3.48 1.3.9.88 1.42 2.06 1.52 3.56l.02.72c0 1.62-.46 2.92-1.36 3.9-.9.98-2.12 1.48-3.64 1.48s-2.74-.5-3.66-1.46c-.9-.98-1.36-2.32-1.36-4v-.12zm2.82.2c0 1 .2 1.78.58 2.3.38.54.92.8 1.62.8.68 0 1.22-.26 1.6-.78.38-.54.58-1.36.58-2.52 0-.98-.2-1.74-.58-2.28-.38-.54-.92-.82-1.62-.82-.7 0-1.22.28-1.6.8-.38.54-.58 1.38-.58 2.5zM527.954 439.311c0-1.04.2-1.98.62-2.8.4-.82.98-1.46 1.74-1.9.76-.46 1.64-.68 2.64-.68 1.42 0 2.58.44 3.48 1.3.9.88 1.42 2.06 1.52 3.56l.02.72c0 1.62-.46 2.92-1.36 3.9-.9.98-2.12 1.48-3.64 1.48s-2.74-.5-3.66-1.46c-.9-.98-1.36-2.32-1.36-4v-.12zm2.82.2c0 1 .2 1.78.58 2.3.38.54.92.8 1.62.8.68 0 1.22-.26 1.6-.78.38-.54.58-1.36.58-2.52 0-.98-.2-1.74-.58-2.28-.38-.54-.92-.82-1.62-.82-.7 0-1.22.28-1.6.8-.38.54-.58 1.38-.58 2.5zM540.474 444.691v-8.5h-1.58v-2.06h1.58v-.9c0-1.18.34-2.1 1.02-2.76.68-.66 1.62-.98 2.86-.98.38 0 .86.06 1.42.2l-.02 2.18c-.24-.06-.52-.1-.86-.1-1.06 0-1.6.5-1.6 1.5v.86h2.1v2.06h-2.1v8.5h-2.82z" fill="#fff" fill-rule="nonzero"/>
    <path d="M85.214 178.983l189.786.033" fill="none" stroke="#999" stroke-width=".94" stroke-linecap="butt" stroke-linejoin="miter" transform="matrix(1.44324 0 0 1.44324 43.824 180.17)"/>
    <path d="M836.115 138.6l11.329 13.216-11.329-13.216zM836.115 138.6l11.329 13.216-11.329-13.216zM835.73 138.856l-11.33 13.217 11.33-13.217z" fill="none" stroke="#999" stroke-width="1.88" transform="matrix(0 .72108 -.72107 0 540.203 -164.27)"/>
    <g>
        <path d="M83.828 178.983l113.653.033" fill="none" stroke="#999" stroke-width=".94" stroke-linecap="butt" stroke-linejoin="miter" transform="matrix(1.44324 0 0 1.44324 45.702 -20.956)"/>
        <path d="M836.115 138.6l11.329 13.216-11.329-13.216zM836.115 138.6l11.329 13.216-11.329-13.216zM835.73 138.856l-11.33 13.217 11.33-13.217z" fill="none" stroke="#999" stroke-width="1.88" transform="matrix(0 .72108 -.72107 0 432.12 -365.395)"/>
    </g>
    <g>
        <path d="M83.828 178.983l113.653.033 60.757 117.662" fill="none" stroke="#999" stroke-width=".94" stroke-linecap="butt" stroke-linejoin="miter" transform="matrix(1.44324 0 0 1.44324 45.702 -225.92)"/>
        <path d="M836.115 138.6l11.329 13.216-11.329-13.216zM836.115 138.6l11.329 13.216-11.329-13.216zM835.73 138.856l-11.33 13.217 11.33-13.217z" fill="none" stroke="#999" stroke-width="1.88" transform="matrix(-.64763 .31705 -.31705 -.64763 1003.674 27.196)"/>
    </g>
    <g>
        <path d="M83.828 191.455l113.653.033 60.757 105.19" fill="none" stroke="#999" stroke-width=".94" stroke-linecap="butt" stroke-linejoin="miter" transform="matrix(1.44324 0 0 -1.44324 45.702 696.727)"/>
        <path d="M836.115 138.6l11.329 13.216-11.329-13.216zM836.115 138.6l11.329 13.216-11.329-13.216zM835.73 138.856l-11.33 13.217 11.33-13.217z" fill="none" stroke="#999" stroke-width="1.88" transform="matrix(-.64763 -.31705 -.31705 .64763 1003.886 443.819)"/>
    </g>
    <g>
        <path d="M83.828 178.983l115.712-.002 25.063 47.814" fill="none" stroke="#999" stroke-width=".94" stroke-linecap="butt" stroke-linejoin="miter" transform="matrix(1.44324 0 0 1.44324 45.702 -124.368)"/>
        <path d="M836.115 138.6l11.329 13.216-11.329-13.216zM836.115 138.6l11.329 13.216-11.329-13.216zM835.73 138.856l-11.33 13.217 11.33-13.217z" fill="none" stroke="#999" stroke-width="1.88" transform="matrix(-.64763 .31705 -.31705 -.64763 955.05 27.196)"/>
    </g>
    <g>
        <path d="M83.828 178.983l115.712-.002 25.063 47.814" fill="none" stroke="#999" stroke-width=".94" stroke-linecap="butt" stroke-linejoin="miter" transform="matrix(1.44324 0 0 -1.44324 45.702 595.59)"/>
        <path d="M836.115 138.6l11.329 13.216-11.329-13.216zM836.115 138.6l11.329 13.216-11.329-13.216zM835.73 138.856l-11.33 13.217 11.33-13.217z" fill="none" stroke="#999" stroke-width="1.88" transform="matrix(-.64763 -.31705 -.31705 .64763 955.156 443.819)"/>
    </g>
    <g>
        <path fill="#0c4898" stroke="#0c71ff" stroke-width="2" d="M17727.2 12792.4h206.354v63.254H17727.2z" transform="matrix(.79163 0 0 1 -14032.487 -12791.51)"/>
    </g>
    <g>
        <path fill="#0c4898" stroke="#0c71ff" stroke-width="2" d="M17727.2 12792.4h206.354v63.254H17727.2z" transform="matrix(.79163 0 0 1 -14032.487 -12689.994)"/>
        <path d="M72.796 136.905c0-.92.12-1.64.34-2.18.22-.54.62-1.08 1.22-1.6.58-.52.98-.96 1.18-1.28.18-.32.28-.68.28-1.04 0-1.1-.5-1.64-1.52-1.64-.48 0-.86.14-1.16.44-.28.3-.44.7-.44 1.22h-2.84c.02-1.24.42-2.22 1.2-2.92.8-.7 1.88-1.06 3.24-1.06 1.38 0 2.46.34 3.22 1 .76.68 1.14 1.62 1.14 2.84 0 .54-.12 1.06-.38 1.56-.24.5-.68 1.04-1.3 1.64l-.78.74c-.5.48-.78 1.04-.86 1.68l-.04.6h-2.5zm-.28 3c0-.44.16-.8.44-1.08.3-.28.68-.44 1.14-.44.46 0 .84.16 1.14.44.3.28.44.64.44 1.08 0 .42-.14.78-.42 1.06-.3.28-.68.42-1.16.42-.46 0-.86-.14-1.14-.42-.28-.28-.44-.64-.44-1.06zM95.036 141.265h-9.76v-1.94l4.6-4.9c.64-.68 1.1-1.28 1.4-1.8.32-.52.46-1 .46-1.46 0-.64-.16-1.14-.48-1.5-.32-.36-.78-.54-1.36-.54-.64 0-1.14.22-1.52.66-.36.44-.54 1.02-.54 1.74h-2.84c0-.88.22-1.66.62-2.38.42-.72 1-1.28 1.76-1.68.76-.42 1.6-.62 2.56-.62 1.46 0 2.6.36 3.42 1.06.8.7 1.22 1.7 1.22 2.98 0 .7-.18 1.42-.56 2.14-.36.74-.98 1.58-1.86 2.56l-3.24 3.4h6.12v2.28z" fill="#fff" fill-rule="nonzero"/>
    </g>
    <g>
        <path fill="#0c4898" stroke="#0c71ff" stroke-width="2" d="M17727.2 12792.4h206.354v63.254H17727.2z" transform="matrix(.79163 0 0 1 -14032.487 -12588.472)"/>
        <path d="M72.796 238.427c0-.92.12-1.64.34-2.18.22-.54.62-1.08 1.22-1.6.58-.52.98-.96 1.18-1.28.18-.32.28-.68.28-1.04 0-1.1-.5-1.64-1.52-1.64-.48 0-.86.14-1.16.44-.28.3-.44.7-.44 1.22h-2.84c.02-1.24.42-2.22 1.2-2.92.8-.7 1.88-1.06 3.24-1.06 1.38 0 2.46.34 3.22 1 .76.68 1.14 1.62 1.14 2.84 0 .54-.12 1.06-.38 1.56-.24.5-.68 1.04-1.3 1.64l-.78.74c-.5.48-.78 1.04-.86 1.68l-.04.6h-2.5zm-.28 3c0-.44.16-.8.44-1.08.3-.28.68-.44 1.14-.44.46 0 .84.16 1.14.44.3.28.44.64.44 1.08 0 .42-.14.78-.42 1.06-.3.28-.68.42-1.16.42-.46 0-.86-.14-1.14-.42-.28-.28-.44-.64-.44-1.06zM88.156 234.427h1.5c.72 0 1.24-.18 1.6-.54.34-.36.52-.82.52-1.42 0-.58-.18-1.02-.52-1.34-.34-.32-.82-.48-1.42-.48-.54 0-.98.14-1.36.44-.36.3-.54.68-.54 1.16h-2.82c0-.74.2-1.4.6-2 .4-.58.96-1.04 1.68-1.38.72-.32 1.52-.5 2.38-.5 1.5 0 2.68.36 3.54 1.08.84.72 1.28 1.72 1.28 2.98 0 .64-.2 1.24-.6 1.8-.4.54-.92.96-1.56 1.26.8.28 1.4.72 1.78 1.28.4.58.6 1.26.6 2.04 0 1.26-.46 2.28-1.38 3.04-.92.76-2.14 1.14-3.66 1.14-1.42 0-2.58-.38-3.48-1.12-.9-.76-1.36-1.74-1.36-2.98h2.82c0 .54.2.98.6 1.32.4.34.9.5 1.48.5.68 0 1.2-.18 1.58-.54.38-.34.58-.82.58-1.4 0-1.42-.78-2.14-2.34-2.14h-1.5v-2.2z" fill="#fff" fill-rule="nonzero"/>
    </g>
    <g>
        <path fill="#0c4898" stroke="#0c71ff" stroke-width="2" d="M17727.2 12792.4h206.354v63.254H17727.2z" transform="matrix(.79163 0 0 1 -13352.215 -12588.553)"/>
    </g>
    <g>
        <path fill="#0c4898" stroke="#0c71ff" stroke-width="2" d="M17727.2 12792.4h206.354v63.254H17727.2z" transform="matrix(.79163 0 0 .90689 -13696.133 -11394.428)"/>
    </g>
    <g>
        <path fill="#0c4898" stroke="#0c71ff" stroke-width="2" d="M17727.2 12792.4h206.354v63.254H17727.2z" transform="matrix(.79163 0 0 1 -14032.487 -12486.95)"/>
        <path d="M72.796 339.949c0-.92.12-1.64.34-2.18.22-.54.62-1.08 1.22-1.6.58-.52.98-.96 1.18-1.28.18-.32.28-.68.28-1.04 0-1.1-.5-1.64-1.52-1.64-.48 0-.86.14-1.16.44-.28.3-.44.7-.44 1.22h-2.84c.02-1.24.42-2.22 1.2-2.92.8-.7 1.88-1.06 3.24-1.06 1.38 0 2.46.34 3.22 1 .76.68 1.14 1.62 1.14 2.84 0 .54-.12 1.06-.38 1.56-.24.5-.68 1.04-1.3 1.64l-.78.74c-.5.48-.78 1.04-.86 1.68l-.04.6h-2.5zm-.28 3c0-.44.16-.8.44-1.08.3-.28.68-.44 1.14-.44.46 0 .84.16 1.14.44.3.28.44.64.44 1.08 0 .42-.14.78-.42 1.06-.3.28-.68.42-1.16.42-.46 0-.86-.14-1.14-.42-.28-.28-.44-.64-.44-1.06zM93.636 338.949h1.6v2.28h-1.6v3.08h-2.82v-3.08h-5.84l-.12-1.78 5.92-9.36h2.86v8.86zm-5.98 0h3.16v-5.02l-.2.34-2.96 4.68z" fill="#fff" fill-rule="nonzero"/>
    </g>
    <g>
        <path fill="#226a3c" stroke="#41ff8b" stroke-width="2.22" d="M17727.2 12792.4h206.354v63.254H17727.2z" transform="matrix(.79163 0 0 1 -14032.487 -12385.44)"/>
        <path d="M59.716 440.819v5h-2.94v-14.22h5.56c1.06 0 2 .2 2.82.58.8.4 1.42.96 1.86 1.68.44.72.66 1.54.66 2.44 0 1.4-.48 2.5-1.44 3.3-.94.8-2.26 1.22-3.96 1.22h-2.56zm0-2.38h2.62c.78 0 1.36-.18 1.76-.54.42-.38.62-.9.62-1.58s-.2-1.26-.62-1.68c-.4-.44-.98-.66-1.7-.66h-2.68v4.46zM75.516 445.819c-.12-.26-.22-.56-.28-.94-.68.76-1.56 1.14-2.66 1.14-1.04 0-1.9-.3-2.58-.9-.68-.6-1.02-1.36-1.02-2.26 0-1.12.42-1.98 1.24-2.58.84-.6 2.04-.9 3.6-.92h1.3v-.6c0-.48-.12-.88-.36-1.18-.26-.28-.66-.44-1.2-.44-.48 0-.84.12-1.12.34-.26.24-.4.56-.4.94h-2.82c0-.6.18-1.18.56-1.7.38-.52.92-.92 1.6-1.22.7-.3 1.48-.44 2.34-.44 1.3 0 2.32.32 3.1.98.76.66 1.14 1.58 1.14 2.76v4.58c0 1 .14 1.76.42 2.28v.16h-2.86zm-2.32-1.96c.4 0 .8-.1 1.14-.28.36-.18.62-.44.78-.74v-1.82h-1.04c-1.42 0-2.18.48-2.26 1.46l-.02.16c0 .36.14.64.38.88.24.22.58.34 1.02.34zM86.036 437.899a6.5 6.5 0 00-1.02-.08c-1.06 0-1.76.36-2.1 1.08v6.92h-2.82v-10.56h2.68l.06 1.26c.58-.98 1.36-1.46 2.36-1.46.32 0 .6.04.88.12l-.04 2.72zM91.276 432.659v2.6h1.8v2.06h-1.8v5.28c0 .38.08.66.22.84.16.16.44.26.86.26.32 0 .6-.04.84-.08v2.14c-.56.18-1.12.26-1.72.26-1.98 0-2.98-1-3.02-3v-5.7h-1.54v-2.06h1.54v-2.6h2.82zM108.336 439.659h-5.62v3.8h6.6v2.36h-9.54v-14.22h9.52v2.38h-6.58v3.38h5.62v2.3z" fill="#fff" fill-rule="nonzero"/>
    </g>
    <g>
        <path d="M72.796 35.389c0-.92.12-1.64.34-2.18.22-.54.62-1.08 1.22-1.6.58-.52.98-.96 1.18-1.28.18-.32.28-.68.28-1.04 0-1.1-.5-1.64-1.52-1.64-.48 0-.86.14-1.16.44-.28.3-.44.7-.44 1.22h-2.84c.02-1.24.42-2.22 1.2-2.92.8-.7 1.88-1.06 3.24-1.06 1.38 0 2.46.34 3.22 1 .76.68 1.14 1.62 1.14 2.84 0 .54-.12 1.06-.38 1.56-.24.5-.68 1.04-1.3 1.64l-.78.74c-.5.48-.78 1.04-.86 1.68l-.04.6h-2.5zm-.28 3c0-.44.16-.8.44-1.08.3-.28.68-.44 1.14-.44.46 0 .84.16 1.14.44.3.28.44.64.44 1.08 0 .42-.14.78-.42 1.06-.3.28-.68.42-1.16.42-.46 0-.86-.14-1.14-.42-.28-.28-.44-.64-.44-1.06zM92.136 39.749h-2.82v-10.88l-3.36 1.04v-2.28l5.88-2.12h.3v14.24z" fill="#fff" fill-rule="nonzero"/>
    </g>
    <g>
        <path fill="#fff" fill-rule="nonzero" d="M731.852 228.486h2.92v14.22h-2.92zM740.032 232.146l.08 1.18c.74-.92 1.76-1.38 3.04-1.38 1.36 0 2.3.54 2.8 1.6.74-1.06 1.8-1.6 3.18-1.6 1.14 0 2 .34 2.56 1 .56.66.84 1.68.84 3.02v6.74h-2.84v-6.74c0-.6-.12-1.04-.36-1.32-.22-.26-.64-.4-1.24-.4-.84 0-1.42.4-1.76 1.2l.02 7.26h-2.82v-6.72c0-.62-.12-1.06-.36-1.34s-.66-.4-1.24-.4c-.8 0-1.38.32-1.74.98v7.48h-2.82v-10.56h2.66zM764.192 237.526c0 1.62-.38 2.92-1.12 3.9-.74.98-1.72 1.48-2.98 1.48-1.08 0-1.94-.38-2.6-1.12v4.98h-2.82v-14.62h2.62l.1 1.02c.68-.82 1.58-1.22 2.68-1.22 1.3 0 2.3.48 3.04 1.44.72.96 1.08 2.3 1.08 3.98v.16zm-2.82-.22c0-.98-.18-1.74-.52-2.26-.36-.54-.86-.8-1.52-.8-.9 0-1.5.34-1.84 1v4.34c.36.7.96 1.04 1.86 1.04 1.34 0 2.02-1.1 2.02-3.32zM771.812 234.786a6.5 6.5 0 00-1.02-.08c-1.06 0-1.76.36-2.1 1.08v6.92h-2.82v-10.56h2.68l.06 1.26c.58-.98 1.36-1.46 2.36-1.46.32 0 .6.04.88.12l-.04 2.72zM776.152 242.706h-2.82v-10.56h2.82v10.56zm-3-13.3c0-.42.14-.78.42-1.04.3-.28.68-.42 1.16-.42.48 0 .88.14 1.16.42.28.26.42.62.42 1.04 0 .42-.14.78-.42 1.06-.3.26-.68.4-1.16.4-.46 0-.86-.14-1.14-.4-.3-.28-.44-.64-.44-1.06zM781.072 232.146l.08 1.22c.76-.94 1.78-1.42 3.04-1.42 1.12 0 1.96.32 2.5.98.56.66.84 1.64.84 2.96v6.82h-2.82v-6.76c0-.6-.12-1.04-.38-1.3-.26-.28-.7-.4-1.3-.4-.8 0-1.4.34-1.8 1v7.46h-2.82v-10.56h2.66zM793.052 229.546v2.6h1.8v2.06h-1.8v5.28c0 .38.08.66.22.84.16.16.44.26.86.26.32 0 .6-.04.84-.08v2.14c-.56.18-1.12.26-1.72.26-1.98 0-2.98-1-3.02-3v-5.7h-1.54v-2.06h1.54v-2.6h2.82z"/>
    </g>
    <g>
        <path d="M417.354 238.346c0-.92.12-1.64.34-2.18.22-.54.62-1.08 1.22-1.6.58-.52.98-.96 1.18-1.28.18-.32.28-.68.28-1.04 0-1.1-.5-1.64-1.52-1.64-.48 0-.86.14-1.16.44-.28.3-.44.7-.44 1.22h-2.84c.02-1.24.42-2.22 1.2-2.92.8-.7 1.88-1.06 3.24-1.06 1.38 0 2.46.34 3.22 1 .76.68 1.14 1.62 1.14 2.84 0 .54-.12 1.06-.38 1.56-.24.5-.68 1.04-1.3 1.64l-.78.74c-.5.48-.78 1.04-.86 1.68l-.04.6h-2.5zm-.28 3c0-.44.16-.8.44-1.08.3-.28.68-.44 1.14-.44.46 0 .84.16 1.14.44.3.28.44.64.44 1.08 0 .42-.14.78-.42 1.06-.3.28-.68.42-1.16.42-.46 0-.86-.14-1.14-.42-.28-.28-.44-.64-.44-1.06z" fill="#fff" fill-rule="nonzero"/>
    </g>
    <g>
        <path d="M83.828 178.983l113.653.033" fill="none" stroke="#999" stroke-width=".94" stroke-linecap="butt" stroke-linejoin="miter" transform="matrix(1.44324 0 0 1.44324 385.05 -20.966)"/>
        <path d="M836.115 138.6l11.329 13.216-11.329-13.216zM835.73 138.856l-11.33 13.217 11.33-13.217z" fill="none" stroke="#999" stroke-width="1.88" transform="matrix(0 .72107 -.72107 0 771.394 -365.33)"/>
    </g>
    <g>
        <path d="M836.115 138.6l11.329 13.216-11.329-13.216z" fill="none" stroke="#d9d9d9" stroke-width="1.88" transform="matrix(0 .72107 -.72107 0 432.047 -365.32)"/>
    </g>
</svg>
