<svg width="428" viewBox="0 0 428 145" xmlns="http://www.w3.org/2000/svg" fill-rule="evenodd" clip-rule="evenodd" stroke-linejoin="round" stroke-miterlimit="1.414">
    <path d="M71.111 101.947L2.099 140.543l.204-98.028c.005-2.22 1.36-4.796 3.028-5.754L68.306 1.633c1.666-.958 3.015.065 3.01 2.286l-.205 98.028z" fill="#fff" stroke="#333" stroke-width=".7"/>
    <path d="M69.277 107.621L7.456 142.195c-.536.3-1.139.457-1.753.457a3.61 3.61 0 0 1-3.592-3.592v-.007l.192-91.89c.005-2.22 1.36-4.796 3.028-5.754L68.306 6.281c1.666-.958 3.015.066 3.01 2.286l-.2 95.927a3.596 3.596 0 0 1-1.839 3.127z" fill="#fff" stroke="#333" stroke-width=".7" stroke-linejoin="miter" stroke-miterlimit="4"/>
    <path d="M60.527 77.614l-44.834 24.365c-1.52.874-2.75-.06-2.745-2.084l.05-24.222c.004-2.025 1.241-4.375 2.761-5.249l44.834-24.367c1.52-.874 2.749.06 2.745 2.083l-.05 24.224c-.005 2.023-1.24 4.375-2.761 5.249v.001z" fill="#fff" stroke="#333" stroke-width=".7"/>
    <path d="M64.773 47.798c-.016 7.507-5.339 16.643-11.889 20.409-6.55 3.763-11.846.728-11.832-6.779.016-7.509 5.339-16.645 11.889-20.408 6.549-3.763 11.847-.728 11.832 6.778" fill="#41ff8b" stroke="#333" stroke-width=".7" stroke-linecap="round" stroke-miterlimit="4"/>
    <path d="M13.144 116.469l45.867-26.352-45.867 26.352zm-.01 5.496l45.865-26.352-45.865 26.352zm-.011 4.984l45.866-26.352-45.866 26.352zm36.974-95.81L12.682 52.637c-.431.247-.778-.018-.778-.59l.004-1.276c.001-.573.35-1.237.78-1.485l37.415-21.497c.431-.247.779.016.779.59l-.004 1.276c0 .573-.351 1.236-.781 1.484M12.379 58.416L35.992 44.85 12.379 58.416z" fill="none" stroke="#333" stroke-width=".7" stroke-linejoin="miter" stroke-miterlimit="4"/>
    <path d="M58.053 47.728c1.04.054 1.765 1.269 1.274 2.22-1.903 3.279-3.967 6.462-5.952 9.693-.535.823-1.799.916-2.444.158-1.794-2.335-4.239-4.669-3.301-6.142.516-.81 1.833-.917 2.478-.078l1.883 2.584 4.783-7.783c.3-.415.599-.654 1.279-.652z" fill="#fff" fill-rule="nonzero"/>
    <path d="M127.617 96.831l49.247 28.617a5.13 5.13 0 0 0 5.128.015l49.754-28.534a3.078 3.078 0 0 0-.008-5.343l-50.065-28.53a5.126 5.126 0 0 0-5.115.021L127.617 91.51a3.079 3.079 0 0 0 0 5.321z" fill="none" stroke="#3a3e40" stroke-width=".7" stroke-linejoin="miter" stroke-miterlimit="10"/>
    <path d="M179.755 59.511c.462-.308.462-.769 0-.923-.461-.308-1.23-.308-1.692 0-.462.307-.462.615 0 .923.462.154 1.231.154 1.692 0zm-1.692 27.432c-.462.308-.462.616 0 .923.462.308 1.231.308 1.692 0 .462-.307.462-.769 0-.923-.461-.308-1.23-.308-1.692 0z" fill="none" stroke="#3a3e40" stroke-width=".7" stroke-linecap="round" stroke-miterlimit="10"/>
    <path d="M128.495 63.098v30.275m101.366-30.052v30.296" fill="none" stroke="#bdd2db" stroke-opacity=".502" stroke-width=".7" stroke-linecap="square" stroke-linejoin="miter" stroke-miterlimit="10" stroke-dasharray=".7,1.4"/>
    <path d="M148.438 89.775l30.673 17.824c.317.184.708.185 1.026.003l30.993-17.774a1.027 1.027 0 0 0-.003-1.781l-31.173-17.765a1.027 1.027 0 0 0-1.023.004l-30.493 17.716a1.025 1.025 0 0 0 0 1.773z" fill="#f2f2f2" fill-rule="nonzero" stroke="#3a3e40" stroke-width=".7" stroke-linecap="round" stroke-miterlimit="10"/>
    <path d="M150.369 88.333c-.461.308-.461.615 0 .923.462.308 1.231.308 1.693 0 .461-.308.461-.769 0-.923-.462-.308-1.231-.308-1.693 0zm28.143-16.298c-.462.307-.462.615 0 .923.461.307 1.231.307 1.692 0 .462-.308.462-.769 0-.923-.461-.308-1.231-.308-1.692 0zm0 32.822c-.462.308-.462.615 0 .923.461.308 1.231.308 1.692 0 .462-.308.462-.769 0-.923-.461-.308-1.231-.308-1.692 0z" fill="none" stroke="#3a3e40" stroke-width=".7" stroke-linecap="round" stroke-miterlimit="10"/>
    <path d="M176.524 32.379l-50.772 29.386c-1.384.769-1.384 2 0 2.923l50.772 29.386c1.385.77 3.539.77 4.924 0l6.462-3.692c-1.077-.616-1.077-1.693 0-2.308 1.077-.615 2.769-.615 3.846 0l40.464-23.386c1.384-.769 1.384-2 0-2.923l-50.772-29.386c-1.385-.77-3.693-.77-4.924 0z" fill="#fff" fill-rule="nonzero" stroke="#3a3e40" stroke-width=".7" stroke-linecap="round" stroke-miterlimit="10"/>
    <path d="M189.705 84.878v33.868" fill="none" stroke="#bdd2db" stroke-opacity=".502" stroke-width=".7" stroke-linecap="square" stroke-linejoin="miter" stroke-miterlimit="10" stroke-dasharray=".7,1.4"/>
    <path d="M178.986 88.943c-.769 0-1.692-.154-2.308-.461l-50.772-29.386c-.461-.308-.769-.616-.769-1.077 0-.308.308-.77.769-1.077l50.772-29.387c.616-.307 1.385-.461 2.308-.461.769 0 1.693.154 2.308.461l50.772 29.387c.461.307.769.615.769 1.077 0 .307-.308.769-.769 1.077L191.91 82.328a4.258 4.258 0 0 0-2-.462c-.769 0-1.539.154-2.154.462-.616.461-1.077.923-1.077 1.538 0 .462.154.769.461 1.077l-5.846 3.385c-.769.461-1.539.615-2.308.615z" fill="#f2f2f2" fill-rule="nonzero" stroke="#3a3e40" stroke-width=".7" stroke-linecap="round" stroke-miterlimit="10"/>
    <path d="M127.623 57.318c-.461.308-.461.616 0 .924.462.307 1.231.307 1.693 0 .461-.308.461-.77 0-.924-.462-.307-1.231-.307-1.693 0zm0 5.642c-.461.308-.461.615 0 .923.462.308 1.231.308 1.693 0 .461-.308.461-.769 0-.923-.462-.308-1.231-.308-1.693 0zm101.302-.157c-.462.308-.462.616 0 .924.461.307 1.23.307 1.692 0 .462-.308.462-.77 0-.924-.462-.307-1.231-.307-1.692 0zm-40.156 26.156c-.462.307-.462.615 0 .923.461.307 1.231.307 1.692 0 .462-.308.462-.77 0-.923-.461-.308-1.231-.308-1.692 0zm0 29.232c-.462.308-.462.615 0 .923.461.308 1.231.308 1.692 0 .462-.308.462-.769 0-.923-.461-.308-1.231-.308-1.692 0zm-60.831-24.599c-.461.307-.461.615 0 .923.462.308 1.231.308 1.693 0 .461-.308.461-.769 0-.923-.462-.308-1.231-.308-1.693 0zm60.831-9.762c-.462.308-.462.616 0 .923.461.308 1.231.308 1.692 0 .462-.307.462-.769 0-.923-.461-.308-1.231-.308-1.692 0zm40.22 9.631c-.462.308-.462.616 0 .924.461.307 1.231.307 1.692 0 .462-.308.462-.77 0-.924-.461-.307-1.231-.307-1.692 0zm-49.234-64.208c.462-.308.462-.769 0-.923-.461-.308-1.23-.308-1.692 0-.462.307-.462.615 0 .923.462.154 1.231.154 1.692 0z" fill="none" stroke="#3a3e40" stroke-width=".7" stroke-linecap="round" stroke-miterlimit="10"/>
    <path d="M231.861 56.634l-5.847-3.385v9.539l5.847-3.385c1.384-.769 1.384-2 0-2.769z" fill="#f2f2f2" fill-rule="nonzero" stroke="#3a3e40" stroke-width=".7" stroke-linecap="round" stroke-miterlimit="10"/>
    <path d="M148.438 31.823l30.673 17.824c.317.184.708.185 1.026.003l30.993-17.774a1.026 1.026 0 0 0-.003-1.781L179.954 12.33a1.027 1.027 0 0 0-1.023.004L148.438 30.05a1.025 1.025 0 0 0 0 1.773z" fill="#0c71ff" fill-rule="nonzero" stroke="#3a3e40" stroke-width=".7" stroke-linejoin="miter" stroke-miterlimit="10"/>
    <path d="M150.369 30.381c-.461.308-.461.616 0 .923.462.308 1.231.308 1.693 0 .461-.307.461-.769 0-.923-.462-.308-1.231-.308-1.693 0zm28.143-16.298c-.462.308-.462.615 0 .923.461.308 1.231.308 1.692 0 .462-.308.462-.769 0-.923-.461-.308-1.231-.308-1.692 0zm29.232 16.411c-.461.308-.461.615 0 .923.462.308 1.231.308 1.692 0 .462-.308.462-.769 0-.923-.461-.308-1.23-.308-1.692 0zm-29.232 16.411c-.462.308-.462.616 0 .923.461.308 1.231.308 1.692 0 .462-.307.462-.769 0-.923-.461-.308-1.231-.308-1.692 0z" fill="#fff" fill-rule="nonzero" stroke="#3a3e40" stroke-width=".7" stroke-linecap="round" stroke-miterlimit="10"/>
    <path d="M191.251 29.623l-12.666-.074c-.222 0-.406.095-.411.217l-.033.733c-.005.116-.189.218-.411.218l-2.43-.014c-.221-.007-.397-.102-.391-.224l.113-2.533c.005-.122.192-.217.414-.217l12.722.135-3.27-1.86-.038.842c-.005.122-.193.224-.417.217l-2.436-.027c-.218-.007-.39-.109-.385-.224l.117-2.608-1.242-.706c-.252-.143-.673-.143-.938-.007l-12.622 6.696c-.264.142-.274.373-.022.516l1.179.672 12.817.075c.221 0 .405-.095.411-.217l.032-.734c.006-.122.19-.217.411-.217l2.43.014c.222.006.397.101.392.224l-.113 2.533c-.006.122-.192.217-.415.217l-12.875-.136 3.42 1.942.041-.923c.006-.129.194-.224.417-.218l2.436.028c.219.006.391.101.386.224l-.12 2.682 1.167.672c.252.143.673.143.938.007l12.622-6.696c.264-.142.274-.373-1.23-1.229z" fill="#fff"/>
    <g stroke="#333" stroke-width=".7" stroke-linecap="round" stroke-miterlimit="4">
        <path d="M83.248 85.5c-.52 1.144.25 2.062.952 2.526-.738 1.542-3.135 2.861-5.595 2.861s-5.085-1.329-5.595-2.861c.704-.399 1.483-1.375.942-2.526h9.296z" fill="#fff"/>
        <path d="M79.372 87.572h-1.518a4.96 4.96 0 0 1-3.514-1.468l-1.16-1.143a9.169 9.169 0 0 1-2.656-6.459v-6.014c0-8.069 16.163-8.069 16.163 0v6.014a9.169 9.169 0 0 1-2.656 6.459l-1.139 1.147a4.96 4.96 0 0 1-3.52 1.464z" fill="#fff" fill-rule="nonzero"/>
        <path d="M70.524 79.663v-3.29c0-1.096-.833-1.462-1.345-1.096-.817.559.225 2.924.225 2.924-.606.38.078 1.729 1.12 1.462zm16.163-.415v-3.29c0-1.096.828-1.462 1.344-1.096.818.559-.224 2.924-.224 2.924.608.38-.078 1.733-1.12 1.462z" fill="#fff"/>
        <path d="M82.733 64.175c2.714 1.166 6.338 4.423 4.852 9.227-.219.713-.535.463-.888.399 0 0-.056-2.803-1.408-2.514-3.218.685-4.802-1.937-8.71.938-.542-.903-.169-2.953 1.207-4.03-3.221 0-7.284 2.001-7.284 4.404 0 0-1.077-.806-1.165-1.601-.405-3.588 1.413-5.414 4.589-6.783 2.586-1.115 7.36-.66 8.807-.04z" fill="#fff" fill-rule="nonzero"/>
        <circle cx="82.75" cy="77.004" r=".622" fill="none"/>
        <circle cx="74.461" cy="77.004" r=".622" fill="none"/>
        <path d="M86.62 88.878s-2.393-.942-2.301-.889c-.751 1.592-3.282 2.963-5.714 2.963-2.431 0-5.161-1.371-5.72-2.945l-2.202.906c-3.345 1.352-5.535 4.572-5.547 8.152v6.256h26.938v-6.326c-.009-3.546-2.157-6.743-5.454-8.117z" fill="#e8f7fc" fill-rule="nonzero"/>
        <path d="M71.56 103.146v-6.292m14.505 6.292v-6.292m-5.18-14.669s-1.022 1.243-2.28 1.243c-1.258 0-2.279-1.243-2.279-1.243" fill="none"/>
    </g>
    <g stroke="#333" stroke-width=".7" stroke-linecap="round" stroke-miterlimit="4">
        <path d="M138.522 144.333c3.556 0 1.753-2.273 1.753-2.273l-1.753-2.273-1.754 2.273s-1.802 2.273 1.754 2.273zm.483-24.094s-8.609 5.319-12.489 7.736c-3.417 2.129-9.406 5.902-9.406 5.902l-21.931-13.639 21.932-13.639 21.895 13.64h-.001zm-.502 0v19.688" fill="#fff"/>
        <path d="M131.929 124.615v9.686s-3.062 8.076-14.9 8.076c-11.839 0-14.901-8.076-14.901-8.076v-9.741l14.983 9.317s5.988-3.773 9.404-5.902c1.399-.872 3.412-2.12 5.414-3.359v-.001z" fill="#e8f7fc"/>
    </g>
    <path d="M302.872 45.795l-55.17 31.488a1.461 1.461 0 0 0-.853 1.324l-.12 56.833v.004c0 .8.659 1.459 1.46 1.459.213 0 .424-.047.617-.137l55.146-32.02c.512-.239.84-.754.842-1.319l.145-56.302v-.004c0-.8-.659-1.459-1.46-1.459-.209 0-.416.045-.606.132l-.001.001z" fill="#fff" stroke="#333" stroke-width=".7" stroke-linejoin="miter" stroke-miterlimit="4"/>
    <path d="M259.331 76.091c-.691 0-1.253-.625-1.255-1.397v-.005c0-.764.629-1.392 1.392-1.392h.001c.772 0 1.333.626 1.255 1.397-.079.772-.703 1.397-1.393 1.397zm-4.2 2.236c-.691 0-1.252-.625-1.255-1.396v-.005c0-.764.629-1.392 1.393-1.392 0 0 0 0 0 0 .772 0 1.333.625 1.255 1.397-.079.771-.702 1.396-1.393 1.396zm-4.378 2.475c-.691 0-1.252-.625-1.254-1.396v-.005c0-.764.628-1.392 1.392-1.392h.001c.771 0 1.333.625 1.254 1.397-.078.771-.702 1.396-1.393 1.396zm54.052-27.785l-58.103 32.404 58.103-32.404z" fill="none" stroke="#333" stroke-width=".7" stroke-linejoin="miter" stroke-miterlimit="4"/>
    <g fill-rule="nonzero" stroke="#333" stroke-width=".7">
        <path d="M283.576 138.431l-.257-4.649 35.648-24.732c1.34-.774 2.43-2.654 2.433-4.199l3.936-19.211 3.887-1.968-8.892-4.822c-.437-.23-1.027-.188-1.68.189l-42.53 24.102c-1.34.773-2.43 2.653-2.434 4.199l-.064 25.889c-.002.792.282 1.341.739 1.585l9.213 3.617h.001z" fill="#e8f7fc" stroke-linejoin="miter" stroke-miterlimit="4"/>
        <path d="M283.576 139.431l-.257-4.649.065-22.741c.13-.9.26-1.523.391-1.869l-9.559-4.872c-.352.923-.527 1.603-.529 2.04l-.064 25.889c-.002.792.282 1.341.739 1.585l9.213 4.617h.001z" fill="#fff" stroke-linejoin="miter" stroke-miterlimit="4"/>
        <path d="M282.974 102.835c-.343-.901-.131-2.238.473-2.987l20.472-24.235c.604-.748 1.171-1.149 1.514-.248l5.749 15.088c.343.901.132 2.238-.473 2.987l-20.271 24.759c-.604.749-1.371.625-1.715-.276l-5.749-15.088z" fill="#ebf5f7" stroke-linejoin="miter" stroke-miterlimit="4"/>
        <path d="M284.947 103.279c-.342-.901-.131-2.237.473-2.987l19.303-22.584c.604-.749 1.171-1.149 1.515-.248l5.748 15.088c.343.901.132 2.238-.472 2.987l-19.103 23.108c-.604.749-1.372.625-1.715-.276l-5.749-15.088z" fill="#fff"/>
        <path d="M284.947 103.279c-.342-.901-.131-2.237.473-2.987l19.303-22.584c.604-.749 1.171-1.149 1.515-.248l5.748 15.088c.343.901.132 2.238-.472 2.987l-19.103 23.108c-.604.749-1.372.625-1.715-.276l-5.749-15.088z" fill="#41ff8b" stroke-linejoin="miter" stroke-miterlimit="4"/>
        <g stroke-linejoin="miter" stroke-miterlimit="4">
            <path d="M290.043 98.928c-.23-.937.142-2.238.834-2.907l23.273-21.56c.69-.669 1.302-.998 1.533-.062l3.867 15.677c.231.936-.142 2.237-.833 2.906l-23.137 22.104c-.691.669-1.439.454-1.669-.482l-3.868-15.676z" fill="#ebf5f7"/>
            <path d="M291.948 99.609c-.231-.936.142-2.238.833-2.907l21.911-20.064c.691-.669 1.303-.997 1.534-.061l3.867 15.676c.23.936-.143 2.237-.833 2.907l-21.776 20.608c-.691.669-1.438.453-1.669-.483l-3.867-15.676z" fill="#0971ff"/>
        </g>
        <path d="M283.119 112.16c.004-1.546 1.093-3.426 2.434-4.2L327.857 84c1.34-.773 2.422-.147 2.419 1.398l-.065 25.889c-.004 1.546-1.093 3.426-2.433 4.2l-42.305 23.96c-1.34.773-2.422.147-2.419-1.398l.065-25.889z" fill="#fff" stroke-linejoin="miter" stroke-miterlimit="4"/>
        <g stroke-linejoin="miter" stroke-miterlimit="4">
            <path d="M303.52 104.073c.002-.836.588-1.853 1.31-2.271l24.106-13.258c.722-.418 1.305-.566 1.303.269l-.035 14.002c-.002.836-.589 1.853-1.31 2.271l-24.106 13.745c-.722.418-1.305.08-1.303-.756l.035-14.002z" fill="#ebf5f7"/>
            <path d="M304.979 105.046c.002-.836.589-1.853 1.311-2.271l22.646-12.285c.722-.419 1.305-.567 1.303.269l-.035 14.002c-.002.836-.589 1.853-1.31 2.271l-22.647 12.772c-.722.418-1.305.079-1.303-.756l.035-14.002z" fill="#fff"/>
        </g>
        <g stroke-linejoin="miter" stroke-miterlimit="4">
            <path d="M316.233 104.786c.845 1.04.2 2.929-.944 4.97-1.145 2.041-2.41 3.56-3.707 3.327l-.05.09-1.722-1.024c-1.304-.775-1.298-3.302.014-5.643 1.312-2.341 3.433-3.61 4.738-2.834l1.722 1.024-.051.09z" fill="#fff"/>
            <path d="M316.115 104.641c-1.326-.761-3.482.483-4.816 2.777-1.333 2.295-1.34 4.771-.014 5.531 1.326.761 3.482-.483 4.816-2.777 1.333-2.295 1.34-4.771.014-5.531" fill="#e8f7fc"/>
        </g>
    </g>
    <path d="M415.84 58.43v10.08a10 10 0 0 1-5.03 8.677l-34.677 19.861V81.304" fill="#f2f2f2" fill-rule="nonzero" stroke="#3a3e40" stroke-width=".7" stroke-linecap="round" stroke-miterlimit="10"/>
    <path d="M376.133 81.627v15.386l-43.688-26.241V55.027" fill="none" stroke="#3a3e40" stroke-width=".7" stroke-linecap="round" stroke-miterlimit="10"/>
    <path d="M376.133 81.367l-43.688-26.144 40.775-21.576 42.582 24.762-39.669 22.958z" fill="none" stroke="#3a3e40" stroke-width=".7" stroke-linecap="round" stroke-miterlimit="10"/>
    <path d="M415.84 42.894V58.77l-39.707 22.742V65.768" fill="#f2f2f2" fill-rule="nonzero" stroke="#3a3e40" stroke-width=".7" stroke-linecap="round" stroke-miterlimit="10"/>
    <path d="M376.133 66.09v15.386l-43.688-26.241V39.491" fill="#fff" fill-rule="nonzero" stroke="#3a3e40" stroke-width=".7" stroke-linecap="round" stroke-miterlimit="10"/>
    <path d="M376.133 65.83l-43.688-26.143 40.775-21.576 42.582 24.761-39.669 22.958z" fill="none" stroke="#3a3e40" stroke-width=".7" stroke-linecap="round" stroke-miterlimit="10"/>
    <path d="M415.84 27.859v15.876l-39.707 22.742V50.732" fill="#f2f2f2" fill-rule="nonzero" stroke="#3a3e40" stroke-width=".7" stroke-linecap="round" stroke-miterlimit="10"/>
    <path d="M376.133 51.055v15.386L332.445 40.2V24.734m43.688 26.061l-43.688-26.144 35.87-18.98a9.998 9.998 0 0 1 9.703.195l37.784 21.971-39.669 22.958z" fill="#fff" fill-rule="nonzero" stroke="#3a3e40" stroke-width=".7" stroke-linecap="round" stroke-miterlimit="10"/>
    <path d="M368.198 53.905c0 1.074.805 2.447 1.795 3.067.991.619 1.796.25 1.796-.823s-.805-2.447-1.796-3.066c-.99-.619-1.795-.251-1.795.822zm0 15.142c0 1.073.805 2.447 1.795 3.066.991.619 1.796.251 1.796-.822 0-1.074-.805-2.447-1.796-3.067-.99-.619-1.795-.25-1.795.823zm0 16c0 1.073.805 2.447 1.795 3.066.991.619 1.796.251 1.796-.822 0-1.074-.805-2.447-1.796-3.066-.99-.619-1.795-.251-1.795.822z" fill="#41ff8b" stroke="#3a3e40" stroke-width=".7" stroke-linejoin="miter" stroke-miterlimit="10"/>
    <path d="M336.68 36.334c-.6-.357-1.097-1.128-1.109-1.72-.013-.592.464-.783 1.064-.425l18.891 11.262c.6.357 1.097 1.129 1.11 1.721.012.592-.465.782-1.065.424L336.68 36.334zm0 14.926c-.6-.358-1.097-1.129-1.109-1.721-.013-.592.464-.783 1.064-.425l18.891 11.262c.6.358 1.097 1.129 1.11 1.721.012.592-.465.782-1.065.425L336.68 51.26zm0 15.868c-.6-.358-1.097-1.129-1.109-1.721-.013-.592.464-.782 1.064-.425l18.891 11.262c.6.358 1.097 1.129 1.11 1.721.012.592-.465.783-1.065.425L336.68 67.128z" fill="#fff" stroke="#2c2f31" stroke-width=".7" stroke-linecap="round" stroke-miterlimit="1.5"/>
    <path d="M232.685 8.14l26.396 15.222-42.99 24.354m180.69 37.396l26.942 15.616-63.889 34.767" fill="none" stroke="#3a3e40" stroke-width=".7" stroke-linejoin="miter" stroke-miterlimit="10"/>
    <ellipse cx="359.994" cy="136.092" rx="5.213" ry="3.352" fill="#fff" stroke="#3a3e40" stroke-width=".7" stroke-linecap="round" stroke-miterlimit="10"/>
    <ellipse cx="233.594" cy="8.989" rx="5.213" ry="3.352" fill="#fff" stroke="#3a3e40" stroke-width=".7" stroke-linecap="round" stroke-miterlimit="10"/>
</svg>
