<svg width="419" height="247" xmlns="http://www.w3.org/2000/svg" fill-rule="evenodd" clip-rule="evenodd" stroke-linejoin="round" stroke-miterlimit="1.414">
    <path d="M78.866 164.882l-76.72 42.907.226-108.977c.006-2.468 1.512-5.332 3.366-6.397l70.009-39.052c1.853-1.065 3.352.073 3.346 2.542l-.227 108.977z" fill="#fff" stroke="#333" stroke-width=".7"/>
    <path d="M76.827 171.19L8.101 209.626a3.993 3.993 0 0 1-1.949.508c-2.19 0-3.993-1.803-3.993-3.993v-.009l.213-102.153c.006-2.468 1.512-5.332 3.366-6.397L75.747 58.53c1.853-1.065 3.352.073 3.346 2.542l-.222 106.641a3.996 3.996 0 0 1-2.044 3.477z" fill="#fff" stroke="#333" stroke-width=".7" stroke-linejoin="miter" stroke-miterlimit="4"/>
    <path d="M67.1 137.831l-49.842 27.086c-1.69.972-3.057-.067-3.052-2.316l.056-26.928c.004-2.251 1.379-4.863 3.07-5.835l49.841-27.089c1.69-.971 3.056.067 3.052 2.316l-.056 26.929c-.005 2.25-1.379 4.864-3.069 5.835v.002z" fill="#fff" stroke="#333" stroke-width=".7"/>
    <path d="M71.819 104.684c-.017 8.346-5.935 18.503-13.217 22.689-7.28 4.183-13.169.809-13.153-7.536.018-8.347 5.935-18.504 13.217-22.687 7.281-4.184 13.171-.81 13.153 7.534" fill="#41ff8b" stroke="#333" stroke-width=".7" stroke-linecap="round" stroke-miterlimit="4"/>
    <path d="M14.425 181.026l50.99-29.295-50.99 29.295zm-.012 6.11l50.988-29.296-50.988 29.296zm-.012 5.541l50.988-29.296-50.988 29.296zM55.505 86.165l-41.594 23.899c-.479.275-.865-.02-.865-.656l.004-1.419c.001-.636.39-1.375.867-1.65L55.512 82.44c.479-.274.865.019.865.657l-.004 1.419c0 .636-.39 1.373-.868 1.649m-41.931 30.324l26.25-15.082-26.25 15.082z" fill="none" stroke="#333" stroke-width=".7" stroke-linejoin="miter" stroke-miterlimit="4"/>
    <path d="M64.389 104.276c1.369.09 2.358 1.638 1.665 2.965-2.124 3.644-4.414 7.189-6.622 10.783-.703 1.088-2.373 1.267-3.265.204-2.01-2.629-4.689-5.292-3.773-7.056.62-1.195 2.496-1.426 3.391-.256l1.801 2.471 5.064-8.238c.405-.567.833-.891 1.739-.873z" fill="#fff" fill-rule="nonzero"/>
    <path d="M246.718 13.381l-31.175 17.977 50.773 28.764m103.976 43.193l-31.175 17.977 75.456 41.061M98.045 210.524l194.025-109.71" fill="none" stroke="#3a3e40" stroke-width=".7" stroke-linejoin="miter" stroke-miterlimit="10"/>
    <ellipse cx="93.595" cy="211.923" rx="3.991" ry="2.566" fill="none" stroke="#3a3e40" stroke-width=".7" stroke-linecap="round" stroke-miterlimit="10"/>
    <ellipse cx="107.838" cy="243.992" rx="3.991" ry="2.566" fill="none" stroke="#3a3e40" stroke-width=".7" stroke-linecap="round" stroke-miterlimit="10"/>
    <path d="M101.851 228.028l34.208-19.384m-25.086 33.639l41.859-23.171m-33.307-21.3l33.638 21.094M33.631 47.465l33.545-18.063" fill="none" stroke="#3a3e40" stroke-width=".7" stroke-linejoin="miter" stroke-miterlimit="10"/>
    <ellipse cx="134.296" cy="6.104" rx="3.991" ry="2.566" fill="none" stroke="#3a3e40" stroke-width=".7" stroke-linejoin="miter" stroke-miterlimit="10"/>
    <path d="M137.432 7.814l16.534 10.263m50.7 132.377l82.879 49.334m-184.414-91.069l54.747 31.813a5.703 5.703 0 0 0 5.701.016l55.311-31.721a3.42 3.42 0 0 0-.008-5.94L163.225 71.17a5.704 5.704 0 0 0-5.687.024l-54.407 31.609a3.421 3.421 0 0 0 0 5.916z" fill="none" stroke="#3a3e40" stroke-width=".7" stroke-linejoin="miter" stroke-miterlimit="10"/>
    <path d="M161.093 67.23c.513-.342.513-.855 0-1.026-.513-.343-1.368-.343-1.881 0-.513.342-.513.684 0 1.026.513.171 1.368.171 1.881 0zm-1.881 30.496c-.513.342-.513.684 0 1.026.513.342 1.368.342 1.881 0 .513-.342.513-.855 0-1.026-.513-.342-1.368-.342-1.881 0z" fill="none" stroke="#3a3e40" stroke-width=".7" stroke-linecap="round" stroke-miterlimit="10"/>
    <path d="M104.107 71.218v33.656m113.657-33.408v33.679" fill="none" stroke="#bdd2db" stroke-opacity=".302" stroke-width=".7" stroke-linecap="square" stroke-linejoin="miter" stroke-miterlimit="10" stroke-dasharray=".7,1.4"/>
    <path d="M126.278 100.875l34.099 19.814c.352.205.787.206 1.14.003l34.455-19.759a1.142 1.142 0 0 0-.003-1.98l-34.655-19.749a1.142 1.142 0 0 0-1.138.005l-33.898 19.694a1.138 1.138 0 0 0 0 1.972z" fill="#f2f2f2" fill-rule="nonzero" stroke="#3a3e40" stroke-width=".7" stroke-linecap="round" stroke-miterlimit="10"/>
    <path d="M128.425 99.271c-.513.342-.513.684 0 1.026.513.342 1.368.342 1.881 0 .513-.342.513-.855 0-1.026-.513-.342-1.368-.342-1.881 0zm31.286-18.119c-.513.342-.513.685 0 1.027.513.342 1.368.342 1.881 0 .513-.342.513-.856 0-1.027-.513-.342-1.368-.342-1.881 0zm32.497 18.245c-.513.342-.513.684 0 1.026.513.342 1.368.342 1.882 0 .513-.342.513-.855 0-1.026-.514-.343-1.369-.343-1.882 0zm-32.497 18.244c-.513.342-.513.684 0 1.026.513.342 1.368.342 1.881 0 .513-.342.513-.855 0-1.026-.513-.342-1.368-.342-1.881 0z" fill="none" stroke="#3a3e40" stroke-width=".7" stroke-linecap="round" stroke-miterlimit="10"/>
    <path d="M157.501 37.067l-56.443 32.669c-1.539.855-1.539 2.223 0 3.249l56.443 32.669c1.54.855 3.934.855 5.474 0l7.183-4.105c-1.197-.684-1.197-1.882 0-2.566 1.198-.684 3.079-.684 4.276 0l44.984-25.998c1.539-.855 1.539-2.223 0-3.249l-56.443-32.669c-1.54-.855-4.105-.855-5.474 0z" fill="#fff" fill-rule="nonzero" stroke="#3a3e40" stroke-width=".7" stroke-linecap="round" stroke-miterlimit="10"/>
    <path d="M172.154 95.43v37.651" fill="none" stroke="#bdd2db" stroke-opacity=".302" stroke-width=".7" stroke-linecap="square" stroke-linejoin="miter" stroke-miterlimit="10" stroke-dasharray=".7,1.4"/>
    <path d="M160.238 99.95c-.855 0-1.881-.171-2.566-.514L101.23 66.768c-.514-.342-.856-.684-.856-1.197 0-.342.342-.855.856-1.198l56.442-32.668c.685-.342 1.54-.513 2.566-.513.855 0 1.881.171 2.566.513l56.443 32.668c.513.343.855.685.855 1.198 0 .342-.342.855-.855 1.197l-44.642 25.827c-.684-.342-1.368-.513-2.223-.513-.855 0-1.711.171-2.395.513-.684.513-1.197 1.026-1.197 1.71 0 .513.171.855.513 1.198l-6.499 3.762c-.856.514-1.711.685-2.566.685z" fill="#f2f2f2" fill-rule="nonzero" stroke="#3a3e40" stroke-width=".7" stroke-linecap="round" stroke-miterlimit="10"/>
    <path d="M103.138 64.792c-.513.343-.513.685 0 1.027.513.342 1.368.342 1.881 0 .514-.342.514-.855 0-1.027-.513-.342-1.368-.342-1.881 0zm0 6.272c-.513.342-.513.684 0 1.026.513.342 1.368.342 1.881 0 .514-.342.514-.855 0-1.026-.513-.342-1.368-.342-1.881 0zm113.586-.174c-.513.342-.513.684 0 1.026.513.342 1.368.342 1.881 0 .513-.342.513-.855 0-1.026-.513-.342-1.368-.342-1.881 0zm-45.611 29.077c-.513.342-.513.684 0 1.026.513.342 1.369.342 1.882 0 .513-.342.513-.855 0-1.026-.513-.342-1.369-.342-1.882 0zm0 32.497c-.513.342-.513.684 0 1.026.513.342 1.369.342 1.882 0 .513-.342.513-.855 0-1.026-.513-.342-1.369-.342-1.882 0zm-67.625-27.347c-.513.342-.513.684 0 1.027.513.342 1.369.342 1.882 0 .513-.343.513-.856 0-1.027-.513-.342-1.369-.342-1.882 0zm67.625-10.852c-.513.342-.513.685 0 1.027.513.342 1.369.342 1.882 0 .513-.342.513-.856 0-1.027-.513-.342-1.369-.342-1.882 0zm45.682 10.707c-.513.343-.513.685 0 1.027.513.342 1.368.342 1.881 0 .514-.342.514-.856 0-1.027-.513-.342-1.368-.342-1.881 0zm-55.702-71.38c.513-.342.513-.855 0-1.026-.513-.342-1.368-.342-1.881 0-.513.342-.513.684 0 1.026.513.171 1.368.171 1.881 0z" fill="none" stroke="#3a3e40" stroke-width=".7" stroke-linecap="round" stroke-miterlimit="10"/>
    <path d="M219.988 64.031l-6.5-3.763v10.605l6.5-3.763c1.539-.855 1.539-2.223 0-3.079z" fill="#f2f2f2" fill-rule="nonzero" stroke="#3a3e40" stroke-width=".7" stroke-linecap="round" stroke-miterlimit="10"/>
    <path d="M126.278 36.45l34.099 19.814a1.14 1.14 0 0 0 1.14.004l34.455-19.76a1.141 1.141 0 0 0-.003-1.98l-34.655-19.749a1.142 1.142 0 0 0-1.138.005l-33.898 19.694a1.14 1.14 0 0 0 0 1.972z" fill="#0c71ff" fill-rule="nonzero" stroke="#3a3e40" stroke-width=".7" stroke-linejoin="miter" stroke-miterlimit="10"/>
    <path d="M128.425 34.846c-.513.342-.513.685 0 1.027.513.342 1.368.342 1.881 0 .513-.342.513-.856 0-1.027-.513-.342-1.368-.342-1.881 0zm31.286-18.118c-.513.342-.513.684 0 1.026.513.342 1.368.342 1.881 0 .513-.342.513-.855 0-1.026-.513-.342-1.368-.342-1.881 0zm32.497 18.244c-.513.342-.513.684 0 1.026.513.342 1.368.342 1.882 0 .513-.342.513-.855 0-1.026-.514-.342-1.369-.342-1.882 0zm-32.497 18.244c-.513.342-.513.684 0 1.026.513.342 1.368.342 1.881 0 .513-.342.513-.855 0-1.026-.513-.342-1.368-.342-1.881 0z" fill="#fff" fill-rule="nonzero" stroke="#3a3e40" stroke-width=".7" stroke-linecap="round" stroke-miterlimit="10"/>
    <path d="M171.178 34.248l-11.125-.063c-.195 0-.356.08-.361.182l-.029.616c-.004.097-.166.183-.361.183l-2.134-.012c-.195-.005-.348-.085-.344-.188l.099-2.126c.005-.103.169-.183.365-.183l11.174.114-2.872-1.562-.034.707c-.004.103-.169.188-.366.182l-2.14-.022c-.192-.006-.343-.092-.338-.189l.102-2.189-1.09-.593c-.221-.12-.591-.12-.824-.006l-11.086 5.622c-.232.12-.241.314-.02.433l1.036.565 11.258.062c.194 0 .355-.079.36-.182l.029-.616c.004-.102.166-.182.361-.182l2.134.011c.195.006.349.086.344.188l-.099 2.127c-.005.103-.169.182-.364.182l-11.309-.114 3.004 1.631.035-.775c.006-.109.171-.189.367-.183l2.14.023c.192.006.343.085.338.188l-.104 2.252 1.025.564c.221.12.591.12.823.006l11.087-5.621c.232-.12.241-.314-1.081-1.032z" fill="#fff" stroke="#fff" stroke-width=".7"/>
    <g stroke="#3a3e40" stroke-width=".7" stroke-linecap="round" stroke-miterlimit="10">
        <path d="M261.914 154.159l-31.359-18.477V114.09l31.359 18.835" fill="#e6fafd" fill-rule="nonzero"/>
        <path d="M286.334 118.919v20.91l-24.42 14.376v-21.592" fill="none"/>
        <path d="M261.914 132.702l-31.372-18.413 25.095-13.545 30.493 17.864-24.216 14.094z" fill="#30cae8" fill-rule="nonzero"/>
    </g>
    <g stroke="#333" stroke-width=".7" stroke-linecap="round" stroke-miterlimit="4">
        <path d="M92.358 153.922c-.578 1.272.278 2.292 1.059 2.808-.821 1.715-3.485 3.181-6.22 3.181s-5.653-1.478-6.22-3.181c.782-.444 1.649-1.529 1.047-2.808h10.334z" fill="#fff"/>
        <path d="M88.049 156.225h-1.688a5.517 5.517 0 0 1-3.906-1.631l-1.289-1.271a10.19 10.19 0 0 1-2.953-7.181v-6.685c0-8.971 17.968-8.971 17.968 0v6.685a10.19 10.19 0 0 1-2.953 7.181l-1.266 1.275a5.51 5.51 0 0 1-3.913 1.627z" fill="#fff" fill-rule="nonzero"/>
        <path d="M78.213 147.433v-3.658c0-1.219-.926-1.625-1.495-1.219-.909.622.25 3.252.25 3.252-.673.422.087 1.922 1.245 1.625zm17.968-.461v-3.657c0-1.22.921-1.626 1.495-1.22.909.622-.249 3.251-.249 3.251.676.423-.087 1.926-1.246 1.626z" fill="#fff"/>
        <path d="M91.786 130.215c3.018 1.297 7.046 4.917 5.393 10.257-.243.793-.594.516-.986.444 0 0-.063-3.116-1.565-2.795-3.578.761-5.339-2.153-9.684 1.043-.603-1.003-.187-3.283 1.343-4.48-3.581 0-8.098 2.224-8.098 4.896 0 0-1.198-.896-1.296-1.78-.45-3.989 1.572-6.019 5.102-7.541 2.875-1.239 8.182-.734 9.791-.044z" fill="#fff" fill-rule="nonzero"/>
        <circle cx="91.804" cy="144.477" r=".691" fill="none"/>
        <circle cx="82.59" cy="144.477" r=".691" fill="none"/>
        <path d="M96.107 157.677s-2.66-1.047-2.558-.988c-.835 1.769-3.649 3.293-6.352 3.293-2.703 0-5.737-1.524-6.36-3.274l-2.447 1.008c-3.718 1.503-6.153 5.082-6.166 9.063v6.954h29.947v-7.032c-.011-3.942-2.399-7.496-6.064-9.024z" fill="#e8f7fc" fill-rule="nonzero"/>
        <path d="M79.365 173.539v-6.995m16.125 6.995v-6.995m-5.759-16.308s-1.135 1.382-2.534 1.382c-1.399 0-2.534-1.382-2.534-1.382" fill="none"/>
    </g>
    <g stroke="#333" stroke-width=".7" stroke-linecap="round" stroke-miterlimit="4">
        <path d="M216.324 216.824c3.953 0 1.949-2.527 1.949-2.527l-1.949-2.527-1.949 2.527s-2.003 2.527 1.949 2.527zm.537-26.785s-9.57 5.913-13.884 8.6a3115.826 3115.826 0 0 0-10.456 6.561l-24.381-15.162 24.382-15.162 24.34 15.163h-.001zm-.558 0v21.887" fill="#fff"/>
        <path d="M208.995 194.904v10.768s-3.404 8.978-16.564 8.978c-13.162 0-16.566-8.978-16.566-8.978v-10.83l16.657 10.358s6.656-4.195 10.454-6.561c1.555-.969 3.793-2.356 6.019-3.734v-.001z" fill="#ebf5f7"/>
    </g>
    <path d="M334.028 138.591l-61.332 35.006c-.576.263-.947.84-.948 1.472l-.133 63.181v.004c0 .89.732 1.622 1.622 1.622.237 0 .472-.052.687-.152l61.305-35.597c.569-.266.934-.838.936-1.466l.161-62.591v-.004a1.63 1.63 0 0 0-1.622-1.622c-.233 0-.463.05-.675.147h-.001z" fill="#fff" stroke="#333" stroke-width=".7" stroke-linejoin="miter" stroke-miterlimit="4"/>
    <path d="M285.624 172.271c-.768 0-1.392-.695-1.395-1.552v-.006c0-.849.699-1.547 1.548-1.547h.001c.857 0 1.481.695 1.394 1.553-.087.857-.781 1.552-1.548 1.552zm-4.669 2.487c-.768 0-1.392-.695-1.395-1.553v-.005c0-.849.699-1.548 1.548-1.548h.001c.858 0 1.482.696 1.395 1.553-.088.858-.781 1.553-1.549 1.553zm-4.867 2.751c-.768 0-1.392-.695-1.395-1.552v-.006c0-.849.699-1.547 1.548-1.547h.001c.858 0 1.482.695 1.395 1.553-.088.857-.781 1.552-1.549 1.552zm60.089-30.889l-64.592 36.023 64.592-36.023z" fill="none" stroke="#333" stroke-width=".7" stroke-linejoin="miter" stroke-miterlimit="4"/>
    <g fill-rule="nonzero" stroke="#333" stroke-width=".7">
        <path d="M312.577 241.575l-.286-5.168 39.63-27.495c1.49-.86 2.702-2.95 2.705-4.668l4.376-22.468 4.68-2.419-10.244-4.018c-.486-.256-1.142-.209-1.869.21l-47.28 26.794c-1.489.859-2.701 2.95-2.705 4.668l-.072 28.781c-.002.881.314 1.49.822 1.762l10.242 4.021h.001z" fill="#ebf5f7" stroke-linejoin="miter" stroke-miterlimit="4"/>
        <path d="M312.577 241.575l-.286-5.168.072-25.282c.145-1 .29-1.693.435-2.077l-10.627-4.304c-.39 1.025-.585 1.781-.587 2.267l-.072 28.781c-.002.881.314 1.49.822 1.762l10.242 4.021h.001z" fill="#fff" stroke-linejoin="miter" stroke-miterlimit="4"/>
        <path d="M311.908 202.003c-.381-1.002-.146-2.488.525-3.32l22.76-26.942c.671-.833 1.301-1.278 1.683-.276l6.39 16.773c.382 1.002.147 2.488-.525 3.32l-22.535 27.525c-.672.832-1.525.695-1.907-.307l-6.391-16.773z" fill="#ebf5f7" stroke-linejoin="miter" stroke-miterlimit="4"/>
        <path d="M314.102 202.497c-.382-1.002-.146-2.488.525-3.321l21.459-25.107c.672-.832 1.302-1.277 1.684-.276l6.39 16.774c.382 1.002.147 2.488-.525 3.321l-21.236 25.689c-.671.832-1.525.694-1.906-.307l-6.391-16.773z" fill="#fff"/>
        <path d="M314.102 202.497c-.382-1.002-.146-2.488.525-3.321l21.459-25.107c.672-.832 1.302-1.277 1.684-.276l6.39 16.774c.382 1.002.147 2.488-.525 3.321l-21.236 25.689c-.671.832-1.525.694-1.906-.307l-6.391-16.773z" fill="#41ff8b" stroke-linejoin="miter" stroke-miterlimit="4"/>
        <g stroke-linejoin="miter" stroke-miterlimit="4">
            <path d="M319.767 197.659c-.256-1.041.158-2.488.926-3.232l25.873-23.967c.767-.745 1.447-1.11 1.704-.069l4.299 17.427c.257 1.041-.158 2.487-.926 3.232l-25.722 24.572c-.767.744-1.599.504-1.855-.536l-4.299-17.427z" fill="#ebf5f7"/>
            <path d="M321.884 198.416c-.257-1.04.158-2.487.926-3.231l24.359-22.305c.768-.744 1.448-1.109 1.705-.069l4.299 17.427c.256 1.041-.159 2.488-.927 3.232l-24.208 22.91c-.768.744-1.598.504-1.855-.537l-4.299-17.427z" fill="#0971ff"/>
        </g>
        <path d="M312.07 211.257c.004-1.718 1.215-3.808 2.704-4.668l47.03-26.637c1.489-.859 2.693-.164 2.689 1.555l-.072 28.781c-.004 1.718-1.215 3.808-2.705 4.668l-47.03 26.637c-1.49.859-2.693.163-2.689-1.555l.073-28.781z" fill="#fff" stroke-linejoin="miter" stroke-miterlimit="4"/>
        <g stroke-linejoin="miter" stroke-miterlimit="4">
            <path d="M334.749 203.379c.002-.929.654-2.06 1.456-2.525l26.798-14.738c.803-.466 1.451-.63 1.449.299l-.039 15.566c-.002.929-.654 2.06-1.457 2.525l-26.798 15.279c-.802.465-1.451.089-1.448-.84l.039-15.566z" fill="#ebf5f7"/>
            <path d="M336.371 204.461c.002-.93.654-2.06 1.457-2.525l25.175-13.657c.803-.465 1.451-.63 1.449.299l-.039 15.566c-.002.929-.654 2.06-1.457 2.525l-25.175 14.198c-.803.465-1.451.089-1.449-.841l.039-15.565z" fill="#fff"/>
        </g>
        <g stroke-linejoin="miter" stroke-miterlimit="4">
            <path d="M348.881 204.172c.94 1.156.223 3.255-1.049 5.525-1.272 2.269-2.679 3.958-4.121 3.698l-.056.101-1.914-1.139c-1.45-.862-1.443-3.671.016-6.273 1.458-2.603 3.817-4.013 5.267-3.151l1.914 1.138-.057.101z" fill="#fff"/>
            <path d="M348.75 204.01c-1.473-.845-3.87.537-5.353 3.088-1.482 2.551-1.49 5.304-.016 6.149 1.474.846 3.871-.537 5.354-3.088 1.482-2.551 1.489-5.304.015-6.149" fill="#ebf5f7"/>
        </g>
    </g>
    <path d="M357.615 71.173v11.853a9.998 9.998 0 0 1-5.03 8.677l-39.112 22.402V96.602" fill="#f2f2f2" fill-rule="nonzero" stroke="#3a3e40" stroke-width=".7" stroke-linecap="round" stroke-miterlimit="10"/>
    <path d="M313.473 96.961v17.104l-48.568-29.172V67.39" fill="none" stroke="#3a3e40" stroke-width=".7" stroke-linecap="round" stroke-miterlimit="10"/>
    <path d="M313.473 96.672l-48.568-29.064 45.33-23.986 47.338 27.527-44.1 25.523z" fill="none" stroke="#3a3e40" stroke-width=".7" stroke-linecap="round" stroke-miterlimit="10"/>
    <path d="M357.615 53.901v17.65l-44.142 25.282V79.33" fill="#f2f2f2" fill-rule="nonzero" stroke="#3a3e40" stroke-width=".7" stroke-linecap="round" stroke-miterlimit="10"/>
    <path d="M313.473 79.689v17.104l-48.568-29.172V50.118" fill="#fff" fill-rule="nonzero" stroke="#3a3e40" stroke-width=".7" stroke-linecap="round" stroke-miterlimit="10"/>
    <path d="M313.473 79.4l-48.568-29.064 45.33-23.986 47.338 27.528-44.1 25.522z" fill="none" stroke="#3a3e40" stroke-width=".7" stroke-linecap="round" stroke-miterlimit="10"/>
    <path d="M357.615 37.187v17.649l-44.142 25.283V62.616" fill="#f2f2f2" fill-rule="nonzero" stroke="#3a3e40" stroke-width=".7" stroke-linecap="round" stroke-miterlimit="10"/>
    <path d="M313.473 62.974v17.105l-48.568-29.172V33.714m48.568 28.971l-48.568-29.063 40.424-21.39a9.997 9.997 0 0 1 9.704.194l42.54 24.737-44.1 25.522z" fill="#fff" fill-rule="nonzero" stroke="#3a3e40" stroke-width=".7" stroke-linecap="round" stroke-miterlimit="10"/>
    <path d="M304.652 66.143c0 1.193.894 2.72 1.996 3.409 1.101.688 1.995.278 1.995-.915s-.894-2.72-1.995-3.409c-1.102-.688-1.996-.278-1.996.915zm0 16.833c0 1.193.894 2.72 1.996 3.409 1.101.688 1.995.278 1.995-.915s-.894-2.72-1.995-3.409c-1.102-.688-1.996-.278-1.996.915zm0 17.787c0 1.193.894 2.721 1.996 3.409 1.101.688 1.995.278 1.995-.915s-.894-2.72-1.995-3.408c-1.102-.689-1.996-.279-1.996.914z" fill="#41ff8b" stroke="#3a3e40" stroke-width=".7" stroke-linejoin="miter" stroke-miterlimit="10"/>
    <path d="M269.613 46.609c-.667-.397-1.219-1.254-1.233-1.913-.014-.658.516-.869 1.183-.472l21.002 12.52c.666.398 1.219 1.255 1.233 1.913.014.658-.517.87-1.183.472l-21.002-12.52zm0 16.593c-.667-.398-1.219-1.255-1.233-1.913-.014-.658.516-.87 1.183-.473l21.002 12.52c.666.398 1.219 1.255 1.233 1.913.014.659-.517.87-1.183.473l-21.002-12.52zm0 17.64c-.667-.397-1.219-1.254-1.233-1.912-.014-.659.516-.87 1.183-.473l21.002 12.52c.666.398 1.219 1.255 1.233 1.913.014.658-.517.87-1.183.472l-21.002-12.52z" fill="#fff" stroke="#2c2f31" stroke-width=".7" stroke-linecap="round" stroke-miterlimit="1.5"/>
</svg>
