<svg viewBox="0 0 854 148" xmlns="http://www.w3.org/2000/svg" fill-rule="evenodd" clip-rule="evenodd" stroke-linejoin="round" stroke-miterlimit="1.414">
    <path d="M533.943 36.306h-17.015v40.381h6.056V42.199h10.969l-.01-5.893zm5.549 0h4.1V25.808h5.636v10.498h10.12v5.836h-10.12v25.51c0 2.087 2.343 3.512 3.619 3.512h5.807v5.523h-6.187a8.857 8.857 0 01-6.305-2.646 9.096 9.096 0 01-2.612-6.389V42.159h-4.09l.032-5.853zm-92.834 40.381h27.44v-5.543h-21.071V49.267c0-1.887.74-3.696 2.056-5.03a6.977 6.977 0 014.965-2.084h7.426v5.82h6.342V36.306h-15.284c-3.206 0-6.28 1.295-8.54 3.599a12.29 12.29 0 00-3.5 8.675l.166 28.107zm-23.721-26.351l8.381-14.03h7.404l-11.883 19.939 13.501 20.442h-7.369l-9.652-14.535-8.662 14.535h-7.555l12.289-20.45-8.502-12.802-4.144-.015.055-7.114h6.871l9.266 14.03zm65.467 9.095v8.677c0 .764.3 1.497.834 2.037.531.538 1.256.84 2.012.839 6.249-.018 17.354-.06 17.354-.06v5.763h-19.999c-3.275 0-5.929-2.689-5.929-6.007V43.856c0-2.003.785-3.923 2.182-5.339a7.404 7.404 0 015.269-2.211h11.525c2.102 0 4.118.846 5.604 2.352a8.09 8.09 0 012.321 5.678v15.095h-21.173zm0-5.262h15.674v-8.328c0-2.203-1.735-3.989-3.875-3.989h-7.715c-2.554 0-4.084 1.645-4.084 3.989v8.328zM349.84 17.319c1.6 0 2.899 1.306 2.899 2.916v61.727a2.925 2.925 0 01-2.899 2.916h-4.765L332.08 71.805a1.207 1.207 0 00-1.708 0l-6.122 6.158a1.227 1.227 0 000 1.718l5.165 5.197h-19.268l25.684-25.838a.01.01 0 01.007-.003.01.01 0 01.007.003.01.01 0 00.007.003c.002 0 .005-.001.006-.003l6.969-7.011a1.227 1.227 0 000-1.718l-11.601-11.672a1.207 1.207 0 00-1.708 0l-6.122 6.159a1.227 1.227 0 000 1.718l3.758 3.781a1.227 1.227 0 010 1.718l-32.666 32.863h-5.523a2.925 2.925 0 01-2.899-2.916V20.235a2.922 2.922 0 012.899-2.916h5.408l12.283 12.357a1.207 1.207 0 001.709 0l6.121-6.159a1.227 1.227 0 000-1.718l-4.453-4.48h17.789l-31.927 32.119a1.227 1.227 0 000 1.718l11.957 12.029a1.207 1.207 0 001.708 0l6.122-6.159a1.227 1.227 0 000-1.718l-4.127-4.152a1.227 1.227 0 010-1.718l31.927-32.119h6.358zm49.991 17.635c0-4.966-4.235-8.991-9.459-8.991h-14.184c-5.225 0-9.46 4.025-9.46 8.991v32.747c0 4.965 4.235 8.99 9.46 8.99h14.184c5.224 0 9.459-4.025 9.459-8.99V34.954zm-5.897 10.335l-21.309 18.224v4.093c0 1.826 1.557 3.306 3.478 3.306h14.353c1.921 0 3.478-1.48 3.478-3.306V45.289zm0-8.25v-1.991c0-1.826-1.557-3.306-3.478-3.306h-14.353c-1.921 0-3.478 1.48-3.478 3.306v20.214l21.309-18.223z" fill="#fff"/>
    <path d="M286.995 123.055v-14.344h4.836c1.612 0 2.78.366 3.504 1.097.724.731 1.086 1.642 1.086 2.735 0 1.407-.622 2.391-1.865 2.951.765.26 1.349.697 1.752 1.311a3.66 3.66 0 01.605 2.05c0 1.147-.386 2.134-1.158 2.961-.772.826-1.978 1.239-3.617 1.239h-5.143zm2.438-8.545h2.07c.82 0 1.438-.16 1.854-.481.417-.321.625-.762.625-1.322 0-1.161-.696-1.742-2.09-1.742h-2.459v3.545zm0 6.291h2.869c.779 0 1.335-.188 1.67-.563.335-.376.502-.83.502-1.363 0-1.421-.922-2.131-2.766-2.131h-2.275v4.057zm14.242 2.5c-1.161 0-2.101-.345-2.818-1.035-.717-.689-1.076-1.793-1.076-3.309v-6.373h2.357v5.861c0 1.735.717 2.602 2.151 2.602 1.544 0 2.316-.854 2.316-2.561v-5.902h2.356v10.471h-2.356v-1.004c-.669.834-1.646 1.25-2.93 1.25zm13.401-12.172c-.382 0-.71-.136-.984-.409a1.368 1.368 0 01-.409-1.005c0-.396.136-.727.409-.993.274-.267.602-.4.984-.4.396 0 .731.133 1.004.4.273.266.41.597.41.993 0 .397-.137.731-.41 1.005a1.366 1.366 0 01-1.004.409zm1.189 9.857h2.889v2.069h-8.135v-2.069h2.889v-6.332h-2.889v-2.07h5.246v8.402zm12.52 0h3.053v2.069h-8.463v-2.069h3.053V110.33h-2.438l-1.086-2.069h5.881v12.725zm11.085 2.315c-1.434 0-2.561-.481-3.381-1.444-.819-.964-1.229-2.313-1.229-4.047 0-1.681.42-3.013 1.26-3.996.84-.984 1.937-1.476 3.289-1.476 1.12 0 1.988.335 2.602 1.004v-3.995l2.357-1.086v14.794h-2.357v-.799c-.218.287-.556.533-1.014.738a3.694 3.694 0 01-1.527.307zm.328-2.254c1.025 0 1.763-.341 2.213-1.024v-4.427c-.491-.683-1.243-1.024-2.254-1.024-.806 0-1.427.28-1.864.84-.438.56-.656 1.359-.656 2.398 0 .983.222 1.769.666 2.356.444.587 1.076.881 1.895.881zm25.348 2.254a5.962 5.962 0 01-2.459-.502c-.751-.335-1.352-.789-1.803-1.363l1.537-1.393c.86.833 1.81 1.25 2.848 1.25.505 0 .922-.089 1.25-.266.328-.178.492-.444.492-.799 0-.205-.099-.4-.297-.584a2.657 2.657 0 00-.687-.462 25.174 25.174 0 00-1.147-.491 1.626 1.626 0 00-.134-.062c-.034-.013-.078-.031-.133-.051a2.43 2.43 0 00-.143-.051 41.994 41.994 0 01-1.127-.502 10.039 10.039 0 01-.892-.492c-.348-.212-.601-.413-.758-.605a2.93 2.93 0 01-.42-.727 2.546 2.546 0 01-.184-.994c0-.888.382-1.588 1.147-2.1s1.728-.769 2.89-.769c1.625 0 2.93.554 3.913 1.66l-1.577 1.291c-.752-.628-1.558-.942-2.418-.942-.533 0-.96.078-1.281.235-.321.157-.482.379-.482.666 0 .137.055.27.164.4.11.129.301.266.574.41.273.143.499.252.676.327.178.076.478.195.902.359 1.257.505 2.09.915 2.5 1.229.724.574 1.093 1.319 1.106 2.234 0 .97-.365 1.728-1.096 2.275-.731.546-1.718.819-2.961.819zm12.561 0c-1.544 0-2.766-.488-3.668-1.465-.901-.977-1.352-2.312-1.352-4.006 0-1.68.451-3.016 1.352-4.006.902-.99 2.124-1.486 3.668-1.486 1.557 0 2.784.496 3.678 1.486.895.99 1.343 2.326 1.343 4.006 0 1.68-.448 3.012-1.343 3.996-.894.983-2.121 1.475-3.678 1.475zm0-2.254c.847 0 1.499-.287 1.957-.86.458-.574.687-1.36.687-2.357 0-.997-.229-1.79-.687-2.377-.458-.587-1.11-.881-1.957-.881-.833 0-1.482.294-1.947.881-.464.587-.696 1.38-.696 2.377 0 .984.232 1.766.696 2.346.465.581 1.114.871 1.947.871zm15.471-8.709c.874 0 1.52.304 1.936.912.417.608.625 1.629.625 3.064v6.741h-2.151v-6.393c0-.738-.068-1.267-.205-1.588-.137-.321-.389-.482-.758-.482-.355 0-.639.185-.851.554-.211.369-.317.881-.317 1.537v6.372h-2.152v-6.454c0-1.339-.328-2.009-.983-2.009-.383 0-.687.185-.912.554-.226.369-.338.881-.338 1.537v6.372h-2.152v-10.471h2.008v1.394c.383-1.093 1.073-1.64 2.07-1.64.437 0 .823.151 1.158.451.334.301.57.656.707 1.066.628-1.011 1.4-1.517 2.315-1.517zm14.549 4.959c0 .601-.027 1.079-.082 1.435h-7.131c.15.765.454 1.369.912 1.813.457.444 1.048.666 1.772.666.916 0 1.687-.341 2.316-1.024l1.414 1.495c-.984 1.08-2.234 1.619-3.75 1.619-1.544 0-2.763-.498-3.658-1.496-.895-.997-1.342-2.329-1.342-3.995 0-1.694.451-3.03 1.352-4.007.902-.976 2.118-1.465 3.648-1.465 1.339 0 2.431.42 3.278 1.261.847.84 1.271 2.073 1.271 3.698zm-7.234-.574h4.918c-.068-.765-.31-1.342-.727-1.731a2.128 2.128 0 00-1.506-.584c-.752 0-1.356.205-1.814.615-.457.41-.748.976-.871 1.7zm16.045 6.578c-2.049 0-3.074-.949-3.074-2.848v-5.799h-2.192v-2.07h2.192v-3.196l2.357-1.127v4.323h3.565v2.07h-3.565v5.348c0 .806.492 1.209 1.475 1.209.574 0 1.175-.164 1.804-.492l-.287 2.111c-.601.314-1.36.471-2.275.471zm7.07-.246v-13.708l2.356-1.086v5.348c.683-.847 1.674-1.271 2.971-1.271 1.148 0 2.08.345 2.797 1.035.718.69 1.076 1.786 1.076 3.289v6.393h-2.356v-5.901c0-.902-.202-1.558-.605-1.967-.403-.41-.925-.615-1.567-.615-.683 0-1.24.198-1.67.594-.431.396-.646 1.045-.646 1.947v5.942h-2.356zm17.294-11.926a1.342 1.342 0 01-.983-.409 1.365 1.365 0 01-.41-1.005c0-.396.136-.727.41-.993.273-.267.601-.4.983-.4.396 0 .731.133 1.004.4.274.266.41.597.41.993 0 .397-.136.731-.41 1.005a1.366 1.366 0 01-1.004.409zm1.189 9.857h2.889v2.069h-8.135v-2.069h2.889v-6.332h-2.889v-2.07h5.246v8.402zm12.09-8.648c1.147 0 2.079.345 2.797 1.035.717.69 1.075 1.786 1.075 3.289v6.393h-2.356v-5.901c0-.902-.198-1.558-.594-1.967-.396-.41-.922-.615-1.578-.615-1.544 0-2.316.847-2.316 2.541v5.942h-2.356v-10.471h2.172v1.291c.205-.41.604-.768 1.199-1.076a4.198 4.198 0 011.957-.461zm11.27 14.877l-1.271-1.926c1.462-.109 2.47-.335 3.023-.676.553-.342.83-.895.83-1.66v-.615c-.56.642-1.373.963-2.439.963-1.284 0-2.329-.475-3.135-1.424-.806-.949-1.209-2.305-1.209-4.067 0-1.681.403-3.013 1.209-3.996.806-.984 1.865-1.476 3.176-1.476.997 0 1.797.301 2.398.902v-.656h2.356v9.365c0 1.789-.372 3.084-1.117 3.883-.744.799-2.018 1.26-3.821 1.383zm.553-6.168c.888 0 1.564-.355 2.029-1.065v-4.365c-.492-.697-1.168-1.045-2.029-1.045-.779 0-1.373.277-1.783.83-.41.553-.614 1.356-.614 2.408 0 .997.208 1.786.625 2.366.416.581 1.007.871 1.772.871zm24.61 2.254c-1.161 0-2.1-.345-2.818-1.035-.717-.689-1.075-1.793-1.075-3.309v-6.373h2.356v5.861c0 1.735.717 2.602 2.152 2.602 1.543 0 2.315-.854 2.315-2.561v-5.902h2.357v10.471h-2.357v-1.004c-.669.834-1.646 1.25-2.93 1.25zm14.057-10.963c1.148 0 2.08.345 2.797 1.035.717.69 1.076 1.786 1.076 3.289v6.393h-2.357v-5.901c0-.902-.198-1.558-.594-1.967-.396-.41-.922-.615-1.578-.615-1.543 0-2.315.847-2.315 2.541v5.942h-2.357v-10.471h2.172v1.291c.205-.41.605-.768 1.199-1.076a4.198 4.198 0 011.957-.461zm11.967-1.209c-.383 0-.71-.136-.984-.409a1.368 1.368 0 01-.409-1.005c0-.396.136-.727.409-.993.274-.267.601-.4.984-.4.396 0 .731.133 1.004.4.273.266.41.597.41.993 0 .397-.137.731-.41 1.005a1.366 1.366 0 01-1.004.409zm1.188 9.857h2.89v2.069h-8.135v-2.069h2.889v-6.332h-2.889v-2.07h5.245v8.402zm13.525 6.168v-4.939c-.601.724-1.455 1.086-2.562 1.086-1.366 0-2.472-.488-3.319-1.465-.847-.977-1.271-2.312-1.271-4.006 0-1.721.42-3.067 1.26-4.037.841-.97 1.971-1.455 3.392-1.455 1.052 0 1.885.349 2.5 1.045v-.799h2.356v13.504l-2.356 1.066zm-2.254-6.107c1.011 0 1.762-.348 2.254-1.045v-4.385c-.465-.697-1.202-1.045-2.213-1.045-.806 0-1.435.297-1.886.891-.45.595-.676 1.383-.676 2.367 0 1.038.215 1.834.646 2.387.43.554 1.055.83 1.875.83zm12.008 2.254c-1.162 0-2.101-.345-2.818-1.035-.717-.689-1.076-1.793-1.076-3.309v-6.373h2.357v5.861c0 1.735.717 2.602 2.151 2.602 1.544 0 2.316-.854 2.316-2.561v-5.902h2.356v10.471h-2.356v-1.004c-.67.834-1.646 1.25-2.93 1.25zm18.093-6.004c0 .601-.027 1.079-.082 1.435h-7.131c.151.765.455 1.369.912 1.813.458.444 1.049.666 1.773.666.915 0 1.687-.341 2.315-1.024l1.414 1.495c-.983 1.08-2.233 1.619-3.75 1.619-1.543 0-2.763-.498-3.657-1.496-.895-.997-1.343-2.329-1.343-3.995 0-1.694.451-3.03 1.353-4.007.901-.976 2.117-1.465 3.647-1.465 1.339 0 2.432.42 3.279 1.261.847.84 1.27 2.073 1.27 3.698zm-7.233-.574h4.918c-.068-.765-.311-1.342-.728-1.731a2.127 2.127 0 00-1.506-.584c-.751 0-1.356.205-1.813.615-.458.41-.748.976-.871 1.7z" fill="#fff" fill-rule="nonzero"/>
    <path d="M71.184 103.693L2.173 142.289l.203-98.028c.005-2.22 1.36-4.796 3.028-5.754L68.379 3.379c1.666-.958 3.015.065 3.01 2.286l-.205 98.028z" fill="#666" stroke="#000" stroke-width=".7"/>
    <path d="M69.35 109.367L7.529 143.941c-.535.3-1.139.457-1.753.457a3.627 3.627 0 01-3.592-3.592v-.007l.192-91.89c.005-2.219 1.36-4.796 3.028-5.754L68.379 8.027c1.666-.958 3.015.066 3.01 2.287l-.2 95.926a3.6 3.6 0 01-1.839 3.127z" fill="#666" stroke="#000" stroke-width=".7" stroke-linejoin="miter" stroke-miterlimit="4"/>
    <path d="M60.6 78.36l-44.834 25.365c-1.52.874-2.75-.06-2.745-2.084l.05-24.222c.004-2.025 1.241-4.375 2.761-5.249l44.834-25.367c1.52-.874 2.749.06 2.745 2.083l-.05 24.224c-.005 2.023-1.24 4.375-2.761 5.249v.001z" fill="none" stroke="#000" stroke-width=".7"/>
    <path d="M64.846 49.544c-.016 7.507-5.339 16.643-11.889 20.409-6.55 3.763-11.846.728-11.832-6.779.016-7.508 5.339-16.645 11.889-20.408 6.549-3.763 11.847-.728 11.832 6.778" fill="#41ff8b" stroke="#333" stroke-width=".7" stroke-linecap="round" stroke-miterlimit="4"/>
    <path d="M13.217 118.215l45.867-26.352-45.867 26.352zm-.01 5.496l45.865-26.352-45.865 26.352zm-.011 4.984l45.866-26.352-45.866 26.352zm36.975-95.81L12.755 54.383c-.431.247-.778-.018-.778-.59l.004-1.276c.001-.573.35-1.237.78-1.485l37.415-21.497c.432-.247.779.017.779.59l-.004 1.276c0 .573-.351 1.236-.78 1.484M12.452 60.163l23.613-13.567-23.613 13.567z" fill="none" stroke="#000" stroke-width=".7" stroke-linejoin="miter" stroke-miterlimit="4"/>
    <path d="M58.126 49.474c1.04.055 1.765 1.269 1.275 2.22-1.904 3.279-3.968 6.462-5.953 9.693-.535.823-1.799.916-2.444.158-1.794-2.335-4.239-4.669-3.301-6.142.516-.81 1.833-.917 2.478-.077l1.883 2.583 4.784-7.783c.299-.415.598-.653 1.278-.652z" fill="#fff" fill-rule="nonzero"/>
    <path d="M117.081 93.452l49.246 28.617a5.133 5.133 0 005.128.015l49.754-28.534a3.08 3.08 0 001.546-2.669 3.082 3.082 0 00-1.553-2.674l-50.065-28.53a5.133 5.133 0 00-5.116.021l-48.94 28.433a3.08 3.08 0 00-1.531 2.66 3.08 3.08 0 001.531 2.661z" fill="none" stroke="#000" stroke-width=".7" stroke-linejoin="miter" stroke-miterlimit="10"/>
    <path d="M169.219 56.132c.462-.308.462-.769 0-.923-.461-.308-1.231-.308-1.692 0-.462.308-.462.615 0 .923.461.154 1.231.154 1.692 0zm-1.692 27.432c-.462.308-.462.616 0 .923.461.308 1.231.308 1.692 0 .462-.307.462-.769 0-.923-.461-.307-1.231-.307-1.692 0z" fill="none" stroke="#3a3e40" stroke-width=".7" stroke-linecap="round" stroke-miterlimit="10"/>
    <path d="M117.959 59.719v30.275m101.365-30.052v30.296" fill="none" stroke="#bdd2db" stroke-opacity=".5" stroke-width=".7" stroke-linecap="square" stroke-linejoin="miter" stroke-miterlimit="10" stroke-dasharray=".7,1.4"/>
    <path d="M137.902 86.396l30.673 17.824c.317.184.708.185 1.025.003l30.993-17.774a1.026 1.026 0 00-.002-1.781l-31.174-17.765a1.03 1.03 0 00-1.023.004l-30.492 17.716a1.027 1.027 0 000 1.773z" fill="#666" fill-rule="nonzero" stroke="#000" stroke-width=".7" stroke-linecap="round" stroke-miterlimit="10"/>
    <path d="M139.833 84.954c-.462.308-.462.615 0 .923.461.308 1.231.308 1.692 0 .462-.308.462-.769 0-.923-.461-.308-1.231-.308-1.692 0zm28.142-16.298c-.461.307-.461.615 0 .923.462.308 1.231.308 1.693 0 .461-.308.461-.769 0-.923-.462-.308-1.231-.308-1.693 0zm0 32.822c-.461.308-.461.615 0 .923.462.308 1.231.308 1.693 0 .461-.308.461-.769 0-.923-.462-.308-1.231-.308-1.693 0z" fill="none" stroke="#3a3e40" stroke-width=".7" stroke-linecap="round" stroke-miterlimit="10"/>
    <path d="M165.988 29l-50.772 29.386c-1.385.769-1.385 2 0 2.923l50.772 29.386c1.385.77 3.539.77 4.923 0l6.462-3.692c-1.077-.616-1.077-1.693 0-2.308 1.077-.615 2.77-.615 3.847 0l40.463-23.386c1.385-.769 1.385-2 0-2.923L170.911 29c-1.384-.769-3.692-.769-4.923 0z" fill="#666" fill-rule="nonzero" stroke="#000" stroke-width=".7" stroke-linecap="round" stroke-miterlimit="10"/>
    <path d="M179.168 81.499v33.868" fill="none" stroke="#262626" stroke-width=".7" stroke-linecap="square" stroke-linejoin="miter" stroke-miterlimit="10" stroke-dasharray=".7,1.4"/>
    <path d="M168.45 85.564c-.769 0-1.693-.154-2.308-.461L115.37 55.717c-.462-.308-.769-.616-.769-1.077 0-.308.307-.77.769-1.077l50.772-29.387c.615-.307 1.385-.461 2.308-.461.769 0 1.692.154 2.308.461l50.772 29.387c.461.307.769.615.769 1.077 0 .307-.308.769-.769 1.077l-40.156 23.232a4.25 4.25 0 00-2.001-.462c-.769 0-1.538.154-2.154.462-.615.461-1.076.923-1.076 1.538 0 .462.153.769.461 1.077l-5.846 3.385c-.77.461-1.539.615-2.308.615z" fill="#666" fill-rule="nonzero" stroke="#000" stroke-width=".7" stroke-linecap="round" stroke-miterlimit="10"/>
    <path d="M117.087 53.94c-.462.307-.462.615 0 .923.461.307 1.231.307 1.692 0 .462-.308.462-.77 0-.923-.461-.308-1.231-.308-1.692 0zm0 5.641c-.462.308-.462.615 0 .923.461.308 1.231.308 1.692 0 .462-.308.462-.769 0-.923-.461-.308-1.231-.308-1.692 0zm101.301-.157c-.461.308-.461.616 0 .924.462.307 1.231.307 1.693 0 .461-.308.461-.77 0-.924-.462-.307-1.231-.307-1.693 0zM178.232 85.58c-.461.307-.461.615 0 .923.462.308 1.231.308 1.693 0 .461-.308.461-.769 0-.923-.462-.308-1.231-.308-1.693 0zm0 29.232c-.461.308-.461.615 0 .923.462.308 1.231.308 1.693 0 .461-.308.461-.769 0-.923-.462-.308-1.231-.308-1.693 0zm-60.83-24.599c-.462.308-.462.615 0 .923.461.308 1.231.308 1.692 0 .462-.308.462-.769 0-.923-.461-.308-1.231-.308-1.692 0zm60.83-9.762c-.461.308-.461.616 0 .923.462.308 1.231.308 1.693 0 .461-.307.461-.769 0-.923-.462-.307-1.231-.307-1.693 0zm40.22 9.632c-.461.307-.461.615 0 .923.462.307 1.231.307 1.693 0 .461-.308.461-.77 0-.923-.462-.308-1.231-.308-1.693 0zm-49.233-64.209c.462-.308.462-.769 0-.923-.461-.308-1.231-.308-1.692 0-.462.308-.462.615 0 .923.461.154 1.231.154 1.692 0z" fill="none" stroke="#000" stroke-width=".7" stroke-linecap="round" stroke-miterlimit="10"/>
    <path d="M221.324 53.255l-5.846-3.385v9.539l5.846-3.385c1.385-.769 1.385-2 0-2.769z" fill="#595959" fill-rule="nonzero" stroke="#000" stroke-width=".7" stroke-linecap="round" stroke-miterlimit="10"/>
    <path d="M137.902 28.445l30.673 17.823c.317.184.708.185 1.025.003l30.993-17.774a1.026 1.026 0 00-.002-1.781L169.417 8.951a1.03 1.03 0 00-1.023.004l-30.492 17.716a1.025 1.025 0 000 1.774z" fill="#0c71ff" fill-rule="nonzero" stroke="#000" stroke-width=".7" stroke-linejoin="miter" stroke-miterlimit="10"/>
    <path d="M139.833 27.002c-.462.308-.462.616 0 .923.461.308 1.231.308 1.692 0 .462-.307.462-.769 0-.923-.461-.307-1.231-.307-1.692 0zm28.142-16.298c-.461.308-.461.615 0 .923.462.308 1.231.308 1.693 0 .461-.308.461-.769 0-.923-.462-.308-1.231-.308-1.693 0zm29.233 16.411c-.462.308-.462.615 0 .923.461.308 1.231.308 1.692 0 .462-.308.462-.769 0-.923-.461-.308-1.231-.308-1.692 0zm-29.233 16.411c-.461.308-.461.616 0 .923.462.308 1.231.308 1.693 0 .461-.307.461-.769 0-.923-.462-.308-1.231-.308-1.693 0z" fill="#fff" fill-rule="nonzero" stroke="#3a3e40" stroke-width=".7" stroke-linecap="round" stroke-miterlimit="10"/>
    <path d="M180.714 26.244l-12.665-.074c-.222 0-.406.095-.412.217l-.032.733c-.005.116-.19.218-.411.218l-2.43-.014c-.222-.007-.397-.102-.392-.224l.113-2.533c.006-.122.192-.217.415-.217l12.722.135-3.27-1.86-.038.842c-.005.122-.193.224-.417.217l-2.436-.027c-.219-.007-.391-.109-.386-.224l.117-2.608-1.241-.706c-.252-.143-.674-.143-.938-.007l-12.622 6.696c-.264.143-.274.373-.023.516l1.18.672 12.817.075c.221 0 .405-.095.411-.217l.032-.734c.005-.122.19-.217.411-.217l2.43.014c.221.006.397.101.391.224l-.112 2.533c-.006.122-.193.217-.415.217l-12.875-.136 3.42 1.942.04-.923c.006-.129.194-.224.418-.218l2.436.028c.219.006.391.102.385.224l-.119 2.682 1.167.672c.252.143.673.143.938.007l12.621-6.696c.265-.142.275-.373-1.23-1.229z" fill="#fff"/>
    <g stroke-width=".7">
        <path d="M83.321 87.246c-.52 1.145.25 2.062.952 2.526-.738 1.543-3.135 2.862-5.595 2.862s-5.085-1.33-5.594-2.862c.703-.399 1.482-1.375.941-2.526h9.296z" fill="#fff" stroke="#000" stroke-linecap="round" stroke-miterlimit="4"/>
        <path d="M79.445 89.318h-1.518a4.96 4.96 0 01-3.514-1.468l-1.16-1.143a9.17 9.17 0 01-2.656-6.459v-6.014c0-8.069 16.163-8.069 16.163 0v6.014a9.175 9.175 0 01-2.656 6.459l-1.139 1.147a4.964 4.964 0 01-3.52 1.464z" fill="#fff" fill-rule="nonzero" stroke="#000" stroke-linecap="round" stroke-miterlimit="4"/>
        <path d="M70.597 81.409v-3.29c0-1.096-.833-1.462-1.345-1.096-.817.559.225 2.924.225 2.924-.606.38.078 1.729 1.12 1.462zm16.163-.415v-3.289c0-1.097.828-1.463 1.344-1.097.818.559-.224 2.924-.224 2.924.609.38-.078 1.733-1.12 1.462z" fill="#fff" stroke="#000" stroke-linecap="round" stroke-miterlimit="4"/>
        <path d="M82.806 65.921c2.715 1.166 6.338 4.423 4.852 9.227-.219.713-.535.463-.888.399 0 0-.056-2.803-1.408-2.514-3.218.685-4.802-1.937-8.71.938-.542-.903-.169-2.953 1.207-4.03-3.221 0-7.284 2.001-7.284 4.404 0 0-1.077-.806-1.165-1.601-.405-3.588 1.413-5.414 4.589-6.783 2.586-1.115 7.36-.66 8.807-.04z" fill="#666" fill-rule="nonzero" stroke="#000" stroke-linecap="round" stroke-miterlimit="4"/>
        <circle cx="82.823" cy="78.75" r=".622" fill="none" stroke="#000" stroke-linecap="round" stroke-miterlimit="4"/>
        <circle cx="74.534" cy="78.75" r=".622" fill="none" stroke="#000" stroke-linecap="round" stroke-miterlimit="4"/>
        <path d="M86.693 90.624s-2.393-.942-2.301-.889c-.751 1.592-3.282 2.963-5.714 2.963-2.431 0-5.161-1.371-5.72-2.945l-2.202.906c-3.344 1.352-5.535 4.572-5.547 8.153v6.255h26.938v-6.326c-.009-3.546-2.157-6.743-5.454-8.117z" fill="#666" fill-rule="nonzero" stroke="#000" stroke-linecap="round" stroke-miterlimit="4"/>
        <path d="M71.633 104.892V98.6m14.505 6.292V98.6m-5.18-14.669s-1.022 1.243-2.28 1.243c-1.258 0-2.279-1.243-2.279-1.243" fill="none" stroke="#000" stroke-linecap="round" stroke-miterlimit="4"/>
        <path d="M129.558 145.453c3.557 0 1.754-2.273 1.754-2.273l-1.754-2.273-1.753 2.273s-1.802 2.273 1.753 2.273zm.484-24.094s-8.609 5.32-12.489 7.737c-3.417 2.128-9.406 5.902-9.406 5.902l-21.931-13.64 21.932-13.638 21.895 13.639h-.001zm-.502 0v19.689" fill="#666" stroke="#000" stroke-linecap="round" stroke-miterlimit="4"/>
        <path d="M122.966 125.735v9.687s-3.062 8.076-14.9 8.076c-11.839 0-14.901-8.076-14.901-8.076v-9.742l14.983 9.318s5.988-3.774 9.404-5.902c1.399-.872 3.411-2.12 5.414-3.36v-.001z" fill="#666" stroke="#000" stroke-linecap="round" stroke-miterlimit="4"/>
        <path d="M222.149 4.761l26.396 15.222-42.99 24.354" fill="none" stroke="#000" stroke-linejoin="miter" stroke-miterlimit="10"/>
        <ellipse cx="223.058" cy="5.61" rx="5.213" ry="3.352" fill="#404040" stroke="#000" stroke-linecap="round" stroke-miterlimit="10"/>
        <path d="M190.526 142.895L257.8 106.2m-57.124 24.09l23.808-12.843" fill="none" stroke="#000" stroke-linejoin="miter" stroke-miterlimit="10"/>
        <path d="M725.377 38.735l-62.943 35.926c-.59.27-.972.861-.973 1.51l-.137 64.841v.004c0 .913.752 1.665 1.665 1.665.244 0 .484-.054.705-.157l62.916-36.532c.583-.272.958-.86.96-1.504l.165-64.235v-.004c0-.913-.751-1.665-1.664-1.665-.239 0-.476.051-.693.151h-.001z" fill="#666" stroke="#000" stroke-linejoin="miter" stroke-miterlimit="4"/>
        <path d="M675.222 73.367c-.788 0-1.429-.713-1.432-1.594v-.005c0-.871.717-1.588 1.589-1.588h.001c.88 0 1.52.713 1.431 1.593-.09.881-.801 1.594-1.589 1.594zm-4.792 2.552c-.788 0-1.428-.713-1.431-1.594v-.005c0-.871.717-1.588 1.588-1.588h.001c.88 0 1.521.713 1.432 1.593-.09.881-.802 1.594-1.59 1.594zm-4.994 2.824c-.788 0-1.429-.714-1.432-1.594v-.005c0-.872.717-1.589 1.589-1.589h.001c.88 0 1.52.714 1.431 1.594-.09.88-.801 1.594-1.589 1.594zm62.146-31.768l-66.288 36.969 66.288-36.969z" fill="none" stroke="#000" stroke-linejoin="miter" stroke-miterlimit="4"/>
        <path d="M703.362 144.424l-.293-5.304 40.672-28.217c1.529-.882 2.772-3.027 2.776-4.791l4.49-21.917 4.434-2.246-10.144-5.501c-.499-.262-1.172-.215-1.918.216l-48.522 27.497c-1.529.883-2.772 3.028-2.776 4.791l-.074 29.537c-.002.904.322 1.529.844 1.809l10.511 4.126z" fill="#666" fill-rule="nonzero" stroke="#000" stroke-linejoin="miter" stroke-miterlimit="4"/>
        <path d="M703.362 145.565l-.293-5.304.074-25.945c.149-1.027.298-1.738.446-2.133l-10.906-5.558c-.4 1.053-.601 1.828-.602 2.327l-.074 29.537c-.002.904.322 1.529.844 1.809l10.511 5.267zm-.686-41.752c-.391-1.028-.149-2.553.539-3.408l23.357-27.65c.69-.854 1.336-1.31 1.728-.283l6.558 17.214c.392 1.028.15 2.554-.539 3.408l-23.127 28.247c-.689.854-1.565.713-1.957-.315l-6.559-17.213z" fill="#666" fill-rule="nonzero" stroke="#000" stroke-linejoin="miter" stroke-miterlimit="4"/>
        <path d="M704.927 104.319c-.391-1.027-.149-2.553.539-3.407l22.024-25.767c.689-.854 1.335-1.31 1.727-.283l6.558 17.214c.392 1.028.151 2.553-.538 3.408l-21.794 26.364c-.689.855-1.566.713-1.957-.315l-6.559-17.214z" fill="#fff" fill-rule="nonzero" stroke="#333"/>
        <path d="M704.927 104.319c-.391-1.027-.149-2.553.539-3.407l22.024-25.767c.689-.854 1.335-1.31 1.727-.283l6.558 17.214c.392 1.028.151 2.553-.538 3.408l-21.794 26.364c-.689.855-1.566.713-1.957-.315l-6.559-17.214z" fill="#41ff8b" fill-rule="nonzero" stroke="#000" stroke-linejoin="miter" stroke-miterlimit="4"/>
        <path d="M710.741 99.354c-.263-1.068.162-2.552.951-3.316l26.552-24.597c.788-.764 1.486-1.139 1.749-.071l4.412 17.885c.263 1.068-.162 2.553-.95 3.317l-26.397 25.218c-.788.763-1.641.517-1.904-.551l-4.413-17.885z" fill="#666" fill-rule="nonzero" stroke="#000" stroke-linejoin="miter" stroke-miterlimit="4"/>
        <path d="M712.914 100.131c-.263-1.067.162-2.552.95-3.316l24.999-22.89c.788-.764 1.486-1.139 1.75-.071l4.412 17.885c.263 1.068-.163 2.553-.951 3.317l-24.844 23.511c-.788.764-1.641.518-1.904-.551l-4.412-17.885z" fill="#0971ff" fill-rule="nonzero" stroke="#000" stroke-linejoin="miter" stroke-miterlimit="4"/>
        <path d="M702.842 114.451c.004-1.764 1.247-3.909 2.776-4.791l48.265-27.336c1.528-.883 2.764-.169 2.76 1.595l-.075 29.537c-.003 1.764-1.247 3.909-2.776 4.791l-48.265 27.336c-1.529.883-2.763.168-2.76-1.595l.075-29.537z" fill="#666" fill-rule="nonzero" stroke="#000" stroke-linejoin="miter" stroke-miterlimit="4"/>
        <path d="M726.117 105.225c.002-.954.671-2.114 1.495-2.591l27.502-15.126c.823-.477 1.489-.646 1.487.307l-.04 15.975c-.003.954-.672 2.114-1.495 2.591l-27.503 15.681c-.823.477-1.489.091-1.486-.862l.04-15.975z" fill="#666" fill-rule="nonzero" stroke="#000" stroke-linejoin="miter" stroke-miterlimit="4"/>
        <path d="M727.782 110.335c.002-.954.671-2.114 1.495-2.591l25.837-14.016c.823-.477 1.489-.646 1.487.307l-.04 15.975c-.003.954-.672 2.114-1.495 2.591l-25.838 14.571c-.823.477-1.489.091-1.486-.862l.04-15.975z" fill="#666" fill-rule="nonzero" stroke="#000" stroke-linejoin="miter" stroke-miterlimit="4"/>
        <path d="M740.62 110.039c.965 1.186.229 3.341-1.076 5.669-1.306 2.329-2.75 4.063-4.229 3.796l-.058.103-1.965-1.168c-1.487-.885-1.48-3.767.017-6.438 1.497-2.671 3.917-4.118 5.406-3.234l1.964 1.168-.059.104z" fill="#404040" fill-rule="nonzero" stroke="#000" stroke-linejoin="miter" stroke-miterlimit="4"/>
        <path d="M740.486 109.873c-1.512-.868-3.972.551-5.494 3.169-1.521 2.618-1.529 5.443-.016 6.31 1.513.868 3.972-.551 5.495-3.169 1.52-2.618 1.528-5.443.015-6.31" fill="#404040" fill-rule="nonzero" stroke="#000" stroke-linejoin="miter" stroke-miterlimit="4"/>
        <path d="M842.207 59.613v10.08a10.01 10.01 0 01-5.03 8.677L802.5 98.231V82.487" fill="#404040" fill-rule="nonzero" stroke="#000" stroke-linecap="round" stroke-miterlimit="10"/>
        <path d="M802.5 82.809v15.386l-43.688-26.241V56.21" fill="#666" stroke="#000" stroke-linecap="round" stroke-miterlimit="10"/>
        <path d="M802.5 82.55l-43.688-26.144 40.775-21.576 42.582 24.761L802.5 82.55z" fill="none" stroke="#3a3e40" stroke-linecap="round" stroke-miterlimit="10"/>
        <path d="M842.207 44.076v15.877L802.5 82.695V66.95" fill="#404040" fill-rule="nonzero" stroke="#000" stroke-linecap="round" stroke-miterlimit="10"/>
        <path d="M802.5 67.273v15.386l-43.688-26.241V40.674" fill="#666" fill-rule="nonzero" stroke="#000" stroke-linecap="round" stroke-miterlimit="10"/>
        <path d="M802.5 67.013l-43.688-26.144 40.775-21.576 42.582 24.762L802.5 67.013z" fill="none" stroke="#3a3e40" stroke-linecap="round" stroke-miterlimit="10"/>
        <path d="M842.207 29.041v15.877L802.5 67.66V51.915" fill="#404040" fill-rule="nonzero" stroke="#000" stroke-linecap="round" stroke-miterlimit="10"/>
        <path d="M802.5 52.238v15.386l-43.688-26.241V25.917M802.5 51.978l-43.688-26.144 35.869-18.98a10.013 10.013 0 019.704.194l37.784 21.972L802.5 51.978z" fill="#666" fill-rule="nonzero" stroke="#000" stroke-linecap="round" stroke-miterlimit="10"/>
        <path d="M794.565 55.088c0 1.073.804 2.447 1.795 3.066.991.619 1.795.251 1.795-.822 0-1.074-.804-2.447-1.795-3.067-.991-.619-1.795-.25-1.795.823zm0 15.142c0 1.073.804 2.447 1.795 3.066.991.619 1.795.25 1.795-.823s-.804-2.447-1.795-3.066c-.991-.619-1.795-.25-1.795.823zm0 16c0 1.073.804 2.447 1.795 3.066.991.619 1.795.251 1.795-.823 0-1.073-.804-2.447-1.795-3.066-.991-.619-1.795-.25-1.795.823z" fill="#41ff8b" stroke="#3a3e40" stroke-linejoin="miter" stroke-miterlimit="10"/>
        <path d="M763.047 37.517c-.6-.357-1.097-1.128-1.11-1.721-.012-.592.465-.782 1.065-.424l18.891 11.262c.6.357 1.097 1.128 1.109 1.72.013.592-.464.783-1.064.425l-18.891-11.262zm0 14.925c-.6-.357-1.097-1.128-1.11-1.72-.012-.592.465-.783 1.065-.425l18.891 11.262c.6.357 1.097 1.129 1.109 1.721.013.592-.464.782-1.064.424l-18.891-11.262zm0 15.869c-.6-.358-1.097-1.129-1.11-1.721-.012-.592.465-.782 1.065-.425l18.891 11.262c.6.358 1.097 1.129 1.109 1.721.013.592-.464.782-1.064.425l-18.891-11.262z" fill="#404040" stroke="#000" stroke-linecap="round" stroke-miterlimit="1.5"/>
        <path d="M823.148 86.295l26.942 15.616-63.889 34.767" fill="none" stroke="#000" stroke-linejoin="miter" stroke-miterlimit="10"/>
        <ellipse cx="786.361" cy="137.275" rx="5.213" ry="3.352" fill="#666" stroke="#000" stroke-linecap="round" stroke-miterlimit="10"/>
        <ellipse cx="638.427" cy="96.435" rx="5.213" ry="3.352" fill="#666" stroke="#000" stroke-linecap="round" stroke-miterlimit="10"/>
        <ellipse cx="629.832" cy="29.354" rx="5.213" ry="3.352" fill="#666" stroke="#000" stroke-linecap="round" stroke-miterlimit="10"/>
        <path d="M618.045 53.565L593.56 67.07l41.746 26.908m10.257-47.645l77.631-42.344-77.631 42.344zm-6.413-3.979l23.808-12.843-23.808 12.843zm27.958-15.727l23.808-12.842-23.808 12.842zm-62.351 10.21l40.627 24.9-40.627-24.9zm6.116-3.932l41.5 24.9-41.5-24.9zM732.452 89.38l5.646-5.099-5.646 5.099zM617.426 36.837l8.795-5.028-8.795 5.028z" fill="none" stroke="#000" stroke-linejoin="miter" stroke-miterlimit="10"/>
    </g>
</svg>
