<?xml version="1.0" encoding="UTF-8" standalone="no"?><!DOCTYPE svg PUBLIC "-//W3C//DTD SVG 1.1//EN" "http://www.w3.org/Graphics/SVG/1.1/DTD/svg11.dtd"><svg width="100%" height="100%" viewBox="0 0 854 148" version="1.1" xmlns="http://www.w3.org/2000/svg" xmlns:xlink="http://www.w3.org/1999/xlink" xml:space="preserve" xmlns:serif="http://www.serif.com/" style="fill-rule:evenodd;clip-rule:evenodd;stroke-linejoin:round;stroke-miterlimit:1.414;"><path d="M533.943,36.306l-17.015,0l0,40.381l6.056,0l0,-34.488l10.969,0l-0.01,-5.893Zm5.549,0l4.1,0l0,-10.498l5.636,0l0,10.498l10.12,0l0,5.836l-10.12,0l0,25.51c0,2.087 2.343,3.512 3.619,3.512l5.807,0l0,5.523l-6.187,0c-2.37,-0.002 -4.643,-0.956 -6.305,-2.646c-1.676,-1.703 -2.615,-4 -2.612,-6.389l0,-25.493l-4.09,0l0.032,-5.853Zm-92.834,40.381l27.44,0l0,-5.543l-21.071,0l0,-21.877c0,-1.887 0.74,-3.696 2.056,-5.03c1.309,-1.331 3.099,-2.082 4.965,-2.084l7.426,0l0,5.82l6.342,0l0,-11.667l-15.284,0c-3.206,0 -6.28,1.295 -8.54,3.599c-2.264,2.316 -3.523,5.436 -3.5,8.675l0.166,28.107Zm-23.721,-26.351l8.381,-14.03l7.404,0l-11.883,19.939l13.501,20.442l-7.369,0l-9.652,-14.535l-8.662,14.535l-7.555,0l12.289,-20.45l-8.502,-12.802l-4.144,-0.015l0.055,-7.114l6.871,0l9.266,14.03Zm65.467,9.095l0,8.677c0,0.764 0.3,1.497 0.834,2.037c0.531,0.538 1.256,0.84 2.012,0.839c6.249,-0.018 17.354,-0.06 17.354,-0.06l0,5.763l-19.999,0c-3.275,0 -5.929,-2.689 -5.929,-6.007l0,-26.824c0,-2.003 0.785,-3.923 2.182,-5.339c1.389,-1.412 3.288,-2.209 5.269,-2.211l11.525,0c2.102,0 4.118,0.846 5.604,2.352c1.489,1.514 2.323,3.555 2.321,5.678l0,15.095l-21.173,0Zm0,-5.262l15.674,0l0,-8.328c0,-2.203 -1.735,-3.989 -3.875,-3.989l-7.715,0c-2.554,0 -4.084,1.645 -4.084,3.989l0,8.328Z" style="fill:#fff;"/><path d="M349.84,17.319c1.6,0 2.899,1.306 2.899,2.916l0,61.727c0.003,1.594 -1.305,2.91 -2.899,2.916l-4.765,0l-12.995,-13.073c-0.226,-0.227 -0.534,-0.355 -0.854,-0.355c-0.32,0 -0.628,0.128 -0.854,0.355l-6.122,6.158c-0.468,0.473 -0.468,1.245 0,1.718l5.165,5.197l-19.268,0l25.684,-25.838c0.002,-0.002 0.004,-0.003 0.007,-0.003c0.003,0 0.005,0.001 0.007,0.003c0.002,0.002 0.004,0.003 0.007,0.003c0.002,0 0.005,-0.001 0.006,-0.003l6.969,-7.011c0.468,-0.472 0.468,-1.246 0,-1.718l-11.601,-11.672c-0.226,-0.227 -0.534,-0.355 -0.854,-0.355c-0.32,0 -0.628,0.128 -0.854,0.355l-6.122,6.159c-0.468,0.472 -0.468,1.246 0,1.718l3.758,3.781c0.468,0.472 0.468,1.246 0,1.718l-32.666,32.863l-5.523,0c-1.594,-0.006 -2.902,-1.322 -2.899,-2.916l0,-61.727c-0.004,-1.595 1.304,-2.911 2.899,-2.916l5.408,0l12.283,12.357c0.226,0.227 0.534,0.355 0.854,0.355c0.321,0 0.629,-0.128 0.855,-0.355l6.121,-6.159c0.468,-0.472 0.468,-1.246 0,-1.718l-4.453,-4.48l17.789,0l-31.927,32.119c-0.468,0.473 -0.468,1.245 0,1.718l11.957,12.029c0.226,0.227 0.534,0.355 0.854,0.355c0.32,0 0.628,-0.128 0.854,-0.355l6.122,-6.159c0.468,-0.472 0.468,-1.246 0,-1.718l-4.127,-4.152c-0.468,-0.472 -0.468,-1.246 0,-1.718l31.927,-32.119l6.358,0Z" style="fill:#fff;"/><path d="M399.831,34.954c0,-4.966 -4.235,-8.991 -9.459,-8.991l-14.184,0c-5.225,0 -9.46,4.025 -9.46,8.991l0,32.747c0,4.965 4.235,8.99 9.46,8.99l14.184,0c5.224,0 9.459,-4.025 9.459,-8.99l0,-32.747Zm-5.897,10.335l-21.309,18.224l0,4.093c0,1.826 1.557,3.306 3.478,3.306l14.353,0c1.921,0 3.478,-1.48 3.478,-3.306l0,-22.317Zm0,-8.25l0,-1.991c0,-1.826 -1.557,-3.306 -3.478,-3.306l-14.353,0c-1.921,0 -3.478,1.48 -3.478,3.306l0,20.214l21.309,-18.223Z" style="fill:#fff;"/><path d="M286.995,123.055l0,-14.344l4.836,0c1.612,0 2.78,0.366 3.504,1.097c0.724,0.731 1.086,1.642 1.086,2.735c0,1.407 -0.622,2.391 -1.865,2.951c0.765,0.26 1.349,0.697 1.752,1.311c0.401,0.608 0.612,1.322 0.605,2.05c0,1.147 -0.386,2.134 -1.158,2.961c-0.772,0.826 -1.978,1.239 -3.617,1.239l-5.143,0Zm2.438,-8.545l2.07,0c0.82,0 1.438,-0.16 1.854,-0.481c0.417,-0.321 0.625,-0.762 0.625,-1.322c0,-1.161 -0.696,-1.742 -2.09,-1.742l-2.459,0l0,3.545Zm0,6.291l2.869,0c0.779,0 1.335,-0.188 1.67,-0.563c0.335,-0.376 0.502,-0.83 0.502,-1.363c0,-1.421 -0.922,-2.131 -2.766,-2.131l-2.275,0l0,4.057Zm14.242,2.5c-1.161,0 -2.101,-0.345 -2.818,-1.035c-0.717,-0.689 -1.076,-1.793 -1.076,-3.309l0,-6.373l2.357,0l0,5.861c0,1.735 0.717,2.602 2.151,2.602c1.544,0 2.316,-0.854 2.316,-2.561l0,-5.902l2.356,0l0,10.471l-2.356,0l0,-1.004c-0.669,0.834 -1.646,1.25 -2.93,1.25Zm13.401,-12.172c-0.382,0 -0.71,-0.136 -0.984,-0.409c-0.269,-0.264 -0.417,-0.628 -0.409,-1.005c0,-0.396 0.136,-0.727 0.409,-0.993c0.274,-0.267 0.602,-0.4 0.984,-0.4c0.396,0 0.731,0.133 1.004,0.4c0.273,0.266 0.41,0.597 0.41,0.993c0,0.397 -0.137,0.731 -0.41,1.005c-0.264,0.269 -0.627,0.417 -1.004,0.409Zm1.189,9.857l2.889,0l0,2.069l-8.135,0l0,-2.069l2.889,0l0,-6.332l-2.889,0l0,-2.07l5.246,0l0,8.402Zm12.52,0l3.053,0l0,2.069l-8.463,0l0,-2.069l3.053,0l0,-10.656l-2.438,0l-1.086,-2.069l5.881,0l0,12.725Zm11.085,2.315c-1.434,0 -2.561,-0.481 -3.381,-1.444c-0.819,-0.964 -1.229,-2.313 -1.229,-4.047c0,-1.681 0.42,-3.013 1.26,-3.996c0.84,-0.984 1.937,-1.476 3.289,-1.476c1.12,0 1.988,0.335 2.602,1.004l0,-3.995l2.357,-1.086l0,14.794l-2.357,0l0,-0.799c-0.218,0.287 -0.556,0.533 -1.014,0.738c-0.481,0.21 -1.002,0.314 -1.527,0.307Zm0.328,-2.254c1.025,0 1.763,-0.341 2.213,-1.024l0,-4.427c-0.491,-0.683 -1.243,-1.024 -2.254,-1.024c-0.806,0 -1.427,0.28 -1.864,0.84c-0.438,0.56 -0.656,1.359 -0.656,2.398c0,0.983 0.222,1.769 0.666,2.356c0.444,0.587 1.076,0.881 1.895,0.881Zm25.348,2.254c-0.846,0.009 -1.684,-0.162 -2.459,-0.502c-0.751,-0.335 -1.352,-0.789 -1.803,-1.363l1.537,-1.393c0.86,0.833 1.81,1.25 2.848,1.25c0.505,0 0.922,-0.089 1.25,-0.266c0.328,-0.178 0.492,-0.444 0.492,-0.799c0,-0.205 -0.099,-0.4 -0.297,-0.584c-0.204,-0.189 -0.435,-0.345 -0.687,-0.462c-0.378,-0.173 -0.761,-0.337 -1.147,-0.491c-0.044,-0.023 -0.088,-0.043 -0.134,-0.062c-0.034,-0.013 -0.078,-0.031 -0.133,-0.051c-0.047,-0.018 -0.095,-0.036 -0.143,-0.051c-0.378,-0.162 -0.754,-0.329 -1.127,-0.502c-0.306,-0.149 -0.603,-0.313 -0.892,-0.492c-0.348,-0.212 -0.601,-0.413 -0.758,-0.605c-0.174,-0.221 -0.316,-0.466 -0.42,-0.727c-0.127,-0.316 -0.19,-0.654 -0.184,-0.994c0,-0.888 0.382,-1.588 1.147,-2.1c0.765,-0.512 1.728,-0.769 2.89,-0.769c1.625,0 2.93,0.554 3.913,1.66l-1.577,1.291c-0.752,-0.628 -1.558,-0.942 -2.418,-0.942c-0.533,0 -0.96,0.078 -1.281,0.235c-0.321,0.157 -0.482,0.379 -0.482,0.666c0,0.137 0.055,0.27 0.164,0.4c0.11,0.129 0.301,0.266 0.574,0.41c0.273,0.143 0.499,0.252 0.676,0.327c0.178,0.076 0.478,0.195 0.902,0.359c1.257,0.505 2.09,0.915 2.5,1.229c0.724,0.574 1.093,1.319 1.106,2.234c0,0.97 -0.365,1.728 -1.096,2.275c-0.731,0.546 -1.718,0.819 -2.961,0.819Zm12.561,0c-1.544,0 -2.766,-0.488 -3.668,-1.465c-0.901,-0.977 -1.352,-2.312 -1.352,-4.006c0,-1.68 0.451,-3.016 1.352,-4.006c0.902,-0.99 2.124,-1.486 3.668,-1.486c1.557,0 2.784,0.496 3.678,1.486c0.895,0.99 1.343,2.326 1.343,4.006c0,1.68 -0.448,3.012 -1.343,3.996c-0.894,0.983 -2.121,1.475 -3.678,1.475Zm0,-2.254c0.847,0 1.499,-0.287 1.957,-0.86c0.458,-0.574 0.687,-1.36 0.687,-2.357c0,-0.997 -0.229,-1.79 -0.687,-2.377c-0.458,-0.587 -1.11,-0.881 -1.957,-0.881c-0.833,0 -1.482,0.294 -1.947,0.881c-0.464,0.587 -0.696,1.38 -0.696,2.377c0,0.984 0.232,1.766 0.696,2.346c0.465,0.581 1.114,0.871 1.947,0.871Zm15.471,-8.709c0.874,0 1.52,0.304 1.936,0.912c0.417,0.608 0.625,1.629 0.625,3.064l0,6.741l-2.151,0l0,-6.393c0,-0.738 -0.068,-1.267 -0.205,-1.588c-0.137,-0.321 -0.389,-0.482 -0.758,-0.482c-0.355,0 -0.639,0.185 -0.851,0.554c-0.211,0.369 -0.317,0.881 -0.317,1.537l0,6.372l-2.152,0l0,-6.454c0,-1.339 -0.328,-2.009 -0.983,-2.009c-0.383,0 -0.687,0.185 -0.912,0.554c-0.226,0.369 -0.338,0.881 -0.338,1.537l0,6.372l-2.152,0l0,-10.471l2.008,0l0,1.394c0.383,-1.093 1.073,-1.64 2.07,-1.64c0.437,0 0.823,0.151 1.158,0.451c0.334,0.301 0.57,0.656 0.707,1.066c0.628,-1.011 1.4,-1.517 2.315,-1.517Zm14.549,4.959c0,0.601 -0.027,1.079 -0.082,1.435l-7.131,0c0.15,0.765 0.454,1.369 0.912,1.813c0.457,0.444 1.048,0.666 1.772,0.666c0.916,0 1.687,-0.341 2.316,-1.024l1.414,1.495c-0.984,1.08 -2.234,1.619 -3.75,1.619c-1.544,0 -2.763,-0.498 -3.658,-1.496c-0.895,-0.997 -1.342,-2.329 -1.342,-3.995c0,-1.694 0.451,-3.03 1.352,-4.007c0.902,-0.976 2.118,-1.465 3.648,-1.465c1.339,0 2.431,0.42 3.278,1.261c0.847,0.84 1.271,2.073 1.271,3.698Zm-7.234,-0.574l4.918,0c-0.068,-0.765 -0.31,-1.342 -0.727,-1.731c-0.406,-0.385 -0.947,-0.595 -1.506,-0.584c-0.752,0 -1.356,0.205 -1.814,0.615c-0.457,0.41 -0.748,0.976 -0.871,1.7Zm16.045,6.578c-2.049,0 -3.074,-0.949 -3.074,-2.848l0,-5.799l-2.192,0l0,-2.07l2.192,0l0,-3.196l2.357,-1.127l0,4.323l3.565,0l0,2.07l-3.565,0l0,5.348c0,0.806 0.492,1.209 1.475,1.209c0.574,0 1.175,-0.164 1.804,-0.492l-0.287,2.111c-0.601,0.314 -1.36,0.471 -2.275,0.471Zm7.07,-0.246l0,-13.708l2.356,-1.086l0,5.348c0.683,-0.847 1.674,-1.271 2.971,-1.271c1.148,0 2.08,0.345 2.797,1.035c0.718,0.69 1.076,1.786 1.076,3.289l0,6.393l-2.356,0l0,-5.901c0,-0.902 -0.202,-1.558 -0.605,-1.967c-0.403,-0.41 -0.925,-0.615 -1.567,-0.615c-0.683,0 -1.24,0.198 -1.67,0.594c-0.431,0.396 -0.646,1.045 -0.646,1.947l0,5.942l-2.356,0Zm17.294,-11.926c-0.37,0.005 -0.726,-0.143 -0.983,-0.409c-0.27,-0.264 -0.418,-0.628 -0.41,-1.005c0,-0.396 0.136,-0.727 0.41,-0.993c0.273,-0.267 0.601,-0.4 0.983,-0.4c0.396,0 0.731,0.133 1.004,0.4c0.274,0.266 0.41,0.597 0.41,0.993c0,0.397 -0.136,0.731 -0.41,1.005c-0.264,0.269 -0.627,0.417 -1.004,0.409Zm1.189,9.857l2.889,0l0,2.069l-8.135,0l0,-2.069l2.889,0l0,-6.332l-2.889,0l0,-2.07l5.246,0l0,8.402Zm12.09,-8.648c1.147,0 2.079,0.345 2.797,1.035c0.717,0.69 1.075,1.786 1.075,3.289l0,6.393l-2.356,0l0,-5.901c0,-0.902 -0.198,-1.558 -0.594,-1.967c-0.396,-0.41 -0.922,-0.615 -1.578,-0.615c-1.544,0 -2.316,0.847 -2.316,2.541l0,5.942l-2.356,0l0,-10.471l2.172,0l0,1.291c0.205,-0.41 0.604,-0.768 1.199,-1.076c0.605,-0.31 1.277,-0.468 1.957,-0.461Zm11.27,14.877l-1.271,-1.926c1.462,-0.109 2.47,-0.335 3.023,-0.676c0.553,-0.342 0.83,-0.895 0.83,-1.66l0,-0.615c-0.56,0.642 -1.373,0.963 -2.439,0.963c-1.284,0 -2.329,-0.475 -3.135,-1.424c-0.806,-0.949 -1.209,-2.305 -1.209,-4.067c0,-1.681 0.403,-3.013 1.209,-3.996c0.806,-0.984 1.865,-1.476 3.176,-1.476c0.997,0 1.797,0.301 2.398,0.902l0,-0.656l2.356,0l0,9.365c0,1.789 -0.372,3.084 -1.117,3.883c-0.744,0.799 -2.018,1.26 -3.821,1.383Zm0.553,-6.168c0.888,0 1.564,-0.355 2.029,-1.065l0,-4.365c-0.492,-0.697 -1.168,-1.045 -2.029,-1.045c-0.779,0 -1.373,0.277 -1.783,0.83c-0.41,0.553 -0.614,1.356 -0.614,2.408c0,0.997 0.208,1.786 0.625,2.366c0.416,0.581 1.007,0.871 1.772,0.871Zm24.61,2.254c-1.161,0 -2.1,-0.345 -2.818,-1.035c-0.717,-0.689 -1.075,-1.793 -1.075,-3.309l0,-6.373l2.356,0l0,5.861c0,1.735 0.717,2.602 2.152,2.602c1.543,0 2.315,-0.854 2.315,-2.561l0,-5.902l2.357,0l0,10.471l-2.357,0l0,-1.004c-0.669,0.834 -1.646,1.25 -2.93,1.25Zm14.057,-10.963c1.148,0 2.08,0.345 2.797,1.035c0.717,0.69 1.076,1.786 1.076,3.289l0,6.393l-2.357,0l0,-5.901c0,-0.902 -0.198,-1.558 -0.594,-1.967c-0.396,-0.41 -0.922,-0.615 -1.578,-0.615c-1.543,0 -2.315,0.847 -2.315,2.541l0,5.942l-2.357,0l0,-10.471l2.172,0l0,1.291c0.205,-0.41 0.605,-0.768 1.199,-1.076c0.605,-0.31 1.277,-0.468 1.957,-0.461Zm11.967,-1.209c-0.383,0 -0.71,-0.136 -0.984,-0.409c-0.269,-0.264 -0.417,-0.628 -0.409,-1.005c0,-0.396 0.136,-0.727 0.409,-0.993c0.274,-0.267 0.601,-0.4 0.984,-0.4c0.396,0 0.731,0.133 1.004,0.4c0.273,0.266 0.41,0.597 0.41,0.993c0,0.397 -0.137,0.731 -0.41,1.005c-0.264,0.269 -0.627,0.417 -1.004,0.409Zm1.188,9.857l2.89,0l0,2.069l-8.135,0l0,-2.069l2.889,0l0,-6.332l-2.889,0l0,-2.07l5.245,0l0,8.402Zm13.525,6.168l0,-4.939c-0.601,0.724 -1.455,1.086 -2.562,1.086c-1.366,0 -2.472,-0.488 -3.319,-1.465c-0.847,-0.977 -1.271,-2.312 -1.271,-4.006c0,-1.721 0.42,-3.067 1.26,-4.037c0.841,-0.97 1.971,-1.455 3.392,-1.455c1.052,0 1.885,0.349 2.5,1.045l0,-0.799l2.356,0l0,13.504l-2.356,1.066Zm-2.254,-6.107c1.011,0 1.762,-0.348 2.254,-1.045l0,-4.385c-0.465,-0.697 -1.202,-1.045 -2.213,-1.045c-0.806,0 -1.435,0.297 -1.886,0.891c-0.45,0.595 -0.676,1.383 -0.676,2.367c0,1.038 0.215,1.834 0.646,2.387c0.43,0.554 1.055,0.83 1.875,0.83Zm12.008,2.254c-1.162,0 -2.101,-0.345 -2.818,-1.035c-0.717,-0.689 -1.076,-1.793 -1.076,-3.309l0,-6.373l2.357,0l0,5.861c0,1.735 0.717,2.602 2.151,2.602c1.544,0 2.316,-0.854 2.316,-2.561l0,-5.902l2.356,0l0,10.471l-2.356,0l0,-1.004c-0.67,0.834 -1.646,1.25 -2.93,1.25Zm18.093,-6.004c0,0.601 -0.027,1.079 -0.082,1.435l-7.131,0c0.151,0.765 0.455,1.369 0.912,1.813c0.458,0.444 1.049,0.666 1.773,0.666c0.915,0 1.687,-0.341 2.315,-1.024l1.414,1.495c-0.983,1.08 -2.233,1.619 -3.75,1.619c-1.543,0 -2.763,-0.498 -3.657,-1.496c-0.895,-0.997 -1.343,-2.329 -1.343,-3.995c0,-1.694 0.451,-3.03 1.353,-4.007c0.901,-0.976 2.117,-1.465 3.647,-1.465c1.339,0 2.432,0.42 3.279,1.261c0.847,0.84 1.27,2.073 1.27,3.698Zm-7.233,-0.574l4.918,0c-0.068,-0.765 -0.311,-1.342 -0.728,-1.731c-0.405,-0.385 -0.947,-0.595 -1.506,-0.584c-0.751,0 -1.356,0.205 -1.813,0.615c-0.458,0.41 -0.748,0.976 -0.871,1.7Z" style="fill:#fff;fill-rule:nonzero;"/><path d="M71.184,103.693l-69.011,38.596l0.203,-98.028c0.005,-2.22 1.36,-4.796 3.028,-5.754l62.975,-35.128c1.666,-0.958 3.015,0.065 3.01,2.286l-0.205,98.028Z" style="fill:#666;stroke:#000;stroke-width:0.7px;"/><path d="M69.35,109.367l-61.821,34.574c-0.535,0.3 -1.139,0.457 -1.753,0.457c-1.967,-0.01 -3.582,-1.625 -3.592,-3.592l0,-0.007l0.192,-91.89c0.005,-2.219 1.36,-4.796 3.028,-5.754l62.975,-35.128c1.666,-0.958 3.015,0.066 3.01,2.287l-0.2,95.926c-0.004,1.296 -0.708,2.494 -1.839,3.127Z" style="fill:#666;stroke:#000;stroke-width:0.7px;stroke-linejoin:miter;stroke-miterlimit:4;"/><path d="M60.6,78.36l-44.834,25.365c-1.52,0.874 -2.75,-0.06 -2.745,-2.084l0.05,-24.222c0.004,-2.025 1.241,-4.375 2.761,-5.249l44.834,-25.367c1.52,-0.874 2.749,0.06 2.745,2.083l-0.05,24.224c-0.005,2.023 -1.24,4.375 -2.761,5.249l0,0.001Z" style="fill:none;stroke:#000;stroke-width:0.7px;"/><path d="M64.846,49.544c-0.016,7.507 -5.339,16.643 -11.889,20.409c-6.55,3.763 -11.846,0.728 -11.832,-6.779c0.016,-7.508 5.339,-16.645 11.889,-20.408c6.549,-3.763 11.847,-0.728 11.832,6.778" style="fill:#41ff8b;stroke:#333;stroke-width:0.7px;stroke-linecap:round;stroke-miterlimit:4;"/><path d="M13.217,118.215l45.867,-26.352l-45.867,26.352Zm-0.01,5.496l45.865,-26.352l-45.865,26.352Zm-0.011,4.984l45.866,-26.352l-45.866,26.352Zm36.975,-95.81l-37.416,21.498c-0.431,0.247 -0.778,-0.018 -0.778,-0.59l0.004,-1.276c0.001,-0.573 0.35,-1.237 0.78,-1.485l37.415,-21.497c0.432,-0.247 0.779,0.017 0.779,0.59l-0.004,1.276c0,0.573 -0.351,1.236 -0.78,1.484m-37.719,27.278l23.613,-13.567l-23.613,13.567Z" style="fill:none;stroke:#000;stroke-width:0.7px;stroke-linejoin:miter;stroke-miterlimit:4;"/><path d="M58.126,49.474c1.04,0.055 1.765,1.269 1.275,2.22c-1.904,3.279 -3.968,6.462 -5.953,9.693c-0.535,0.823 -1.799,0.916 -2.444,0.158c-1.794,-2.335 -4.239,-4.669 -3.301,-6.142c0.516,-0.81 1.833,-0.917 2.478,-0.077l1.883,2.583l4.784,-7.783c0.299,-0.415 0.598,-0.653 1.278,-0.652Z" style="fill:#fff;fill-rule:nonzero;"/><path d="M117.081,93.452l49.246,28.617c1.582,0.92 3.541,0.925 5.128,0.015l49.754,-28.534c0.955,-0.548 1.546,-1.568 1.546,-2.669c0,-1.104 -0.594,-2.127 -1.553,-2.674l-50.065,-28.53c-1.585,-0.904 -3.538,-0.896 -5.116,0.021l-48.94,28.433c-0.947,0.55 -1.531,1.566 -1.531,2.66c0,1.095 0.584,2.111 1.531,2.661Z" style="fill:none;stroke:#000;stroke-width:0.7px;stroke-linejoin:miter;stroke-miterlimit:10;"/><path d="M169.219,56.132c0.462,-0.308 0.462,-0.769 0,-0.923c-0.461,-0.308 -1.231,-0.308 -1.692,0c-0.462,0.308 -0.462,0.615 0,0.923c0.461,0.154 1.231,0.154 1.692,0Zm-1.692,27.432c-0.462,0.308 -0.462,0.616 0,0.923c0.461,0.308 1.231,0.308 1.692,0c0.462,-0.307 0.462,-0.769 0,-0.923c-0.461,-0.307 -1.231,-0.307 -1.692,0Z" style="fill:none;stroke:#3a3e40;stroke-width:0.7px;stroke-linecap:round;stroke-miterlimit:10;"/><path d="M117.959,59.719l0,30.275m101.365,-30.052l0,30.296" style="fill:none;stroke:#bdd2db;stroke-opacity:0.5;stroke-width:0.7px;stroke-linecap:square;stroke-linejoin:miter;stroke-miterlimit:10;stroke-dasharray:0.7,1.4;"/><path d="M137.902,86.396l30.673,17.824c0.317,0.184 0.708,0.185 1.025,0.003l30.993,-17.774c0.319,-0.182 0.516,-0.523 0.516,-0.89c0,-0.368 -0.198,-0.709 -0.518,-0.891l-31.174,-17.765c-0.317,-0.18 -0.707,-0.179 -1.023,0.004l-30.492,17.716c-0.315,0.184 -0.509,0.522 -0.509,0.886c0,0.365 0.194,0.703 0.509,0.887Z" style="fill:#666;fill-rule:nonzero;stroke:#000;stroke-width:0.7px;stroke-linecap:round;stroke-miterlimit:10;"/><path d="M139.833,84.954c-0.462,0.308 -0.462,0.615 0,0.923c0.461,0.308 1.231,0.308 1.692,0c0.462,-0.308 0.462,-0.769 0,-0.923c-0.461,-0.308 -1.231,-0.308 -1.692,0Zm28.142,-16.298c-0.461,0.307 -0.461,0.615 0,0.923c0.462,0.308 1.231,0.308 1.693,0c0.461,-0.308 0.461,-0.769 0,-0.923c-0.462,-0.308 -1.231,-0.308 -1.693,0Zm0,32.822c-0.461,0.308 -0.461,0.615 0,0.923c0.462,0.308 1.231,0.308 1.693,0c0.461,-0.308 0.461,-0.769 0,-0.923c-0.462,-0.308 -1.231,-0.308 -1.693,0Z" style="fill:none;stroke:#3a3e40;stroke-width:0.7px;stroke-linecap:round;stroke-miterlimit:10;"/><path d="M165.988,29l-50.772,29.386c-1.385,0.769 -1.385,2 0,2.923l50.772,29.386c1.385,0.77 3.539,0.77 4.923,0l6.462,-3.692c-1.077,-0.616 -1.077,-1.693 0,-2.308c1.077,-0.615 2.77,-0.615 3.847,0l40.463,-23.386c1.385,-0.769 1.385,-2 0,-2.923l-50.772,-29.386c-1.384,-0.769 -3.692,-0.769 -4.923,0Z" style="fill:#666;fill-rule:nonzero;stroke:#000;stroke-width:0.7px;stroke-linecap:round;stroke-miterlimit:10;"/><path d="M179.168,81.499l0,33.868" style="fill:none;stroke:#262626;stroke-width:0.7px;stroke-linecap:square;stroke-linejoin:miter;stroke-miterlimit:10;stroke-dasharray:0.7,1.4;"/><path d="M168.45,85.564c-0.769,0 -1.693,-0.154 -2.308,-0.461l-50.772,-29.386c-0.462,-0.308 -0.769,-0.616 -0.769,-1.077c0,-0.308 0.307,-0.77 0.769,-1.077l50.772,-29.387c0.615,-0.307 1.385,-0.461 2.308,-0.461c0.769,0 1.692,0.154 2.308,0.461l50.772,29.387c0.461,0.307 0.769,0.615 0.769,1.077c0,0.307 -0.308,0.769 -0.769,1.077l-40.156,23.232c-0.619,-0.315 -1.306,-0.474 -2.001,-0.462c-0.769,0 -1.538,0.154 -2.154,0.462c-0.615,0.461 -1.076,0.923 -1.076,1.538c0,0.462 0.153,0.769 0.461,1.077l-5.846,3.385c-0.77,0.461 -1.539,0.615 -2.308,0.615Z" style="fill:#666;fill-rule:nonzero;stroke:#000;stroke-width:0.7px;stroke-linecap:round;stroke-miterlimit:10;"/><path d="M117.087,53.94c-0.462,0.307 -0.462,0.615 0,0.923c0.461,0.307 1.231,0.307 1.692,0c0.462,-0.308 0.462,-0.77 0,-0.923c-0.461,-0.308 -1.231,-0.308 -1.692,0Zm0,5.641c-0.462,0.308 -0.462,0.615 0,0.923c0.461,0.308 1.231,0.308 1.692,0c0.462,-0.308 0.462,-0.769 0,-0.923c-0.461,-0.308 -1.231,-0.308 -1.692,0Zm101.301,-0.157c-0.461,0.308 -0.461,0.616 0,0.924c0.462,0.307 1.231,0.307 1.693,0c0.461,-0.308 0.461,-0.77 0,-0.924c-0.462,-0.307 -1.231,-0.307 -1.693,0Zm-40.156,26.156c-0.461,0.307 -0.461,0.615 0,0.923c0.462,0.308 1.231,0.308 1.693,0c0.461,-0.308 0.461,-0.769 0,-0.923c-0.462,-0.308 -1.231,-0.308 -1.693,0Zm0,29.232c-0.461,0.308 -0.461,0.615 0,0.923c0.462,0.308 1.231,0.308 1.693,0c0.461,-0.308 0.461,-0.769 0,-0.923c-0.462,-0.308 -1.231,-0.308 -1.693,0Zm-60.83,-24.599c-0.462,0.308 -0.462,0.615 0,0.923c0.461,0.308 1.231,0.308 1.692,0c0.462,-0.308 0.462,-0.769 0,-0.923c-0.461,-0.308 -1.231,-0.308 -1.692,0Zm60.83,-9.762c-0.461,0.308 -0.461,0.616 0,0.923c0.462,0.308 1.231,0.308 1.693,0c0.461,-0.307 0.461,-0.769 0,-0.923c-0.462,-0.307 -1.231,-0.307 -1.693,0Zm40.22,9.632c-0.461,0.307 -0.461,0.615 0,0.923c0.462,0.307 1.231,0.307 1.693,0c0.461,-0.308 0.461,-0.77 0,-0.923c-0.462,-0.308 -1.231,-0.308 -1.693,0Zm-49.233,-64.209c0.462,-0.308 0.462,-0.769 0,-0.923c-0.461,-0.308 -1.231,-0.308 -1.692,0c-0.462,0.308 -0.462,0.615 0,0.923c0.461,0.154 1.231,0.154 1.692,0Z" style="fill:none;stroke:#000;stroke-width:0.7px;stroke-linecap:round;stroke-miterlimit:10;"/><path d="M221.324,53.255l-5.846,-3.385l0,9.539l5.846,-3.385c1.385,-0.769 1.385,-2 0,-2.769Z" style="fill:#595959;fill-rule:nonzero;stroke:#000;stroke-width:0.7px;stroke-linecap:round;stroke-miterlimit:10;"/><path d="M137.902,28.445l30.673,17.823c0.317,0.184 0.708,0.185 1.025,0.003l30.993,-17.774c0.319,-0.182 0.516,-0.523 0.516,-0.89c0,-0.368 -0.198,-0.709 -0.518,-0.891l-31.174,-17.765c-0.317,-0.18 -0.707,-0.179 -1.023,0.004l-30.492,17.716c-0.316,0.183 -0.51,0.522 -0.51,0.887c0,0.365 0.194,0.704 0.51,0.887Z" style="fill:#0c71ff;fill-rule:nonzero;stroke:#000;stroke-width:0.7px;stroke-linejoin:miter;stroke-miterlimit:10;"/><path d="M139.833,27.002c-0.462,0.308 -0.462,0.616 0,0.923c0.461,0.308 1.231,0.308 1.692,0c0.462,-0.307 0.462,-0.769 0,-0.923c-0.461,-0.307 -1.231,-0.307 -1.692,0Zm28.142,-16.298c-0.461,0.308 -0.461,0.615 0,0.923c0.462,0.308 1.231,0.308 1.693,0c0.461,-0.308 0.461,-0.769 0,-0.923c-0.462,-0.308 -1.231,-0.308 -1.693,0Zm29.233,16.411c-0.462,0.308 -0.462,0.615 0,0.923c0.461,0.308 1.231,0.308 1.692,0c0.462,-0.308 0.462,-0.769 0,-0.923c-0.461,-0.308 -1.231,-0.308 -1.692,0Zm-29.233,16.411c-0.461,0.308 -0.461,0.616 0,0.923c0.462,0.308 1.231,0.308 1.693,0c0.461,-0.307 0.461,-0.769 0,-0.923c-0.462,-0.308 -1.231,-0.308 -1.693,0Z" style="fill:#fff;fill-rule:nonzero;stroke:#3a3e40;stroke-width:0.7px;stroke-linecap:round;stroke-miterlimit:10;"/><path d="M180.714,26.244l-12.665,-0.074c-0.222,0 -0.406,0.095 -0.412,0.217l-0.032,0.733c-0.005,0.116 -0.19,0.218 -0.411,0.218l-2.43,-0.014c-0.222,-0.007 -0.397,-0.102 -0.392,-0.224l0.113,-2.533c0.006,-0.122 0.192,-0.217 0.415,-0.217l12.722,0.135l-3.27,-1.86l-0.038,0.842c-0.005,0.122 -0.193,0.224 -0.417,0.217l-2.436,-0.027c-0.219,-0.007 -0.391,-0.109 -0.386,-0.224l0.117,-2.608l-1.241,-0.706c-0.252,-0.143 -0.674,-0.143 -0.938,-0.007l-12.622,6.696c-0.264,0.143 -0.274,0.373 -0.023,0.516l1.18,0.672l12.817,0.075c0.221,0 0.405,-0.095 0.411,-0.217l0.032,-0.734c0.005,-0.122 0.19,-0.217 0.411,-0.217l2.43,0.014c0.221,0.006 0.397,0.101 0.391,0.224l-0.112,2.533c-0.006,0.122 -0.193,0.217 -0.415,0.217l-12.875,-0.136l3.42,1.942l0.04,-0.923c0.006,-0.129 0.194,-0.224 0.418,-0.218l2.436,0.028c0.219,0.006 0.391,0.102 0.385,0.224l-0.119,2.682l1.167,0.672c0.252,0.143 0.673,0.143 0.938,0.007l12.621,-6.696c0.265,-0.142 0.275,-0.373 -1.23,-1.229Z" style="fill:#fff;"/><g><path d="M83.321,87.246c-0.52,1.145 0.25,2.062 0.952,2.526c-0.738,1.543 -3.135,2.862 -5.595,2.862c-2.46,0 -5.085,-1.33 -5.594,-2.862c0.703,-0.399 1.482,-1.375 0.941,-2.526l9.296,0Z" style="fill:#fff;stroke:#000;stroke-width:0.7px;stroke-linecap:round;stroke-miterlimit:4;"/><path d="M79.445,89.318l-1.518,0c-1.32,-0.002 -2.585,-0.531 -3.514,-1.468l-1.16,-1.143c-1.702,-1.718 -2.658,-4.041 -2.656,-6.459l0,-6.014c0,-8.069 16.163,-8.069 16.163,0l0,6.014c0.001,2.418 -0.954,4.741 -2.656,6.459l-1.139,1.147c-0.931,0.937 -2.199,1.464 -3.52,1.464Z" style="fill:#fff;fill-rule:nonzero;stroke:#000;stroke-width:0.7px;stroke-linecap:round;stroke-miterlimit:4;"/><path d="M70.597,81.409l0,-3.29c0,-1.096 -0.833,-1.462 -1.345,-1.096c-0.817,0.559 0.225,2.924 0.225,2.924c-0.606,0.38 0.078,1.729 1.12,1.462Zm16.163,-0.415l0,-3.289c0,-1.097 0.828,-1.463 1.344,-1.097c0.818,0.559 -0.224,2.924 -0.224,2.924c0.609,0.38 -0.078,1.733 -1.12,1.462Z" style="fill:#fff;stroke:#000;stroke-width:0.7px;stroke-linecap:round;stroke-miterlimit:4;"/><path d="M82.806,65.921c2.715,1.166 6.338,4.423 4.852,9.227c-0.219,0.713 -0.535,0.463 -0.888,0.399c0,0 -0.056,-2.803 -1.408,-2.514c-3.218,0.685 -4.802,-1.937 -8.71,0.938c-0.542,-0.903 -0.169,-2.953 1.207,-4.03c-3.221,0 -7.284,2.001 -7.284,4.404c0,0 -1.077,-0.806 -1.165,-1.601c-0.405,-3.588 1.413,-5.414 4.589,-6.783c2.586,-1.115 7.36,-0.66 8.807,-0.04Z" style="fill:#666;fill-rule:nonzero;stroke:#000;stroke-width:0.7px;stroke-linecap:round;stroke-miterlimit:4;"/><circle cx="82.823" cy="78.75" r="0.622" style="fill:none;stroke:#000;stroke-width:0.7px;stroke-linecap:round;stroke-miterlimit:4;"/><circle cx="74.534" cy="78.75" r="0.622" style="fill:none;stroke:#000;stroke-width:0.7px;stroke-linecap:round;stroke-miterlimit:4;"/><path d="M86.693,90.624c0,0 -2.393,-0.942 -2.301,-0.889c-0.751,1.592 -3.282,2.963 -5.714,2.963c-2.431,0 -5.161,-1.371 -5.72,-2.945l-2.202,0.906c-3.344,1.352 -5.535,4.572 -5.547,8.153l0,6.255l26.938,0l0,-6.326c-0.009,-3.546 -2.157,-6.743 -5.454,-8.117Z" style="fill:#666;fill-rule:nonzero;stroke:#000;stroke-width:0.7px;stroke-linecap:round;stroke-miterlimit:4;"/><path d="M71.633,104.892l0,-6.292m14.505,6.292l0,-6.292m-5.18,-14.669c0,0 -1.022,1.243 -2.28,1.243c-1.258,0 -2.279,-1.243 -2.279,-1.243" style="fill:none;stroke:#000;stroke-width:0.7px;stroke-linecap:round;stroke-miterlimit:4;"/><path d="M129.558,145.453c3.557,0 1.754,-2.273 1.754,-2.273l-1.754,-2.273l-1.753,2.273c0,0 -1.802,2.273 1.753,2.273Zm0.484,-24.094c0,0 -8.609,5.32 -12.489,7.737c-3.417,2.128 -9.406,5.902 -9.406,5.902l-21.931,-13.64l21.932,-13.638l21.895,13.639l-0.001,0Zm-0.502,0l0,19.689" style="fill:#666;stroke:#000;stroke-width:0.7px;stroke-linecap:round;stroke-miterlimit:4;"/><path d="M122.966,125.735l0,9.687c0,0 -3.062,8.076 -14.9,8.076c-11.839,0 -14.901,-8.076 -14.901,-8.076l0,-9.742l14.983,9.318c0,0 5.988,-3.774 9.404,-5.902c1.399,-0.872 3.411,-2.12 5.414,-3.36l0,-0.001Z" style="fill:#666;stroke:#000;stroke-width:0.7px;stroke-linecap:round;stroke-miterlimit:4;"/><path d="M222.149,4.761l26.396,15.222l-42.99,24.354" style="fill:none;stroke:#000;stroke-width:0.7px;stroke-linejoin:miter;stroke-miterlimit:10;"/><ellipse cx="223.058" cy="5.61" rx="5.213" ry="3.352" style="fill:#404040;stroke:#000;stroke-width:0.7px;stroke-linecap:round;stroke-miterlimit:10;"/><path d="M190.526,142.895l67.274,-36.695m-57.124,24.09l23.808,-12.843" style="fill:none;stroke:#000;stroke-width:0.7px;stroke-linejoin:miter;stroke-miterlimit:10;"/><path d="M725.377,38.735l-62.943,35.926c-0.59,0.27 -0.972,0.861 -0.973,1.51l-0.137,64.841l0,0.004c0,0.913 0.752,1.665 1.665,1.665c0.244,0 0.484,-0.054 0.705,-0.157l62.916,-36.532c0.583,-0.272 0.958,-0.86 0.96,-1.504l0.165,-64.235l0,-0.004c0,-0.913 -0.751,-1.665 -1.664,-1.665c-0.239,0 -0.476,0.051 -0.693,0.151l-0.001,0Z" style="fill:#666;stroke:#000;stroke-width:0.7px;stroke-linejoin:miter;stroke-miterlimit:4;"/><path d="M675.222,73.367c-0.788,0 -1.429,-0.713 -1.432,-1.594l0,-0.005c0,-0.871 0.717,-1.588 1.589,-1.588l0.001,0c0.88,0 1.52,0.713 1.431,1.593c-0.09,0.881 -0.801,1.594 -1.589,1.594Zm-4.792,2.552c-0.788,0 -1.428,-0.713 -1.431,-1.594l0,-0.005c0,-0.871 0.717,-1.588 1.588,-1.588l0.001,0c0.88,0 1.521,0.713 1.432,1.593c-0.09,0.881 -0.802,1.594 -1.59,1.594Zm-4.994,2.824c-0.788,0 -1.429,-0.714 -1.432,-1.594l0,-0.005c0,-0.872 0.717,-1.589 1.589,-1.589l0.001,0c0.88,0 1.52,0.714 1.431,1.594c-0.09,0.88 -0.801,1.594 -1.589,1.594Zm62.146,-31.768l-66.288,36.969l66.288,-36.969Z" style="fill:none;stroke:#000;stroke-width:0.7px;stroke-linejoin:miter;stroke-miterlimit:4;"/><path d="M703.362,144.424l-0.293,-5.304l40.672,-28.217c1.529,-0.882 2.772,-3.027 2.776,-4.791l4.49,-21.917l4.434,-2.246l-10.144,-5.501c-0.499,-0.262 -1.172,-0.215 -1.918,0.216l-48.522,27.497c-1.529,0.883 -2.772,3.028 -2.776,4.791l-0.074,29.537c-0.002,0.904 0.322,1.529 0.844,1.809l10.511,4.126Z" style="fill:#666;fill-rule:nonzero;stroke:#000;stroke-width:0.7px;stroke-linejoin:miter;stroke-miterlimit:4;"/><path d="M703.362,145.565l-0.293,-5.304l0.074,-25.945c0.149,-1.027 0.298,-1.738 0.446,-2.133l-10.906,-5.558c-0.4,1.053 -0.601,1.828 -0.602,2.327l-0.074,29.537c-0.002,0.904 0.322,1.529 0.844,1.809l10.511,5.267Z" style="fill:#666;fill-rule:nonzero;stroke:#000;stroke-width:0.7px;stroke-linejoin:miter;stroke-miterlimit:4;"/><path d="M702.676,103.813c-0.391,-1.028 -0.149,-2.553 0.539,-3.408l23.357,-27.65c0.69,-0.854 1.336,-1.31 1.728,-0.283l6.558,17.214c0.392,1.028 0.15,2.554 -0.539,3.408l-23.127,28.247c-0.689,0.854 -1.565,0.713 -1.957,-0.315l-6.559,-17.213Z" style="fill:#666;fill-rule:nonzero;stroke:#000;stroke-width:0.7px;stroke-linejoin:miter;stroke-miterlimit:4;"/><path d="M704.927,104.319c-0.391,-1.027 -0.149,-2.553 0.539,-3.407l22.024,-25.767c0.689,-0.854 1.335,-1.31 1.727,-0.283l6.558,17.214c0.392,1.028 0.151,2.553 -0.538,3.408l-21.794,26.364c-0.689,0.855 -1.566,0.713 -1.957,-0.315l-6.559,-17.214Z" style="fill:#fff;fill-rule:nonzero;stroke:#333;stroke-width:0.7px;"/><path d="M704.927,104.319c-0.391,-1.027 -0.149,-2.553 0.539,-3.407l22.024,-25.767c0.689,-0.854 1.335,-1.31 1.727,-0.283l6.558,17.214c0.392,1.028 0.151,2.553 -0.538,3.408l-21.794,26.364c-0.689,0.855 -1.566,0.713 -1.957,-0.315l-6.559,-17.214Z" style="fill:#41ff8b;fill-rule:nonzero;stroke:#000;stroke-width:0.7px;stroke-linejoin:miter;stroke-miterlimit:4;"/><path d="M710.741,99.354c-0.263,-1.068 0.162,-2.552 0.951,-3.316l26.552,-24.597c0.788,-0.764 1.486,-1.139 1.749,-0.071l4.412,17.885c0.263,1.068 -0.162,2.553 -0.95,3.317l-26.397,25.218c-0.788,0.763 -1.641,0.517 -1.904,-0.551l-4.413,-17.885Z" style="fill:#666;fill-rule:nonzero;stroke:#000;stroke-width:0.7px;stroke-linejoin:miter;stroke-miterlimit:4;"/><path d="M712.914,100.131c-0.263,-1.067 0.162,-2.552 0.95,-3.316l24.999,-22.89c0.788,-0.764 1.486,-1.139 1.75,-0.071l4.412,17.885c0.263,1.068 -0.163,2.553 -0.951,3.317l-24.844,23.511c-0.788,0.764 -1.641,0.518 -1.904,-0.551l-4.412,-17.885Z" style="fill:#0971ff;fill-rule:nonzero;stroke:#000;stroke-width:0.7px;stroke-linejoin:miter;stroke-miterlimit:4;"/><path d="M702.842,114.451c0.004,-1.764 1.247,-3.909 2.776,-4.791l48.265,-27.336c1.528,-0.883 2.764,-0.169 2.76,1.595l-0.075,29.537c-0.003,1.764 -1.247,3.909 -2.776,4.791l-48.265,27.336c-1.529,0.883 -2.763,0.168 -2.76,-1.595l0.075,-29.537Z" style="fill:#666;fill-rule:nonzero;stroke:#000;stroke-width:0.7px;stroke-linejoin:miter;stroke-miterlimit:4;"/><path d="M726.117,105.225c0.002,-0.954 0.671,-2.114 1.495,-2.591l27.502,-15.126c0.823,-0.477 1.489,-0.646 1.487,0.307l-0.04,15.975c-0.003,0.954 -0.672,2.114 -1.495,2.591l-27.503,15.681c-0.823,0.477 -1.489,0.091 -1.486,-0.862l0.04,-15.975Z" style="fill:#666;fill-rule:nonzero;stroke:#000;stroke-width:0.7px;stroke-linejoin:miter;stroke-miterlimit:4;"/><path d="M727.782,110.335c0.002,-0.954 0.671,-2.114 1.495,-2.591l25.837,-14.016c0.823,-0.477 1.489,-0.646 1.487,0.307l-0.04,15.975c-0.003,0.954 -0.672,2.114 -1.495,2.591l-25.838,14.571c-0.823,0.477 -1.489,0.091 -1.486,-0.862l0.04,-15.975Z" style="fill:#666;fill-rule:nonzero;stroke:#000;stroke-width:0.7px;stroke-linejoin:miter;stroke-miterlimit:4;"/><path d="M740.62,110.039c0.965,1.186 0.229,3.341 -1.076,5.669c-1.306,2.329 -2.75,4.063 -4.229,3.796l-0.058,0.103l-1.965,-1.168c-1.487,-0.885 -1.48,-3.767 0.017,-6.438c1.497,-2.671 3.917,-4.118 5.406,-3.234l1.964,1.168l-0.059,0.104Z" style="fill:#404040;fill-rule:nonzero;stroke:#000;stroke-width:0.7px;stroke-linejoin:miter;stroke-miterlimit:4;"/><path d="M740.486,109.873c-1.512,-0.868 -3.972,0.551 -5.494,3.169c-1.521,2.618 -1.529,5.443 -0.016,6.31c1.513,0.868 3.972,-0.551 5.495,-3.169c1.52,-2.618 1.528,-5.443 0.015,-6.31" style="fill:#404040;fill-rule:nonzero;stroke:#000;stroke-width:0.7px;stroke-linejoin:miter;stroke-miterlimit:4;"/><path d="M842.207,59.613l0,10.08c0,3.58 -1.923,6.898 -5.03,8.677l-34.677,19.861l0,-15.744" style="fill:#404040;fill-rule:nonzero;stroke:#000;stroke-width:0.7px;stroke-linecap:round;stroke-miterlimit:10;"/><path d="M802.5,82.809l0,15.386l-43.688,-26.241l0,-15.744" style="fill:#666;stroke:#000;stroke-width:0.7px;stroke-linecap:round;stroke-miterlimit:10;"/><path d="M802.5,82.55l-43.688,-26.144l40.775,-21.576l42.582,24.761l-39.669,22.959Z" style="fill:none;stroke:#3a3e40;stroke-width:0.7px;stroke-linecap:round;stroke-miterlimit:10;"/><path d="M842.207,44.076l0,15.877l-39.707,22.742l0,-15.745" style="fill:#404040;fill-rule:nonzero;stroke:#000;stroke-width:0.7px;stroke-linecap:round;stroke-miterlimit:10;"/><path d="M802.5,67.273l0,15.386l-43.688,-26.241l0,-15.744" style="fill:#666;fill-rule:nonzero;stroke:#000;stroke-width:0.7px;stroke-linecap:round;stroke-miterlimit:10;"/><path d="M802.5,67.013l-43.688,-26.144l40.775,-21.576l42.582,24.762l-39.669,22.958Z" style="fill:none;stroke:#3a3e40;stroke-width:0.7px;stroke-linecap:round;stroke-miterlimit:10;"/><path d="M842.207,29.041l0,15.877l-39.707,22.742l0,-15.745" style="fill:#404040;fill-rule:nonzero;stroke:#000;stroke-width:0.7px;stroke-linecap:round;stroke-miterlimit:10;"/><path d="M802.5,52.238l0,15.386l-43.688,-26.241l0,-15.466m43.688,26.061l-43.688,-26.144l35.869,-18.98c3.048,-1.612 6.723,-1.539 9.704,0.194l37.784,21.972l-39.669,22.958Z" style="fill:#666;fill-rule:nonzero;stroke:#000;stroke-width:0.7px;stroke-linecap:round;stroke-miterlimit:10;"/><path d="M794.565,55.088c0,1.073 0.804,2.447 1.795,3.066c0.991,0.619 1.795,0.251 1.795,-0.822c0,-1.074 -0.804,-2.447 -1.795,-3.067c-0.991,-0.619 -1.795,-0.25 -1.795,0.823Zm0,15.142c0,1.073 0.804,2.447 1.795,3.066c0.991,0.619 1.795,0.25 1.795,-0.823c0,-1.073 -0.804,-2.447 -1.795,-3.066c-0.991,-0.619 -1.795,-0.25 -1.795,0.823Zm0,16c0,1.073 0.804,2.447 1.795,3.066c0.991,0.619 1.795,0.251 1.795,-0.823c0,-1.073 -0.804,-2.447 -1.795,-3.066c-0.991,-0.619 -1.795,-0.25 -1.795,0.823Z" style="fill:#41ff8b;stroke:#3a3e40;stroke-width:0.7px;stroke-linejoin:miter;stroke-miterlimit:10;"/><path d="M763.047,37.517c-0.6,-0.357 -1.097,-1.128 -1.11,-1.721c-0.012,-0.592 0.465,-0.782 1.065,-0.424l18.891,11.262c0.6,0.357 1.097,1.128 1.109,1.72c0.013,0.592 -0.464,0.783 -1.064,0.425l-18.891,-11.262Zm0,14.925c-0.6,-0.357 -1.097,-1.128 -1.11,-1.72c-0.012,-0.592 0.465,-0.783 1.065,-0.425l18.891,11.262c0.6,0.357 1.097,1.129 1.109,1.721c0.013,0.592 -0.464,0.782 -1.064,0.424l-18.891,-11.262Zm0,15.869c-0.6,-0.358 -1.097,-1.129 -1.11,-1.721c-0.012,-0.592 0.465,-0.782 1.065,-0.425l18.891,11.262c0.6,0.358 1.097,1.129 1.109,1.721c0.013,0.592 -0.464,0.782 -1.064,0.425l-18.891,-11.262Z" style="fill:#404040;stroke:#000;stroke-width:0.7px;stroke-linecap:round;stroke-miterlimit:1.5;"/><path d="M823.148,86.295l26.942,15.616l-63.889,34.767" style="fill:none;stroke:#000;stroke-width:0.7px;stroke-linejoin:miter;stroke-miterlimit:10;"/><ellipse cx="786.361" cy="137.275" rx="5.213" ry="3.352" style="fill:#666;stroke:#000;stroke-width:0.7px;stroke-linecap:round;stroke-miterlimit:10;"/><ellipse cx="638.427" cy="96.435" rx="5.213" ry="3.352" style="fill:#666;stroke:#000;stroke-width:0.7px;stroke-linecap:round;stroke-miterlimit:10;"/><ellipse cx="629.832" cy="29.354" rx="5.213" ry="3.352" style="fill:#666;stroke:#000;stroke-width:0.7px;stroke-linecap:round;stroke-miterlimit:10;"/><path d="M618.045,53.565l-24.485,13.505l41.746,26.908" style="fill:none;stroke:#000;stroke-width:0.7px;stroke-linejoin:miter;stroke-miterlimit:10;"/><path d="M645.563,46.333l77.631,-42.344l-77.631,42.344Z" style="fill:none;stroke:#000;stroke-width:0.7px;stroke-linejoin:miter;stroke-miterlimit:10;"/><path d="M639.15,42.354l23.808,-12.843l-23.808,12.843Z" style="fill:none;stroke:#000;stroke-width:0.7px;stroke-linejoin:miter;stroke-miterlimit:10;"/><path d="M667.108,26.627l23.808,-12.842l-23.808,12.842Z" style="fill:none;stroke:#000;stroke-width:0.7px;stroke-linejoin:miter;stroke-miterlimit:10;"/><path d="M604.757,36.837l40.627,24.9l-40.627,-24.9Z" style="fill:none;stroke:#000;stroke-width:0.7px;stroke-linejoin:miter;stroke-miterlimit:10;"/><path d="M610.873,32.905l41.5,24.9l-41.5,-24.9Z" style="fill:none;stroke:#000;stroke-width:0.7px;stroke-linejoin:miter;stroke-miterlimit:10;"/><path d="M732.452,89.38l5.646,-5.099l-5.646,5.099Z" style="fill:none;stroke:#000;stroke-width:0.7px;stroke-linejoin:miter;stroke-miterlimit:10;"/><path d="M617.426,36.837l8.795,-5.028l-8.795,5.028Z" style="fill:none;stroke:#000;stroke-width:0.7px;stroke-linejoin:miter;stroke-miterlimit:10;"/></g></svg>