<svg clip-rule="evenodd" fill-rule="evenodd" height="29" stroke-linejoin="round" stroke-miterlimit="1.414" width="113" xmlns="http://www.w3.org/2000/svg">
    <path d="M102.541 8.18h-6.995v16.601h2.49V10.603h4.509zm2.281 0h1.686V3.865h2.317V8.18h4.16v2.4h-4.16v10.487c0 .858.963 1.443 1.487 1.443h2.387v2.271h-2.543a3.64 3.64 0 01-2.592-1.088 3.736 3.736 0 01-1.074-2.626v-10.48h-1.681zM66.659 24.781h11.28v-2.279h-8.662v-8.993c0-.776.304-1.52.845-2.068a2.866 2.866 0 012.041-.857h3.053v2.393h2.607V8.18H71.54a4.919 4.919 0 00-3.511 1.48 5.05 5.05 0 00-1.439 3.566zm-9.752-10.833l3.446-5.768h3.043l-4.885 8.197 5.55 8.404h-3.029l-3.968-5.975-3.561 5.975h-3.106l5.052-8.407-3.495-5.263-1.704-.006.023-2.925h2.825zm26.913 3.739v3.567c0 .314.123.616.343.838.219.221.517.346.827.345 2.569-.008 7.134-.025 7.134-.025v2.369h-8.221c-1.346 0-2.438-1.105-2.438-2.469V11.284c0-.823.323-1.612.898-2.194a3.038 3.038 0 012.165-.91h4.738c.864 0 1.693.348 2.304.967.611.62.954 1.459.954 2.335v6.205zm0-2.163h6.444V12.1c0-.905-.714-1.64-1.594-1.64h-3.171c-1.05 0-1.679.677-1.679 1.64zM26.857.375c.658 0 1.192.537 1.192 1.199v25.375c0 .662-.534 1.199-1.192 1.199h-1.959l-5.342-5.374a.492.492 0 00-.702 0l-2.517 2.532a.499.499 0 000 .706l2.124 2.136H10.54l10.558-10.622.003-.001.003.001.003.002.003-.002 2.864-2.882a.501.501 0 000-.706L19.205 9.14a.494.494 0 00-.702 0l-2.517 2.532a.501.501 0 000 .706l1.545 1.554a.502.502 0 010 .707L4.102 28.148h-2.27A1.196 1.196 0 01.64 26.949V1.574C.64.912 1.174.375 1.832.375h2.223l5.05 5.08a.494.494 0 00.702 0l2.517-2.532a.503.503 0 000-.706L10.493.375h7.313L4.681 13.579a.501.501 0 000 .706l4.915 4.945a.496.496 0 00.703 0l2.516-2.531a.502.502 0 000-.707l-1.697-1.707a.503.503 0 010-.706L24.243.375zm20.551 7.25c0-2.042-1.741-3.696-3.888-3.696h-5.831c-2.148 0-3.889 1.654-3.889 3.696v13.462c0 2.041 1.741 3.696 3.889 3.696h5.831c2.147 0 3.888-1.655 3.888-3.696zm-2.424 4.249l-8.76 7.491v1.683c0 .751.64 1.359 1.43 1.359h5.9c.79 0 1.43-.608 1.43-1.359zm0-3.392v-.819c0-.75-.64-1.358-1.43-1.359h-5.9c-.79.001-1.43.609-1.43 1.359v8.31z" fill="#fff"/>
</svg>
