<svg width="113" height="29" xmlns="http://www.w3.org/2000/svg" fill-rule="evenodd" clip-rule="evenodd" stroke-linejoin="round" stroke-miterlimit="1.414">
    <path d="M102.541 8.18h-6.995v16.601h2.49V10.603h4.509l-.004-2.423zm2.281 0h1.686V3.865h2.317V8.18h4.16v2.4h-4.16v10.487c0 .858.963 1.443 1.487 1.443h2.387v2.271h-2.543a3.64 3.64 0 0 1-2.592-1.088 3.736 3.736 0 0 1-1.074-2.626v-10.48h-1.681l.013-2.407zM66.659 24.781h11.28v-2.279h-8.662v-8.993c0-.776.304-1.52.845-2.068a2.866 2.866 0 0 1 2.041-.857h3.053v2.393h2.607V8.18H71.54a4.919 4.919 0 0 0-3.511 1.48 5.05 5.05 0 0 0-1.439 3.566l.069 11.555zm-9.752-10.833l3.446-5.768h3.043l-4.885 8.197 5.55 8.404h-3.029l-3.968-5.975-3.561 5.975h-3.106l5.052-8.407-3.495-5.263-1.704-.006.023-2.925h2.825l3.809 5.768zm26.913 3.739v3.567c0 .314.123.616.343.838.219.221.517.346.827.345 2.569-.008 7.134-.025 7.134-.025v2.369h-8.221c-1.346 0-2.438-1.105-2.438-2.469V11.284c0-.823.323-1.612.898-2.194a3.038 3.038 0 0 1 2.165-.91h4.738c.864 0 1.693.348 2.304.967.611.62.954 1.459.954 2.335v6.205H83.82zm0-2.163h6.444V12.1c0-.905-.714-1.64-1.594-1.64h-3.171c-1.05 0-1.679.677-1.679 1.64v3.424z" fill="#2c2f31"/>
    <path d="M26.857.375c.658 0 1.192.537 1.192 1.199v25.375c0 .662-.534 1.199-1.192 1.199h-1.959l-5.342-5.374a.492.492 0 0 0-.702 0l-2.517 2.532a.499.499 0 0 0 0 .706l2.124 2.136H10.54l10.558-10.622.003-.001.003.001.003.002.003-.002 2.864-2.882a.501.501 0 0 0 0-.706L19.205 9.14a.494.494 0 0 0-.702 0l-2.517 2.532a.501.501 0 0 0 0 .706l1.545 1.554a.502.502 0 0 1 0 .707L4.102 28.148h-2.27A1.196 1.196 0 0 1 .64 26.949V1.574C.64.912 1.174.375 1.832.375h2.223l5.05 5.08a.494.494 0 0 0 .702 0l2.517-2.532a.503.503 0 0 0 0-.706L10.493.375h7.313L4.681 13.579a.501.501 0 0 0 0 .706l4.915 4.945a.496.496 0 0 0 .703 0l2.516-2.531a.502.502 0 0 0 0-.707l-1.697-1.707a.503.503 0 0 1 0-.706L24.243.375h2.614z" fill="#3c8cff"/>
    <path d="M47.408 7.625c0-2.042-1.741-3.696-3.888-3.696h-5.831c-2.148 0-3.889 1.654-3.889 3.696v13.462c0 2.041 1.741 3.696 3.889 3.696h5.831c2.147 0 3.888-1.655 3.888-3.696V7.625zm-2.424 4.249l-8.76 7.491v1.683c0 .751.64 1.359 1.43 1.359h5.9c.79 0 1.43-.608 1.43-1.359v-9.174zm0-3.392v-.819c0-.75-.64-1.358-1.43-1.359h-5.9c-.79.001-1.43.609-1.43 1.359v8.31l8.76-7.491z" fill="#2c2f31"/>
</svg>
