<svg clip-rule="evenodd" fill-rule="evenodd" height="32" stroke-linejoin="round" width="170" xmlns="http://www.w3.org/2000/svg">
    <linearGradient id="a" gradientUnits="userSpaceOnUse" x1="2.415" x2="15.467" y1="16.232" y2="16.232">
        <stop offset="0" stop-color="#f7fbfc" stop-opacity="0"/>
        <stop offset="1" stop-color="#ebf5f7" stop-opacity=".898"/>
    </linearGradient>
    <path d="M15.913 29.101c7.107 0 12.868-5.762 12.868-12.869S23.02 3.364 15.913 3.364" fill="#fff" stroke="#8397aa" stroke-width=".38"/>
    <path d="M15.913 3.364c-7.107 0-12.869 5.761-12.869 12.868s5.762 12.869 12.869 12.869" fill="#fff" stroke="#7db5ff" stroke-linecap="round" stroke-width=".38"/>
    <path d="M13.508 12.295l.011.01.011.01.024.017.025.015.026.012.026.009.028.007.027.004.028.002.028-.001.028-.004.028-.006.026-.009.026-.012.025-.014.024-.018.012-.009.011-.01 1.283-1.247.011-.011.01-.011.009-.012.009-.012.015-.025.013-.026.009-.027.008-.028.004-.028.001-.029-.001-.028-.004-.029-.006-.028-.01-.027-.012-.026-.015-.026-.008-.012-.009-.012-.01-.011-.011-.011-.799-.8H16v1.856l-4.775 4.691-.01.011-.01.011-.01.012-.008.012-.015.025-.013.026-.009.027-.007.028-.004.028-.002.029.001.028.004.028.007.028.009.027.013.027.014.025.009.012.009.012.01.011.01.011 2.393 2.393.011.01.011.01.024.017.025.015.026.012.027.01.028.006.028.005.028.001.028-.001.028-.005.028-.006.027-.01.026-.012.025-.015.024-.017.011-.01.011-.01 1.262-1.262.01-.011.01-.011.017-.024.015-.025.012-.026.01-.027.007-.028.004-.028.001-.028-.001-.028-.004-.028-.007-.028-.01-.027-.012-.026-.015-.025-.017-.024-.01-.011-.01-.011-.897-.897L16 15.012v3.563l-5.021 5.021H9.724l-.025-.001-.024-.002-.025-.003-.023-.004-.024-.006-.023-.006-.023-.008-.022-.009-.021-.01-.021-.01-.021-.012-.019-.013-.019-.014-.019-.014-.018-.015-.016-.017-.017-.016-.015-.018-.014-.019-.014-.019-.013-.019-.011-.021-.011-.021-.01-.021-.009-.022-.007-.023-.007-.023-.006-.024-.004-.023-.003-.025-.002-.024v-12.84l.002-.024.003-.025.004-.024.006-.023.007-.023.007-.023.009-.022.01-.021.011-.021.011-.021.013-.02.014-.019.014-.018.015-.018.017-.017.016-.016.018-.015.019-.015.019-.013.019-.013.021-.012.021-.01.021-.01.022-.009.023-.008.023-.006.024-.006.023-.004.025-.003.024-.002.025-.001h1.322zM16 23.596h-1.731L16 21.895zm-6.272-13.51l-.014.001-.014.001-.01.001-.009.002-.016.004-.012.003-.008.002-.01.005-.01.004-.01.005-.012.007-.008.006-.009.005-.007.006-.01.009-.009.009-.008.008-.007.008-.006.008-.008.011-.006.009-.004.008-.006.012-.005.01-.004.009-.004.012-.003.011-.002.01-.002.011-.002.013-.001.011V23.12l.001.012.002.012.002.011.002.011.003.01.004.012.005.011.004.01.005.009.006.012.005.007.007.009.008.011.006.007.008.008.009.009.008.007.009.007.009.006.008.005.012.007.01.005.01.005.01.004.012.004.012.003.008.003.013.002.01.001.01.001h1.164l4.872-4.871v-2.844l-.989.989.719.719.019.02.019.023.03.04.028.048.022.048.018.05.013.053.007.052.002.052-.002.052-.007.052-.013.052-.018.051-.023.049-.027.046-.029.039-.02.025-.019.02-1.267 1.266-.018.018-.023.019-.042.031-.047.028-.05.023-.05.017-.049.012-.053.008-.053.002-.053-.002-.053-.008-.049-.012-.051-.017-.049-.023-.047-.028-.043-.031-.022-.019-.018-.018-2.398-2.397-.015-.017-.021-.023-.016-.022-.017-.022-.027-.048-.023-.049-.017-.051-.013-.051-.007-.053-.002-.052.002-.053.008-.052.013-.052.018-.051.023-.048.028-.047.018-.025.015-.018.018-.022.019-.02 4.701-4.618v-1.495h-.724l.368.368.018.019.017.021.018.021.018.028.026.043.023.049.017.051.012.051.008.054.002.054-.003.052-.008.053-.013.051-.018.051-.024.049-.027.046-.019.025-.015.019-.019.021-.018.019-1.288 1.251-.017.016-.026.022-.042.029-.045.026-.05.023-.048.016-.052.013-.053.006-.05.003-.053-.003-.052-.008-.052-.013-.051-.018-.046-.022-.045-.026-.043-.032-.026-.022-.018-.018-2.387-2.388H9.728zm5.163 13.255h.855v-.84z" fill="#7db5ff"/>
    <g stroke-linejoin="miter">
        <circle cx="9.328" cy="16.026" fill="#fff" r=".413" stroke="#7db5ff" stroke-width=".28"/>
        <circle cx="9.375" cy="23.458" fill="#fff" r=".413" stroke="#7db5ff" stroke-width=".28"/>
        <circle cx="13.669" cy="12.297" fill="#fff" r=".413" stroke="#7db5ff" stroke-width=".28"/>
        <path d="M1.943 26.073v4.136h4.064m23.832-4.136v4.136h-4.064m-.014-28.001h4.136v4.064" fill="none" stroke="#8397aa" stroke-width=".63"/>
    </g>
    <path d="M22.514 9.832c.268 0 .487.219.487.487v12.79a.489.489 0 01-.487.487l-1.252-.01-2.532-2.531a.295.295 0 00-.414-.004l-1.283 1.247a.295.295 0 00-.003.42l.878.878h-1.929v-1.68l5.034-4.946a.294.294 0 00.002-.418l-2.392-2.392a.295.295 0 00-.417 0l-1.261 1.261a.295.295 0 000 .417l.896.896-1.862 1.862v-3.562l5.201-5.202zm-6.535 1.877V9.832h1.91z" fill="#3689ff"/>
    <path d="M6.065 2.208H1.929v4.064" fill="none" stroke="#8397aa" stroke-linejoin="miter" stroke-width=".63"/>
    <path d="M1.943 2.263h14.038v27.939H1.943z" fill="url(#a)"/>
    <path d="M1.943 2.263h14.038v27.939H1.943z" fill="none"/>
    <path d="M15.887 2.357v27.939" fill="#fff" stroke="#dfe7eb" stroke-linejoin="miter" stroke-width=".28"/>
    <g fill="#fff" font-size="20" font-family="sans-serif">
        <text x="1158.48" y="5916.16" transform="translate(-1050.56 -5530.71) scale(.9387)">
            e<tspan x="1168.84 1176.22 1185.82 1195.86 1207.7" y="5916.16 5916.16 5916.16 5916.16 5916.16">rc721</tspan>
        </text>
        <text font-weight="700" x="1216.76" y="5916.16" transform="translate(-1050.56 -5530.71) scale(.9387)">
            validator
        </text>
    </g>
</svg>
