<svg width="167" height="25" xmlns="http://www.w3.org/2000/svg" fill-rule="evenodd" clip-rule="evenodd" stroke-linejoin="round" stroke-miterlimit="1.414">
    <path d="M40.242 16.608c0 2.285-1.744 3.157-4.476 3.157-1.201 0-2.638-.095-3.91-.354a7.412 7.412 0 0 1 0-2.284c1.248.235 2.497.305 3.533.305 1.06 0 2.12-.117 2.12-1.13v-.471c0-.801-.494-.966-1.319-1.202l-2.238-.636c-1.437-.4-2.191-1.201-2.191-2.709v-1.131c0-2.19 1.838-3.062 4.736-3.062 1.107 0 2.237.094 3.58.377.118.73.118 1.531 0 2.262-1.39-.26-2.261-.331-3.298-.331-1.225 0-2.285.119-2.285 1.131v.448c0 .707.542.966 1.319 1.178l2.144.589c1.531.424 2.285 1.13 2.285 2.85v1.013zm10.694-5.206l-2.143 8.08c-.896.118-2.568.118-3.463 0L41.867 7.421c.707-.118 2.073-.118 2.78 0l2.449 9.352 2.38-9.352c.707-.118 2.214-.118 2.921 0l2.379 9.399 2.45-9.399c.731-.118 2.073-.118 2.78 0l-3.463 12.061c-.895.118-2.568.118-3.463 0l-2.144-8.08zm18.139 3.133a14.837 14.837 0 0 0-2.45-.235c-1.625 0-2.544.188-2.544 1.648 0 1.39 1.013 1.555 2.214 1.555 1.602 0 2.262-.424 2.78-1.555v-1.413zm.165 3.274h-.141c-.377 1.414-1.861 1.956-3.793 1.956-2.238 0-3.958-.966-3.958-3.487 0-3.203 1.838-3.887 4.453-3.887 1.154 0 2.049.095 3.274.26v-1.202c0-1.296-.707-2.002-3.204-2.002-.989 0-2.167.094-3.533.329a9.381 9.381 0 0 1 0-2.308 23.35 23.35 0 0 1 4.311-.377c3.392 0 5.159 1.06 5.159 3.675V19.6c-.637.118-1.744.118-2.38 0l-.188-1.791zm13.992-6.03c0-2.073-1.036-2.333-2.379-2.333-1.744 0-2.309.424-2.78 1.838v4.264c.471 1.414 1.036 1.838 2.78 1.838 1.343 0 2.379-.283 2.379-2.309v-3.298zM75.34 7.303c.636-.118 1.744-.118 2.38 0l.188 1.767h.141c.424-1.461 1.885-1.979 3.864-1.979 2.308 0 4.052.942 4.052 3.533v5.631c0 2.568-1.744 3.51-4.052 3.51-1.979 0-3.44-.495-3.864-1.955h-.141l.165 1.955v4.782c-.707.094-2.05.094-2.733 0V7.303zm29.634 4.452c0-2.073-1.012-2.308-2.285-2.308-1.648 0-2.261.4-2.708 1.766v8.269c-.707.118-2.05.118-2.733 0v-7.727c0-2.049-1.013-2.308-2.308-2.308-1.673 0-2.262.424-2.71 1.837v8.198c-.707.118-2.049.118-2.732 0V7.327c.636-.095 1.743-.095 2.379 0l.188 1.743h.142c.4-1.461 1.884-1.979 3.816-1.979 1.72 0 3.133.542 3.698 1.979h.212c.424-1.461 1.908-1.979 3.817-1.979 2.261 0 3.957.895 3.957 3.463v8.928c-.683.118-2.026.118-2.733 0v-7.727zm13.239 2.78a14.847 14.847 0 0 0-2.45-.235c-1.625 0-2.544.188-2.544 1.648 0 1.39 1.013 1.555 2.214 1.555 1.602 0 2.262-.424 2.78-1.555v-1.413zm.165 3.274h-.142c-.377 1.414-1.861 1.956-3.792 1.956-2.238 0-3.958-.966-3.958-3.487 0-3.203 1.837-3.887 4.452-3.887 1.154 0 2.05.095 3.275.26v-1.202c0-1.296-.707-2.002-3.204-2.002-.989 0-2.167.094-3.534.329a9.48 9.48 0 0 1 0-2.308 23.364 23.364 0 0 1 4.311-.377c3.393 0 5.159 1.06 5.159 3.675V19.6c-.636.118-1.743.118-2.379 0l-.188-1.791zm6.1-10.482a13.311 13.311 0 0 1 2.379 0l.189 1.931h.141c.377-1.531 1.885-2.167 4.005-2.167.094.66.094 1.743 0 2.403-2.615 0-3.345.542-3.981 2.238v7.75c-.707.118-2.049.118-2.733 0V7.327zm13.309 6.501l-1.413.189v5.465c-.707.118-2.05.118-2.732 0V2.568c.682-.118 2.025-.118 2.732 0v9.117l1.578-.212 3.18-4.146c.636-.118 2.309-.118 2.945 0l-4.052 5.3 4.264 6.855c-.66.118-2.308.118-2.968 0l-3.534-5.654zm15.689-2.355c0-1.814-1.084-2.026-2.333-2.026-1.224 0-2.378.212-2.378 2.026v1.107l2.19-.141h2.521v-.966zm2.685 2.827c-1.696.117-5.276.14-7.396.023v.919c0 1.837 1.154 2.143 3.109 2.143 1.437 0 2.426-.117 3.746-.377.094.66.094 1.673 0 2.333-1.578.282-2.874.424-4.335.424-3.227 0-5.253-.99-5.253-3.84v-4.947c0-2.968 2.144-3.887 5.135-3.887 3.322 0 4.994 1.46 4.994 4.617V14.3zm3.745-4.594h-1.837a8.185 8.185 0 0 1 0-2.144l1.837-.118V4.288c.707-.094 2.05-.094 2.733 0v3.133h3.486c.095.66.095 1.625 0 2.285h-3.486v5.347c0 2.191 1.036 2.332 1.979 2.332.542 0 1.036-.046 1.507-.141a9.39 9.39 0 0 1 0 2.309c-.73.141-1.437.212-2.285.212-2.025 0-3.934-.825-3.934-3.817V9.706z" fill="#43415b" fill-rule="nonzero"/>
    <path d="M7.599 12.545l4.464-4.464 4.465 4.464-4.465 4.465-4.464-4.465z" fill="#43415b"/>
    <path d="M7.804 4.585A3.807 3.807 0 1 1 .19 4.583a3.807 3.807 0 0 1 7.614.002" fill="#f3c622" fill-rule="nonzero"/>
    <path d="M24.038 4.585a3.806 3.806 0 1 1-7.612 0 3.806 3.806 0 0 1 7.612 0" fill="#e24d59" fill-rule="nonzero"/>
    <path d="M7.804 20.541a3.807 3.807 0 1 1-7.614-.002 3.807 3.807 0 0 1 7.614.002" fill="#30cae8" fill-rule="nonzero"/>
    <path d="M24.038 20.541a3.806 3.806 0 1 1-7.612 0 3.806 3.806 0 0 1 7.612 0" fill="#7971ac" fill-rule="nonzero"/>
</svg>
