<svg width="241" height="28" viewBox="0 0 241 28" xmlns="http://www.w3.org/2000/svg" fill-rule="evenodd" clip-rule="evenodd" stroke-linejoin="round" stroke-miterlimit="1.414">
    <g fill="#00e5f3">
        <path d="M43.925 9.04v.853c0 .108-.078.17-.186.17h-2.977v9.24c0 .108-.062.17-.17.17h-.946c-.108 0-.186-.062-.186-.17v-9.24h-2.961c-.108 0-.186-.062-.186-.17V9.04a.18.18 0 0 1 .186-.186h7.24a.18.18 0 0 1 .186.186zm8.93 0v10.263c0 .108-.078.17-.187.17h-.945c-.109 0-.186-.062-.186-.17v-4.821h-5.07v4.821c0 .108-.062.17-.17.17h-.961c-.109 0-.171-.062-.171-.17V9.04c0-.108.062-.186.171-.186h.961c.108 0 .17.078.17.186v4.248h5.07V9.04a.18.18 0 0 1 .186-.186h.945a.18.18 0 0 1 .187.186zm9.007 9.441v.822c0 .108-.062.17-.171.17h-6.03c-.109 0-.171-.062-.171-.17V9.04c0-.108.062-.186.171-.186h6.015a.18.18 0 0 1 .186.186v.806c0 .109-.078.171-.186.171h-4.884v3.302h4.884c.108 0 .186.062.186.17v.806a.18.18 0 0 1-.186.187h-4.884v3.829h4.899c.109 0 .171.062.171.17zM75.287 9.04v10.263c0 .108-.078.17-.186.17h-1.194a.287.287 0 0 1-.263-.155l-3.892-7.255c-.294-.527-.759-1.736-.868-2.031.062.403.171 2.465.171 3.504v5.767c0 .108-.062.17-.171.17h-.961c-.108 0-.17-.062-.17-.17V9.04c0-.108.062-.186.17-.186h1.271c.124 0 .171.093.233.217l3.86 7.193c.372.698.651 1.38.868 2.031-.108-.728-.17-2.155-.17-3.193V9.04c0-.108.062-.186.17-.186h.946a.18.18 0 0 1 .186.186zm9.271 7.147v-4.046c0-1.411-.915-2.217-2.295-2.217h-.899c-1.364 0-2.294.775-2.294 2.217v4.046c0 1.473.93 2.217 2.294 2.217h.899c1.38 0 2.295-.791 2.295-2.217zm1.302-4.046v4.046c0 2.062-1.519 3.379-3.566 3.379h-1.007c-2.155 0-3.52-1.333-3.52-3.379v-4.046c0-2.062 1.473-3.38 3.52-3.38h1.054c2.093 0 3.519 1.38 3.519 3.38zM95.875 9.04v10.263c0 .108-.078.17-.186.17h-1.194a.287.287 0 0 1-.264-.155l-3.891-7.255c-.294-.527-.759-1.736-.868-2.031.062.403.171 2.465.171 3.504v5.767c0 .108-.062.17-.171.17h-.961c-.109 0-.171-.062-.171-.17V9.04c0-.108.062-.186.171-.186h1.271c.124 0 .171.093.233.217l3.86 7.193c.372.698.651 1.38.868 2.031-.109-.728-.171-2.155-.171-3.193V9.04c0-.108.062-.186.171-.186h.946a.18.18 0 0 1 .186.186zm6.697 5.55v.884c0 .108-.062.17-.171.17h-3.705c-.108 0-.186-.062-.186-.17v-.884a.18.18 0 0 1 .186-.186h3.705c.109 0 .171.078.171.186zm3.938.186v4.527c0 .108-.063.17-.171.17h-.961c-.109 0-.171-.062-.171-.17V9.04c0-.108.062-.186.171-.186h6.015a.18.18 0 0 1 .186.186v.806c0 .109-.078.171-.186.171h-4.883v3.596h4.883c.108 0 .186.062.186.171v.806a.18.18 0 0 1-.186.186h-4.883zm14.526-5.736v7.147c0 2.062-1.52 3.379-3.566 3.379h-.574c-2.155 0-3.519-1.333-3.519-3.379V9.04a.18.18 0 0 1 .186-.186h.946c.108 0 .17.078.17.186v7.147c0 1.473.931 2.217 2.295 2.217h.465c1.38 0 2.294-.791 2.294-2.217V9.04c0-.108.062-.186.171-.186h.961c.109 0 .171.078.171.186zm10.092 0v10.263c0 .108-.078.17-.186.17h-1.194a.287.287 0 0 1-.263-.155l-3.892-7.255c-.294-.527-.759-1.736-.868-2.031.062.403.171 2.465.171 3.504v5.767c0 .108-.062.17-.171.17h-.961c-.108 0-.17-.062-.17-.17V9.04c0-.108.062-.186.17-.186h1.271c.124 0 .171.093.233.217l3.86 7.193c.372.698.651 1.38.868 2.031-.108-.728-.17-2.155-.17-3.193V9.04c0-.108.062-.186.17-.186h.946a.18.18 0 0 1 .186.186zm10.061.977h-3.984c-1.411 0-2.294.821-2.294 2.217v3.844c0 1.473.93 2.233 2.294 2.233h2.868v-3.504h-1.922c-.109 0-.186-.062-.186-.17v-.807a.18.18 0 0 1 .186-.186h3.054c.108 0 .17.078.17.186v5.473c0 .108-.062.17-.17.17h-4.078c-2.154 0-3.519-1.348-3.519-3.395v-3.844c0-2.062 1.473-3.38 3.519-3.38h4.062a.18.18 0 0 1 .186.186v.806c0 .109-.077.171-.186.171zm3.969-.977v10.263c0 .108-.062.17-.171.17h-.961c-.108 0-.17-.062-.17-.17V9.04c0-.108.062-.186.17-.186h.961c.109 0 .171.078.171.186zm8.852 7.674v-.605c0-1.023-.62-1.627-1.721-1.627h-3.193v3.829h3.224c1.054 0 1.69-.543 1.69-1.597zm-.217-4.852v-.481c0-.884-.62-1.364-1.628-1.364h-3.069v3.302h3.023c.976 0 1.674-.543 1.674-1.457zm1.535 4.17v.651c0 1.504-.946 2.79-2.76 2.79h-4.604c-.109 0-.171-.062-.171-.17V9.04c0-.108.062-.186.171-.186h4.372c1.643 0 2.759.915 2.759 2.418v.512c0 1.039-.558 1.752-1.318 2.077.791.233 1.551 1.008 1.551 2.171zm7.844 2.403v.868c0 .108-.077.17-.186.17H157.7c-.109 0-.171-.062-.171-.17V9.04c0-.108.062-.186.171-.186h.961c.108 0 .17.078.17.186v9.224h4.155c.109 0 .186.062.186.171zm8.154.046v.822c0 .108-.062.17-.17.17h-6.031c-.108 0-.17-.062-.17-.17V9.04c0-.108.062-.186.17-.186h6.015a.18.18 0 0 1 .186.186v.806c0 .109-.077.171-.186.171h-4.883v3.302h4.883c.109 0 .186.062.186.17v.806a.18.18 0 0 1-.186.187h-4.883v3.829h4.899c.108 0 .17.062.17.17zm12.341.837l-.868-2.666h-4.496l-.868 2.666a.197.197 0 0 1-.202.155h-1.054c-.093 0-.14-.062-.14-.139 0-.031.016-.078.031-.124l3.488-10.123c.047-.155.109-.233.279-.233h1.427c.155 0 .232.078.279.233l3.472 10.076c.031.093.047.14.047.186 0 .062-.062.124-.14.124h-1.054c-.093 0-.17-.046-.201-.155zm-3.116-9.534l-1.876 5.705h3.736l-1.86-5.705zm11.611 8.651v.868c0 .108-.077.17-.186.17h-5.286c-.109 0-.171-.062-.171-.17V9.04c0-.108.062-.186.171-.186h.961c.108 0 .17.078.17.186v9.224h4.155c.109 0 .186.062.186.171zm7.426 0v.868c0 .108-.078.17-.186.17h-5.286c-.109 0-.171-.062-.171-.17V9.04c0-.108.062-.186.171-.186h.961c.108 0 .17.078.17.186v9.224h4.155c.108 0 .186.062.186.171zm3.085-9.395v10.263c0 .108-.062.17-.17.17h-.962c-.108 0-.17-.062-.17-.17V9.04c0-.108.062-.186.17-.186h.962c.108 0 .17.078.17.186zm9.085 10.278l-.869-2.666h-4.495l-.868 2.666a.197.197 0 0 1-.202.155h-1.054c-.093 0-.14-.062-.14-.139 0-.031.016-.078.031-.124l3.488-10.123c.047-.155.109-.233.279-.233h1.427c.155 0 .232.078.279.233l3.472 10.076c.031.093.047.14.047.186 0 .062-.062.124-.14.124h-1.054c-.093 0-.17-.046-.201-.155zm-3.116-9.534l-1.876 5.705h3.736l-1.86-5.705zm13.502-.744v10.263c0 .108-.077.17-.186.17h-1.193a.287.287 0 0 1-.264-.155l-3.891-7.255c-.295-.527-.76-1.736-.868-2.031.062.403.17 2.465.17 3.504v5.767c0 .108-.062.17-.17.17h-.961c-.109 0-.171-.062-.171-.17V9.04c0-.108.062-.186.171-.186h1.271c.124 0 .17.093.232.217l3.861 7.193c.372.698.651 1.38.868 2.031-.109-.728-.171-2.155-.171-3.193V9.04c0-.108.062-.186.171-.186h.945a.18.18 0 0 1 .186.186zm9.581 0v3.411c0 .108-.062.17-.17.17h-.962c-.108 0-.17-.062-.17-.17v-2.434h-2.201c-1.334 0-2.295.759-2.295 2.217v3.829c0 1.473.93 2.248 2.295 2.248h3.317c.109 0 .186.077.186.186v.806c0 .108-.077.17-.186.17h-3.395c-2.124 0-3.519-1.348-3.519-3.41v-3.829c0-2.062 1.473-3.38 3.519-3.38h3.411c.108 0 .17.078.17.186zm8.697 9.441v.822c0 .108-.062.17-.17.17h-6.031c-.108 0-.17-.062-.17-.17V9.04c0-.108.062-.186.17-.186h6.015a.18.18 0 0 1 .186.186v.806c0 .109-.077.171-.186.171h-4.883v3.302h4.883c.109 0 .186.062.186.17v.806a.18.18 0 0 1-.186.187h-4.883v3.829h4.899c.108 0 .17.062.17.17zM15.979 3.072a2.583 2.583 0 1 1-5.166 0 2.583 2.583 0 0 1 5.166 0M15.979 25.255a2.583 2.583 0 1 1-5.166 0 2.583 2.583 0 0 1 5.166 0"/>
        <path d="M18.752 14.164c0-1.161.416-2.226 1.109-3.057l6.355-6.412a2.287 2.287 0 1 0-3.235-3.234L17.302 7.14h-.02a5.065 5.065 0 0 1-3.75 1.633A5.064 5.064 0 0 1 9.783 7.14L4.044 1.461A2.287 2.287 0 0 0 .81 4.695l6.154 6.155h-.04a4.76 4.76 0 0 1 1.342 3.314 4.777 4.777 0 0 1-1.731 3.677L.81 23.632a2.288 2.288 0 0 0 3.234 3.235l5.912-5.912h.018a4.875 4.875 0 0 1 3.558-1.532 4.87 4.87 0 0 1 3.736 1.731l5.713 5.713a2.282 2.282 0 0 0 1.617.669 2.288 2.288 0 0 0 1.618-3.904l-6.355-6.411a4.756 4.756 0 0 1-1.109-3.057"/>
        <path d="M26.241 17.45a.631.631 0 0 1-.45-.187l-2.65-2.65a.636.636 0 0 1 0-.899l2.65-2.65a.636.636 0 0 1 .899.899l-2.2 2.201 2.2 2.2a.634.634 0 0 1-.449 1.086M.906 17.45a.634.634 0 0 1-.449-1.086l2.2-2.2-2.2-2.201a.636.636 0 0 1 .899-.899l2.65 2.65a.636.636 0 0 1 0 .899l-2.65 2.65a.631.631 0 0 1-.45.187"/>
    </g>
</svg>
