<svg width="846" viewBox="0 0 846 584" xmlns="http://www.w3.org/2000/svg" fill-rule="evenodd" clip-rule="evenodd" stroke-linecap="round" stroke-linejoin="round">
    <path d="M257.736 468.02h-5.834v4.774h6.781v1.458h-8.543v-13.468h8.448v1.459h-6.686v4.338h5.834v1.44zM263.994 467.907l2.216-3.656h1.989l-3.277 4.944 3.39 5.057h-1.988l-2.311-3.75-2.311 3.75h-1.99l3.373-5.057-3.278-4.944h1.99l2.197 3.656zM278.477 469.365c0 1.516-.36 2.747-1.06 3.675-.682.928-1.63 1.402-2.823 1.402-1.212 0-2.178-.398-2.86-1.156v4.812h-1.724V464.25h1.572l.076 1.099c.7-.853 1.667-1.289 2.917-1.289 1.194 0 2.14.455 2.842 1.364.7.91 1.06 2.16 1.06 3.77v.17zm-1.723-.208c0-1.118-.228-2.008-.72-2.67-.474-.645-1.137-.967-1.97-.967-1.042 0-1.819.455-2.33 1.364v4.792c.511.91 1.288 1.364 2.349 1.364.814 0 1.458-.322 1.95-.966.493-.663.72-1.629.72-2.917zM280.183 469.157c0-.985.208-1.856.587-2.652a4.258 4.258 0 011.61-1.8c.682-.435 1.478-.644 2.349-.644 1.364 0 2.463.474 3.315 1.421.833.928 1.25 2.197 1.25 3.75v.133c0 .966-.17 1.838-.55 2.614-.378.777-.908 1.383-1.61 1.819-.681.417-1.477.644-2.386.644-1.345 0-2.444-.474-3.296-1.42-.833-.948-1.27-2.198-1.27-3.751v-.114zm1.724.208c0 1.099.265 1.99.776 2.671.512.663 1.213 1.004 2.065 1.004.871 0 1.572-.34 2.084-1.023.511-.682.757-1.629.757-2.86 0-1.099-.265-1.989-.776-2.67-.53-.683-1.213-1.024-2.084-1.024-.833 0-1.515.341-2.046 1.004-.511.682-.776 1.648-.776 2.898zM297.275 471.6c0-.473-.17-.833-.53-1.08-.341-.264-.948-.473-1.819-.662-.871-.19-1.553-.398-2.065-.663-.511-.265-.871-.568-1.117-.928a2.184 2.184 0 01-.38-1.27c0-.833.36-1.515 1.043-2.083.7-.568 1.59-.853 2.67-.853 1.137 0 2.046.285 2.766.872.701.587 1.042 1.345 1.042 2.254h-1.705c0-.474-.208-.871-.606-1.212-.398-.341-.89-.512-1.496-.512-.626 0-1.118.133-1.459.417-.36.265-.53.625-.53 1.06 0 .417.151.72.492.929.322.208.91.417 1.762.606.852.19 1.553.417 2.083.682.53.265.929.587 1.175.947.265.379.379.834.379 1.383 0 .89-.36 1.61-1.061 2.14-.72.55-1.648.815-2.785.815-.814 0-1.515-.152-2.14-.436-.606-.284-1.099-.682-1.44-1.174-.34-.512-.53-1.061-.53-1.667h1.724c.019.587.246 1.042.682 1.364.435.34 1.004.511 1.704.511.644 0 1.156-.132 1.554-.398.397-.265.587-.606.587-1.041zM305.375 474.442c-1.364 0-2.462-.455-3.315-1.345-.852-.89-1.288-2.084-1.288-3.58v-.303c0-1.004.19-1.876.568-2.652.38-.796.91-1.402 1.592-1.838a4.048 4.048 0 012.216-.663c1.307 0 2.31.436 3.05 1.289.72.852 1.08 2.083 1.08 3.674v.72h-6.782c.019.985.303 1.78.852 2.387.569.606 1.27.91 2.103.91.606 0 1.118-.114 1.553-.36a4.511 4.511 0 001.099-.986l1.042.815c-.834 1.288-2.103 1.932-3.77 1.932zm-.227-8.979c-.682 0-1.27.246-1.724.758-.474.492-.758 1.212-.871 2.102h5v-.113c-.037-.872-.284-1.553-.7-2.027-.417-.474-.985-.72-1.705-.72zM257.736 531.516h-5.834v4.773h6.781v1.459h-8.543V524.28h8.448v1.458h-6.686v4.338h5.834v1.44zM263.994 531.402l2.216-3.656h1.989l-3.277 4.944 3.39 5.058h-1.988l-2.311-3.75-2.311 3.75h-1.99l3.373-5.058-3.278-4.944h1.99l2.197 3.656zM278.477 532.86c0 1.516-.36 2.747-1.06 3.675-.682.929-1.63 1.402-2.823 1.402-1.212 0-2.178-.398-2.86-1.155v4.811h-1.724v-13.847h1.572l.076 1.099c.7-.853 1.667-1.288 2.917-1.288 1.194 0 2.14.454 2.842 1.364.7.909 1.06 2.159 1.06 3.77v.17zm-1.723-.208c0-1.117-.228-2.008-.72-2.67-.474-.645-1.137-.967-1.97-.967-1.042 0-1.819.455-2.33 1.364v4.793c.511.909 1.288 1.363 2.349 1.363.814 0 1.458-.322 1.95-.966.493-.663.72-1.629.72-2.917zM280.183 532.652c0-.985.208-1.856.587-2.652a4.258 4.258 0 011.61-1.8c.682-.435 1.478-.643 2.349-.643 1.364 0 2.463.473 3.315 1.42.833.929 1.25 2.198 1.25 3.751v.133c0 .966-.17 1.837-.55 2.614-.378.776-.908 1.382-1.61 1.818-.681.417-1.477.644-2.386.644-1.345 0-2.444-.473-3.296-1.42-.833-.948-1.27-2.198-1.27-3.751v-.114zm1.724.209c0 1.098.265 1.989.776 2.67.512.663 1.213 1.004 2.065 1.004.871 0 1.572-.34 2.084-1.022.511-.682.757-1.63.757-2.86 0-1.1-.265-1.99-.776-2.672-.53-.682-1.213-1.023-2.084-1.023-.833 0-1.515.341-2.046 1.004-.511.682-.776 1.648-.776 2.899zM297.275 535.096c0-.474-.17-.834-.53-1.08-.341-.265-.948-.473-1.819-.663-.871-.19-1.553-.398-2.065-.663-.511-.265-.871-.568-1.117-.928a2.184 2.184 0 01-.38-1.27c0-.833.36-1.515 1.043-2.083.7-.568 1.59-.852 2.67-.852 1.137 0 2.046.284 2.766.871.701.587 1.042 1.345 1.042 2.254h-1.705c0-.473-.208-.871-.606-1.212-.398-.341-.89-.512-1.496-.512-.626 0-1.118.133-1.459.417-.36.265-.53.625-.53 1.061 0 .417.151.72.492.928.322.209.91.417 1.762.606.852.19 1.553.417 2.083.682.53.265.929.587 1.175.947.265.38.379.834.379 1.383 0 .89-.36 1.61-1.061 2.14-.72.55-1.648.815-2.785.815-.814 0-1.515-.151-2.14-.435-.606-.285-1.099-.682-1.44-1.175-.34-.511-.53-1.06-.53-1.667h1.724c.019.587.246 1.042.682 1.364.435.341 1.004.511 1.704.511.644 0 1.156-.132 1.554-.397.397-.266.587-.607.587-1.042zM305.375 537.937c-1.364 0-2.462-.454-3.315-1.345-.852-.89-1.288-2.083-1.288-3.58v-.303c0-1.004.19-1.875.568-2.652.38-.795.91-1.402 1.592-1.837a4.048 4.048 0 012.216-.663c1.307 0 2.31.435 3.05 1.288.72.852 1.08 2.083 1.08 3.675v.72h-6.782c.019.984.303 1.78.852 2.386.569.606 1.27.91 2.103.91.606 0 1.118-.114 1.553-.36a4.511 4.511 0 001.099-.985l1.042.814c-.834 1.288-2.103 1.932-3.77 1.932zm-.227-8.979c-.682 0-1.27.247-1.724.758-.474.493-.758 1.212-.871 2.103h5v-.114c-.037-.871-.284-1.553-.7-2.027-.417-.473-.985-.72-1.705-.72zM561.444 225.235h-1.78l-6.782-10.38v10.38h-1.78v-13.468h1.78l6.8 10.418v-10.418h1.762v13.468zM563.867 220.14c0-.985.208-1.857.587-2.652a4.258 4.258 0 011.61-1.8c.682-.436 1.477-.644 2.349-.644 1.364 0 2.462.474 3.315 1.42.833.929 1.25 2.198 1.25 3.751v.133c0 .966-.17 1.837-.55 2.614-.378.777-.909 1.383-1.61 1.819-.682.416-1.477.644-2.386.644-1.345 0-2.444-.474-3.296-1.421-.834-.947-1.27-2.197-1.27-3.75v-.114zm1.723.208c0 1.099.265 1.989.777 2.67.511.664 1.212 1.005 2.065 1.005.871 0 1.572-.341 2.083-1.023.512-.682.758-1.63.758-2.86 0-1.099-.265-1.99-.777-2.671-.53-.682-1.212-1.023-2.083-1.023-.834 0-1.516.34-2.046 1.004-.512.682-.777 1.648-.777 2.898zM577.454 212.809v2.425h1.876v1.326h-1.876v6.194c0 .398.076.7.246.909.17.19.455.303.853.303.19 0 .473-.038.814-.114v1.383a4.64 4.64 0 01-1.307.19c-.776 0-1.345-.228-1.742-.701-.38-.455-.569-1.118-.569-1.97v-6.194h-1.837v-1.326h1.837v-2.425h1.705zM587.506 225.235c-.113-.19-.19-.55-.246-1.06-.796.833-1.743 1.25-2.86 1.25-.985 0-1.78-.285-2.425-.834-.625-.568-.947-1.269-.947-2.121 0-1.042.398-1.857 1.193-2.444.796-.568 1.913-.852 3.334-.852h1.667v-.796c0-.587-.17-1.08-.53-1.42-.36-.36-.89-.531-1.573-.531-.625 0-1.136.151-1.534.455-.417.303-.625.681-.625 1.117h-1.724c0-.492.17-.985.53-1.44.36-.473.834-.833 1.44-1.117a5 5 0 012.008-.398c1.156 0 2.046.284 2.709.871.644.569.985 1.364 1.023 2.368v4.603c0 .929.114 1.667.34 2.198v.151h-1.78zm-2.841-1.307c.53 0 1.042-.132 1.515-.417a2.382 2.382 0 001.042-1.08v-2.045h-1.326c-2.103 0-3.144.606-3.144 1.837 0 .53.17.947.53 1.25.36.304.815.455 1.383.455zM596.465 216.768a4.08 4.08 0 00-.852-.076c-1.118 0-1.876.493-2.274 1.44v7.103h-1.723v-10.001h1.667l.038 1.155c.549-.89 1.344-1.345 2.386-1.345.322 0 .588.038.758.133v1.59zM599.9 225.235h-1.723v-10.001h1.724v10.001zm-1.856-12.653c0-.285.076-.512.247-.72.17-.19.416-.284.757-.284s.588.094.758.284c.17.208.265.435.265.72a.992.992 0 01-.265.682c-.17.189-.417.284-.758.284-.34 0-.587-.095-.757-.284a.976.976 0 01-.247-.682zM604.232 223.833h5.854v1.402h-7.937v-1.25l5.512-7.35h-5.436v-1.401h7.596v1.212l-5.589 7.387zM616.178 225.425c-1.364 0-2.463-.455-3.315-1.345-.853-.89-1.288-2.084-1.288-3.58v-.304c0-1.003.19-1.875.568-2.651.379-.796.91-1.402 1.591-1.838a4.048 4.048 0 012.216-.663c1.307 0 2.311.436 3.05 1.288.72.853 1.08 2.084 1.08 3.675v.72h-6.782c.02.985.303 1.78.853 2.387.568.606 1.269.909 2.102.909.607 0 1.118-.114 1.554-.36a4.511 4.511 0 001.098-.985l1.042.814c-.833 1.289-2.102 1.933-3.77 1.933zm-.228-8.98c-.682 0-1.269.247-1.723.759-.474.492-.758 1.212-.872 2.102h5.001v-.113c-.038-.872-.284-1.554-.7-2.027-.418-.474-.986-.72-1.706-.72z" fill="#fff" fill-rule="nonzero"/>
    <path fill="#0c4898" stroke="#0c71ff" stroke-width="2" d="M17727.2 12792.4h206.354v63.254H17727.2z" transform="matrix(.74902 0 0 1 -12834.288 -12323.623)"/>
    <path d="M500.414 501.746v5h-2.94v-14.22h5.56c1.06 0 2 .2 2.82.58.8.4 1.42.96 1.86 1.68.44.72.66 1.54.66 2.44 0 1.4-.48 2.5-1.44 3.3-.94.8-2.26 1.22-3.96 1.22h-2.56zm0-2.38h2.62c.78 0 1.36-.18 1.76-.54.42-.38.62-.9.62-1.58s-.2-1.26-.62-1.68c-.4-.44-.98-.66-1.7-.66h-2.68v4.46zM516.134 498.826a6.5 6.5 0 00-1.02-.08c-1.06 0-1.76.36-2.1 1.08v6.92h-2.82v-10.56h2.68l.06 1.26c.58-.98 1.36-1.46 2.36-1.46.32 0 .6.04.88.12l-.04 2.72zM516.654 501.366c0-1.04.2-1.98.62-2.8.4-.82.98-1.46 1.74-1.9.76-.46 1.64-.68 2.64-.68 1.42 0 2.58.44 3.48 1.3.9.88 1.42 2.06 1.52 3.56l.02.72c0 1.62-.46 2.92-1.36 3.9-.9.98-2.12 1.48-3.64 1.48s-2.74-.5-3.66-1.46c-.9-.98-1.36-2.32-1.36-4v-.12zm2.82.2c0 1 .2 1.78.58 2.3.38.54.92.8 1.62.8.68 0 1.22-.26 1.6-.78.38-.54.58-1.36.58-2.52 0-.98-.2-1.74-.58-2.28-.38-.54-.92-.82-1.62-.82-.7 0-1.22.28-1.6.8-.38.54-.58 1.38-.58 2.5zM527.954 501.366c0-1.04.2-1.98.62-2.8.4-.82.98-1.46 1.74-1.9.76-.46 1.64-.68 2.64-.68 1.42 0 2.58.44 3.48 1.3.9.88 1.42 2.06 1.52 3.56l.02.72c0 1.62-.46 2.92-1.36 3.9-.9.98-2.12 1.48-3.64 1.48s-2.74-.5-3.66-1.46c-.9-.98-1.36-2.32-1.36-4v-.12zm2.82.2c0 1 .2 1.78.58 2.3.38.54.92.8 1.62.8.68 0 1.22-.26 1.6-.78.38-.54.58-1.36.58-2.52 0-.98-.2-1.74-.58-2.28-.38-.54-.92-.82-1.62-.82-.7 0-1.22.28-1.6.8-.38.54-.58 1.38-.58 2.5zM540.474 506.746v-8.5h-1.58v-2.06h1.58v-.9c0-1.18.34-2.1 1.02-2.76.68-.66 1.62-.98 2.86-.98.38 0 .86.06 1.42.2l-.02 2.18c-.24-.06-.52-.1-.86-.1-1.06 0-1.6.5-1.6 1.5v.86h2.1v2.06h-2.1v8.5h-2.82z" fill="#fff" fill-rule="nonzero"/>
    <path d="M85.214 178.983l115.128.027L275 206.687" fill="none" stroke="#999" stroke-width=".94" stroke-linecap="butt" stroke-linejoin="miter" transform="matrix(1.44324 0 0 1.44324 43.824 190.178)"/>
    <path d="M836.115 138.6l11.329 13.216-11.329-13.216zM836.115 138.6l11.329 13.216-11.329-13.216zM835.73 138.856l-11.33 13.217 11.33-13.217z" fill="none" stroke="#999" stroke-width="1.88" transform="matrix(-.24743 .6773 -.6773 -.24743 741.218 -43.503)"/>
    <g>
        <path d="M116.58 178.983l83.762.027L275 206.687" fill="none" stroke="#999" stroke-width=".94" stroke-linecap="butt" stroke-linejoin="miter" transform="matrix(1.44324 0 0 -1.44324 43.824 810.86)"/>
    </g>
    <g>
        <path d="M836.115 138.6l11.329 13.216-11.329-13.216zM836.115 138.6l11.329 13.216-11.329-13.216zM835.73 138.856l-11.33 13.217 11.33-13.217z" fill="none" stroke="#999" stroke-width="1.88" transform="matrix(-.24743 -.6773 -.6773 .24743 741.218 1044.542)"/>
    </g>
    <g>
        <path d="M83.828 178.983l113.653.033" fill="none" stroke="#999" stroke-width=".94" stroke-linecap="butt" stroke-linejoin="miter" transform="matrix(1.44324 0 0 1.44324 45.702 -20.887)"/>
    </g>
    <g>
        <path d="M83.828 178.983l113.653.033 60.757 117.662" fill="none" stroke="#999" stroke-width=".94" stroke-linecap="butt" stroke-linejoin="miter" transform="matrix(1.44324 0 0 1.44324 45.702 -225.85)"/>
    </g>
    <g>
        <path d="M83.828 191.455l113.653.033 60.757 105.19" fill="none" stroke="#999" stroke-width=".94" stroke-linecap="butt" stroke-linejoin="miter" transform="matrix(1.44324 0 0 -1.44324 45.702 696.796)"/>
    </g>
    <g>
        <path d="M83.828 178.983l115.712-.002 25.063 47.814" fill="none" stroke="#999" stroke-width=".94" stroke-linecap="butt" stroke-linejoin="miter" transform="matrix(1.44324 0 0 1.44324 45.702 -124.506)"/>
    </g>
    <g>
        <path d="M83.828 178.983l115.712-.002 25.063 47.814" fill="none" stroke="#999" stroke-width=".94" stroke-linecap="butt" stroke-linejoin="miter" transform="matrix(1.44324 0 0 -1.44324 45.702 595.659)"/>
    </g>
    <g>
        <path d="M836.115 138.6l11.329 13.216-11.329-13.216zM836.115 138.6l11.329 13.216-11.329-13.216zM835.73 138.856l-11.33 13.217 11.33-13.217z" fill="none" stroke="#999" stroke-width="1.88" transform="matrix(0 .72108 -.72107 0 432.12 -365.326)"/>
    </g>
    <g>
        <path d="M836.115 138.6l11.329 13.216-11.329-13.216zM836.115 138.6l11.329 13.216-11.329-13.216zM835.73 138.856l-11.33 13.217 11.33-13.217z" fill="none" stroke="#999" stroke-width="1.88" transform="matrix(-.64763 .31705 -.31705 -.64763 955.05 27.265)"/>
    </g>
    <g>
        <path d="M836.115 138.6l11.329 13.216-11.329-13.216zM836.115 138.6l11.329 13.216-11.329-13.216zM835.73 138.856l-11.33 13.217 11.33-13.217z" fill="none" stroke="#999" stroke-width="1.88" transform="matrix(-.64763 -.31705 -.31705 .64763 955.156 443.681)"/>
    </g>
    <g>
        <path d="M836.115 138.6l11.329 13.216-11.329-13.216zM836.115 138.6l11.329 13.216-11.329-13.216zM835.73 138.856l-11.33 13.217 11.33-13.217z" fill="none" stroke="#999" stroke-width="1.88" transform="matrix(-.64763 .31705 -.31705 -.64763 1003.674 27.265)"/>
    </g>
    <g>
        <path d="M836.115 138.6l11.329 13.216-11.329-13.216zM836.115 138.6l11.329 13.216-11.329-13.216zM835.73 138.856l-11.33 13.217 11.33-13.217z" fill="none" stroke="#999" stroke-width="1.88" transform="matrix(-.64763 -.31705 -.31705 .64763 1003.886 443.681)"/>
    </g>
    <g>
        <path fill="#0c4898" stroke="#0c71ff" stroke-width="2" d="M17727.2 12792.4h206.354v63.254H17727.2z" transform="matrix(.79163 0 0 1 -14032.487 -12791.503)"/>
    </g>
    <g>
        <path fill="#0c4898" stroke="#0c71ff" stroke-width="2" d="M17727.2 12792.4h206.354v63.254H17727.2z" transform="matrix(.79163 0 0 1 -14032.487 -12689.993)"/>
        <path d="M72.796 136.905c0-.92.12-1.64.34-2.18.22-.54.62-1.08 1.22-1.6.58-.52.98-.96 1.18-1.28.18-.32.28-.68.28-1.04 0-1.1-.5-1.64-1.52-1.64-.48 0-.86.14-1.16.44-.28.3-.44.7-.44 1.22h-2.84c.02-1.24.42-2.22 1.2-2.92.8-.7 1.88-1.06 3.24-1.06 1.38 0 2.46.34 3.22 1 .76.68 1.14 1.62 1.14 2.84 0 .54-.12 1.06-.38 1.56-.24.5-.68 1.04-1.3 1.64l-.78.74c-.5.48-.78 1.04-.86 1.68l-.04.6h-2.5zm-.28 3c0-.44.16-.8.44-1.08.3-.28.68-.44 1.14-.44.46 0 .84.16 1.14.44.3.28.44.64.44 1.08 0 .42-.14.78-.42 1.06-.3.28-.68.42-1.16.42-.46 0-.86-.14-1.14-.42-.28-.28-.44-.64-.44-1.06zM95.036 141.265h-9.76v-1.94l4.6-4.9c.64-.68 1.1-1.28 1.4-1.8.32-.52.46-1 .46-1.46 0-.64-.16-1.14-.48-1.5-.32-.36-.78-.54-1.36-.54-.64 0-1.14.22-1.52.66-.36.44-.54 1.02-.54 1.74h-2.84c0-.88.22-1.66.62-2.38.42-.72 1-1.28 1.76-1.68.76-.42 1.6-.62 2.56-.62 1.46 0 2.6.36 3.42 1.06.8.7 1.22 1.7 1.22 2.98 0 .7-.18 1.42-.56 2.14-.36.74-.98 1.58-1.86 2.56l-3.24 3.4h6.12v2.28z" fill="#fff" fill-rule="nonzero"/>
    </g>
    <g>
        <path fill="#0c4898" stroke="#0c71ff" stroke-width="2" d="M17727.2 12792.4h206.354v63.254H17727.2z" transform="matrix(.79163 0 0 1 -14032.487 -12588.473)"/>
        <path d="M72.796 238.426c0-.92.12-1.64.34-2.18.22-.54.62-1.08 1.22-1.6.58-.52.98-.96 1.18-1.28.18-.32.28-.68.28-1.04 0-1.1-.5-1.64-1.52-1.64-.48 0-.86.14-1.16.44-.28.3-.44.7-.44 1.22h-2.84c.02-1.24.42-2.22 1.2-2.92.8-.7 1.88-1.06 3.24-1.06 1.38 0 2.46.34 3.22 1 .76.68 1.14 1.62 1.14 2.84 0 .54-.12 1.06-.38 1.56-.24.5-.68 1.04-1.3 1.64l-.78.74c-.5.48-.78 1.04-.86 1.68l-.04.6h-2.5zm-.28 3c0-.44.16-.8.44-1.08.3-.28.68-.44 1.14-.44.46 0 .84.16 1.14.44.3.28.44.64.44 1.08 0 .42-.14.78-.42 1.06-.3.28-.68.42-1.16.42-.46 0-.86-.14-1.14-.42-.28-.28-.44-.64-.44-1.06zM88.156 234.426h1.5c.72 0 1.24-.18 1.6-.54.34-.36.52-.82.52-1.42 0-.58-.18-1.02-.52-1.34-.34-.32-.82-.48-1.42-.48-.54 0-.98.14-1.36.44-.36.3-.54.68-.54 1.16h-2.82c0-.74.2-1.4.6-2 .4-.58.96-1.04 1.68-1.38.72-.32 1.52-.5 2.38-.5 1.5 0 2.68.36 3.54 1.08.84.72 1.28 1.72 1.28 2.98 0 .64-.2 1.24-.6 1.8-.4.54-.92.96-1.56 1.26.8.28 1.4.72 1.78 1.28.4.58.6 1.26.6 2.04 0 1.26-.46 2.28-1.38 3.04-.92.76-2.14 1.14-3.66 1.14-1.42 0-2.58-.38-3.48-1.12-.9-.76-1.36-1.74-1.36-2.98h2.82c0 .54.2.98.6 1.32.4.34.9.5 1.48.5.68 0 1.2-.18 1.58-.54.38-.34.58-.82.58-1.4 0-1.42-.78-2.14-2.34-2.14h-1.5v-2.2z" fill="#fff" fill-rule="nonzero"/>
    </g>
    <g>
        <path fill="#0c4898" stroke="#0c71ff" stroke-width="2" d="M17727.2 12792.4h206.354v63.254H17727.2z" transform="matrix(.79163 0 0 1 -13352.215 -12588.546)"/>
    </g>
    <g>
        <path fill="#0c4898" stroke="#0c71ff" stroke-width="2" d="M17727.2 12792.4h206.354v63.254H17727.2z" transform="matrix(.79163 0 0 .90689 -13696.133 -11394.42)"/>
    </g>
    <g>
        <path fill="#0c4898" stroke="#0c71ff" stroke-width="2" d="M17727.2 12792.4h206.354v63.254H17727.2z" transform="matrix(.79163 0 0 1 -14032.487 -12486.951)"/>
        <path d="M72.796 339.948c0-.92.12-1.64.34-2.18.22-.54.62-1.08 1.22-1.6.58-.52.98-.96 1.18-1.28.18-.32.28-.68.28-1.04 0-1.1-.5-1.64-1.52-1.64-.48 0-.86.14-1.16.44-.28.3-.44.7-.44 1.22h-2.84c.02-1.24.42-2.22 1.2-2.92.8-.7 1.88-1.06 3.24-1.06 1.38 0 2.46.34 3.22 1 .76.68 1.14 1.62 1.14 2.84 0 .54-.12 1.06-.38 1.56-.24.5-.68 1.04-1.3 1.64l-.78.74c-.5.48-.78 1.04-.86 1.68l-.04.6h-2.5zm-.28 3c0-.44.16-.8.44-1.08.3-.28.68-.44 1.14-.44.46 0 .84.16 1.14.44.3.28.44.64.44 1.08 0 .42-.14.78-.42 1.06-.3.28-.68.42-1.16.42-.46 0-.86-.14-1.14-.42-.28-.28-.44-.64-.44-1.06zM93.636 338.948h1.6v2.28h-1.6v3.08h-2.82v-3.08h-5.84l-.12-1.78 5.92-9.36h2.86v8.86zm-5.98 0h3.16v-5.02l-.2.34-2.96 4.68z" fill="#fff" fill-rule="nonzero"/>
    </g>
    <g>
        <path fill="#0c4898" stroke="#0c71ff" stroke-width="2" d="M17727.2 12792.4h206.354v63.254H17727.2z" transform="matrix(.79163 0 0 1 -14032.487 -12385.44)"/>
        <path d="M59.716 440.82v5h-2.94V431.6h5.56c1.06 0 2 .2 2.82.58.8.4 1.42.96 1.86 1.68.44.72.66 1.54.66 2.44 0 1.4-.48 2.5-1.44 3.3-.94.8-2.26 1.22-3.96 1.22h-2.56zm0-2.38h2.62c.78 0 1.36-.18 1.76-.54.42-.38.62-.9.62-1.58s-.2-1.26-.62-1.68c-.4-.44-.98-.66-1.7-.66h-2.68v4.46zM75.516 445.82c-.12-.26-.22-.56-.28-.94-.68.76-1.56 1.14-2.66 1.14-1.04 0-1.9-.3-2.58-.9-.68-.6-1.02-1.36-1.02-2.26 0-1.12.42-1.98 1.24-2.58.84-.6 2.04-.9 3.6-.92h1.3v-.6c0-.48-.12-.88-.36-1.18-.26-.28-.66-.44-1.2-.44-.48 0-.84.12-1.12.34-.26.24-.4.56-.4.94h-2.82c0-.6.18-1.18.56-1.7.38-.52.92-.92 1.6-1.22.7-.3 1.48-.44 2.34-.44 1.3 0 2.32.32 3.1.98.76.66 1.14 1.58 1.14 2.76v4.58c0 1 .14 1.76.42 2.28v.16h-2.86zm-2.32-1.96c.4 0 .8-.1 1.14-.28.36-.18.62-.44.78-.74v-1.82h-1.04c-1.42 0-2.18.48-2.26 1.46l-.02.16c0 .36.14.64.38.88.24.22.58.34 1.02.34zM86.036 437.9a6.5 6.5 0 00-1.02-.08c-1.06 0-1.76.36-2.1 1.08v6.92h-2.82v-10.56h2.68l.06 1.26c.58-.98 1.36-1.46 2.36-1.46.32 0 .6.04.88.12l-.04 2.72zM91.276 432.66v2.6h1.8v2.06h-1.8v5.28c0 .38.08.66.22.84.16.16.44.26.86.26.32 0 .6-.04.84-.08v2.14c-.56.18-1.12.26-1.72.26-1.98 0-2.98-1-3.02-3v-5.7h-1.54v-2.06h1.54v-2.6h2.82zM108.336 439.66h-5.62v3.8h6.6v2.36h-9.54V431.6h9.52v2.38h-6.58v3.38h5.62v2.3z" fill="#fff" fill-rule="nonzero"/>
    </g>
    <g>
        <path fill="#0c4898" stroke="#f67069" stroke-width="2" d="M17727.2 12792.4h206.354v63.254H17727.2z" transform="matrix(.99658 0 0 1 -17665.65 -12273.11)"/>
        <path d="M40.337 554.408c0-.54-.2-.96-.58-1.26-.4-.3-1.1-.62-2.12-.94-1-.34-1.82-.66-2.4-.98-1.62-.86-2.42-2.04-2.42-3.52 0-.76.2-1.46.64-2.06.44-.6 1.06-1.06 1.86-1.4.82-.34 1.72-.52 2.74-.52 1.02 0 1.92.18 2.72.56.78.36 1.4.88 1.84 1.56.44.66.66 1.42.66 2.28h-2.92c0-.66-.22-1.16-.62-1.52-.42-.36-.98-.54-1.74-.54-.7 0-1.26.16-1.66.46-.4.3-.6.7-.6 1.2 0 .46.24.84.7 1.16.46.3 1.16.6 2.06.88 1.66.5 2.88 1.12 3.64 1.86.76.74 1.14 1.66 1.14 2.76 0 1.24-.46 2.2-1.4 2.9-.92.7-2.18 1.06-3.76 1.06-1.08 0-2.08-.2-2.98-.6-.9-.4-1.58-.96-2.06-1.66-.48-.68-.7-1.5-.7-2.42h2.94c0 1.58.94 2.36 2.8 2.36.7 0 1.24-.14 1.64-.42.38-.28.58-.68.58-1.2zM44.637 552.768c0-1.04.2-1.98.62-2.8.4-.82.98-1.46 1.74-1.9.76-.46 1.64-.68 2.64-.68 1.42 0 2.58.44 3.48 1.3.9.88 1.42 2.06 1.52 3.56l.02.72c0 1.62-.46 2.92-1.36 3.9-.9.98-2.12 1.48-3.64 1.48s-2.74-.5-3.66-1.46c-.9-.98-1.36-2.32-1.36-4v-.12zm2.82.2c0 1 .2 1.78.58 2.3.38.54.92.8 1.62.8.68 0 1.22-.26 1.6-.78.38-.54.58-1.36.58-2.52 0-.98-.2-1.74-.58-2.28-.38-.54-.92-.82-1.62-.82-.7 0-1.22.28-1.6.8-.38.54-.58 1.38-.58 2.5zM59.037 547.588l.08 1.18c.74-.92 1.76-1.38 3.04-1.38 1.36 0 2.3.54 2.8 1.6.74-1.06 1.8-1.6 3.18-1.6 1.14 0 2 .34 2.56 1 .56.66.84 1.68.84 3.02v6.74h-2.84v-6.74c0-.6-.12-1.04-.36-1.32-.22-.26-.64-.4-1.24-.4-.84 0-1.42.4-1.76 1.2l.02 7.26h-2.82v-6.72c0-.62-.12-1.06-.36-1.34s-.66-.4-1.24-.4c-.8 0-1.38.32-1.74.98v7.48h-2.82v-10.56h2.66zM78.537 558.348c-1.54 0-2.8-.48-3.78-1.44-.98-.94-1.46-2.2-1.46-3.78v-.28c0-1.06.2-2.02.62-2.84.4-.84.98-1.5 1.74-1.94.76-.46 1.62-.68 2.58-.68 1.44 0 2.58.46 3.4 1.36.84.92 1.26 2.2 1.26 3.88v1.16h-6.74c.1.68.38 1.24.82 1.66.46.42 1.04.62 1.76.62 1.08 0 1.92-.4 2.54-1.18l1.38 1.56c-.42.58-.98 1.06-1.72 1.4-.72.32-1.52.5-2.4.5zm-.32-8.68c-.56 0-1 .2-1.36.56-.34.38-.56.92-.66 1.64h3.92v-.24c-.02-.62-.18-1.1-.5-1.44-.34-.34-.8-.52-1.4-.52zM87.857 544.988v2.6h1.8v2.06h-1.8v5.28c0 .38.08.66.22.84.16.16.44.26.86.26.32 0 .6-.04.84-.08v2.14c-.56.18-1.12.26-1.72.26-1.98 0-2.98-1-3.02-3v-5.7h-1.54v-2.06h1.54v-2.6h2.82zM93.937 548.728c.74-.9 1.68-1.34 2.82-1.34 2.3 0 3.46 1.32 3.48 4v6.76h-2.82v-6.68c0-.62-.12-1.06-.38-1.36-.26-.28-.7-.42-1.3-.42-.84 0-1.44.32-1.8.96v7.5h-2.82v-15h2.82v5.58zM105.357 558.148h-2.82v-10.56h2.82v10.56zm-3-13.3c0-.42.14-.78.42-1.04.3-.28.68-.42 1.16-.42.48 0 .88.14 1.16.42.28.26.42.62.42 1.04 0 .42-.14.78-.42 1.06-.3.26-.68.4-1.16.4-.46 0-.86-.14-1.14-.4-.3-.28-.44-.64-.44-1.06zM110.277 547.588l.08 1.22c.76-.94 1.78-1.42 3.04-1.42 1.12 0 1.96.32 2.5.98.56.66.84 1.64.84 2.96v6.82h-2.82v-6.76c0-.6-.12-1.04-.38-1.3-.26-.28-.7-.4-1.3-.4-.8 0-1.4.34-1.8 1v7.46h-2.82v-10.56h2.66zM118.477 552.788c0-1.62.38-2.92 1.16-3.92.76-.98 1.8-1.48 3.12-1.48 1.16 0 2.06.4 2.7 1.18l.12-.98h2.56v10.2c0 .94-.22 1.74-.64 2.42-.42.68-1 1.2-1.78 1.56-.76.36-1.64.54-2.66.54-.78 0-1.54-.16-2.28-.46-.72-.32-1.28-.72-1.66-1.2l1.24-1.72c.72.78 1.56 1.18 2.56 1.18.76 0 1.34-.2 1.76-.6.42-.4.62-.96.62-1.7v-.56c-.66.72-1.5 1.1-2.56 1.1-1.28 0-2.3-.5-3.08-1.5-.8-.98-1.18-2.3-1.18-3.94v-.12zm2.82.2c0 .96.18 1.72.58 2.26.38.54.9.82 1.58.82.86 0 1.46-.34 1.84-.98v-4.44c-.38-.64-.98-.96-1.82-.96-.68 0-1.22.26-1.6.82-.4.56-.58 1.38-.58 2.48zM129.297 558.148h8.9v2.2h-8.9zM148.017 551.988h-5.62v3.8h6.6v2.36h-9.54v-14.22h9.52v2.38h-6.58v3.38h5.62v2.3zM150.637 543.148h2.84v15h-2.84zM161.497 555.228c0-.34-.16-.62-.5-.82-.34-.2-.9-.38-1.66-.52-2.5-.54-3.76-1.6-3.76-3.22 0-.92.38-1.72 1.16-2.34.78-.62 1.8-.94 3.06-.94 1.34 0 2.42.32 3.22.94.8.64 1.2 1.46 1.2 2.46h-2.82c0-.4-.14-.74-.4-1s-.66-.4-1.22-.4c-.46 0-.84.12-1.1.34-.26.2-.38.48-.38.82 0 .3.14.56.44.74.3.2.8.36 1.5.5s1.3.3 1.78.48c1.48.54 2.24 1.5 2.24 2.84 0 .96-.42 1.74-1.24 2.34-.84.6-1.9.9-3.22.9-.88 0-1.66-.16-2.36-.48-.68-.32-1.22-.74-1.6-1.3-.4-.54-.6-1.14-.6-1.78h2.68c.02.5.22.88.56 1.16.34.26.8.4 1.38.4.54 0 .96-.1 1.24-.32.26-.2.4-.46.4-.8zM170.937 558.348c-1.54 0-2.8-.48-3.78-1.44-.98-.94-1.46-2.2-1.46-3.78v-.28c0-1.06.2-2.02.62-2.84.4-.84.98-1.5 1.74-1.94.76-.46 1.62-.68 2.58-.68 1.44 0 2.58.46 3.4 1.36.84.92 1.26 2.2 1.26 3.88v1.16h-6.74c.1.68.38 1.24.82 1.66.46.42 1.04.62 1.76.62 1.08 0 1.92-.4 2.54-1.18l1.38 1.56c-.42.58-.98 1.06-1.72 1.4-.72.32-1.52.5-2.4.5zm-.32-8.68c-.56 0-1 .2-1.36.56-.34.38-.56.92-.66 1.64h3.92v-.24c-.02-.62-.18-1.1-.5-1.44-.34-.34-.8-.52-1.4-.52z" fill="#fff" fill-rule="nonzero"/>
    </g>
    <g>
        <path d="M72.796 35.396c0-.92.12-1.64.34-2.18.22-.54.62-1.08 1.22-1.6.58-.52.98-.96 1.18-1.28.18-.32.28-.68.28-1.04 0-1.1-.5-1.64-1.52-1.64-.48 0-.86.14-1.16.44-.28.3-.44.7-.44 1.22h-2.84c.02-1.24.42-2.22 1.2-2.92.8-.7 1.88-1.06 3.24-1.06 1.38 0 2.46.34 3.22 1 .76.68 1.14 1.62 1.14 2.84 0 .54-.12 1.06-.38 1.56-.24.5-.68 1.04-1.3 1.64l-.78.74c-.5.48-.78 1.04-.86 1.68l-.04.6h-2.5zm-.28 3c0-.44.16-.8.44-1.08.3-.28.68-.44 1.14-.44.46 0 .84.16 1.14.44.3.28.44.64.44 1.08 0 .42-.14.78-.42 1.06-.3.28-.68.42-1.16.42-.46 0-.86-.14-1.14-.42-.28-.28-.44-.64-.44-1.06zM92.136 39.756h-2.82v-10.88l-3.36 1.04v-2.28l5.88-2.12h.3v14.24z" fill="#fff" fill-rule="nonzero"/>
    </g>
    <g>
        <path fill="#fff" fill-rule="nonzero" d="M731.852 228.493h2.92v14.22h-2.92zM740.032 232.153l.08 1.18c.74-.92 1.76-1.38 3.04-1.38 1.36 0 2.3.54 2.8 1.6.74-1.06 1.8-1.6 3.18-1.6 1.14 0 2 .34 2.56 1 .56.66.84 1.68.84 3.02v6.74h-2.84v-6.74c0-.6-.12-1.04-.36-1.32-.22-.26-.64-.4-1.24-.4-.84 0-1.42.4-1.76 1.2l.02 7.26h-2.82v-6.72c0-.62-.12-1.06-.36-1.34s-.66-.4-1.24-.4c-.8 0-1.38.32-1.74.98v7.48h-2.82v-10.56h2.66zM764.192 237.533c0 1.62-.38 2.92-1.12 3.9-.74.98-1.72 1.48-2.98 1.48-1.08 0-1.94-.38-2.6-1.12v4.98h-2.82v-14.62h2.62l.1 1.02c.68-.82 1.58-1.22 2.68-1.22 1.3 0 2.3.48 3.04 1.44.72.96 1.08 2.3 1.08 3.98v.16zm-2.82-.22c0-.98-.18-1.74-.52-2.26-.36-.54-.86-.8-1.52-.8-.9 0-1.5.34-1.84 1v4.34c.36.7.96 1.04 1.86 1.04 1.34 0 2.02-1.1 2.02-3.32zM771.812 234.793a6.5 6.5 0 00-1.02-.08c-1.06 0-1.76.36-2.1 1.08v6.92h-2.82v-10.56h2.68l.06 1.26c.58-.98 1.36-1.46 2.36-1.46.32 0 .6.04.88.12l-.04 2.72zM776.152 242.713h-2.82v-10.56h2.82v10.56zm-3-13.3c0-.42.14-.78.42-1.04.3-.28.68-.42 1.16-.42.48 0 .88.14 1.16.42.28.26.42.62.42 1.04 0 .42-.14.78-.42 1.06-.3.26-.68.4-1.16.4-.46 0-.86-.14-1.14-.4-.3-.28-.44-.64-.44-1.06zM781.072 232.153l.08 1.22c.76-.94 1.78-1.42 3.04-1.42 1.12 0 1.96.32 2.5.98.56.66.84 1.64.84 2.96v6.82h-2.82v-6.76c0-.6-.12-1.04-.38-1.3-.26-.28-.7-.4-1.3-.4-.8 0-1.4.34-1.8 1v7.46h-2.82v-10.56h2.66zM793.052 229.553v2.6h1.8v2.06h-1.8v5.28c0 .38.08.66.22.84.16.16.44.26.86.26.32 0 .6-.04.84-.08v2.14c-.56.18-1.12.26-1.72.26-1.98 0-2.98-1-3.02-3v-5.7h-1.54v-2.06h1.54v-2.6h2.82z"/>
    </g>
    <g>
        <path d="M417.354 238.353c0-.92.12-1.64.34-2.18.22-.54.62-1.08 1.22-1.6.58-.52.98-.96 1.18-1.28.18-.32.28-.68.28-1.04 0-1.1-.5-1.64-1.52-1.64-.48 0-.86.14-1.16.44-.28.3-.44.7-.44 1.22h-2.84c.02-1.24.42-2.22 1.2-2.92.8-.7 1.88-1.06 3.24-1.06 1.38 0 2.46.34 3.22 1 .76.68 1.14 1.62 1.14 2.84 0 .54-.12 1.06-.38 1.56-.24.5-.68 1.04-1.3 1.64l-.78.74c-.5.48-.78 1.04-.86 1.68l-.04.6h-2.5zm-.28 3c0-.44.16-.8.44-1.08.3-.28.68-.44 1.14-.44.46 0 .84.16 1.14.44.3.28.44.64.44 1.08 0 .42-.14.78-.42 1.06-.3.28-.68.42-1.16.42-.46 0-.86-.14-1.14-.42-.28-.28-.44-.64-.44-1.06z" fill="#fff" fill-rule="nonzero"/>
    </g>
    <g>
        <path d="M83.828 178.983l113.653.033" fill="none" stroke="#999" stroke-width=".94" stroke-linecap="butt" stroke-linejoin="miter" transform="matrix(1.44324 0 0 1.44324 385.05 -20.965)"/>
        <path d="M836.115 138.6l11.329 13.216-11.329-13.216zM835.73 138.856l-11.33 13.217 11.33-13.217z" fill="none" stroke="#999" stroke-width="1.88" transform="matrix(0 .72107 -.72107 0 771.394 -365.329)"/>
    </g>
    <g>
        <path d="M836.115 138.6l11.329 13.216-11.329-13.216z" fill="none" stroke="#999" stroke-width="1.88" transform="matrix(0 .72107 -.72107 0 432.047 -365.457)"/>
    </g>
</svg>
