<svg width="697" viewBox="0 0 697 66" xmlns="http://www.w3.org/2000/svg" fill-rule="evenodd" clip-rule="evenodd" stroke-linecap="round" stroke-linejoin="round">
    <path d="M319.806 21.94h-1.78l-6.782-10.381v10.38h-1.78V8.471h1.78l6.8 10.419V8.47h1.762V21.94zM322.229 16.844c0-.985.208-1.857.587-2.652a4.258 4.258 0 011.61-1.8c.682-.435 1.478-.644 2.349-.644 1.364 0 2.463.474 3.315 1.42.833.93 1.25 2.198 1.25 3.752v.132c0 .966-.17 1.838-.55 2.614-.378.777-.908 1.383-1.61 1.819-.681.416-1.477.644-2.386.644-1.345 0-2.444-.474-3.296-1.42-.834-.948-1.27-2.198-1.27-3.752v-.113zm1.724.208c0 1.099.265 1.99.776 2.671.512.663 1.213 1.004 2.065 1.004.871 0 1.572-.341 2.084-1.023.511-.682.757-1.629.757-2.86 0-1.099-.265-1.99-.776-2.671-.53-.682-1.213-1.023-2.084-1.023-.833 0-1.515.341-2.046 1.004-.511.682-.776 1.648-.776 2.898zM335.816 9.513v2.425h1.876v1.326h-1.876v6.194c0 .398.076.7.247.91.17.189.454.302.852.302.19 0 .474-.038.815-.113v1.382a4.64 4.64 0 01-1.307.19c-.777 0-1.345-.228-1.743-.701-.379-.455-.568-1.118-.568-1.97v-6.194h-1.838v-1.326h1.838V9.513h1.704zM345.868 21.94c-.113-.19-.189-.55-.246-1.061-.795.833-1.742 1.25-2.86 1.25-.985 0-1.78-.284-2.425-.834-.625-.568-.947-1.269-.947-2.121 0-1.042.398-1.857 1.194-2.444.795-.568 1.913-.852 3.333-.852h1.667v-.796c0-.587-.17-1.08-.53-1.42-.36-.36-.89-.531-1.572-.531-.625 0-1.137.152-1.535.455-.416.303-.625.682-.625 1.117H339.6c0-.492.17-.985.53-1.44.36-.473.833-.833 1.44-1.117a5 5 0 012.007-.398c1.156 0 2.046.284 2.71.872.643.568.984 1.363 1.022 2.367v4.603c0 .929.114 1.667.341 2.198v.151h-1.78zm-2.84-1.308c.53 0 1.04-.132 1.515-.416a2.382 2.382 0 001.041-1.08V17.09h-1.326c-2.102 0-3.144.606-3.144 1.837 0 .53.17.948.53 1.25.36.304.815.455 1.383.455zM354.827 13.472a4.08 4.08 0 00-.852-.076c-1.118 0-1.875.493-2.273 1.44v7.103h-1.724V11.938h1.667l.038 1.155c.55-.89 1.345-1.345 2.387-1.345.322 0 .587.038.757.133v1.591zM358.263 21.94h-1.724V11.937h1.724v10.001zm-1.856-12.654c0-.284.075-.512.246-.72.17-.19.417-.284.758-.284.34 0 .587.094.757.284.17.208.265.436.265.72a.992.992 0 01-.265.682c-.17.19-.416.284-.757.284s-.588-.095-.758-.284a.976.976 0 01-.246-.682zM362.595 20.538h5.853v1.401h-7.937v-1.25l5.512-7.35h-5.436v-1.401h7.596v1.212l-5.588 7.388zM374.54 22.129c-1.364 0-2.463-.455-3.315-1.345-.852-.89-1.288-2.084-1.288-3.58V16.9c0-1.004.19-1.876.568-2.652.379-.796.91-1.402 1.591-1.838a4.048 4.048 0 012.217-.663c1.307 0 2.31.436 3.05 1.288.72.853 1.08 2.084 1.08 3.675v.72h-6.782c.019.985.303 1.78.852 2.387.568.606 1.27.909 2.103.909.606 0 1.117-.114 1.553-.36a4.511 4.511 0 001.099-.985l1.041.815c-.833 1.288-2.102 1.932-3.77 1.932zm-.227-8.979c-.682 0-1.27.246-1.724.758-.474.492-.758 1.212-.871 2.102h5v-.113c-.038-.872-.284-1.554-.7-2.027-.417-.474-.986-.72-1.705-.72z" fill="#fff" fill-rule="nonzero"/>
    <g>
        <path fill="#226a3c" stroke="#41ff8b" stroke-width="2.26" d="M17727.2 12792.4h206.354v63.254H17727.2z" transform="matrix(1 0 0 1 -17238.568 -12791.304)"/>
    </g>
    <g>
        <path fill="#fff" fill-rule="nonzero" d="M560.71 24.825h2.92v14.22h-2.92zM568.89 28.485l.08 1.18c.74-.92 1.76-1.38 3.04-1.38 1.36 0 2.3.54 2.8 1.6.74-1.06 1.8-1.6 3.18-1.6 1.14 0 2 .34 2.56 1 .56.66.84 1.68.84 3.02v6.74h-2.84v-6.74c0-.6-.12-1.04-.36-1.32-.22-.26-.64-.4-1.24-.4-.84 0-1.42.4-1.76 1.2l.02 7.26h-2.82v-6.72c0-.62-.12-1.06-.36-1.34s-.66-.4-1.24-.4c-.8 0-1.38.32-1.74.98v7.48h-2.82v-10.56h2.66zM593.05 33.865c0 1.62-.38 2.92-1.12 3.9-.74.98-1.72 1.48-2.98 1.48-1.08 0-1.94-.38-2.6-1.12v4.98h-2.82v-14.62h2.62l.1 1.02c.68-.82 1.58-1.22 2.68-1.22 1.3 0 2.3.48 3.04 1.44.72.96 1.08 2.3 1.08 3.98v.16zm-2.82-.22c0-.98-.18-1.74-.52-2.26-.36-.54-.86-.8-1.52-.8-.9 0-1.5.34-1.84 1v4.34c.36.7.96 1.04 1.86 1.04 1.34 0 2.02-1.1 2.02-3.32zM600.67 31.125a6.5 6.5 0 00-1.02-.08c-1.06 0-1.76.36-2.1 1.08v6.92h-2.82v-10.56h2.68l.06 1.26c.58-.98 1.36-1.46 2.36-1.46.32 0 .6.04.88.12l-.04 2.72zM605.01 39.045h-2.82v-10.56h2.82v10.56zm-3-13.3c0-.42.14-.78.42-1.04.3-.28.68-.42 1.16-.42.48 0 .88.14 1.16.42.28.26.42.62.42 1.04 0 .42-.14.78-.42 1.06-.3.26-.68.4-1.16.4-.46 0-.86-.14-1.14-.4-.3-.28-.44-.64-.44-1.06zM609.93 28.485l.08 1.22c.76-.94 1.78-1.42 3.04-1.42 1.12 0 1.96.32 2.5.98.56.66.84 1.64.84 2.96v6.82h-2.82v-6.76c0-.6-.12-1.04-.38-1.3-.26-.28-.7-.4-1.3-.4-.8 0-1.4.34-1.8 1v7.46h-2.82v-10.56h2.66zM621.91 25.885v2.6h1.8v2.06h-1.8v5.28c0 .38.08.66.22.84.16.16.44.26.86.26.32 0 .6-.04.84-.08v2.14c-.56.18-1.12.26-1.72.26-1.98 0-2.98-1-3.02-3v-5.7h-1.54v-2.06h1.54v-2.6h2.82z"/>
    </g>
    <g>
        <path d="M83.828 178.983l191.172.033" fill="none" stroke="#999" stroke-width=".94" stroke-linecap="butt" stroke-linejoin="miter" transform="matrix(1.44324 0 0 1.44324 88.712 -225.469)"/>
        <path d="M836.115 138.6l11.329 13.216-11.329-13.216zM836.115 138.6l11.329 13.216-11.329-13.216zM835.73 138.856l-11.33 13.217 11.33-13.217z" fill="none" stroke="#999" stroke-width="1.88" transform="matrix(0 .72108 -.72107 0 585.09 -569.909)"/>
    </g>
    <g>
        <path fill="#0c4898" stroke="#0c71ff" stroke-width="2" d="M17727.2 12792.4h206.354v63.254H17727.2z" transform="matrix(1 0 0 1 -17726.202 -12791.304)"/>
    </g>
    <g>
        <path d="M59.375 39.955v-14.22h4.38c1.26 0 2.38.28 3.36.84a5.79 5.79 0 012.3 2.4c.56 1.04.84 2.22.84 3.54v.66c0 1.32-.28 2.5-.82 3.52-.54 1.04-1.3 1.84-2.3 2.4-.98.56-2.1.86-3.34.86h-4.42zm2.94-11.84v9.48h1.42c1.14 0 2.02-.36 2.62-1.12.6-.74.92-1.82.92-3.2v-.76c0-1.44-.28-2.54-.88-3.28-.6-.76-1.48-1.12-2.64-1.12h-1.44zM71.755 34.575c0-1.04.2-1.98.62-2.8.4-.82.98-1.46 1.74-1.9.76-.46 1.64-.68 2.64-.68 1.42 0 2.58.44 3.48 1.3.9.88 1.42 2.06 1.52 3.56l.02.72c0 1.62-.46 2.92-1.36 3.9-.9.98-2.12 1.48-3.64 1.48s-2.74-.5-3.66-1.46c-.9-.98-1.36-2.32-1.36-4v-.12zm2.82.2c0 1 .2 1.78.58 2.3.38.54.92.8 1.62.8.68 0 1.22-.26 1.6-.78.38-.54.58-1.36.58-2.52 0-.98-.2-1.74-.58-2.28-.38-.54-.92-.82-1.62-.82-.7 0-1.22.28-1.6.8-.38.54-.58 1.38-.58 2.5zM87.895 37.875c.52 0 .94-.14 1.26-.42.34-.3.5-.68.52-1.16h2.64c0 .72-.2 1.38-.58 1.98-.38.6-.92 1.06-1.58 1.38-.66.34-1.4.5-2.22.5-1.5 0-2.7-.48-3.56-1.44-.88-.96-1.32-2.3-1.32-3.98v-.2c0-1.62.44-2.92 1.3-3.88.86-.98 2.06-1.46 3.56-1.46 1.32 0 2.38.38 3.18 1.12.8.76 1.2 1.76 1.22 3h-2.64c-.02-.54-.18-.98-.52-1.32-.32-.34-.74-.52-1.28-.52-.66 0-1.16.24-1.5.72-.32.48-.5 1.26-.5 2.34v.28c0 1.1.18 1.88.5 2.34.34.48.84.72 1.52.72zM100.235 38.875c-.7.86-1.66 1.28-2.9 1.28-1.14 0-2-.34-2.6-.98-.58-.66-.9-1.6-.9-2.86v-6.92h2.82v6.82c0 1.1.5 1.66 1.5 1.66.96 0 1.62-.34 1.98-1v-7.48h2.82v10.56h-2.64l-.08-1.08zM107.755 29.395l.08 1.18c.74-.92 1.76-1.38 3.04-1.38 1.36 0 2.3.54 2.8 1.6.74-1.06 1.8-1.6 3.18-1.6 1.14 0 2 .34 2.56 1 .56.66.84 1.68.84 3.02v6.74h-2.84v-6.74c0-.6-.12-1.04-.36-1.32-.22-.26-.64-.4-1.24-.4-.84 0-1.42.4-1.76 1.2l.02 7.26h-2.82v-6.72c0-.62-.12-1.06-.36-1.34s-.66-.4-1.24-.4c-.8 0-1.38.32-1.74.98v7.48h-2.82v-10.56h2.66zM127.355 40.155c-1.54 0-2.8-.48-3.78-1.44-.98-.94-1.46-2.2-1.46-3.78v-.28c0-1.06.2-2.02.62-2.84.4-.84.98-1.5 1.74-1.94.76-.46 1.62-.68 2.58-.68 1.44 0 2.58.46 3.4 1.36.84.92 1.26 2.2 1.26 3.88v1.16h-6.74c.1.68.38 1.24.82 1.66.46.42 1.04.62 1.76.62 1.08 0 1.92-.4 2.54-1.18l1.38 1.56c-.42.58-.98 1.06-1.72 1.4-.72.32-1.52.5-2.4.5zm-.32-8.68c-.56 0-1 .2-1.36.56-.34.38-.56.92-.66 1.64h3.92v-.24c-.02-.62-.18-1.1-.5-1.44-.34-.34-.8-.52-1.4-.52zM135.895 29.395l.08 1.22c.76-.94 1.78-1.42 3.04-1.42 1.12 0 1.96.32 2.5.98.56.66.84 1.64.84 2.96v6.82h-2.82v-6.76c0-.6-.12-1.04-.38-1.3-.26-.28-.7-.4-1.3-.4-.8 0-1.4.34-1.8 1v7.46h-2.82v-10.56h2.66zM147.875 26.795v2.6h1.8v2.06h-1.8v5.28c0 .38.08.66.22.84.16.16.44.26.86.26.32 0 .6-.04.84-.08v2.14c-.56.18-1.12.26-1.72.26-1.98 0-2.98-1-3.02-3v-5.7h-1.54v-2.06h1.54v-2.6h2.82z" fill="#fff" fill-rule="nonzero"/>
    </g>
</svg>
