<svg width="846" viewBox="0 0 846 472" xmlns="http://www.w3.org/2000/svg" fill-rule="evenodd" clip-rule="evenodd" stroke-linecap="round" stroke-linejoin="round">
    <path d="M272.149 457.997h-5.834v4.774h6.781v1.458h-8.543v-13.468h8.448v1.459h-6.686v4.338h5.834v1.44zM278.407 457.884l2.216-3.656h1.99l-3.278 4.944 3.39 5.057h-1.988l-2.311-3.75-2.311 3.75h-1.99l3.373-5.057-3.277-4.944h1.989l2.197 3.656zM292.89 459.342c0 1.516-.36 2.747-1.06 3.675-.682.928-1.63 1.402-2.823 1.402-1.212 0-2.178-.398-2.86-1.156v4.812h-1.724v-13.847h1.572l.076 1.099c.701-.853 1.667-1.289 2.917-1.289 1.194 0 2.14.455 2.842 1.364.7.91 1.06 2.16 1.06 3.77v.17zm-1.723-.208c0-1.118-.228-2.008-.72-2.67-.474-.645-1.137-.967-1.97-.967-1.042 0-1.819.455-2.33 1.364v4.792c.511.91 1.288 1.364 2.349 1.364.814 0 1.458-.322 1.95-.966.493-.663.72-1.629.72-2.917zM294.596 459.134c0-.985.208-1.856.587-2.652a4.258 4.258 0 011.61-1.8c.682-.435 1.478-.644 2.35-.644 1.363 0 2.462.474 3.314 1.421.834.928 1.25 2.197 1.25 3.75v.133c0 .966-.17 1.838-.55 2.614-.378.777-.908 1.383-1.61 1.819-.681.417-1.477.644-2.386.644-1.345 0-2.444-.474-3.296-1.42-.833-.948-1.27-2.198-1.27-3.751v-.114zm1.724.208c0 1.099.265 1.99.776 2.671.512.663 1.213 1.004 2.065 1.004.871 0 1.572-.34 2.084-1.023.511-.682.757-1.629.757-2.86 0-1.099-.265-1.989-.776-2.67-.53-.683-1.213-1.024-2.084-1.024-.833 0-1.515.341-2.046 1.004-.511.682-.776 1.648-.776 2.898zM311.688 461.578c0-.474-.17-.834-.53-1.08-.341-.265-.948-.474-1.819-.663-.871-.19-1.553-.398-2.065-.663-.511-.265-.871-.568-1.117-.928a2.184 2.184 0 01-.38-1.27c0-.833.36-1.515 1.043-2.083.7-.568 1.59-.853 2.67-.853 1.137 0 2.046.285 2.766.872.701.587 1.042 1.345 1.042 2.254h-1.705c0-.474-.208-.871-.606-1.212-.398-.341-.89-.512-1.496-.512-.625 0-1.118.133-1.459.417-.36.265-.53.625-.53 1.06 0 .417.151.72.492.929.322.208.91.417 1.762.606.852.19 1.553.417 2.084.682.53.265.928.587 1.174.947.265.379.379.834.379 1.383 0 .89-.36 1.61-1.061 2.14-.72.55-1.648.815-2.785.815-.814 0-1.515-.152-2.14-.436-.606-.284-1.099-.682-1.44-1.174-.34-.512-.53-1.061-.53-1.667h1.724c.019.587.246 1.042.682 1.364.435.34 1.004.511 1.704.511.645 0 1.156-.132 1.554-.398.398-.265.587-.606.587-1.041zM319.788 464.419c-1.364 0-2.462-.455-3.315-1.345-.852-.89-1.288-2.084-1.288-3.58v-.303c0-1.004.19-1.876.568-2.652.38-.796.91-1.402 1.592-1.838a4.048 4.048 0 012.216-.663c1.307 0 2.31.436 3.05 1.289.72.852 1.08 2.083 1.08 3.674v.72h-6.782c.019.985.303 1.78.852 2.387.569.606 1.27.91 2.103.91.606 0 1.118-.114 1.553-.36a4.511 4.511 0 001.099-.986l1.042.815c-.834 1.288-2.103 1.932-3.77 1.932zm-.227-8.979c-.682 0-1.27.246-1.724.758-.473.492-.758 1.212-.871 2.102h5v-.113c-.037-.872-.284-1.553-.7-2.027-.417-.474-.985-.72-1.705-.72zM561.344 225.347h-1.78l-6.782-10.38v10.38h-1.78v-13.469h1.78l6.8 10.419v-10.419h1.762v13.469zM563.767 220.251c0-.985.208-1.856.587-2.652a4.258 4.258 0 011.61-1.8c.682-.435 1.477-.643 2.349-.643 1.364 0 2.462.473 3.315 1.42.833.928 1.25 2.198 1.25 3.75v.133c0 .967-.17 1.838-.55 2.615-.378.776-.909 1.382-1.61 1.818-.682.417-1.477.644-2.386.644-1.345 0-2.444-.474-3.296-1.42-.834-.948-1.27-2.198-1.27-3.751v-.114zm1.723.208c0 1.1.265 1.99.777 2.671.511.663 1.212 1.004 2.065 1.004.871 0 1.572-.34 2.083-1.023.512-.682.758-1.629.758-2.86 0-1.099-.265-1.989-.777-2.67-.53-.683-1.212-1.024-2.083-1.024-.834 0-1.516.341-2.046 1.004-.512.682-.777 1.648-.777 2.898zM577.354 212.92v2.425h1.876v1.326h-1.876v6.194c0 .398.076.701.246.91.17.189.455.302.853.302.19 0 .473-.037.814-.113v1.383a4.64 4.64 0 01-1.307.19c-.776 0-1.345-.228-1.742-.702-.38-.454-.569-1.117-.569-1.97v-6.194h-1.837v-1.326h1.837v-2.425h1.705zM587.406 225.347c-.113-.19-.19-.55-.246-1.061-.796.833-1.743 1.25-2.86 1.25-.985 0-1.78-.284-2.425-.833-.625-.569-.947-1.27-.947-2.122 0-1.042.398-1.856 1.193-2.444.796-.568 1.913-.852 3.334-.852h1.667v-.796c0-.587-.17-1.08-.53-1.42-.36-.36-.89-.53-1.573-.53-.625 0-1.136.15-1.534.454-.417.303-.625.682-.625 1.118h-1.724c0-.493.17-.985.53-1.44.36-.474.834-.834 1.44-1.118a5 5 0 012.008-.397c1.156 0 2.046.284 2.709.87.644.57.985 1.365 1.023 2.369v4.603c0 .928.114 1.667.34 2.197v.152h-1.78zm-2.841-1.307c.53 0 1.042-.133 1.515-.417a2.382 2.382 0 001.042-1.08v-2.046h-1.326c-2.103 0-3.144.606-3.144 1.838 0 .53.17.947.53 1.25.36.303.815.455 1.383.455zM596.365 216.88a4.08 4.08 0 00-.852-.076c-1.118 0-1.876.492-2.274 1.44v7.103h-1.723v-10.002h1.667l.038 1.155c.549-.89 1.344-1.344 2.386-1.344.322 0 .588.037.758.132v1.591zM599.8 225.347h-1.723v-10.002h1.724v10.002zm-1.856-12.654c0-.284.076-.511.247-.72.17-.19.416-.284.757-.284s.588.095.758.284c.17.209.265.436.265.72a.992.992 0 01-.265.682c-.17.19-.417.284-.758.284-.34 0-.587-.095-.757-.284a.976.976 0 01-.247-.682zM604.132 223.945h5.854v1.402h-7.937v-1.25l5.512-7.35h-5.436v-1.402h7.596v1.212l-5.589 7.388zM616.078 225.536c-1.364 0-2.463-.455-3.315-1.345-.853-.89-1.288-2.084-1.288-3.58v-.303c0-1.004.19-1.875.568-2.652.379-.796.91-1.402 1.591-1.837a4.048 4.048 0 012.216-.663c1.307 0 2.311.435 3.05 1.288.72.852 1.08 2.083 1.08 3.674v.72h-6.782c.02.985.303 1.78.853 2.387.568.606 1.269.91 2.102.91.607 0 1.118-.114 1.554-.36a4.511 4.511 0 001.098-.986l1.042.815c-.833 1.288-2.102 1.932-3.77 1.932zm-.228-8.979c-.682 0-1.269.247-1.723.758-.474.492-.758 1.212-.872 2.103h5.001v-.114c-.038-.871-.284-1.553-.7-2.027-.418-.473-.986-.72-1.706-.72z" fill="#fff" fill-rule="nonzero"/>
    <path fill="#226a3c" stroke="#41ff8b" stroke-width="2.26" d="M17727.2 12792.4h206.354v63.254H17727.2z" transform="matrix(.74902 0 0 1 -12834.388 -12385.663)"/>
    <path d="M500.314 439.686v5h-2.94v-14.22h5.56c1.06 0 2 .2 2.82.58.8.4 1.42.96 1.86 1.68.44.72.66 1.54.66 2.44 0 1.4-.48 2.5-1.44 3.3-.94.8-2.26 1.22-3.96 1.22h-2.56zm0-2.38h2.62c.78 0 1.36-.18 1.76-.54.42-.38.62-.9.62-1.58s-.2-1.26-.62-1.68c-.4-.44-.98-.66-1.7-.66h-2.68v4.46zM516.034 436.766a6.5 6.5 0 00-1.02-.08c-1.06 0-1.76.36-2.1 1.08v6.92h-2.82v-10.56h2.68l.06 1.26c.58-.98 1.36-1.46 2.36-1.46.32 0 .6.04.88.12l-.04 2.72zM516.554 439.306c0-1.04.2-1.98.62-2.8.4-.82.98-1.46 1.74-1.9.76-.46 1.64-.68 2.64-.68 1.42 0 2.58.44 3.48 1.3.9.88 1.42 2.06 1.52 3.56l.02.72c0 1.62-.46 2.92-1.36 3.9-.9.98-2.12 1.48-3.64 1.48s-2.74-.5-3.66-1.46c-.9-.98-1.36-2.32-1.36-4v-.12zm2.82.2c0 1 .2 1.78.58 2.3.38.54.92.8 1.62.8.68 0 1.22-.26 1.6-.78.38-.54.58-1.36.58-2.52 0-.98-.2-1.74-.58-2.28-.38-.54-.92-.82-1.62-.82-.7 0-1.22.28-1.6.8-.38.54-.58 1.38-.58 2.5zM527.854 439.306c0-1.04.2-1.98.62-2.8.4-.82.98-1.46 1.74-1.9.76-.46 1.64-.68 2.64-.68 1.42 0 2.58.44 3.48 1.3.9.88 1.42 2.06 1.52 3.56l.02.72c0 1.62-.46 2.92-1.36 3.9-.9.98-2.12 1.48-3.64 1.48s-2.74-.5-3.66-1.46c-.9-.98-1.36-2.32-1.36-4v-.12zm2.82.2c0 1 .2 1.78.58 2.3.38.54.92.8 1.62.8.68 0 1.22-.26 1.6-.78.38-.54.58-1.36.58-2.52 0-.98-.2-1.74-.58-2.28-.38-.54-.92-.82-1.62-.82-.7 0-1.22.28-1.6.8-.38.54-.58 1.38-.58 2.5zM540.374 444.686v-8.5h-1.58v-2.06h1.58v-.9c0-1.18.34-2.1 1.02-2.76.68-.66 1.62-.98 2.86-.98.38 0 .86.06 1.42.2l-.02 2.18c-.24-.06-.52-.1-.86-.1-1.06 0-1.6.5-1.6 1.5v.86h2.1v2.06h-2.1v8.5h-2.82z" fill="#fff" fill-rule="nonzero"/>
    <path d="M85.214 178.983l189.786.033" fill="none" stroke="#999" stroke-width=".94" stroke-linecap="butt" stroke-linejoin="miter" transform="matrix(1.44324 0 0 1.44324 43.724 180.166)"/>
    <path d="M836.115 138.6l11.329 13.216-11.329-13.216zM836.115 138.6l11.329 13.216-11.329-13.216zM835.73 138.856l-11.33 13.217 11.33-13.217z" fill="none" stroke="#999" stroke-width="1.88" transform="matrix(0 .72108 -.72107 0 540.103 -164.274)"/>
    <g>
        <path d="M83.828 178.983l113.653.033" fill="none" stroke="#999" stroke-width=".94" stroke-linecap="butt" stroke-linejoin="miter" transform="matrix(1.44324 0 0 1.44324 45.602 -20.982)"/>
        <path d="M836.115 138.6l11.329 13.216-11.329-13.216zM836.115 138.6l11.329 13.216-11.329-13.216zM835.73 138.856l-11.33 13.217 11.33-13.217z" fill="none" stroke="#999" stroke-width="1.88" transform="matrix(0 .72108 -.72107 0 432.02 -365.422)"/>
    </g>
    <g>
        <path d="M83.828 178.983l113.653.033 59.456 116.557" fill="none" stroke="#999" stroke-width=".69" stroke-linecap="butt" stroke-linejoin="miter" transform="matrix(1.44324 0 0 1.44324 45.602 -225.739)"/>
    </g>
    <g>
        <path d="M83.828 191.455l113.653.033 59.494 102.946" fill="none" stroke="#999" stroke-width=".94" stroke-linecap="butt" stroke-linejoin="miter" transform="matrix(1.44324 0 0 -1.44324 45.602 696.7)"/>
        <path d="M836.115 138.6l11.329 13.216-11.329-13.216zM836.115 138.6l11.329 13.216-11.329-13.216zM835.73 138.856l-11.33 13.217 11.33-13.217z" fill="none" stroke="#999" stroke-width="1.88" transform="matrix(-.64763 -.31705 -.31705 .64763 1001.985 446.481)"/>
    </g>
    <g>
        <path d="M83.828 178.983l115.712-.002 23.833 45.955" fill="none" stroke="#999" stroke-width=".94" stroke-linecap="butt" stroke-linejoin="miter" transform="matrix(1.44324 0 0 1.44324 45.602 -124.394)"/>
        <path d="M836.115 138.6l11.329 13.216-11.329-13.216zM836.115 138.6l11.329 13.216-11.329-13.216zM835.73 138.856l-11.33 13.217 11.33-13.217z" fill="none" stroke="#999" stroke-width="1.88" transform="matrix(-.64763 .31705 -.31705 -.64763 953.361 24.48)"/>
    </g>
    <g>
        <path d="M83.828 178.983l115.712-.002 23.851 45.298" fill="none" stroke="#999" stroke-width=".94" stroke-linecap="butt" stroke-linejoin="miter" transform="matrix(1.44324 0 0 -1.44324 45.602 595.563)"/>
        <path d="M836.115 138.6l11.329 13.216-11.329-13.216zM836.115 138.6l11.329 13.216-11.329-13.216zM835.73 138.856l-11.33 13.217 11.33-13.217z" fill="none" stroke="#999" stroke-width="1.88" transform="matrix(-.64763 -.31705 -.31705 .64763 953.467 446.481)"/>
    </g>
    <g>
        <path d="M836.115 138.6l11.329 13.216-11.329-13.216zM836.115 138.6l11.329 13.216-11.329-13.216zM835.73 138.856l-11.33 13.217 11.33-13.217z" fill="none" stroke="#999" stroke-width="1.88" transform="matrix(-.64763 .31705 -.31705 -.64763 1001.985 25.101)"/>
    </g>
    <g>
        <path fill="#0c4898" stroke="#0c71ff" stroke-width="2" d="M17727.2 12792.4h206.354v63.254H17727.2z" transform="matrix(.79163 0 0 1 -14032.587 -12791.516)"/>
    </g>
    <g>
        <path fill="#0c4898" stroke="#0c71ff" stroke-width="2" d="M17727.2 12792.4h206.354v63.254H17727.2z" transform="matrix(.79163 0 0 1 -14032.587 -12689.998)"/>
        <path d="M58.816 136.261v5h-2.94v-14.22h5.56c1.06 0 2 .2 2.82.58.8.4 1.42.96 1.86 1.68.44.72.66 1.54.66 2.44 0 1.4-.48 2.5-1.44 3.3-.94.8-2.26 1.22-3.96 1.22h-2.56zm0-2.38h2.62c.78 0 1.36-.18 1.76-.54.42-.38.62-.9.62-1.58s-.2-1.26-.62-1.68c-.4-.44-.98-.66-1.7-.66h-2.68v4.46zM74.616 141.261c-.12-.26-.22-.56-.28-.94-.68.76-1.56 1.14-2.66 1.14-1.04 0-1.9-.3-2.58-.9-.68-.6-1.02-1.36-1.02-2.26 0-1.12.42-1.98 1.24-2.58.84-.6 2.04-.9 3.6-.92h1.3v-.6c0-.48-.12-.88-.36-1.18-.26-.28-.66-.44-1.2-.44-.48 0-.84.12-1.12.34-.26.24-.4.56-.4.94h-2.82c0-.6.18-1.18.56-1.7.38-.52.92-.92 1.6-1.22.7-.3 1.48-.44 2.34-.44 1.3 0 2.32.32 3.1.98.76.66 1.14 1.58 1.14 2.76v4.58c0 1 .14 1.76.42 2.28v.16h-2.86zm-2.32-1.96c.4 0 .8-.1 1.14-.28.36-.18.62-.44.78-.74v-1.82h-1.04c-1.42 0-2.18.48-2.26 1.46l-.02.16c0 .36.14.64.38.88.24.22.58.34 1.02.34zM85.136 133.341a6.5 6.5 0 00-1.02-.08c-1.06 0-1.76.36-2.1 1.08v6.92h-2.82v-10.56h2.68l.06 1.26c.58-.98 1.36-1.46 2.36-1.46.32 0 .6.04.88.12l-.04 2.72zM90.376 128.101v2.6h1.8v2.06h-1.8v5.28c0 .38.08.66.22.84.16.16.44.26.86.26.32 0 .6-.04.84-.08v2.14c-.56.18-1.12.26-1.72.26-1.98 0-2.98-1-3.02-3v-5.7h-1.54v-2.06h1.54v-2.6h2.82zM98.976 141.261v-14.22h5c1.72 0 3.02.34 3.92 1 .88.66 1.34 1.62 1.34 2.9 0 .7-.18 1.3-.54 1.84-.36.52-.86.92-1.5 1.16.74.18 1.3.56 1.72 1.1.42.56.64 1.24.64 2.04 0 1.36-.44 2.4-1.32 3.1-.86.7-2.1 1.06-3.72 1.08h-5.54zm2.94-6.2v3.84h2.5c.7 0 1.24-.16 1.62-.48.4-.34.58-.78.58-1.36 0-1.32-.66-1.98-2.02-2h-2.68zm0-2.06h2.16c1.48-.02 2.22-.62 2.22-1.76 0-.66-.18-1.12-.56-1.4-.38-.28-.96-.42-1.76-.42h-2.06v3.58z" fill="#fff" fill-rule="nonzero"/>
    </g>
    <g>
        <path fill="#0c4898" stroke="#0c71ff" stroke-width="2" d="M17727.2 12792.4h206.354v63.254H17727.2z" transform="matrix(.79163 0 0 1 -14032.587 -12588.476)"/>
        <path d="M58.716 237.783v5h-2.94v-14.22h5.56c1.06 0 2 .2 2.82.58.8.4 1.42.96 1.86 1.68.44.72.66 1.54.66 2.44 0 1.4-.48 2.5-1.44 3.3-.94.8-2.26 1.22-3.96 1.22h-2.56zm0-2.38h2.62c.78 0 1.36-.18 1.76-.54.42-.38.62-.9.62-1.58s-.2-1.26-.62-1.68c-.4-.44-.98-.66-1.7-.66h-2.68v4.46zM74.416 242.783c-.12-.26-.22-.56-.28-.94-.68.76-1.56 1.14-2.66 1.14-1.04 0-1.9-.3-2.58-.9-.68-.6-1.02-1.36-1.02-2.26 0-1.12.42-1.98 1.24-2.58.84-.6 2.04-.9 3.6-.92h1.3v-.6c0-.48-.12-.88-.36-1.18-.26-.28-.66-.44-1.2-.44-.48 0-.84.12-1.12.34-.26.24-.4.56-.4.94h-2.82c0-.6.18-1.18.56-1.7.38-.52.92-.92 1.6-1.22.7-.3 1.48-.44 2.34-.44 1.3 0 2.32.32 3.1.98.76.66 1.14 1.58 1.14 2.76v4.58c0 1 .14 1.76.42 2.28v.16h-2.86zm-2.32-1.96c.4 0 .8-.1 1.14-.28.36-.18.62-.44.78-.74v-1.82h-1.04c-1.42 0-2.18.48-2.26 1.46l-.02.16c0 .36.14.64.38.88.24.22.58.34 1.02.34zM85.036 234.863a6.5 6.5 0 00-1.02-.08c-1.06 0-1.76.36-2.1 1.08v6.92h-2.82v-10.56h2.68l.06 1.26c.58-.98 1.36-1.46 2.36-1.46.32 0 .6.04.88.12l-.04 2.72zM90.276 229.623v2.6h1.8v2.06h-1.8v5.28c0 .38.08.66.22.84.16.16.44.26.86.26.32 0 .6-.04.84-.08v2.14c-.56.18-1.12.26-1.72.26-1.98 0-2.98-1-3.02-3v-5.7h-1.54v-2.06h1.54v-2.6h2.82zM109.956 238.043c-.12 1.54-.68 2.74-1.7 3.62-1.02.88-2.36 1.32-4.04 1.32-1.82 0-3.24-.62-4.3-1.84-1.04-1.24-1.56-2.92-1.56-5.06v-.86c0-1.38.24-2.58.72-3.62s1.18-1.84 2.06-2.4c.9-.56 1.94-.84 3.12-.84 1.64 0 2.98.44 3.98 1.32 1 .88 1.58 2.12 1.74 3.7h-2.94c-.08-.92-.32-1.58-.76-2-.44-.4-1.12-.62-2.02-.62-.96 0-1.7.36-2.18 1.06-.48.7-.74 1.78-.76 3.26v1.06c0 1.54.24 2.66.7 3.38.48.7 1.2 1.06 2.2 1.06.92 0 1.58-.2 2.04-.62.44-.42.7-1.06.76-1.92h2.94z" fill="#fff" fill-rule="nonzero"/>
    </g>
    <g>
        <path fill="#0c4898" stroke="#0c71ff" stroke-width="2" d="M17727.2 12792.4h206.354v63.254H17727.2z" transform="matrix(.79163 0 0 1 -13352.315 -12588.538)"/>
    </g>
    <g>
        <path fill="#0c4898" stroke="#0c71ff" stroke-width="2" d="M17727.2 12792.4h206.354v63.254H17727.2z" transform="matrix(.79163 0 0 1 -13696.233 -12588.538)"/>
    </g>
    <g>
        <path fill="#0c4898" stroke="#0c71ff" stroke-width="2" d="M17727.2 12792.4h206.354v63.254H17727.2z" transform="matrix(.79163 0 0 1 -14032.587 -12486.953)"/>
        <path d="M58.716 339.305v5h-2.94v-14.22h5.56c1.06 0 2 .2 2.82.58.8.4 1.42.96 1.86 1.68.44.72.66 1.54.66 2.44 0 1.4-.48 2.5-1.44 3.3-.94.8-2.26 1.22-3.96 1.22h-2.56zm0-2.38h2.62c.78 0 1.36-.18 1.76-.54.42-.38.62-.9.62-1.58s-.2-1.26-.62-1.68c-.4-.44-.98-.66-1.7-.66h-2.68v4.46zM74.516 344.305c-.12-.26-.22-.56-.28-.94-.68.76-1.56 1.14-2.66 1.14-1.04 0-1.9-.3-2.58-.9-.68-.6-1.02-1.36-1.02-2.26 0-1.12.42-1.98 1.24-2.58.84-.6 2.04-.9 3.6-.92h1.3v-.6c0-.48-.12-.88-.36-1.18-.26-.28-.66-.44-1.2-.44-.48 0-.84.12-1.12.34-.26.24-.4.56-.4.94h-2.82c0-.6.18-1.18.56-1.7.38-.52.92-.92 1.6-1.22.7-.3 1.48-.44 2.34-.44 1.3 0 2.32.32 3.1.98.76.66 1.14 1.58 1.14 2.76v4.58c0 1 .14 1.76.42 2.28v.16h-2.86zm-2.32-1.96c.4 0 .8-.1 1.14-.28.36-.18.62-.44.78-.74v-1.82h-1.04c-1.42 0-2.18.48-2.26 1.46l-.02.16c0 .36.14.64.38.88.24.22.58.34 1.02.34zM85.036 336.385a6.5 6.5 0 00-1.02-.08c-1.06 0-1.76.36-2.1 1.08v6.92h-2.82v-10.56h2.68l.06 1.26c.58-.98 1.36-1.46 2.36-1.46.32 0 .6.04.88.12l-.04 2.72zM90.276 331.145v2.6h1.8v2.06h-1.8v5.28c0 .38.08.66.22.84.16.16.44.26.86.26.32 0 .6-.04.84-.08v2.14c-.56.18-1.12.26-1.72.26-1.98 0-2.98-1-3.02-3v-5.7h-1.54v-2.06h1.54v-2.6h2.82zM98.776 344.305v-14.22h4.38c1.26 0 2.38.28 3.36.84a5.79 5.79 0 012.3 2.4c.56 1.04.84 2.22.84 3.54v.66c0 1.32-.28 2.5-.82 3.52-.54 1.04-1.3 1.84-2.3 2.4-.98.56-2.1.86-3.34.86h-4.42zm2.94-11.84v9.48h1.42c1.14 0 2.02-.36 2.62-1.12.6-.74.92-1.82.92-3.2v-.76c0-1.44-.28-2.54-.88-3.28-.6-.76-1.48-1.12-2.64-1.12h-1.44z" fill="#fff" fill-rule="nonzero"/>
    </g>
    <g>
        <path fill="#0c4898" stroke="#0c71ff" stroke-width="2" d="M17727.2 12792.4h206.354v63.254H17727.2z" transform="matrix(.79163 0 0 1 -14032.587 -12385.444)"/>
        <path d="M59.616 440.815v5h-2.94v-14.22h5.56c1.06 0 2 .2 2.82.58.8.4 1.42.96 1.86 1.68.44.72.66 1.54.66 2.44 0 1.4-.48 2.5-1.44 3.3-.94.8-2.26 1.22-3.96 1.22h-2.56zm0-2.38h2.62c.78 0 1.36-.18 1.76-.54.42-.38.62-.9.62-1.58s-.2-1.26-.62-1.68c-.4-.44-.98-.66-1.7-.66h-2.68v4.46zM75.416 445.815c-.12-.26-.22-.56-.28-.94-.68.76-1.56 1.14-2.66 1.14-1.04 0-1.9-.3-2.58-.9-.68-.6-1.02-1.36-1.02-2.26 0-1.12.42-1.98 1.24-2.58.84-.6 2.04-.9 3.6-.92h1.3v-.6c0-.48-.12-.88-.36-1.18-.26-.28-.66-.44-1.2-.44-.48 0-.84.12-1.12.34-.26.24-.4.56-.4.94h-2.82c0-.6.18-1.18.56-1.7.38-.52.92-.92 1.6-1.22.7-.3 1.48-.44 2.34-.44 1.3 0 2.32.32 3.1.98.76.66 1.14 1.58 1.14 2.76v4.58c0 1 .14 1.76.42 2.28v.16h-2.86zm-2.32-1.96c.4 0 .8-.1 1.14-.28.36-.18.62-.44.78-.74v-1.82h-1.04c-1.42 0-2.18.48-2.26 1.46l-.02.16c0 .36.14.64.38.88.24.22.58.34 1.02.34zM85.936 437.895a6.5 6.5 0 00-1.02-.08c-1.06 0-1.76.36-2.1 1.08v6.92h-2.82v-10.56h2.68l.06 1.26c.58-.98 1.36-1.46 2.36-1.46.32 0 .6.04.88.12l-.04 2.72zM91.176 432.655v2.6h1.8v2.06h-1.8v5.28c0 .38.08.66.22.84.16.16.44.26.86.26.32 0 .6-.04.84-.08v2.14c-.56.18-1.12.26-1.72.26-1.98 0-2.98-1-3.02-3v-5.7h-1.54v-2.06h1.54v-2.6h2.82zM108.236 439.655h-5.62v3.8h6.6v2.36h-9.54v-14.22h9.52v2.38h-6.58v3.38h5.62v2.3z" fill="#fff" fill-rule="nonzero"/>
    </g>
    <g>
        <path d="M58.516 34.743v5h-2.94v-14.22h5.56c1.06 0 2 .2 2.82.58.8.4 1.42.96 1.86 1.68.44.72.66 1.54.66 2.44 0 1.4-.48 2.5-1.44 3.3-.94.8-2.26 1.22-3.96 1.22h-2.56zm0-2.38h2.62c.78 0 1.36-.18 1.76-.54.42-.38.62-.9.62-1.58s-.2-1.26-.62-1.68c-.4-.44-.98-.66-1.7-.66h-2.68v4.46zM74.316 39.743c-.12-.26-.22-.56-.28-.94-.68.76-1.56 1.14-2.66 1.14-1.04 0-1.9-.3-2.58-.9-.68-.6-1.02-1.36-1.02-2.26 0-1.12.42-1.98 1.24-2.58.84-.6 2.04-.9 3.6-.92h1.3v-.6c0-.48-.12-.88-.36-1.18-.26-.28-.66-.44-1.2-.44-.48 0-.84.12-1.12.34-.26.24-.4.56-.4.94h-2.82c0-.6.18-1.18.56-1.7.38-.52.92-.92 1.6-1.22.7-.3 1.48-.44 2.34-.44 1.3 0 2.32.32 3.1.98.76.66 1.14 1.58 1.14 2.76v4.58c0 1 .14 1.76.42 2.28v.16h-2.86zm-2.32-1.96c.4 0 .8-.1 1.14-.28.36-.18.62-.44.78-.74v-1.82h-1.04c-1.42 0-2.18.48-2.26 1.46l-.02.16c0 .36.14.64.38.88.24.22.58.34 1.02.34zM84.836 31.823a6.5 6.5 0 00-1.02-.08c-1.06 0-1.76.36-2.1 1.08v6.92h-2.82v-10.56h2.68l.06 1.26c.58-.98 1.36-1.46 2.36-1.46.32 0 .6.04.88.12l-.04 2.72zM90.076 26.583v2.6h1.8v2.06h-1.8v5.28c0 .38.08.66.22.84.16.16.44.26.86.26.32 0 .6-.04.84-.08v2.14c-.56.18-1.12.26-1.72.26-1.98 0-2.98-1-3.02-3v-5.7h-1.54v-2.06h1.54v-2.6h2.82zM106.616 36.823h-5.14l-.98 2.92h-3.12l5.3-14.22h2.72l5.32 14.22h-3.12l-.98-2.92zm-4.34-2.38h3.54l-1.78-5.32-1.76 5.32z" fill="#fff" fill-rule="nonzero"/>
    </g>
    <g>
        <path fill="#fff" fill-rule="nonzero" d="M731.752 228.48h2.92v14.22h-2.92zM739.932 232.14l.08 1.18c.74-.92 1.76-1.38 3.04-1.38 1.36 0 2.3.54 2.8 1.6.74-1.06 1.8-1.6 3.18-1.6 1.14 0 2 .34 2.56 1 .56.66.84 1.68.84 3.02v6.74h-2.84v-6.74c0-.6-.12-1.04-.36-1.32-.22-.26-.64-.4-1.24-.4-.84 0-1.42.4-1.76 1.2l.02 7.26h-2.82v-6.72c0-.62-.12-1.06-.36-1.34s-.66-.4-1.24-.4c-.8 0-1.38.32-1.74.98v7.48h-2.82v-10.56h2.66zM764.092 237.52c0 1.62-.38 2.92-1.12 3.9-.74.98-1.72 1.48-2.98 1.48-1.08 0-1.94-.38-2.6-1.12v4.98h-2.82v-14.62h2.62l.1 1.02c.68-.82 1.58-1.22 2.68-1.22 1.3 0 2.3.48 3.04 1.44.72.96 1.08 2.3 1.08 3.98v.16zm-2.82-.22c0-.98-.18-1.74-.52-2.26-.36-.54-.86-.8-1.52-.8-.9 0-1.5.34-1.84 1v4.34c.36.7.96 1.04 1.86 1.04 1.34 0 2.02-1.1 2.02-3.32zM771.712 234.78a6.5 6.5 0 00-1.02-.08c-1.06 0-1.76.36-2.1 1.08v6.92h-2.82v-10.56h2.68l.06 1.26c.58-.98 1.36-1.46 2.36-1.46.32 0 .6.04.88.12l-.04 2.72zM776.052 242.7h-2.82v-10.56h2.82v10.56zm-3-13.3c0-.42.14-.78.42-1.04.3-.28.68-.42 1.16-.42.48 0 .88.14 1.16.42.28.26.42.62.42 1.04 0 .42-.14.78-.42 1.06-.3.26-.68.4-1.16.4-.46 0-.86-.14-1.14-.4-.3-.28-.44-.64-.44-1.06zM780.972 232.14l.08 1.22c.76-.94 1.78-1.42 3.04-1.42 1.12 0 1.96.32 2.5.98.56.66.84 1.64.84 2.96v6.82h-2.82v-6.76c0-.6-.12-1.04-.38-1.3-.26-.28-.7-.4-1.3-.4-.8 0-1.4.34-1.8 1v7.46h-2.82v-10.56h2.66zM792.952 229.54v2.6h1.8v2.06h-1.8v5.28c0 .38.08.66.22.84.16.16.44.26.86.26.32 0 .6-.04.84-.08v2.14c-.56.18-1.12.26-1.72.26-1.98 0-2.98-1-3.02-3v-5.7h-1.54v-2.06h1.54v-2.6h2.82z"/>
    </g>
    <g>
        <path d="M374.134 242.7v-14.22h4.38c1.26 0 2.38.28 3.36.84a5.79 5.79 0 012.3 2.4c.56 1.04.84 2.22.84 3.54v.66c0 1.32-.28 2.5-.82 3.52-.54 1.04-1.3 1.84-2.3 2.4-.98.56-2.1.86-3.34.86h-4.42zm2.94-11.84v9.48h1.42c1.14 0 2.02-.36 2.62-1.12.6-.74.92-1.82.92-3.2v-.76c0-1.44-.28-2.54-.88-3.28-.6-.76-1.48-1.12-2.64-1.12h-1.44zM386.514 237.32c0-1.04.2-1.98.62-2.8.4-.82.98-1.46 1.74-1.9.76-.46 1.64-.68 2.64-.68 1.42 0 2.58.44 3.48 1.3.9.88 1.42 2.06 1.52 3.56l.02.72c0 1.62-.46 2.92-1.36 3.9-.9.98-2.12 1.48-3.64 1.48s-2.74-.5-3.66-1.46c-.9-.98-1.36-2.32-1.36-4v-.12zm2.82.2c0 1 .2 1.78.58 2.3.38.54.92.8 1.62.8.68 0 1.22-.26 1.6-.78.38-.54.58-1.36.58-2.52 0-.98-.2-1.74-.58-2.28-.38-.54-.92-.82-1.62-.82-.7 0-1.22.28-1.6.8-.38.54-.58 1.38-.58 2.5zM402.654 240.62c.52 0 .94-.14 1.26-.42.34-.3.5-.68.52-1.16h2.64c0 .72-.2 1.38-.58 1.98-.38.6-.92 1.06-1.58 1.38-.66.34-1.4.5-2.22.5-1.5 0-2.7-.48-3.56-1.44-.88-.96-1.32-2.3-1.32-3.98v-.2c0-1.62.44-2.92 1.3-3.88.86-.98 2.06-1.46 3.56-1.46 1.32 0 2.38.38 3.18 1.12.8.76 1.2 1.76 1.22 3h-2.64c-.02-.54-.18-.98-.52-1.32-.32-.34-.74-.52-1.28-.52-.66 0-1.16.24-1.5.72-.32.48-.5 1.26-.5 2.34v.28c0 1.1.18 1.88.5 2.34.34.48.84.72 1.52.72zM414.994 241.62c-.7.86-1.66 1.28-2.9 1.28-1.14 0-2-.34-2.6-.98-.58-.66-.9-1.6-.9-2.86v-6.92h2.82v6.82c0 1.1.5 1.66 1.5 1.66.96 0 1.62-.34 1.98-1v-7.48h2.82v10.56h-2.64l-.08-1.08zM422.514 232.14l.08 1.18c.74-.92 1.76-1.38 3.04-1.38 1.36 0 2.3.54 2.8 1.6.74-1.06 1.8-1.6 3.18-1.6 1.14 0 2 .34 2.56 1 .56.66.84 1.68.84 3.02v6.74h-2.84v-6.74c0-.6-.12-1.04-.36-1.32-.22-.26-.64-.4-1.24-.4-.84 0-1.42.4-1.76 1.2l.02 7.26h-2.82v-6.72c0-.62-.12-1.06-.36-1.34s-.66-.4-1.24-.4c-.8 0-1.38.32-1.74.98v7.48h-2.82v-10.56h2.66zM442.114 242.9c-1.54 0-2.8-.48-3.78-1.44-.98-.94-1.46-2.2-1.46-3.78v-.28c0-1.06.2-2.02.62-2.84.4-.84.98-1.5 1.74-1.94.76-.46 1.62-.68 2.58-.68 1.44 0 2.58.46 3.4 1.36.84.92 1.26 2.2 1.26 3.88v1.16h-6.74c.1.68.38 1.24.82 1.66.46.42 1.04.62 1.76.62 1.08 0 1.92-.4 2.54-1.18l1.38 1.56c-.42.58-.98 1.06-1.72 1.4-.72.32-1.52.5-2.4.5zm-.32-8.68c-.56 0-1 .2-1.36.56-.34.38-.56.92-.66 1.64h3.92v-.24c-.02-.62-.18-1.1-.5-1.44-.34-.34-.8-.52-1.4-.52zM450.654 232.14l.08 1.22c.76-.94 1.78-1.42 3.04-1.42 1.12 0 1.96.32 2.5.98.56.66.84 1.64.84 2.96v6.82h-2.82v-6.76c0-.6-.12-1.04-.38-1.3-.26-.28-.7-.4-1.3-.4-.8 0-1.4.34-1.8 1v7.46h-2.82v-10.56h2.66zM462.634 229.54v2.6h1.8v2.06h-1.8v5.28c0 .38.08.66.22.84.16.16.44.26.86.26.32 0 .6-.04.84-.08v2.14c-.56.18-1.12.26-1.72.26-1.98 0-2.98-1-3.02-3v-5.7h-1.54v-2.06h1.54v-2.6h2.82z" fill="#fff" fill-rule="nonzero"/>
    </g>
    <g>
        <path d="M83.828 178.983l113.653.033" fill="none" stroke="#999" stroke-width=".94" stroke-linecap="butt" stroke-linejoin="miter" transform="matrix(1.44324 0 0 1.44324 384.95 -20.97)"/>
        <path d="M836.115 138.6l11.329 13.216-11.329-13.216zM835.73 138.856l-11.33 13.217 11.33-13.217z" fill="none" stroke="#999" stroke-width="1.88" transform="matrix(0 .72107 -.72107 0 771.294 -365.333)"/>
    </g>
    <g>
        <path d="M836.115 138.6l11.329 13.216-11.329-13.216z" fill="none" stroke="#d9d9d9" stroke-width="1.88" transform="matrix(0 .72107 -.72107 0 431.947 -365.346)"/>
    </g>
</svg>
