<svg width="603" height="243" xmlns="http://www.w3.org/2000/svg" fill-rule="evenodd" clip-rule="evenodd" stroke-linecap="round" stroke-linejoin="round">
    <path d="M261.357 108.378H148.519m352.795 0h-119.61" fill="none" stroke="#2c2f31"/>
    <g stroke="#2c2f31">
        <path d="M111.821 99.171l17.498-14.491m-49.498-2l10.861 5.434m-20.861 39.944l42.238-28.378m-42.238 28.378l30.198 14.82m1-1l12-42M90.821 87.68l21.723 11.472m-65.723 3.528l22.93 25.36m-34.93 30.226l34.998-29.586m-22.998-25.509L91.474 88.68m-33.653-29l22.326 21.737m-32.603 20.565L25.821 85.68m21.723 16.302l-23.576 5.44m45.126 21.258l-48.273 3.623m57.698-50.867l30.998-25.058m-26.498-9.5l26.498 9.5m35.596 54.058L128.821 85.68" fill="none"/>
        <ellipse cx="111.045" cy="54.906" rx="4.526" ry="4.528" fill="#fff"/>
        <ellipse cx="82.045" cy="46.906" rx="4.526" ry="4.528" fill="#fff"/>
        <ellipse cx="59.045" cy="60.906" rx="4.526" ry="4.528" fill="#fff"/>
        <ellipse cx="130.045" cy="86.906" rx="4.526" ry="4.528" fill="#fff"/>
        <ellipse cx="70.045" cy="128.906" rx="4.526" ry="4.528" fill="#fff"/>
        <ellipse cx="21.045" cy="132.906" rx="4.526" ry="4.528" fill="#fff"/>
        <ellipse cx="19.045" cy="108.906" rx="4.526" ry="4.528" fill="#fff"/>
        <ellipse cx="26.045" cy="86.906" rx="4.526" ry="4.528" fill="#fff"/>
        <ellipse cx="37.045" cy="157.906" rx="4.526" ry="4.528" fill="#fff"/>
        <ellipse cx="145.045" cy="108.906" rx="4.526" ry="4.528" fill="#fff"/>
        <ellipse cx="81.045" cy="82.906" rx="4.526" ry="4.528" fill="#fff"/>
        <ellipse cx="92.045" cy="88.906" rx="4.526" ry="4.528" fill="#fff"/>
        <ellipse cx="113.045" cy="99.906" rx="4.526" ry="4.528" fill="#fff"/>
        <ellipse cx="90.045" cy="112.906" rx="4.526" ry="4.528" fill="#fff"/>
        <ellipse cx="100.045" cy="142.906" rx="4.526" ry="4.528" fill="#fff"/>
        <ellipse cx="48.045" cy="103.906" rx="4.526" ry="4.528" fill="#fff"/>
    </g>
    <path d="M.799 218.231v-11.2h7.552v1.808H2.703v2.704h4.112v1.808H2.703v4.88H.799zm15.696-8.368c.736 0 1.376.144 1.92.432v3.024h-1.792v-1.744h-.16c-.843 0-1.493.197-1.952.592-.459.395-.688.987-.688 1.776v2.672h2.288v1.616h-5.856v-1.616h1.728v-4.944h-1.728v-1.616h3.44v1.312c.224-.469.592-.837 1.104-1.104a3.61 3.61 0 0 1 1.696-.4zm7.104 8.56c-.896 0-1.624-.235-2.184-.704s-.84-1.141-.84-2.016c0-.885.32-1.557.96-2.016.64-.459 1.408-.688 2.304-.688.779 0 1.456.144 2.032.432v-.48c0-.981-.539-1.472-1.616-1.472-.896 0-1.76.277-2.592.832l-.56-1.504c.992-.629 2.096-.944 3.312-.944 2.165 0 3.248 1.024 3.248 3.072v5.296h-1.792v-.64c-.576.555-1.333.832-2.272.832zm.336-1.616c.768 0 1.413-.272 1.936-.816v-1.056c-.491-.245-1.072-.368-1.744-.368-.512 0-.936.096-1.272.288-.336.192-.504.475-.504.848 0 .331.139.597.416.8.277.203.667.304 1.168.304zm12.368-6.944c.683 0 1.187.237 1.512.712.325.475.488 1.272.488 2.392v5.264h-1.68v-4.992c0-.576-.053-.989-.16-1.24-.107-.251-.304-.376-.592-.376-.277 0-.499.144-.664.432-.165.288-.248.688-.248 1.2v4.976h-1.68v-5.04c0-1.045-.256-1.568-.768-1.568-.299 0-.536.144-.712.432-.176.288-.264.688-.264 1.2v4.976h-1.68v-8.176h1.568v1.088c.299-.853.837-1.28 1.616-1.28.341 0 .643.117.904.352s.445.512.552.832c.491-.789 1.093-1.184 1.808-1.184zm11.36 3.872c0 .469-.021.843-.064 1.12h-5.568c.117.597.355 1.069.712 1.416s.819.52 1.384.52c.715 0 1.317-.267 1.808-.8l1.104 1.168c-.768.843-1.744 1.264-2.928 1.264-1.205 0-2.157-.389-2.856-1.168-.699-.779-1.048-1.819-1.048-3.12 0-1.323.352-2.365 1.056-3.128.704-.763 1.653-1.144 2.848-1.144 1.045 0 1.899.328 2.56.984.661.656.992 1.619.992 2.888zm-5.648-.448h3.84c-.053-.597-.243-1.048-.568-1.352a1.66 1.66 0 0 0-1.176-.456c-.587 0-1.059.16-1.416.48-.357.32-.584.763-.68 1.328zm9.184 4.944l-2.096-8.176h1.664l1.04 4.208c.075.32.128.587.16.8.064-.384.112-.656.144-.816l.976-4.192h1.408l.976 4.208c.053.171.107.443.16.816.032-.224.085-.496.16-.816l1.008-4.208h1.68l-2.112 8.176h-1.408l-.944-4.096a16.657 16.657 0 0 1-.224-1.12 9.211 9.211 0 0 1-.136.648 5.978 5.978 0 0 1-.12.472l-.896 4.096h-1.44zm12.448.192c-1.205 0-2.16-.381-2.864-1.144-.704-.763-1.056-1.805-1.056-3.128 0-1.312.352-2.355 1.056-3.128.704-.773 1.659-1.16 2.864-1.16 1.216 0 2.173.387 2.872 1.16.699.773 1.048 1.816 1.048 3.128s-.349 2.352-1.048 3.12c-.699.768-1.656 1.152-2.872 1.152zm0-1.76c.661 0 1.171-.224 1.528-.672.357-.448.536-1.061.536-1.84 0-.779-.179-1.397-.536-1.856-.357-.459-.867-.688-1.528-.688-.651 0-1.157.229-1.52.688-.363.459-.544 1.077-.544 1.856 0 .768.181 1.379.544 1.832.363.453.869.68 1.52.68zm11.984-6.8c.736 0 1.376.144 1.92.432v3.024h-1.792v-1.744h-.16c-.843 0-1.493.197-1.952.592-.459.395-.688.987-.688 1.776v2.672h2.288v1.616h-5.856v-1.616h1.728v-4.944h-1.728v-1.616h3.44v1.312c.224-.469.592-.837 1.104-1.104a3.61 3.61 0 0 1 1.696-.4zm9.6 8.368l-2.336-4.512-1.216 1.168v3.344h-1.84v-10.688l1.84-.864v6.176l2.848-2.8h2.192l-2.464 2.368 2.992 5.808h-2.016zm14.256 0v-10.704l1.84-.848v4.176c.533-.661 1.307-.992 2.32-.992.896 0 1.624.269 2.184.808s.84 1.395.84 2.568v4.992h-1.84v-4.608c0-.704-.157-1.216-.472-1.536-.315-.32-.723-.48-1.224-.48-.533 0-.968.155-1.304.464-.336.309-.504.816-.504 1.52v4.64h-1.84zm12.816.192c-.896 0-1.624-.235-2.184-.704s-.84-1.141-.84-2.016c0-.885.32-1.557.96-2.016.64-.459 1.408-.688 2.304-.688.779 0 1.456.144 2.032.432v-.48c0-.981-.539-1.472-1.616-1.472-.896 0-1.76.277-2.592.832l-.56-1.504c.992-.629 2.096-.944 3.312-.944 2.165 0 3.248 1.024 3.248 3.072v5.296h-1.792v-.64c-.576.555-1.333.832-2.272.832zm.336-1.616c.768 0 1.413-.272 1.936-.816v-1.056c-.491-.245-1.072-.368-1.744-.368-.512 0-.936.096-1.272.288-.336.192-.504.475-.504.848 0 .331.139.597.416.8.277.203.667.304 1.168.304zm10.72-6.944c.896 0 1.624.269 2.184.808s.84 1.395.84 2.568v4.992h-1.84v-4.608c0-.704-.155-1.216-.464-1.536-.309-.32-.72-.48-1.232-.48-1.205 0-1.808.661-1.808 1.984v4.64h-1.84v-8.176h1.696v1.008c.16-.32.472-.6.936-.84.464-.24.973-.36 1.528-.36zm8.992 8.56c-1.12 0-2-.376-2.64-1.128-.64-.752-.96-1.805-.96-3.16 0-1.312.328-2.352.984-3.12.656-.768 1.512-1.152 2.568-1.152.875 0 1.552.261 2.032.784v-3.12l1.84-.848v11.552h-1.84v-.624c-.171.224-.435.416-.792.576-.357.16-.755.24-1.192.24zm.256-1.76c.8 0 1.376-.267 1.728-.8v-3.456c-.384-.533-.971-.8-1.76-.8-.629 0-1.115.219-1.456.656-.341.437-.512 1.061-.512 1.872 0 .768.173 1.381.52 1.84.347.459.84.688 1.48.688zm10.8-.048h2.384v1.616h-6.608v-1.616h2.384v-8.32h-1.904l-.848-1.616h4.592v9.936zm12.672-2.88c0 .469-.021.843-.064 1.12h-5.568c.117.597.355 1.069.712 1.416s.819.52 1.384.52c.715 0 1.317-.267 1.808-.8l1.104 1.168c-.768.843-1.744 1.264-2.928 1.264-1.205 0-2.157-.389-2.856-1.168-.699-.779-1.048-1.819-1.048-3.12 0-1.323.352-2.365 1.056-3.128.704-.763 1.653-1.144 2.848-1.144 1.045 0 1.899.328 2.56.984.661.656.992 1.619.992 2.888zm-5.648-.448h3.84c-.053-.597-.243-1.048-.568-1.352a1.66 1.66 0 0 0-1.176-.456c-.587 0-1.059.16-1.416.48-.357.32-.584.763-.68 1.328zm11.824 5.136a4.672 4.672 0 0 1-1.92-.392c-.587-.261-1.056-.616-1.408-1.064l1.2-1.088c.672.651 1.413.976 2.224.976.395 0 .72-.069.976-.208.256-.139.384-.347.384-.624 0-.16-.077-.312-.232-.456a2.098 2.098 0 0 0-.536-.36 18.396 18.396 0 0 0-.896-.384 1.814 1.814 0 0 0-.208-.088 4.646 4.646 0 0 0-.112-.04 31.545 31.545 0 0 1-.88-.392 7.98 7.98 0 0 1-.696-.384c-.272-.165-.469-.323-.592-.472a2.265 2.265 0 0 1-.328-.568 1.991 1.991 0 0 1-.144-.776c0-.693.299-1.24.896-1.64.597-.4 1.349-.6 2.256-.6 1.269 0 2.288.432 3.056 1.296l-1.232 1.008c-.587-.491-1.216-.736-1.888-.736-.416 0-.749.061-1 .184s-.376.296-.376.52c0 .107.043.211.128.312s.235.208.448.32c.213.112.389.197.528.256s.373.152.704.28c.981.395 1.632.715 1.952.96.565.448.853 1.029.864 1.744 0 .757-.285 1.349-.856 1.776-.571.427-1.341.64-2.312.64zm-142.208 24c-1.6 0-2.4-.741-2.4-2.224v-4.528h-1.712v-1.616h1.712v-2.496l1.84-.88v3.376h2.784v1.616h-2.784v4.176c0 .629.384.944 1.152.944.448 0 .917-.128 1.408-.384l-.224 1.648c-.469.245-1.061.368-1.776.368zm5.52-.192v-10.704l1.84-.848v4.176c.533-.661 1.307-.992 2.32-.992.896 0 1.624.269 2.184.808s.84 1.395.84 2.568v4.992h-1.84v-4.608c0-.704-.157-1.216-.472-1.536-.315-.32-.723-.48-1.224-.48-.533 0-.968.155-1.304.464-.336.309-.504.816-.504 1.52v4.64h-1.84zm17.168-4.496c0 .469-.021.843-.064 1.12h-5.568c.117.597.355 1.069.712 1.416s.819.52 1.384.52c.715 0 1.317-.267 1.808-.8l1.104 1.168c-.768.843-1.744 1.264-2.928 1.264-1.205 0-2.157-.389-2.856-1.168-.699-.779-1.048-1.819-1.048-3.12 0-1.323.352-2.365 1.056-3.128.704-.763 1.653-1.144 2.848-1.144 1.045 0 1.899.328 2.56.984.661.656.992 1.619.992 2.888zm-5.648-.448h3.84c-.053-.597-.243-1.048-.568-1.352a1.66 1.66 0 0 0-1.176-.456c-.587 0-1.059.16-1.416.48-.357.32-.584.763-.68 1.328zm22.032 5.136c-.896 0-1.589-.272-2.08-.816v.624h-1.84v-10.704l1.84-.848v4.016c.224-.245.531-.445.92-.6a3.196 3.196 0 0 1 1.192-.232c1.024 0 1.856.384 2.496 1.152.64.768.96 1.808.96 3.12 0 1.365-.309 2.421-.928 3.168-.619.747-1.472 1.12-2.56 1.12zm-.288-1.76c.629 0 1.107-.221 1.432-.664.325-.443.488-1.064.488-1.864 0-.821-.163-1.448-.488-1.88-.325-.432-.803-.648-1.432-.648-.405 0-.765.083-1.08.248-.315.165-.552.355-.712.568v3.44c.395.533.992.8 1.792.8zm10.656-.048h2.384v1.616h-6.608v-1.616h2.384v-8.32h-1.904l-.848-1.616h4.592v9.936zm8.944 1.808c-1.205 0-2.16-.381-2.864-1.144-.704-.763-1.056-1.805-1.056-3.128 0-1.312.352-2.355 1.056-3.128.704-.773 1.659-1.16 2.864-1.16 1.216 0 2.173.387 2.872 1.16.699.773 1.048 1.816 1.048 3.128s-.349 2.352-1.048 3.12c-.699.768-1.656 1.152-2.872 1.152zm0-1.76c.661 0 1.171-.224 1.528-.672.357-.448.536-1.061.536-1.84 0-.779-.179-1.397-.536-1.856-.357-.459-.867-.688-1.528-.688-.651 0-1.157.229-1.52.688-.363.459-.544 1.077-.544 1.856 0 .768.181 1.379.544 1.832.363.453.869.68 1.52.68zm10.016 1.76c-1.152 0-2.064-.379-2.736-1.136-.672-.757-1.008-1.803-1.008-3.136 0-1.323.344-2.368 1.032-3.136.688-.768 1.603-1.152 2.744-1.152 1.739 0 2.859.741 3.36 2.224l-1.744.592c-.277-.715-.811-1.072-1.6-1.072-.608 0-1.08.229-1.416.688-.336.459-.504 1.077-.504 1.856 0 .779.168 1.392.504 1.84.336.448.797.672 1.384.672.853 0 1.413-.4 1.68-1.2l1.744.544c-.491 1.611-1.637 2.416-3.44 2.416zm11.568-.192l-2.336-4.512-1.216 1.168v3.344h-1.84v-10.688l1.84-.864v6.176l2.848-2.8h2.192l-2.464 2.368 2.992 5.808h-2.016zm8.144.192c-1.152 0-2.064-.379-2.736-1.136-.672-.757-1.008-1.803-1.008-3.136 0-1.323.344-2.368 1.032-3.136.688-.768 1.603-1.152 2.744-1.152 1.739 0 2.859.741 3.36 2.224l-1.744.592c-.277-.715-.811-1.072-1.6-1.072-.608 0-1.08.229-1.416.688-.336.459-.504 1.077-.504 1.856 0 .779.168 1.392.504 1.84.336.448.797.672 1.384.672.853 0 1.413-.4 1.68-1.2l1.744.544c-.491 1.611-1.637 2.416-3.44 2.416zm6.112-.192v-10.704l1.84-.848v4.176c.533-.661 1.307-.992 2.32-.992.896 0 1.624.269 2.184.808s.84 1.395.84 2.568v4.992h-1.84v-4.608c0-.704-.157-1.216-.472-1.536-.315-.32-.723-.48-1.224-.48-.533 0-.968.155-1.304.464-.336.309-.504.816-.504 1.52v4.64h-1.84zm12.816.192c-.896 0-1.624-.235-2.184-.704s-.84-1.141-.84-2.016c0-.885.32-1.557.96-2.016.64-.459 1.408-.688 2.304-.688.779 0 1.456.144 2.032.432v-.48c0-.981-.539-1.472-1.616-1.472-.896 0-1.76.277-2.592.832l-.56-1.504c.992-.629 2.096-.944 3.312-.944 2.165 0 3.248 1.024 3.248 3.072v5.296h-1.792v-.64c-.576.555-1.333.832-2.272.832zm.336-1.616c.768 0 1.413-.272 1.936-.816v-1.056c-.491-.245-1.072-.368-1.744-.368-.512 0-.936.096-1.272.288-.336.192-.504.475-.504.848 0 .331.139.597.416.8.277.203.667.304 1.168.304zm10.208-7.888c-.299 0-.555-.107-.768-.32a1.067 1.067 0 0 1-.32-.784c0-.309.107-.568.32-.776a1.06 1.06 0 0 1 .768-.312c.309 0 .571.104.784.312.213.208.32.467.32.776s-.107.571-.32.784c-.213.213-.475.32-.784.32zm.928 7.696h2.256v1.616h-6.352v-1.616h2.256v-4.944h-2.256v-1.616h4.096v6.56zm9.44-6.752c.896 0 1.624.269 2.184.808s.84 1.395.84 2.568v4.992h-1.84v-4.608c0-.704-.155-1.216-.464-1.536-.309-.32-.72-.48-1.232-.48-1.205 0-1.808.661-1.808 1.984v4.64h-1.84v-8.176h1.696v1.008c.16-.32.472-.6.936-.84.464-.24.973-.36 1.528-.36zm131.685-13.706c-1.109 0-2.016-.355-2.72-1.064-.704-.71-1.056-1.843-1.056-3.4v-6.928h1.888v6.928c0 .97.166 1.656.496 2.056.331.4.795.6 1.392.6 1.259 0 1.888-.886 1.888-2.656v-6.928h1.904v6.928c0 1.536-.352 2.664-1.056 3.384-.704.72-1.616 1.08-2.736 1.08zm13.152-9.712h-2.352v7.84h2.352v1.68h-6.592v-1.68h2.336v-7.84h-2.336v-1.68h6.592v1.68zm12.32 11.6l6.288-13.472h1.888l-6.288 13.472h-1.888zm23.52-1.888c-1.12 0-2-.376-2.64-1.128-.64-.752-.96-1.806-.96-3.16 0-1.312.328-2.352.984-3.12.656-.768 1.512-1.152 2.568-1.152.875 0 1.552.261 2.032.784v-3.12l1.84-.848v11.552h-1.84v-.624c-.17.224-.434.416-.792.576-.357.16-.754.24-1.192.24zm.256-1.76c.8 0 1.376-.267 1.728-.8v-3.456c-.384-.534-.97-.8-1.76-.8-.629 0-1.114.218-1.456.656-.341.437-.512 1.061-.512 1.872 0 .768.174 1.381.52 1.84.347.458.84.688 1.48.688zm9.264 1.76c-.896 0-1.624-.235-2.184-.704-.56-.47-.84-1.142-.84-2.016 0-.886.32-1.558.96-2.016.64-.459 1.408-.688 2.304-.688.779 0 1.456.144 2.032.432v-.48c0-.982-.538-1.472-1.616-1.472-.896 0-1.76.277-2.592.832l-.56-1.504c.992-.63 2.096-.944 3.312-.944 2.166 0 3.248 1.024 3.248 3.072v5.296h-1.792v-.64c-.576.554-1.333.832-2.272.832zm.336-1.616c.768 0 1.414-.272 1.936-.816v-1.056c-.49-.246-1.072-.368-1.744-.368-.512 0-.936.096-1.272.288-.336.192-.504.474-.504.848 0 .33.139.597.416.8.278.202.667.304 1.168.304zm6.624 4.64v-11.392h1.84v.624c.502-.544 1.168-.816 2-.816 1.099 0 1.971.378 2.616 1.136.646.757.968 1.808.968 3.152 0 1.312-.333 2.352-1 3.12-.666.768-1.522 1.152-2.568 1.152-.853 0-1.525-.283-2.016-.848v3.024l-1.84.848zm3.584-4.784c.63 0 1.118-.216 1.464-.648.347-.432.52-1.054.52-1.864 0-.779-.173-1.398-.52-1.856-.346-.459-.84-.688-1.48-.688-.768 0-1.344.272-1.728.816v3.424c.384.544.966.816 1.744.816zm6.272 4.784v-11.392h1.84v.624c.502-.544 1.168-.816 2-.816 1.099 0 1.971.378 2.616 1.136.646.757.968 1.808.968 3.152 0 1.312-.333 2.352-1 3.12-.666.768-1.522 1.152-2.568 1.152-.853 0-1.525-.283-2.016-.848v3.024l-1.84.848zm3.584-4.784c.63 0 1.118-.216 1.464-.648.347-.432.52-1.054.52-1.864 0-.779-.173-1.398-.52-1.856-.346-.459-.84-.688-1.48-.688-.768 0-1.344.272-1.728.816v3.424c.384.544.966.816 1.744.816zm150.513.135v-11.2h2.816c.725 0 1.381.106 1.968.32.586.213 1.074.496 1.464.848.389.352.714.77.976 1.256.261.485.45.992.568 1.52.117.528.176 1.08.176 1.656 0 .533-.054 1.056-.16 1.568a5.936 5.936 0 0 1-.544 1.512 4.796 4.796 0 0 1-.968 1.296c-.39.368-.888.664-1.496.888-.608.224-1.291.336-2.048.336h-2.752zm1.904-1.792h1.04c.544 0 1.021-.112 1.432-.336a2.44 2.44 0 0 0 .952-.904c.224-.379.389-.784.496-1.216.106-.432.16-.883.16-1.352 0-1.046-.24-1.942-.72-2.688-.48-.747-1.195-1.12-2.144-1.12h-1.216v7.616zm15.392-2.704c0 .469-.022.842-.064 1.12h-5.568c.117.597.354 1.069.712 1.416.357.346.818.52 1.384.52.714 0 1.317-.267 1.808-.8l1.104 1.168c-.768.842-1.744 1.264-2.928 1.264-1.206 0-2.158-.39-2.856-1.168-.699-.779-1.048-1.819-1.048-3.12 0-1.323.352-2.366 1.056-3.128.704-.763 1.653-1.144 2.848-1.144 1.045 0 1.898.328 2.56.984.661.656.992 1.618.992 2.888zm-5.648-.448h3.84c-.054-.598-.243-1.048-.568-1.352a1.663 1.663 0 0 0-1.176-.456c-.587 0-1.059.16-1.416.48-.358.32-.584.762-.68 1.328zm10.88 4.944l-3.184-8.176h1.968l1.888 5.184c.117.362.197.656.24.88.053-.288.133-.582.24-.88l1.872-5.184h1.952l-3.184 8.176h-1.792zm14.48-4.496c0 .469-.022.842-.064 1.12h-5.568c.117.597.354 1.069.712 1.416.357.346.818.52 1.384.52.714 0 1.317-.267 1.808-.8l1.104 1.168c-.768.842-1.744 1.264-2.928 1.264-1.206 0-2.158-.39-2.856-1.168-.699-.779-1.048-1.819-1.048-3.12 0-1.323.352-2.366 1.056-3.128.704-.763 1.653-1.144 2.848-1.144 1.045 0 1.898.328 2.56.984.661.656.992 1.618.992 2.888zm-5.648-.448h3.84c-.054-.598-.243-1.048-.568-1.352a1.663 1.663 0 0 0-1.176-.456c-.587 0-1.059.16-1.416.48-.358.32-.584.762-.68 1.328zm12.688 3.328h2.384v1.616h-6.608v-1.616h2.384v-8.32h-1.904l-.848-1.616h4.592v9.936zm8.944 1.808c-1.206 0-2.16-.382-2.864-1.144-.704-.763-1.056-1.806-1.056-3.128 0-1.312.352-2.355 1.056-3.128.704-.774 1.658-1.16 2.864-1.16 1.216 0 2.173.386 2.872 1.16.698.773 1.048 1.816 1.048 3.128s-.35 2.352-1.048 3.12c-.699.768-1.656 1.152-2.872 1.152zm0-1.76c.661 0 1.17-.224 1.528-.672.357-.448.536-1.062.536-1.84 0-.779-.179-1.398-.536-1.856-.358-.459-.867-.688-1.528-.688-.651 0-1.158.229-1.52.688-.363.458-.544 1.077-.544 1.856 0 .768.181 1.378.544 1.832.362.453.869.68 1.52.68zm6.336 4.784v-11.392h1.84v.624c.501-.544 1.168-.816 2-.816 1.098 0 1.97.378 2.616 1.136.645.757.968 1.808.968 3.152 0 1.312-.334 2.352-1 3.12-.667.768-1.523 1.152-2.568 1.152-.854 0-1.526-.283-2.016-.848v3.024l-1.84.848zm3.584-4.784c.629 0 1.117-.216 1.464-.648.346-.432.52-1.054.52-1.864 0-.779-.174-1.398-.52-1.856-.347-.459-.84-.688-1.48-.688-.768 0-1.344.272-1.728.816v3.424c.384.544.965.816 1.744.816zm13.52-2.928c0 .469-.022.842-.064 1.12h-5.568c.117.597.354 1.069.712 1.416.357.346.818.52 1.384.52.714 0 1.317-.267 1.808-.8l1.104 1.168c-.768.842-1.744 1.264-2.928 1.264-1.206 0-2.158-.39-2.856-1.168-.699-.779-1.048-1.819-1.048-3.12 0-1.323.352-2.366 1.056-3.128.704-.763 1.653-1.144 2.848-1.144 1.045 0 1.898.328 2.56.984.661.656.992 1.618.992 2.888zm-5.648-.448h3.84c-.054-.598-.243-1.048-.568-1.352a1.663 1.663 0 0 0-1.176-.456c-.587 0-1.059.16-1.416.48-.358.32-.584.762-.68 1.328zm13.904-3.424c.736 0 1.376.144 1.92.432v3.024h-1.792v-1.744h-.16c-.843 0-1.494.197-1.952.592-.459.394-.688.986-.688 1.776v2.672h2.288v1.616h-5.856v-1.616h1.728v-4.944h-1.728v-1.616h3.44v1.312c.224-.47.592-.838 1.104-1.104a3.61 3.61 0 0 1 1.696-.4z" fill="#2c2f31" fill-rule="nonzero"/>
    <g stroke="#2c2f31" stroke-linecap="butt" stroke-linejoin="miter">
        <path d="M377.69 2.736L264.274 54.583a3.005 3.005 0 0 0-1.753 2.722l-.246 116.834v.007c0 1.646 1.354 3 3 3 .438 0 .872-.096 1.27-.282l113.366-52.94a3.003 3.003 0 0 0 1.73-2.71l.298-115.743v-.007c0-1.646-1.355-3-3-3a3.01 3.01 0 0 0-1.247.271l-.002.001z" fill="#fff" fill-opacity=".91"/>
        <path d="M289.071 55.106c-1.42 0-2.574-1.285-2.579-2.871v-.01a2.876 2.876 0 0 1 2.862-2.862h.002c1.586 0 2.74 1.286 2.579 2.872-.162 1.586-1.444 2.871-2.864 2.871zm-9 4c-1.42 0-2.574-1.285-2.579-2.871v-.01a2.876 2.876 0 0 1 2.862-2.862h.002c1.586 0 2.74 1.286 2.579 2.872-.162 1.586-1.444 2.871-2.864 2.871zm-9 4c-1.42 0-2.574-1.285-2.579-2.871v-.01a2.876 2.876 0 0 1 2.862-2.862h.002c1.586 0 2.74 1.286 2.579 2.872-.162 1.586-1.444 2.871-2.864 2.871zm110.592-45.523L262.22 71.311" fill="none"/>
    </g>
    <circle cx="552.01" cy="106.235" r="50" fill="#f7f7f7"/>
    <g stroke="#2c2f31">
        <path d="M562.704 120.162c-1.11 2.445.534 4.405 2.035 5.396-1.577 3.296-6.697 6.114-11.953 6.114-5.256 0-10.864-2.84-11.953-6.114 1.502-.852 3.168-2.937 2.012-5.396h19.86-.001z" fill="none"/>
        <path d="M554.423 124.589h-3.243a10.599 10.599 0 0 1-7.507-3.136l-2.477-2.442a19.585 19.585 0 0 1-5.676-13.8V92.363c0-17.24 34.532-17.24 34.532 0v12.848a19.594 19.594 0 0 1-5.675 13.8l-2.433 2.45a10.602 10.602 0 0 1-7.521 3.128z" fill="#fff" fill-rule="nonzero"/>
        <path d="M535.52 107.692v-7.03c0-2.342-1.779-3.123-2.872-2.342-1.747 1.195.479 6.248.479 6.248-1.293.812.167 3.694 2.393 3.124zm34.532-.887v-7.028c0-2.343 1.77-3.124 2.872-2.343 1.747 1.195-.479 6.247-.479 6.247 1.3.813-.167 3.702-2.393 3.124z" fill="none"/>
        <path d="M561.605 74.603c5.799 2.491 13.54 9.448 10.365 19.712-.467 1.524-1.143.99-1.896.853 0 0-.12-5.989-3.008-5.372-6.875 1.463-10.26-4.137-18.61 2.004-1.158-1.928-.36-6.309 2.58-8.61-6.882 0-15.562 4.275-15.562 9.41 0 0-2.302-1.722-2.49-3.42-.865-7.666 3.02-11.568 9.805-14.493 5.525-2.382 15.724-1.41 18.816-.084z" fill="#fff" fill-rule="nonzero"/>
        <circle cx="561.64" cy="102.011" r="1.328" fill="none"/>
        <circle cx="543.932" cy="102.011" r="1.328" fill="none"/>
        <path d="M569.908 127.379s-5.112-2.012-4.915-1.9c-1.605 3.401-7.012 6.33-12.207 6.33-5.195 0-11.026-2.929-12.222-6.292l-4.703 1.937c-7.146 2.888-11.826 9.767-11.851 17.417v13.364h57.552v-13.514c-.02-7.576-4.61-14.406-11.654-17.342z" fill="#e8f7fc" fill-rule="nonzero"/>
        <path d="M537.734 157.862V144.42m30.99 13.442V144.42m-11.068-31.341s-2.182 2.656-4.87 2.656-4.87-2.656-4.87-2.656" fill="none"/>
    </g>
    <path d="M282.648 134.141l79.055-36.547-79.055 36.547zm-.017 8.873l79.053-36.547-79.053 36.547zm-.018 8.048l79.053-36.548-79.053 36.548zm59.698-91.693L281.902 86.08c-.696.398-1.257-.029-1.257-.953l.006-2.061c.002-.924.566-1.997 1.26-2.397l60.41-26.709c.696-.398 1.256.027 1.256.953l-.005 2.061c0 .924-.567 1.995-1.261 2.395m-60.898 39.042l38.124-16.904-38.124 16.904z" fill="none" stroke="#2c2f31" stroke-width="1.16" stroke-linecap="butt" stroke-linejoin="miter"/>
</svg>
