<svg clip-rule="evenodd" fill-rule="evenodd" height="349" stroke-linecap="round" stroke-linejoin="round" width="736" xmlns="http://www.w3.org/2000/svg"><path d="m594.948 1.072h140.297v44.629h-140.297zm0 120.253h140.297v44.629h-140.297zm0 118.907h140.297v44.629h-140.297z" fill="#fff" stroke="#2e3031"/><path d="m577.295 22.88-13.216 11.329z" fill="none" stroke="#2c2f31"/><path d="m577.346 22.383a.516.516 0 0 1 .275.877l-13.216 11.329c-.697.538-1.06-.371-.651-.759l13.216-11.329c.09-.07.092-.133.376-.118z" fill="#333" fill-rule="nonzero"/><path d="m563.872 10.668c.093.014.139.012.276.118l13.217 11.33c.24.227.193.372.158.504-.085.332-.518.48-.809.255l-13.217-11.33c-.328-.311-.22-.907.375-.877z" fill="#333" fill-rule="nonzero"/><path d="m577.295 143.872-13.216 11.329z" fill="none" stroke="#2c2f31"/><path d="m577.346 143.374a.516.516 0 0 1 .275.877l-13.216 11.329c-.697.538-1.06-.371-.651-.759l13.216-11.329c.183-.142.179-.128.376-.118z" fill="#333" fill-rule="nonzero"/><path d="m563.872 131.659c.171.026.202.061.276.118l13.217 11.33c.397.378-.087 1.196-.651.759l-13.217-11.33c-.328-.311-.22-.906.375-.877z" fill="#333" fill-rule="nonzero"/><path d="m577.295 263.814-13.216 11.329z" fill="none" stroke="#2c2f31"/><path d="m577.346 263.317a.516.516 0 0 1 .275.877l-13.216 11.329c-.448.346-1.138-.298-.651-.759l13.216-11.329c.089-.07.092-.133.376-.118z" fill="#333" fill-rule="nonzero"/><path d="m563.872 251.602c.171.026.202.061.276.118l13.217 11.33c.41.389-.12 1.169-.651.759l-13.217-11.33c-.328-.311-.22-.907.375-.877z" fill="#333" fill-rule="nonzero"/><path d="m576.677 263.412c.628.42.27.654.27.654l-.461.308h-53.001s-.215.061-.462-.308l.109-.545.353-.147h53.001zm-54-241.084c.369.247.309.462.309.462v120.66h53.5l.461.308-.108.545-.353.147h-53.5v119.196l-.309.462-.545-.109-.146-.353v-119.196h-37.5l-.354-.147c-.384-.575-.288-.514.162-.815l.192-.038h37.5v-120.66l.308-.462s.171-.042.383 0zm54-.027c.628.419.27.653.27.653l-.461.308h-53.001s-.215.061-.462-.308l.109-.545.353-.147h53.001z" fill="#333" fill-rule="nonzero"/><path d="m616.056 28.907v-11.2h3.776c1.258 0 2.17.285 2.736.856.565.571.848 1.283.848 2.136 0 1.099-.486 1.867-1.456 2.304.597.203 1.053.544 1.368 1.024a2.86 2.86 0 0 1 .472 1.6c0 .896-.302 1.667-.904 2.312-.603.645-1.544.968-2.824.968zm1.904-6.672h1.616c.64 0 1.122-.125 1.448-.376.325-.251.488-.595.488-1.032 0-.907-.544-1.36-1.632-1.36h-1.92zm0 4.912h2.24c.608 0 1.042-.147 1.304-.44.261-.293.392-.648.392-1.064 0-1.109-.72-1.664-2.16-1.664h-1.776zm12.576.144h2.384v1.616h-6.608v-1.616h2.384v-8.32h-1.904l-.848-1.616h4.592zm8.944 1.808c-1.206 0-2.16-.381-2.864-1.144s-1.056-1.805-1.056-3.128c0-1.312.352-2.355 1.056-3.128s1.658-1.16 2.864-1.16c1.216 0 2.173.387 2.872 1.16.698.773 1.048 1.816 1.048 3.128s-.35 2.352-1.048 3.12c-.699.768-1.656 1.152-2.872 1.152zm0-1.76c.661 0 1.17-.224 1.528-.672.357-.448.536-1.061.536-1.84s-.179-1.397-.536-1.856c-.358-.459-.867-.688-1.528-.688-.651 0-1.158.229-1.52.688-.363.459-.544 1.077-.544 1.856 0 .768.181 1.379.544 1.832.362.453.869.68 1.52.68zm10.016 1.76c-1.152 0-2.064-.379-2.736-1.136s-1.008-1.803-1.008-3.136c0-1.323.344-2.368 1.032-3.136s1.602-1.152 2.744-1.152c1.738 0 2.858.741 3.36 2.224l-1.744.592c-.278-.715-.811-1.072-1.6-1.072-.608 0-1.08.229-1.416.688s-.504 1.077-.504 1.856.168 1.392.504 1.84.797.672 1.384.672c.853 0 1.413-.4 1.68-1.2l1.744.544c-.491 1.611-1.638 2.416-3.44 2.416zm11.568-.192-2.336-4.512-1.216 1.168v3.344h-1.84v-10.688l1.84-.864v6.176l2.848-2.8h2.192l-2.464 2.368 2.992 5.808zm8.144.192c-1.152 0-2.064-.379-2.736-1.136s-1.008-1.803-1.008-3.136c0-1.323.344-2.368 1.032-3.136s1.602-1.152 2.744-1.152c1.738 0 2.858.741 3.36 2.224l-1.744.592c-.278-.715-.811-1.072-1.6-1.072-.608 0-1.08.229-1.416.688s-.504 1.077-.504 1.856.168 1.392.504 1.84.797.672 1.384.672c.853 0 1.413-.4 1.68-1.2l1.744.544c-.491 1.611-1.638 2.416-3.44 2.416zm6.112-.192v-10.704l1.84-.848v4.176c.533-.661 1.306-.992 2.32-.992.896 0 1.624.269 2.184.808s.84 1.395.84 2.568v4.992h-1.84v-4.608c0-.704-.158-1.216-.472-1.536-.315-.32-.723-.48-1.224-.48-.534 0-.968.155-1.304.464s-.504.816-.504 1.52v4.64zm12.816.192c-.896 0-1.624-.235-2.184-.704s-.84-1.141-.84-2.016c0-.885.32-1.557.96-2.016s1.408-.688 2.304-.688c.778 0 1.456.144 2.032.432v-.48c0-.981-.539-1.472-1.616-1.472-.896 0-1.76.277-2.592.832l-.56-1.504c.992-.629 2.096-.944 3.312-.944 2.165 0 3.248 1.024 3.248 3.072v5.296h-1.792v-.64c-.576.555-1.334.832-2.272.832zm.336-1.616c.768 0 1.413-.272 1.936-.816v-1.056c-.491-.245-1.072-.368-1.744-.368-.512 0-.936.096-1.272.288s-.504.475-.504.848c0 .331.138.597.416.8.277.203.666.304 1.168.304zm10.208-7.888c-.299 0-.555-.107-.768-.32a1.064 1.064 0 0 1 -.32-.784c0-.309.106-.568.32-.776a1.06 1.06 0 0 1 .768-.312c.309 0 .57.104.784.312.213.208.32.467.32.776s-.107.571-.32.784c-.214.213-.475.32-.784.32zm.928 7.696h2.256v1.616h-6.352v-1.616h2.256v-4.944h-2.256v-1.616h4.096zm9.44-6.752c.896 0 1.624.269 2.184.808s.84 1.395.84 2.568v4.992h-1.84v-4.608c0-.704-.155-1.216-.464-1.536-.31-.32-.72-.48-1.232-.48-1.206 0-1.808.661-1.808 1.984v4.64h-1.84v-8.176h1.696v1.008c.16-.32.472-.6.936-.84s.973-.36 1.528-.36zm-82.153 128.668v-11.2h2.816c.725 0 1.381.107 1.968.32s1.075.496 1.464.848.715.771.976 1.256.451.992.568 1.52.176 1.08.176 1.656c0 .533-.053 1.056-.16 1.568a5.936 5.936 0 0 1 -.544 1.512 4.796 4.796 0 0 1 -.968 1.296c-.389.368-.888.664-1.496.888s-1.291.336-2.048.336zm1.904-1.792h1.04c.544 0 1.021-.112 1.432-.336s.728-.525.952-.904.389-.784.496-1.216.16-.883.16-1.352c0-1.045-.24-1.941-.72-2.688s-1.195-1.12-2.144-1.12h-1.216zm11.04 1.984c-.896 0-1.624-.235-2.184-.704s-.84-1.141-.84-2.016c0-.885.32-1.557.96-2.016s1.408-.688 2.304-.688c.779 0 1.456.144 2.032.432v-.48c0-.981-.539-1.472-1.616-1.472-.896 0-1.76.277-2.592.832l-.56-1.504c.992-.629 2.096-.944 3.312-.944 2.165 0 3.248 1.024 3.248 3.072v5.296h-1.792v-.64c-.576.555-1.333.832-2.272.832zm.336-1.616c.768 0 1.413-.272 1.936-.816v-1.056c-.491-.245-1.072-.368-1.744-.368-.512 0-.936.096-1.272.288s-.504.475-.504.848c0 .331.139.597.416.8s.667.304 1.168.304zm10.896 1.616c-1.6 0-2.4-.741-2.4-2.224v-4.528h-1.712v-1.616h1.712v-2.496l1.84-.88v3.376h2.784v1.616h-2.784v4.176c0 .629.384.944 1.152.944.448 0 .917-.128 1.408-.384l-.224 1.648c-.469.245-1.061.368-1.776.368zm8.48 0c-.896 0-1.624-.235-2.184-.704s-.84-1.141-.84-2.016c0-.885.32-1.557.96-2.016s1.408-.688 2.304-.688c.779 0 1.456.144 2.032.432v-.48c0-.981-.539-1.472-1.616-1.472-.896 0-1.76.277-2.592.832l-.56-1.504c.992-.629 2.096-.944 3.312-.944 2.165 0 3.248 1.024 3.248 3.072v5.296h-1.792v-.64c-.576.555-1.333.832-2.272.832zm.336-1.616c.768 0 1.413-.272 1.936-.816v-1.056c-.491-.245-1.072-.368-1.744-.368-.512 0-.936.096-1.272.288s-.504.475-.504.848c0 .331.139.597.416.8s.667.304 1.168.304zm10.544 1.616c-.896 0-1.589-.272-2.08-.816v.624h-1.84v-10.704l1.84-.848v4.016c.224-.245.531-.445.92-.6a3.196 3.196 0 0 1 1.192-.232c1.024 0 1.856.384 2.496 1.152s.96 1.808.96 3.12c0 1.365-.309 2.421-.928 3.168s-1.472 1.12-2.56 1.12zm-.288-1.76c.629 0 1.107-.221 1.432-.664s.488-1.064.488-1.864c0-.821-.163-1.448-.488-1.88s-.803-.648-1.432-.648c-.405 0-.765.083-1.08.248s-.552.355-.712.568v3.44c.395.533.992.8 1.792.8zm9.12 1.76c-.896 0-1.624-.235-2.184-.704s-.84-1.141-.84-2.016c0-.885.32-1.557.96-2.016s1.408-.688 2.304-.688c.779 0 1.456.144 2.032.432v-.48c0-.981-.539-1.472-1.616-1.472-.896 0-1.76.277-2.592.832l-.56-1.504c.992-.629 2.096-.944 3.312-.944 2.165 0 3.248 1.024 3.248 3.072v5.296h-1.792v-.64c-.576.555-1.333.832-2.272.832zm.336-1.616c.768 0 1.413-.272 1.936-.816v-1.056c-.491-.245-1.072-.368-1.744-.368-.512 0-.936.096-1.272.288s-.504.475-.504.848c0 .331.139.597.416.8s.667.304 1.168.304zm10.192 1.616a4.672 4.672 0 0 1 -1.92-.392c-.587-.261-1.056-.616-1.408-1.064l1.2-1.088c.672.651 1.413.976 2.224.976.395 0 .72-.069.976-.208s.384-.347.384-.624c0-.16-.077-.312-.232-.456a2.098 2.098 0 0 0 -.536-.36 18.396 18.396 0 0 0 -.896-.384 1.814 1.814 0 0 0 -.208-.088 4.646 4.646 0 0 0 -.112-.04 31.545 31.545 0 0 1 -.88-.392 7.98 7.98 0 0 1 -.696-.384c-.272-.165-.469-.323-.592-.472a2.265 2.265 0 0 1 -.328-.568 1.991 1.991 0 0 1 -.144-.776c0-.693.299-1.24.896-1.64s1.349-.6 2.256-.6c1.269 0 2.288.432 3.056 1.296l-1.232 1.008c-.587-.491-1.216-.736-1.888-.736-.416 0-.749.061-1 .184s-.376.296-.376.52c0 .107.043.211.128.312s.235.208.448.32.389.197.528.256.373.152.704.28c.981.395 1.632.715 1.952.96.565.448.853 1.029.864 1.744 0 .757-.285 1.349-.856 1.776s-1.341.64-2.312.64zm13.536-4.688c0 .469-.021.843-.064 1.12h-5.568c.117.597.355 1.069.712 1.416s.819.52 1.384.52c.715 0 1.317-.267 1.808-.8l1.104 1.168c-.768.843-1.744 1.264-2.928 1.264-1.205 0-2.157-.389-2.856-1.168s-1.048-1.819-1.048-3.12c0-1.323.352-2.365 1.056-3.128s1.653-1.144 2.848-1.144c1.045 0 1.899.328 2.56.984s.992 1.619.992 2.888zm-5.648-.448h3.84c-.053-.597-.243-1.048-.568-1.352a1.66 1.66 0 0 0 -1.176-.456c-.587 0-1.059.16-1.416.48s-.584.763-.68 1.328zm-81.951 122.957v-9.376h-3.248v-1.824h8.416v1.824h-3.264v9.376zm7.232 0v-10.704l1.84-.848v4.176c.533-.661 1.307-.992 2.32-.992.896 0 1.624.27 2.184.808.56.539.84 1.395.84 2.568v4.992h-1.84v-4.608c0-.704-.157-1.216-.472-1.536s-.723-.48-1.224-.48c-.533 0-.968.155-1.304.464-.336.31-.504.816-.504 1.52v4.64zm13.504-9.312c-.299 0-.555-.106-.768-.32a1.066 1.066 0 0 1 -.32-.784c0-.309.107-.568.32-.776a1.06 1.06 0 0 1 .768-.312c.309 0 .571.104.784.312s.32.467.32.776c0 .31-.107.571-.32.784-.213.214-.475.32-.784.32zm.928 7.696h2.256v1.616h-6.352v-1.616h2.256v-4.944h-2.256v-1.616h4.096zm10.992-6.752c.736 0 1.376.144 1.92.432v3.024h-1.792v-1.744h-.16c-.843 0-1.493.198-1.952.592-.459.395-.688.987-.688 1.776v2.672h2.288v1.616h-5.856v-1.616h1.728v-4.944h-1.728v-1.616h3.44v1.312c.224-.469.592-.837 1.104-1.104a3.623 3.623 0 0 1 1.696-.4zm7.44 8.56c-1.12 0-2-.376-2.64-1.128s-.96-1.805-.96-3.16c0-1.312.328-2.352.984-3.12s1.512-1.152 2.568-1.152c.875 0 1.552.262 2.032.784v-3.12l1.84-.848v11.552h-1.84v-.624c-.171.224-.435.416-.792.576s-.755.24-1.192.24zm.256-1.76c.8 0 1.376-.266 1.728-.8v-3.456c-.384-.533-.971-.8-1.76-.8-.629 0-1.115.219-1.456.656-.341.438-.512 1.062-.512 1.872 0 .768.173 1.382.52 1.84.347.459.84.688 1.48.688zm16.224 4.784v-11.392h1.84v.624c.501-.544 1.168-.816 2-.816 1.099 0 1.971.379 2.616 1.136.645.758.968 1.808.968 3.152 0 1.312-.333 2.352-1 3.12s-1.523 1.152-2.568 1.152c-.853 0-1.525-.282-2.016-.848v3.024zm3.584-4.784c.629 0 1.117-.216 1.464-.648s.52-1.053.52-1.864c0-.778-.173-1.397-.52-1.856-.347-.458-.84-.688-1.48-.688-.768 0-1.344.272-1.728.816v3.424c.384.544.965.816 1.744.816zm9.168 1.76c-.896 0-1.624-.234-2.184-.704-.56-.469-.84-1.141-.84-2.016 0-.885.32-1.557.96-2.016.64-.458 1.408-.688 2.304-.688.779 0 1.456.144 2.032.432v-.48c0-.981-.539-1.472-1.616-1.472-.896 0-1.76.278-2.592.832l-.56-1.504c.992-.629 2.096-.944 3.312-.944 2.165 0 3.248 1.024 3.248 3.072v5.296h-1.792v-.64c-.576.555-1.333.832-2.272.832zm.336-1.616c.768 0 1.413-.272 1.936-.816v-1.056c-.491-.245-1.072-.368-1.744-.368-.512 0-.936.096-1.272.288s-.504.475-.504.848c0 .331.139.598.416.8.277.203.667.304 1.168.304zm12.272-6.944c.736 0 1.376.144 1.92.432v3.024h-1.792v-1.744h-.16c-.843 0-1.493.198-1.952.592-.459.395-.688.987-.688 1.776v2.672h2.288v1.616h-5.856v-1.616h1.728v-4.944h-1.728v-1.616h3.44v1.312c.224-.469.592-.837 1.104-1.104a3.623 3.623 0 0 1 1.696-.4zm8.48 8.56c-1.6 0-2.4-.741-2.4-2.224v-4.528h-1.712v-1.616h1.712v-2.496l1.84-.88v3.376h2.784v1.616h-2.784v4.176c0 .63.384.944 1.152.944.448 0 .917-.128 1.408-.384l-.224 1.648c-.469.246-1.061.368-1.776.368zm6.912 2.912 1.248-3.248-3.056-8.032h1.872l1.872 4.992c.085.214.165.47.24.768.021-.074.048-.157.08-.248a8.09 8.09 0 0 0 .096-.288c.032-.101.059-.178.08-.232l1.872-4.992h1.888l-4.288 11.28z" fill="#595959" fill-rule="nonzero"/><path d="m362.188 130.737-51.801 28.97a3.012 3.012 0 0 1 -1.469.383 3.025 3.025 0 0 1 -3.01-3.01v-.006l.161-76.997c.004-1.86 1.139-4.019 2.537-4.821l52.768-29.435c1.397-.803 2.526.055 2.522 1.916l-.167 80.379a3.015 3.015 0 0 1 -1.541 2.621z" fill="#fff" stroke="#333" stroke-linecap="butt" stroke-linejoin="miter"/><path d="m362.188 130.737-51.801 28.97a3.012 3.012 0 0 1 -1.469.383 3.025 3.025 0 0 1 -3.01-3.01v-.006l.161-76.997c.004-1.86 1.139-4.019 2.537-4.821l52.768-29.435c1.397-.803 2.526.055 2.522 1.916l-.167 80.379a3.015 3.015 0 0 1 -1.541 2.621z" fill="#fff" stroke="#333" stroke-linecap="butt" stroke-linejoin="miter"/><path d="m354.856 105.593-37.567 20.416c-1.274.732-2.305-.051-2.301-1.746l.043-20.297c.003-1.696 1.039-3.665 2.313-4.398l37.567-20.418c1.274-.732 2.304.051 2.301 1.746l-.042 20.298c-.004 1.695-1.04 3.665-2.314 4.398z" fill="#fff" stroke="#333" stroke-linecap="butt" stroke-miterlimit="1.414"/><path d="m354.856 105.593-37.567 20.416c-1.274.732-2.305-.051-2.301-1.746l.043-20.297c.003-1.696 1.039-3.665 2.313-4.398l37.567-20.418c1.274-.732 2.304.051 2.301 1.746l-.042 20.298c-.004 1.695-1.04 3.665-2.314 4.398z" fill="#fff" stroke="#333" stroke-linecap="butt" stroke-miterlimit="1.414"/><path d="m358.414 80.609c-.013 6.29-4.474 13.946-9.963 17.101-5.487 3.153-9.926.61-9.914-5.68.014-6.291 4.474-13.947 9.963-17.1 5.487-3.153 9.927-.61 9.914 5.679" fill="#41ff8b" stroke="#333"/><path d="m358.414 80.609c-.013 6.29-4.474 13.946-9.963 17.101-5.487 3.153-9.926.61-9.914-5.68.014-6.291 4.474-13.947 9.963-17.1 5.487-3.153 9.927-.61 9.914 5.679" fill="#41ff8b" stroke="#333"/><path d="m315.153 138.151 38.433-22.081zm-.009 4.605 38.432-22.082zm-.009 4.176 38.432-22.081zm30.982-80.282-31.351 18.014c-.361.207-.652-.015-.652-.494l.003-1.07c.001-.479.294-1.036.654-1.244l31.351-18.013c.361-.207.652.014.652.495l-.003 1.069c0 .48-.294 1.035-.654 1.243" fill="none" stroke="#333" stroke-linecap="butt" stroke-linejoin="miter"/><path d="m345.11 86.194 2.682 3.681 4.957-8.068" fill="none" stroke="#333"/><path d="m345.11 86.194 2.682 3.681 4.957-8.068" fill="none" stroke="#f8f8f8"/><path d="m379.932 141.04-51.801 28.971a3.009 3.009 0 0 1 -1.469.383 3.024 3.024 0 0 1 -3.009-3.01v-.007l.16-76.996c.004-1.86 1.14-4.019 2.537-4.822l52.769-29.435c1.396-.802 2.526.056 2.522 1.917l-.168 80.379a3.012 3.012 0 0 1 -1.541 2.62z" fill="#fff" stroke="#333" stroke-linecap="butt" stroke-linejoin="miter"/><path d="m379.932 141.04-51.801 28.971a3.009 3.009 0 0 1 -1.469.383 3.024 3.024 0 0 1 -3.009-3.01v-.007l.16-76.996c.004-1.86 1.14-4.019 2.537-4.822l52.769-29.435c1.396-.802 2.526.056 2.522 1.917l-.168 80.379a3.012 3.012 0 0 1 -1.541 2.62z" fill="#fff" stroke="#333" stroke-linecap="butt" stroke-linejoin="miter"/><path d="m372.601 115.896-37.568 20.416c-1.274.733-2.304-.05-2.3-1.745l.042-20.297c.003-1.696 1.039-3.666 2.314-4.398l37.567-20.418c1.274-.732 2.303.05 2.3 1.746l-.042 20.297c-.004 1.696-1.039 3.666-2.313 4.398z" fill="#fff" stroke="#333" stroke-linecap="butt" stroke-miterlimit="1.414"/><path d="m372.601 115.896-37.568 20.416c-1.274.733-2.304-.05-2.3-1.745l.042-20.297c.003-1.696 1.039-3.666 2.314-4.398l37.567-20.418c1.274-.732 2.303.05 2.3 1.746l-.042 20.297c-.004 1.696-1.039 3.666-2.313 4.398z" fill="#fff" stroke="#333" stroke-linecap="butt" stroke-miterlimit="1.414"/><path d="m376.158 90.913c-.013 6.29-4.473 13.946-9.962 17.101-5.488 3.153-9.926.61-9.914-5.68.013-6.292 4.473-13.947 9.962-17.101 5.488-3.153 9.927-.61 9.914 5.68" fill="#41ff8b" stroke="#333"/><path d="m376.158 90.913c-.013 6.29-4.473 13.946-9.962 17.101-5.488 3.153-9.926.61-9.914-5.68.013-6.292 4.473-13.947 9.962-17.101 5.488-3.153 9.927-.61 9.914 5.68" fill="#41ff8b" stroke="#333"/><path d="m332.897 148.454 38.433-22.081zm-.009 4.605 38.432-22.081zm-.009 4.177 38.432-22.082zm30.982-80.282-31.351 18.014c-.361.206-.652-.015-.652-.495l.003-1.069c.001-.48.294-1.037.654-1.244l31.351-18.013c.362-.207.652.014.652.494l-.003 1.07c0 .479-.293 1.035-.654 1.243" fill="none" stroke="#333" stroke-linecap="butt" stroke-linejoin="miter"/><path d="m362.854 96.497 2.683 3.681 4.956-8.067" fill="none" stroke="#333"/><path d="m362.854 96.497 2.683 3.681 4.956-8.067" fill="none" stroke="#f8f8f8"/><g stroke="#333"><g stroke-linecap="butt"><path d="m397.677 151.241-51.802 28.971a3.004 3.004 0 0 1 -1.468.382 3.024 3.024 0 0 1 -3.01-3.009v-.007l.161-76.996c.004-1.86 1.139-4.019 2.537-4.822l52.768-29.435c1.397-.802 2.526.055 2.522 1.916l-.167 80.38a3.014 3.014 0 0 1 -1.541 2.62z" fill="#fff" stroke-linejoin="miter"/><path d="m390.345 126.097-37.567 20.416c-1.274.732-2.305-.05-2.301-1.746l.042-20.296c.003-1.697 1.04-3.666 2.314-4.398l37.567-20.418c1.274-.733 2.304.05 2.301 1.745l-.043 20.298c-.004 1.695-1.039 3.666-2.313 4.398z" fill="#fff" stroke-miterlimit="1.414"/><path d="m350.642 158.655 38.433-22.081zm-.009 4.605 38.432-22.081zm-.009 4.176 38.432-22.081zm30.982-80.282-31.351 18.015c-.362.206-.652-.016-.652-.495l.003-1.07c.001-.479.293-1.036.654-1.244l31.351-18.013c.361-.206.652.014.652.495l-.003 1.069c0 .48-.294 1.036-.654 1.243" fill="none" stroke-linejoin="miter"/></g><path d="m415.421 161.045-51.801 28.97a3.012 3.012 0 0 1 -1.469.383 3.024 3.024 0 0 1 -3.01-3.01v-.006l.161-76.996c.004-1.86 1.14-4.019 2.537-4.822l52.768-29.435c1.397-.803 2.527.055 2.523 1.916l-.168 80.38a3.012 3.012 0 0 1 -1.541 2.62z" fill="#fff" stroke-linecap="butt" stroke-linejoin="miter"/><path d="m415.421 161.045-51.801 28.97a3.012 3.012 0 0 1 -1.469.383 3.024 3.024 0 0 1 -3.01-3.01v-.006l.161-76.996c.004-1.86 1.14-4.019 2.537-4.822l52.768-29.435c1.397-.803 2.527.055 2.523 1.916l-.168 80.38a3.012 3.012 0 0 1 -1.541 2.62z" fill="#fff" stroke-linecap="butt" stroke-linejoin="miter"/><path d="m408.089 135.901-37.567 20.416c-1.274.732-2.304-.05-2.3-1.746l.042-20.296c.003-1.697 1.039-3.666 2.313-4.399l37.568-20.417c1.274-.733 2.303.05 2.3 1.745l-.042 20.298c-.004 1.695-1.039 3.665-2.314 4.398z" fill="#fff" stroke-linecap="butt" stroke-miterlimit="1.414"/><path d="m408.089 135.901-37.567 20.416c-1.274.732-2.304-.05-2.3-1.746l.042-20.296c.003-1.697 1.039-3.666 2.313-4.399l37.568-20.417c1.274-.733 2.303.05 2.3 1.745l-.042 20.298c-.004 1.695-1.039 3.665-2.314 4.398z" fill="#fff" stroke-linecap="butt" stroke-miterlimit="1.414"/><path d="m411.647 110.917c-.013 6.291-4.474 13.946-9.962 17.101-5.488 3.154-9.926.61-9.914-5.68.013-6.291 4.473-13.947 9.962-17.1 5.488-3.153 9.927-.61 9.914 5.679" fill="#41ff8b"/><path d="m411.647 110.917c-.013 6.291-4.474 13.946-9.962 17.101-5.488 3.154-9.926.61-9.914-5.68.013-6.291 4.473-13.947 9.962-17.1 5.488-3.153 9.927-.61 9.914 5.679" fill="#41ff8b"/><path d="m368.386 168.459 38.433-22.081zm-.009 4.605 38.432-22.081zm-.009 4.176 38.432-22.081zm30.982-80.282-31.351 18.014c-.361.207-.652-.015-.652-.494l.003-1.07c.001-.479.294-1.036.654-1.244l31.351-18.013c.361-.207.652.014.652.495l-.003 1.069c0 .48-.294 1.036-.654 1.243" fill="none" stroke-linecap="butt" stroke-linejoin="miter"/><path d="m398.343 116.502 2.682 3.681 4.957-8.068" fill="none"/></g><path d="m398.343 116.502 2.682 3.681 4.957-8.068" fill="none" stroke="#f8f8f8"/><path d="m433.165 171.349-51.801 28.97a3.005 3.005 0 0 1 -1.468.383 3.025 3.025 0 0 1 -3.01-3.01v-.006l.16-76.997c.004-1.86 1.14-4.019 2.538-4.821l52.768-29.435c1.396-.803 2.526.055 2.522 1.916l-.168 80.379a3.013 3.013 0 0 1 -1.541 2.621z" fill="#fff" stroke="#333" stroke-linecap="butt" stroke-linejoin="miter"/><path d="m433.165 171.349-51.801 28.97a3.005 3.005 0 0 1 -1.468.383 3.025 3.025 0 0 1 -3.01-3.01v-.006l.16-76.997c.004-1.86 1.14-4.019 2.538-4.821l52.768-29.435c1.396-.803 2.526.055 2.522 1.916l-.168 80.379a3.013 3.013 0 0 1 -1.541 2.621z" fill="#fff" stroke="#333" stroke-linecap="butt" stroke-linejoin="miter"/><path d="m425.834 146.204-37.567 20.416c-1.274.733-2.305-.05-2.301-1.745l.042-20.297c.003-1.696 1.04-3.666 2.314-4.398l37.567-20.418c1.274-.732 2.303.05 2.3 1.746l-.042 20.297c-.004 1.696-1.039 3.666-2.313 4.398z" fill="#fff" stroke="#333" stroke-linecap="butt" stroke-miterlimit="1.414"/><path d="m425.834 146.204-37.567 20.416c-1.274.733-2.305-.05-2.301-1.745l.042-20.297c.003-1.696 1.04-3.666 2.314-4.398l37.567-20.418c1.274-.732 2.303.05 2.3 1.746l-.042 20.297c-.004 1.696-1.039 3.666-2.313 4.398z" fill="#fff" stroke="#333" stroke-linecap="butt" stroke-miterlimit="1.414"/><path d="m429.391 121.221c-.013 6.29-4.473 13.946-9.962 17.101-5.488 3.153-9.926.61-9.914-5.68.013-6.292 4.474-13.947 9.962-17.101 5.488-3.153 9.927-.609 9.914 5.68" fill="#41ff8b" stroke="#333"/><path d="m429.391 121.221c-.013 6.29-4.473 13.946-9.962 17.101-5.488 3.153-9.926.61-9.914-5.68.013-6.292 4.474-13.947 9.962-17.101 5.488-3.153 9.927-.609 9.914 5.68" fill="#41ff8b" stroke="#333"/><path d="m386.131 178.762 38.433-22.081zm-.009 4.605 38.432-22.081zm-.009 4.177 38.432-22.081zm30.982-80.282-31.352 18.014c-.361.207-.652-.015-.652-.495l.003-1.069c.001-.48.294-1.036.654-1.244l31.352-18.013c.361-.207.652.014.652.494l-.003 1.07c0 .479-.294 1.035-.654 1.243" fill="none" stroke="#333" stroke-linecap="butt" stroke-linejoin="miter"/><path d="m416.087 126.806 2.683 3.681 4.956-8.068" fill="none" stroke="#333"/><path d="m416.087 126.806 2.683 3.681 4.956-8.068" fill="none" stroke="#f8f8f8"/><g stroke="#333" stroke-linecap="butt"><path d="m450.91 181.549-51.801 28.971a3.01 3.01 0 0 1 -1.469.382 3.024 3.024 0 0 1 -3.01-3.009v-.007l.161-76.996c.004-1.86 1.14-4.019 2.537-4.822l52.768-29.435c1.397-.802 2.526.056 2.522 1.917l-.167 80.379a3.012 3.012 0 0 1 -1.541 2.62z" fill="#fff" stroke-linejoin="miter"/><path d="m443.578 156.405-37.567 20.416c-1.274.732-2.304-.05-2.3-1.746l.042-20.296c.003-1.697 1.039-3.666 2.313-4.398l37.567-20.418c1.275-.733 2.304.05 2.301 1.745l-.042 20.298c-.004 1.695-1.04 3.666-2.314 4.398z" fill="#fff" stroke-miterlimit="1.414"/><path d="m403.875 188.963 38.433-22.081zm-.009 4.605 38.432-22.081zm-.009 4.177 38.432-22.082zm30.982-80.282-31.351 18.014c-.361.206-.652-.015-.652-.495l.003-1.069c.001-.48.294-1.037.654-1.244l31.351-18.014c.361-.206.652.015.652.495l-.003 1.07c0 .479-.294 1.035-.654 1.243" fill="none" stroke-linejoin="miter"/></g><path d="m448.017 130.584c-.013 6.182-4.396 13.706-9.791 16.807-5.393 3.099-9.755.599-9.743-5.583.013-6.183 4.396-13.707 9.791-16.805 5.393-3.099 9.756-.6 9.743 5.581" fill="#41ff8b" stroke="#2c2f31"/><path d="m442.507 130.435c.939.064 1.58 1.151 1.073 2.021l-4.871 7.929a1.133 1.133 0 0 1 -.341.372c-.559.414-1.417.297-1.862-.285l-2.637-3.617c-.75-1.085.958-3.114 2.146-1.564l1.469 2.017 3.869-6.295c.27-.375.547-.589 1.154-.578z" fill="#fff" fill-rule="nonzero" stroke="#fff" stroke-linecap="butt" stroke-miterlimit="1.414"/><path d="m399.921 239.098-116.313-68.837v-60.577l116.056 67.906" fill="#eee" fill-rule="nonzero" stroke="#fff" stroke-linecap="butt" stroke-miterlimit="1.414"/><path d="m400.242 239.787-117.313-70.837.524-59.491" fill="none" stroke="#2e3031"/><path d="m469.23 138.515v58.664l-69.55 42.331v-61.578" fill="#fff" fill-rule="nonzero" stroke="#2e3031"/><path d="m453.161 129.296 15.701 8.838-68.97 39.54-116.345-68.267 22.47-12.003" fill="none" stroke="#2e3031"/><g stroke="#333" stroke-linecap="butt"><path d="m59.002 171.766-51.801 28.971a3.008 3.008 0 0 1 -1.469.382 3.023 3.023 0 0 1 -3.009-3.009v-.007l.16-76.996c.004-1.86 1.14-4.019 2.537-4.822l52.769-29.435c1.396-.802 2.526.055 2.522 1.916l-.168 80.38a3.01 3.01 0 0 1 -1.541 2.62z" fill="#fff" stroke-linejoin="miter"/><path d="m51.671 145.97-37.568 21.068c-1.274.732-2.304-.05-2.3-1.746l.042-20.296c.003-1.697 1.039-3.666 2.314-4.398l37.567-21.07c1.274-.733 2.303.05 2.3 1.745l-.042 20.298c-.004 1.695-1.039 3.666-2.313 4.398z" fill="#fff" stroke-miterlimit="1.414"/><path d="m11.968 179.18 38.433-22.081zm-.009 4.605 38.432-22.081zm-.01 4.176 38.432-22.081zm30.982-80.282-31.351 18.015c-.361.206-.652-.015-.652-.495l.003-1.069c.001-.48.294-1.037.654-1.245l31.351-18.013c.362-.206.653.014.653.495l-.003 1.069c0 .48-.294 1.036-.655 1.243z" fill="none" stroke-linejoin="miter"/><path d="m104.611 241.705-51.801 28.971a3.01 3.01 0 0 1 -1.469.382 3.024 3.024 0 0 1 -3.01-3.009v-.007l.161-76.996c.004-1.86 1.139-4.019 2.537-4.822l52.768-29.435c1.397-.802 2.526.055 2.522 1.916l-.167 80.38a3.014 3.014 0 0 1 -1.541 2.62z" fill="#fff" stroke-linejoin="miter"/><path d="m97.279 215.909-37.567 21.068c-1.274.732-2.305-.05-2.301-1.746l.043-20.296c.003-1.697 1.039-3.666 2.313-4.398l37.567-21.071c1.274-.732 2.304.051 2.301 1.746l-.042 20.298c-.004 1.695-1.04 3.665-2.314 4.398z" fill="#fff" stroke-miterlimit="1.414"/><path d="m57.576 249.119 38.433-22.081zm-.009 4.605 38.432-22.081zm-.009 4.176 38.432-22.081zm30.982-80.282-31.351 18.014c-.361.207-.652-.015-.652-.494l.003-1.07c.001-.479.294-1.036.654-1.244l31.351-18.013c.361-.206.652.014.652.495l-.003 1.069c0 .48-.294 1.036-.654 1.243z" fill="none" stroke-linejoin="miter"/><path d="m216.335 120.32-51.801 28.971a3.012 3.012 0 0 1 -1.469.383 3.025 3.025 0 0 1 -3.01-3.01v-.007l.161-76.996c.004-1.86 1.14-4.019 2.537-4.822l52.768-29.435c1.397-.802 2.526.056 2.522 1.917l-.167 80.379a3.012 3.012 0 0 1 -1.541 2.62z" fill="#fff" stroke-linejoin="miter"/><path d="m209.003 94.524-37.567 21.068c-1.274.732-2.304-.05-2.3-1.746l.042-20.296c.003-1.696 1.039-3.666 2.313-4.398l37.567-21.07c1.275-.733 2.304.05 2.301 1.745l-.042 20.298c-.004 1.695-1.04 3.666-2.314 4.398z" fill="#fff" stroke-miterlimit="1.414"/><path d="m169.3 127.734 38.433-22.081zm-.009 4.605 38.432-22.081zm-.009 4.177 38.432-22.082zm30.982-80.282-31.351 18.014c-.361.206-.652-.015-.652-.495l.003-1.069c.001-.48.294-1.037.654-1.244l31.351-18.013c.361-.207.652.014.652.494l-.003 1.07c0 .479-.294 1.035-.654 1.243z" fill="none" stroke-linejoin="miter"/><path d="m193.837 232.556-51.801 28.971c-.449.25-.955.382-1.469.382a3.024 3.024 0 0 1 -3.01-3.009v-.007l.161-76.996c.004-1.86 1.139-4.019 2.537-4.822l52.768-29.435c1.397-.803 2.526.055 2.522 1.916l-.167 80.38a3.014 3.014 0 0 1 -1.541 2.62z" fill="#fff" stroke-linejoin="miter"/><path d="m186.505 206.76-37.567 21.068c-1.274.732-2.305-.05-2.301-1.746l.043-20.296c.003-1.697 1.039-3.666 2.313-4.399l37.567-21.07c1.274-.732 2.304.051 2.301 1.746l-.042 20.298c-.004 1.695-1.04 3.665-2.314 4.398z" fill="#fff" stroke-miterlimit="1.414"/><path d="m146.802 239.97 38.433-22.081zm-.009 4.605 38.432-22.081zm-.009 4.176 38.432-22.081zm30.982-80.282-31.351 18.014c-.361.207-.652-.015-.652-.494l.003-1.07c.001-.479.294-1.036.654-1.244l31.351-18.013c.361-.206.652.014.652.495l-.003 1.069c0 .48-.294 1.036-.654 1.243z" fill="none" stroke-linejoin="miter"/><path d="m124.552 166.658-51.801 28.97a3.012 3.012 0 0 1 -1.469.383 3.024 3.024 0 0 1 -3.01-3.01v-.006l.161-76.997c.004-1.86 1.139-4.018 2.537-4.821l52.768-29.435c1.397-.803 2.526.055 2.522 1.916l-.167 80.379a3.015 3.015 0 0 1 -1.541 2.621z" fill="#fff" stroke-linejoin="miter"/><path d="m117.22 140.862-37.567 21.068c-1.274.732-2.305-.05-2.301-1.746l.043-20.296c.003-1.697 1.039-3.666 2.313-4.399l37.567-21.07c1.274-.732 2.304.051 2.301 1.746l-.043 20.297c-.004 1.696-1.039 3.666-2.313 4.399z" fill="#fff" stroke-miterlimit="1.414"/><path d="m77.517 174.072 38.433-22.081zm-.009 4.605 38.432-22.082zm-.009 4.176 38.432-22.081zm30.982-80.282-31.351 18.014c-.362.207-.652-.015-.652-.494l.003-1.07c.001-.479.294-1.036.654-1.244l31.351-18.013c.361-.207.652.014.652.495l-.003 1.069c0 .48-.294 1.036-.654 1.243z" fill="none" stroke-linejoin="miter"/><path d="m169.551 183.977-51.801 28.97a3.012 3.012 0 0 1 -1.469.383 3.025 3.025 0 0 1 -3.01-3.01v-.006l.161-76.997c.004-1.86 1.139-4.018 2.537-4.821l52.768-29.435c1.397-.803 2.526.055 2.522 1.916l-.167 80.379a3.015 3.015 0 0 1 -1.541 2.621z" fill="#fff" stroke-linejoin="miter"/><path d="m162.219 158.181-37.567 21.068c-1.274.732-2.305-.05-2.3-1.746l.042-20.296c.003-1.697 1.039-3.666 2.313-4.399l37.567-21.07c1.274-.732 2.304.05 2.301 1.746l-.042 20.297c-.004 1.696-1.04 3.666-2.314 4.399z" fill="#fff" stroke-miterlimit="1.414"/><path d="m122.516 191.391 38.433-22.081zm-.009 4.605 38.432-22.082zm-.009 4.176 38.432-22.081zm30.982-80.282-31.351 18.014c-.361.207-.652-.015-.652-.494l.003-1.07c.001-.479.294-1.036.654-1.244l31.351-18.013c.361-.207.652.014.652.495l-.003 1.069c0 .48-.294 1.035-.654 1.243z" fill="none" stroke-linejoin="miter"/><path d="m150.647 99.466-51.801 28.97a3.012 3.012 0 0 1 -1.469.383 3.025 3.025 0 0 1 -3.01-3.01v-.006l.161-76.997c.004-1.86 1.139-4.019 2.537-4.821l52.768-29.435c1.397-.803 2.526.055 2.522 1.916l-.167 80.379a3.015 3.015 0 0 1 -1.541 2.621z" fill="#fff" stroke-linejoin="miter"/><path d="m143.315 73.669-37.567 21.068c-1.274.733-2.304-.05-2.3-1.745l.042-20.297c.003-1.696 1.039-3.666 2.313-4.398l37.567-21.07c1.274-.732 2.304.05 2.301 1.746l-.042 20.297c-.004 1.696-1.04 3.666-2.314 4.398z" fill="#fff" stroke-miterlimit="1.414"/><path d="m103.612 106.88 38.433-22.082zm-.009 4.604 38.432-22.081zm-.009 4.177 38.432-22.081zm30.982-80.282-31.351 18.014c-.361.207-.652-.015-.652-.495l.003-1.069c.001-.48.294-1.036.654-1.244l31.351-18.013c.361-.207.652.014.652.494l-.003 1.07c0 .479-.294 1.035-.654 1.243z" fill="none" stroke-linejoin="miter"/></g><path d="m306.159 347.131a4.087 4.087 0 0 1 -2.448-.784 4.179 4.179 0 0 1 -1.536-2.096l1.728-.64c.246.523.584.942 1.016 1.256a2.33 2.33 0 0 0 1.4.472c.491 0 .886-.128 1.184-.384.299-.256.448-.624.448-1.104 0-.405-.202-.765-.608-1.08-.405-.314-.97-.632-1.696-.952a16.031 16.031 0 0 1 -1.104-.528 7.07 7.07 0 0 1 -.936-.624 2.565 2.565 0 0 1 -.776-.944 2.828 2.828 0 0 1 -.256-1.216c0-.832.318-1.533.952-2.104.635-.57 1.47-.856 2.504-.856.822 0 1.539.224 2.152.672.614.448 1.022 1.019 1.224 1.712l-1.712.576c-.384-.778-.976-1.168-1.776-1.168-.416 0-.757.107-1.024.32-.266.214-.4.507-.4.88a.97.97 0 0 0 .032.248c.022.08.059.155.112.224.054.07.104.134.152.192.048.059.123.123.224.192.102.07.187.126.256.168.07.043.174.099.312.168.139.07.246.12.32.152.075.032.198.088.368.168.171.08.294.136.368.168.448.203.822.392 1.12.568.299.176.63.408.992.696.363.288.64.63.832 1.024.192.395.288.827.288 1.296 0 1.024-.36 1.835-1.08 2.432-.72.598-1.597.896-2.632.896zm10.48 0c-1.6 0-2.4-.741-2.4-2.224v-4.528h-1.712v-1.616h1.712v-2.496l1.84-.88v3.376h2.784v1.616h-2.784v4.176c0 .63.384.944 1.152.944.448 0 .918-.128 1.408-.384l-.224 1.648c-.469.246-1.061.368-1.776.368zm11.232-8.56c.736 0 1.376.144 1.92.432v3.024h-1.792v-1.744h-.16c-.842 0-1.493.198-1.952.592-.458.395-.688.987-.688 1.776v2.672h2.288v1.616h-5.856v-1.616h1.728v-4.944h-1.728v-1.616h3.44v1.312c.224-.469.592-.837 1.104-1.104a3.626 3.626 0 0 1 1.696-.4zm7.184 8.56c-.906 0-1.64-.269-2.2-.808-.56-.538-.84-1.4-.84-2.584v-4.976h1.84v4.576c0 1.355.56 2.032 1.68 2.032 1.206 0 1.808-.666 1.808-2v-4.608h1.84v8.176h-1.84v-.784c-.522.651-1.285.976-2.288.976zm10.56 0c-1.152 0-2.064-.378-2.736-1.136-.672-.757-1.008-1.802-1.008-3.136 0-1.322.344-2.368 1.032-3.136s1.603-1.152 2.744-1.152c1.739 0 2.859.742 3.36 2.224l-1.744.592c-.277-.714-.81-1.072-1.6-1.072-.608 0-1.08.23-1.416.688-.336.459-.504 1.078-.504 1.856 0 .779.168 1.392.504 1.84s.798.672 1.384.672c.854 0 1.414-.4 1.68-1.2l1.744.544c-.49 1.611-1.637 2.416-3.44 2.416zm10.448 0c-1.6 0-2.4-.741-2.4-2.224v-4.528h-1.712v-1.616h1.712v-2.496l1.84-.88v3.376h2.784v1.616h-2.784v4.176c0 .63.384.944 1.152.944.448 0 .918-.128 1.408-.384l-.224 1.648c-.469.246-1.061.368-1.776.368zm8.56 0c-.906 0-1.64-.269-2.2-.808-.56-.538-.84-1.4-.84-2.584v-4.976h1.84v4.576c0 1.355.56 2.032 1.68 2.032 1.206 0 1.808-.666 1.808-2v-4.608h1.84v8.176h-1.84v-.784c-.522.651-1.285.976-2.288.976zm12.528-8.56c.736 0 1.376.144 1.92.432v3.024h-1.792v-1.744h-.16c-.842 0-1.493.198-1.952.592-.458.395-.688.987-.688 1.776v2.672h2.288v1.616h-5.856v-1.616h1.728v-4.944h-1.728v-1.616h3.44v1.312c.224-.469.592-.837 1.104-1.104a3.626 3.626 0 0 1 1.696-.4zm11.456 3.872c0 .47-.021.843-.064 1.12h-5.568c.118.598.355 1.07.712 1.416.358.347.819.52 1.384.52.715 0 1.318-.266 1.808-.8l1.104 1.168c-.768.843-1.744 1.264-2.928 1.264-1.205 0-2.157-.389-2.856-1.168-.698-.778-1.048-1.818-1.048-3.12 0-1.322.352-2.365 1.056-3.128.704-.762 1.654-1.144 2.848-1.144 1.046 0 1.899.328 2.56.984.662.656.992 1.619.992 2.888zm-5.648-.448h3.84c-.053-.597-.242-1.048-.568-1.352a1.66 1.66 0 0 0 -1.176-.456c-.586 0-1.058.16-1.416.48-.357.32-.584.763-.68 1.328zm11.488 5.136c-1.12 0-2-.376-2.64-1.128s-.96-1.805-.96-3.16c0-1.312.328-2.352.984-3.12s1.512-1.152 2.568-1.152c.875 0 1.552.262 2.032.784v-3.12l1.84-.848v11.552h-1.84v-.624c-.17.224-.434.416-.792.576-.357.16-.754.24-1.192.24zm.256-1.76c.8 0 1.376-.266 1.728-.8v-3.456c-.384-.533-.97-.8-1.76-.8-.629 0-1.114.219-1.456.656-.341.438-.512 1.062-.512 1.872 0 .768.174 1.382.52 1.84.347.459.84.688 1.48.688zm19.456 1.76c-1.12 0-2-.376-2.64-1.128s-.96-1.805-.96-3.16c0-1.312.328-2.352.984-3.12s1.512-1.152 2.568-1.152c.875 0 1.552.262 2.032.784v-3.12l1.84-.848v11.552h-1.84v-.624c-.17.224-.434.416-.792.576-.357.16-.754.24-1.192.24zm.256-1.76c.8 0 1.376-.266 1.728-.8v-3.456c-.384-.533-.97-.8-1.76-.8-.629 0-1.114.219-1.456.656-.341.438-.512 1.062-.512 1.872 0 .768.174 1.382.52 1.84.347.459.84.688 1.48.688zm9.264 1.76c-.896 0-1.624-.234-2.184-.704-.56-.469-.84-1.141-.84-2.016 0-.885.32-1.557.96-2.016.64-.458 1.408-.688 2.304-.688.779 0 1.456.144 2.032.432v-.48c0-.981-.538-1.472-1.616-1.472-.896 0-1.76.278-2.592.832l-.56-1.504c.992-.629 2.096-.944 3.312-.944 2.166 0 3.248 1.024 3.248 3.072v5.296h-1.792v-.64c-.576.555-1.333.832-2.272.832zm.336-1.616c.768 0 1.414-.272 1.936-.816v-1.056c-.49-.245-1.072-.368-1.744-.368-.512 0-.936.096-1.272.288s-.504.475-.504.848c0 .331.139.598.416.8.278.203.667.304 1.168.304zm10.896 1.616c-1.6 0-2.4-.741-2.4-2.224v-4.528h-1.712v-1.616h1.712v-2.496l1.84-.88v3.376h2.784v1.616h-2.784v4.176c0 .63.384.944 1.152.944.448 0 .918-.128 1.408-.384l-.224 1.648c-.469.246-1.061.368-1.776.368zm8.48 0c-.896 0-1.624-.234-2.184-.704-.56-.469-.84-1.141-.84-2.016 0-.885.32-1.557.96-2.016.64-.458 1.408-.688 2.304-.688.779 0 1.456.144 2.032.432v-.48c0-.981-.538-1.472-1.616-1.472-.896 0-1.76.278-2.592.832l-.56-1.504c.992-.629 2.096-.944 3.312-.944 2.166 0 3.248 1.024 3.248 3.072v5.296h-1.792v-.64c-.576.555-1.333.832-2.272.832zm.336-1.616c.768 0 1.414-.272 1.936-.816v-1.056c-.49-.245-1.072-.368-1.744-.368-.512 0-.936.096-1.272.288s-.504.475-.504.848c0 .331.139.598.416.8.278.203.667.304 1.168.304zm140.866-.032v-11.2h2.816c.725 0 1.381.107 1.968.32.587.214 1.075.496 1.464.848s.715.771.976 1.256c.261.486.451.992.568 1.52s.176 1.08.176 1.656a7.64 7.64 0 0 1 -.16 1.568 5.936 5.936 0 0 1 -.544 1.512 4.796 4.796 0 0 1 -.968 1.296c-.389.368-.888.664-1.496.888s-1.291.336-2.048.336zm1.904-1.792h1.04c.544 0 1.021-.112 1.432-.336s.728-.525.952-.904a4.49 4.49 0 0 0 .496-1.216 5.6 5.6 0 0 0 .16-1.352c0-1.045-.24-1.941-.72-2.688-.48-.746-1.195-1.12-2.144-1.12h-1.216zm11.04 1.984c-.896 0-1.624-.234-2.184-.704-.56-.469-.84-1.141-.84-2.016 0-.885.32-1.557.96-2.016.64-.458 1.408-.688 2.304-.688.779 0 1.456.144 2.032.432v-.48c0-.981-.539-1.472-1.616-1.472-.896 0-1.76.278-2.592.832l-.56-1.504c.992-.629 2.096-.944 3.312-.944 2.165 0 3.248 1.024 3.248 3.072v5.296h-1.792v-.64c-.576.555-1.333.832-2.272.832zm.336-1.616c.768 0 1.413-.272 1.936-.816v-1.056c-.491-.245-1.072-.368-1.744-.368-.512 0-.936.096-1.272.288s-.504.475-.504.848c0 .331.139.598.416.8.277.203.667.304 1.168.304zm10.896 1.616c-1.6 0-2.4-.741-2.4-2.224v-4.528h-1.712v-1.616h1.712v-2.496l1.84-.88v3.376h2.784v1.616h-2.784v4.176c0 .63.384.944 1.152.944.448 0 .917-.128 1.408-.384l-.224 1.648c-.469.246-1.061.368-1.776.368zm8.48 0c-.896 0-1.624-.234-2.184-.704-.56-.469-.84-1.141-.84-2.016 0-.885.32-1.557.96-2.016.64-.458 1.408-.688 2.304-.688.779 0 1.456.144 2.032.432v-.48c0-.981-.539-1.472-1.616-1.472-.896 0-1.76.278-2.592.832l-.56-1.504c.992-.629 2.096-.944 3.312-.944 2.165 0 3.248 1.024 3.248 3.072v5.296h-1.792v-.64c-.576.555-1.333.832-2.272.832zm.336-1.616c.768 0 1.413-.272 1.936-.816v-1.056c-.491-.245-1.072-.368-1.744-.368-.512 0-.936.096-1.272.288s-.504.475-.504.848c0 .331.139.598.416.8.277.203.667.304 1.168.304zm20.912-.192h2.384v1.616h-6.608v-1.616h2.384v-8.32h-1.904l-.848-1.616h4.592zm8.32 1.808c-.896 0-1.624-.234-2.184-.704-.56-.469-.84-1.141-.84-2.016 0-.885.32-1.557.96-2.016.64-.458 1.408-.688 2.304-.688.779 0 1.456.144 2.032.432v-.48c0-.981-.539-1.472-1.616-1.472-.896 0-1.76.278-2.592.832l-.56-1.504c.992-.629 2.096-.944 3.312-.944 2.165 0 3.248 1.024 3.248 3.072v5.296h-1.792v-.64c-.576.555-1.333.832-2.272.832zm.336-1.616c.768 0 1.413-.272 1.936-.816v-1.056c-.491-.245-1.072-.368-1.744-.368-.512 0-.936.096-1.272.288s-.504.475-.504.848c0 .331.139.598.416.8.277.203.667.304 1.168.304zm7.952 4.528 1.248-3.248-3.056-8.032h1.872l1.872 4.992c.085.214.165.47.24.768.021-.074.048-.157.08-.248a8.09 8.09 0 0 0 .096-.288c.032-.101.059-.178.08-.232l1.872-4.992h1.888l-4.288 11.28zm15.776-7.6c0 .47-.021.843-.064 1.12h-5.568c.117.598.355 1.07.712 1.416.357.347.819.52 1.384.52.715 0 1.317-.266 1.808-.8l1.104 1.168c-.768.843-1.744 1.264-2.928 1.264-1.205 0-2.157-.389-2.856-1.168-.699-.778-1.048-1.818-1.048-3.12 0-1.322.352-2.365 1.056-3.128.704-.762 1.653-1.144 2.848-1.144 1.045 0 1.899.328 2.56.984s.992 1.619.992 2.888zm-5.648-.448h3.84c-.053-.597-.243-1.048-.568-1.352a1.66 1.66 0 0 0 -1.176-.456c-.587 0-1.059.16-1.416.48s-.584.763-.68 1.328zm13.904-3.424c.736 0 1.376.144 1.92.432v3.024h-1.792v-1.744h-.16c-.843 0-1.493.198-1.952.592-.459.395-.688.987-.688 1.776v2.672h2.288v1.616h-5.856v-1.616h1.728v-4.944h-1.728v-1.616h3.44v1.312c.224-.469.592-.837 1.104-1.104a3.623 3.623 0 0 1 1.696-.4zm-589.905 9.824v-11.2h2.816c.726 0 1.382.107 1.968.32.587.214 1.075.496 1.464.848.39.352.715.771.976 1.256.262.486.451.992.568 1.52.118.528.176 1.08.176 1.656a7.64 7.64 0 0 1 -.16 1.568 5.899 5.899 0 0 1 -.544 1.512 4.775 4.775 0 0 1 -.968 1.296c-.389.368-.888.664-1.496.888s-1.29.336-2.048.336zm1.904-1.792h1.04c.544 0 1.022-.112 1.432-.336.411-.224.728-.525.952-.904.224-.378.39-.784.496-1.216a5.6 5.6 0 0 0 .16-1.352c0-1.045-.24-1.941-.72-2.688-.48-.746-1.194-1.12-2.144-1.12h-1.216zm11.04 1.984c-.896 0-1.624-.234-2.184-.704-.56-.469-.84-1.141-.84-2.016 0-.885.32-1.557.96-2.016.64-.458 1.408-.688 2.304-.688.779 0 1.456.144 2.032.432v-.48c0-.981-.538-1.472-1.616-1.472-.896 0-1.76.278-2.592.832l-.56-1.504c.992-.629 2.096-.944 3.312-.944 2.166 0 3.248 1.024 3.248 3.072v5.296h-1.792v-.64c-.576.555-1.333.832-2.272.832zm.336-1.616c.768 0 1.414-.272 1.936-.816v-1.056c-.49-.245-1.072-.368-1.744-.368-.512 0-.936.096-1.272.288s-.504.475-.504.848c0 .331.139.598.416.8.278.203.667.304 1.168.304zm10.896 1.616c-1.6 0-2.4-.741-2.4-2.224v-4.528h-1.712v-1.616h1.712v-2.496l1.84-.88v3.376h2.784v1.616h-2.784v4.176c0 .63.384.944 1.152.944.448 0 .918-.128 1.408-.384l-.224 1.648c-.469.246-1.061.368-1.776.368zm8.48 0c-.896 0-1.624-.234-2.184-.704-.56-.469-.84-1.141-.84-2.016 0-.885.32-1.557.96-2.016.64-.458 1.408-.688 2.304-.688.779 0 1.456.144 2.032.432v-.48c0-.981-.538-1.472-1.616-1.472-.896 0-1.76.278-2.592.832l-.56-1.504c.992-.629 2.096-.944 3.312-.944 2.166 0 3.248 1.024 3.248 3.072v5.296h-1.792v-.64c-.576.555-1.333.832-2.272.832zm.336-1.616c.768 0 1.414-.272 1.936-.816v-1.056c-.49-.245-1.072-.368-1.744-.368-.512 0-.936.096-1.272.288s-.504.475-.504.848c0 .331.139.598.416.8.278.203.667.304 1.168.304z" fill="#0d0d0d" fill-rule="nonzero"/><path d="m268.216 142.162c.503.143.521.935-.092.992h-42.904c-.546-.051-.625-.943 0-1h42.904z" fill="#333" fill-rule="nonzero"/><path d="m268.62 142.847-13.216 11.329z" fill="none" stroke="#2c2f31"/><path d="m268.671 142.349a.515.515 0 0 1 .274.877l-13.216 11.329c-.448.346-1.137-.297-.65-.759l13.216-11.329c.183-.142.178-.128.376-.118z" fill="#333" fill-rule="nonzero"/><path d="m255.197 130.634c.092.014.139.013.276.118l13.217 11.33c.41.39-.121 1.169-.651.759l-13.217-11.33c-.328-.311-.224-.907.375-.877z" fill="#333" fill-rule="nonzero"/></svg>