<svg width="750" height="588" viewBox="0 0 730 588" xmlns="http://www.w3.org/2000/svg" xmlns:serif="http://www.serif.com/" fill-rule="evenodd" clip-rule="evenodd" stroke-linecap="round" stroke-linejoin="round">
    <path fill="#fcfcfc" stroke="#2c2f31" stroke-width=".96" stroke-dasharray="5.75,8.62" d="M.53.484h728.843v365.783H.53z"/>
    <path d="M47.126 80.262h104.232l36.968 37.261v145.139a6 6 0 0 1-6 6h-135.2a6 6 0 0 1-6-6v-176.4a6 6 0 0 1 6-6z" fill="#fff" fill-rule="nonzero" stroke="#2c2f31"/>
    <path serif:id="Sceptic-image_8_" d="M215.66 80.262h104.232l36.968 37.261v145.139a6 6 0 0 1-6 6h-135.2a6 6 0 0 1-6-6v-176.4a6 6 0 0 1 6-6zm168.534 0h104.232l36.968 37.261v145.139a6 6 0 0 1-6 6h-135.2a6 6 0 0 1-6-6v-176.4a6 6 0 0 1 6-6zm168.534 0H656.96l36.968 37.261v145.139a6 6 0 0 1-6 6h-135.2a6 6 0 0 1-6-6v-176.4a6 6 0 0 1 6-6z" fill="#fff" fill-rule="nonzero" stroke="#2c2f31"/>
    <path fill="#fff" stroke="#2e3031" d="M272.217 519.996H461.35v66.079H272.217z"/>
    <path fill="#fcfcfc" stroke="#2c2f31" stroke-dasharray="6,9" d="M490.316 520.848h193.516v66.079H490.316zm-446.345-.758h191.156v66.079H43.971z"/>
    <path d="M588.462 495.594l-11.329-13.216 11.329 13.216zm0 0l-11.329-13.216 11.329 13.216zm.385-.256l11.33-13.217-11.33 13.217zm-221.329.256l-11.329-13.216 11.329 13.216zm0 0l-11.329-13.216 11.329 13.216zm.385-.256l11.33-13.217-11.33 13.217zm-218.831.256l-11.329-13.216 11.329 13.216zm0 0l-11.329-13.216 11.329 13.216zm.385-.256l11.33-13.217-11.33 13.217zm439.142-64.554H149.744m438.883 64v-63m-439.112 63v-63m217.925 63V310.226" fill="none" stroke="#595959"/>
    <path d="M320.742 559.421v-11.2h3.776c1.259 0 2.171.285 2.736.856.566.571.848 1.283.848 2.136 0 1.099-.485 1.867-1.456 2.304.598.203 1.054.544 1.368 1.024.315.48.472 1.013.472 1.6 0 .896-.301 1.667-.904 2.312-.602.645-1.544.968-2.824.968h-4.016zm1.904-6.672h1.616c.64 0 1.123-.125 1.448-.376.326-.251.488-.595.488-1.032 0-.907-.544-1.36-1.632-1.36h-1.92v2.768zm0 4.912h2.24c.608 0 1.043-.147 1.304-.44a1.54 1.54 0 0 0 .392-1.064c0-1.109-.72-1.664-2.16-1.664h-1.776v3.168zm12.576.144h2.384v1.616h-6.608v-1.616h2.384v-8.32h-1.904l-.848-1.616h4.592v9.936zm8.944 1.808c-1.205 0-2.16-.381-2.864-1.144-.704-.763-1.056-1.805-1.056-3.128 0-1.312.352-2.355 1.056-3.128.704-.773 1.659-1.16 2.864-1.16 1.216 0 2.174.387 2.872 1.16.699.773 1.048 1.816 1.048 3.128s-.349 2.352-1.048 3.12c-.698.768-1.656 1.152-2.872 1.152zm0-1.76c.662 0 1.171-.224 1.528-.672.358-.448.536-1.061.536-1.84 0-.779-.178-1.397-.536-1.856-.357-.459-.866-.688-1.528-.688-.65 0-1.157.229-1.52.688-.362.459-.544 1.077-.544 1.856 0 .768.182 1.379.544 1.832.363.453.87.68 1.52.68zm10.016 1.76c-1.152 0-2.064-.379-2.736-1.136-.672-.757-1.008-1.803-1.008-3.136 0-1.323.344-2.368 1.032-3.136.688-.768 1.603-1.152 2.744-1.152 1.739 0 2.859.741 3.36 2.224l-1.744.592c-.277-.715-.81-1.072-1.6-1.072-.608 0-1.08.229-1.416.688-.336.459-.504 1.077-.504 1.856 0 .779.168 1.392.504 1.84.336.448.798.672 1.384.672.854 0 1.414-.4 1.68-1.2l1.744.544c-.49 1.611-1.637 2.416-3.44 2.416zm11.568-.192l-2.336-4.512-1.216 1.168v3.344h-1.84v-10.688l1.84-.864v6.176l2.848-2.8h2.192l-2.464 2.368 2.992 5.808h-2.016zm8.144.192c-1.152 0-2.064-.379-2.736-1.136-.672-.757-1.008-1.803-1.008-3.136 0-1.323.344-2.368 1.032-3.136.688-.768 1.603-1.152 2.744-1.152 1.739 0 2.859.741 3.36 2.224l-1.744.592c-.277-.715-.81-1.072-1.6-1.072-.608 0-1.08.229-1.416.688-.336.459-.504 1.077-.504 1.856 0 .779.168 1.392.504 1.84.336.448.798.672 1.384.672.854 0 1.414-.4 1.68-1.2l1.744.544c-.49 1.611-1.637 2.416-3.44 2.416zm6.112-.192v-10.704l1.84-.848v4.176c.534-.661 1.307-.992 2.32-.992.896 0 1.624.269 2.184.808s.84 1.395.84 2.568v4.992h-1.84v-4.608c0-.704-.157-1.216-.472-1.536-.314-.32-.722-.48-1.224-.48-.533 0-.968.155-1.304.464-.336.309-.504.816-.504 1.52v4.64h-1.84zm12.816.192c-.896 0-1.624-.235-2.184-.704s-.84-1.141-.84-2.016c0-.885.32-1.557.96-2.016.64-.459 1.408-.688 2.304-.688.779 0 1.456.144 2.032.432v-.48c0-.981-.538-1.472-1.616-1.472-.896 0-1.76.277-2.592.832l-.56-1.504c.992-.629 2.096-.944 3.312-.944 2.166 0 3.248 1.024 3.248 3.072v5.296h-1.792v-.64c-.576.555-1.333.832-2.272.832zm.336-1.616c.768 0 1.414-.272 1.936-.816v-1.056c-.49-.245-1.072-.368-1.744-.368-.512 0-.936.096-1.272.288-.336.192-.504.475-.504.848 0 .331.139.597.416.8.278.203.667.304 1.168.304zm10.208-7.888a1.05 1.05 0 0 1-.768-.32 1.067 1.067 0 0 1-.32-.784c0-.309.107-.568.32-.776.214-.208.47-.312.768-.312.31 0 .571.104.784.312.214.208.32.467.32.776s-.106.571-.32.784c-.213.213-.474.32-.784.32zm.928 7.696h2.256v1.616h-6.352v-1.616h2.256v-4.944h-2.256v-1.616h4.096v6.56zm9.44-6.752c.896 0 1.624.269 2.184.808s.84 1.395.84 2.568v4.992h-1.84v-4.608c0-.704-.154-1.216-.464-1.536-.309-.32-.72-.48-1.232-.48-1.205 0-1.808.661-1.808 1.984v4.64h-1.84v-8.176h1.696v1.008c.16-.32.472-.6.936-.84.464-.24.974-.36 1.528-.36z" fill="#2c2f31" fill-rule="nonzero"/>
    <path d="M548.872 560.043v-11.2h2.816c.726 0 1.382.106 1.968.32.587.213 1.075.496 1.464.848.39.352.715.77.976 1.256.262.485.451.992.568 1.52.118.528.176 1.08.176 1.656 0 .533-.053 1.056-.16 1.568a5.899 5.899 0 0 1-.544 1.512 4.775 4.775 0 0 1-.968 1.296c-.389.368-.888.664-1.496.888-.608.224-1.29.336-2.048.336h-2.752zm1.904-1.792h1.04c.544 0 1.022-.112 1.432-.336.411-.224.728-.526.952-.904.224-.379.39-.784.496-1.216.107-.432.16-.883.16-1.352 0-1.046-.24-1.942-.72-2.688-.48-.747-1.194-1.12-2.144-1.12h-1.216v7.616zm11.04 1.984c-.896 0-1.624-.235-2.184-.704-.56-.47-.84-1.142-.84-2.016 0-.886.32-1.558.96-2.016.64-.459 1.408-.688 2.304-.688.779 0 1.456.144 2.032.432v-.48c0-.982-.538-1.472-1.616-1.472-.896 0-1.76.277-2.592.832l-.56-1.504c.992-.63 2.096-.944 3.312-.944 2.166 0 3.248 1.024 3.248 3.072v5.296h-1.792v-.64c-.576.554-1.333.832-2.272.832zm.336-1.616c.768 0 1.414-.272 1.936-.816v-1.056c-.49-.246-1.072-.368-1.744-.368-.512 0-.936.096-1.272.288-.336.192-.504.474-.504.848 0 .33.139.597.416.8.278.202.667.304 1.168.304zm10.896 1.616c-1.6 0-2.4-.742-2.4-2.224v-4.528h-1.712v-1.616h1.712v-2.496l1.84-.88v3.376h2.784v1.616h-2.784v4.176c0 .629.384.944 1.152.944.448 0 .918-.128 1.408-.384l-.224 1.648c-.469.245-1.061.368-1.776.368zm8.48 0c-.896 0-1.624-.235-2.184-.704-.56-.47-.84-1.142-.84-2.016 0-.886.32-1.558.96-2.016.64-.459 1.408-.688 2.304-.688.779 0 1.456.144 2.032.432v-.48c0-.982-.538-1.472-1.616-1.472-.896 0-1.76.277-2.592.832l-.56-1.504c.992-.63 2.096-.944 3.312-.944 2.166 0 3.248 1.024 3.248 3.072v5.296H583.8v-.64c-.576.554-1.333.832-2.272.832zm.336-1.616c.768 0 1.414-.272 1.936-.816v-1.056c-.49-.246-1.072-.368-1.744-.368-.512 0-.936.096-1.272.288-.336.192-.504.474-.504.848 0 .33.139.597.416.8.278.202.667.304 1.168.304zm10.544 1.616c-.896 0-1.589-.272-2.08-.816v.624h-1.84v-10.704l1.84-.848v4.016c.224-.246.531-.446.92-.6a3.2 3.2 0 0 1 1.192-.232c1.024 0 1.856.384 2.496 1.152.64.768.96 1.808.96 3.12 0 1.365-.309 2.421-.928 3.168-.618.746-1.472 1.12-2.56 1.12zm-.288-1.76c.63 0 1.107-.222 1.432-.664.326-.443.488-1.064.488-1.864 0-.822-.162-1.448-.488-1.88-.325-.432-.802-.648-1.432-.648-.405 0-.765.082-1.08.248-.314.165-.552.354-.712.568v3.44c.395.533.992.8 1.792.8zm9.12 1.76c-.896 0-1.624-.235-2.184-.704-.56-.47-.84-1.142-.84-2.016 0-.886.32-1.558.96-2.016.64-.459 1.408-.688 2.304-.688.779 0 1.456.144 2.032.432v-.48c0-.982-.538-1.472-1.616-1.472-.896 0-1.76.277-2.592.832l-.56-1.504c.992-.63 2.096-.944 3.312-.944 2.166 0 3.248 1.024 3.248 3.072v5.296h-1.792v-.64c-.576.554-1.333.832-2.272.832zm.336-1.616c.768 0 1.414-.272 1.936-.816v-1.056c-.49-.246-1.072-.368-1.744-.368-.512 0-.936.096-1.272.288-.336.192-.504.474-.504.848 0 .33.139.597.416.8.278.202.667.304 1.168.304zm10.192 1.616a4.672 4.672 0 0 1-1.92-.392c-.586-.262-1.056-.616-1.408-1.064l1.2-1.088c.672.65 1.414.976 2.224.976.395 0 .72-.07.976-.208.256-.139.384-.347.384-.624 0-.16-.077-.312-.232-.456a2.081 2.081 0 0 0-.536-.36 17.97 17.97 0 0 0-.896-.384.935.935 0 0 0-.104-.048l-.104-.04a2.051 2.051 0 0 0-.112-.04 36.626 36.626 0 0 1-.88-.392 7.98 7.98 0 0 1-.696-.384c-.272-.166-.469-.323-.592-.472a2.315 2.315 0 0 1-.328-.568 1.995 1.995 0 0 1-.144-.776c0-.694.299-1.24.896-1.64.598-.4 1.35-.6 2.256-.6 1.27 0 2.288.432 3.056 1.296l-1.232 1.008c-.586-.491-1.216-.736-1.888-.736-.416 0-.749.061-1 .184-.25.122-.376.296-.376.52 0 .106.043.21.128.312.086.101.235.208.448.32.214.112.39.197.528.256.139.058.374.152.704.28.982.394 1.632.714 1.952.96.566.448.854 1.029.864 1.744 0 .757-.285 1.349-.856 1.776-.57.426-1.341.64-2.312.64zm13.536-4.688c0 .469-.021.842-.064 1.12h-5.568c.118.597.355 1.069.712 1.416.358.346.819.52 1.384.52a2.36 2.36 0 0 0 1.808-.8l1.104 1.168c-.768.842-1.744 1.264-2.928 1.264-1.205 0-2.157-.39-2.856-1.168-.698-.779-1.048-1.819-1.048-3.12 0-1.323.352-2.366 1.056-3.128.704-.763 1.654-1.144 2.848-1.144 1.046 0 1.899.328 2.56.984.662.656.992 1.618.992 2.888zm-5.648-.448h3.84c-.053-.598-.242-1.048-.568-1.352a1.66 1.66 0 0 0-1.176-.456c-.586 0-1.058.16-1.416.48-.357.32-.584.762-.68 1.328zM90.18 558.768v-9.376h-3.248v-1.824h8.416v1.824h-3.264v9.376H90.18zm7.232 0v-10.704l1.84-.848v4.176c.533-.662 1.307-.992 2.32-.992.896 0 1.624.269 2.184.808.56.538.84 1.394.84 2.568v4.992h-1.84v-4.608c0-.704-.157-1.216-.472-1.536-.315-.32-.723-.48-1.224-.48-.533 0-.968.154-1.304.464-.336.309-.504.816-.504 1.52v4.64h-1.84zm13.504-9.312c-.299 0-.555-.107-.768-.32a1.069 1.069 0 0 1-.32-.784c0-.31.107-.568.32-.776a1.06 1.06 0 0 1 .768-.312c.309 0 .571.104.784.312.213.208.32.466.32.776 0 .309-.107.57-.32.784-.213.213-.475.32-.784.32zm.928 7.696h2.256v1.616h-6.352v-1.616h2.256v-4.944h-2.256v-1.616h4.096v6.56zm10.992-6.752c.736 0 1.376.144 1.92.432v3.024h-1.792v-1.744h-.16c-.843 0-1.493.197-1.952.592-.459.394-.688.986-.688 1.776v2.672h2.288v1.616h-5.856v-1.616h1.728v-4.944h-1.728v-1.616h3.44v1.312c.224-.47.592-.838 1.104-1.104a3.61 3.61 0 0 1 1.696-.4zm7.44 8.56c-1.12 0-2-.376-2.64-1.128-.64-.752-.96-1.806-.96-3.16 0-1.312.328-2.352.984-3.12.656-.768 1.512-1.152 2.568-1.152.875 0 1.552.261 2.032.784v-3.12l1.84-.848v11.552h-1.84v-.624c-.171.224-.435.416-.792.576-.357.16-.755.24-1.192.24zm.256-1.76c.8 0 1.376-.267 1.728-.8v-3.456c-.384-.534-.971-.8-1.76-.8-.629 0-1.115.218-1.456.656-.341.437-.512 1.061-.512 1.872 0 .768.173 1.381.52 1.84.347.458.84.688 1.48.688zm16.224 4.784v-11.392h1.84v.624c.501-.544 1.168-.816 2-.816 1.099 0 1.971.378 2.616 1.136.645.757.968 1.808.968 3.152 0 1.312-.333 2.352-1 3.12-.667.768-1.523 1.152-2.568 1.152-.853 0-1.525-.283-2.016-.848v3.024l-1.84.848zm3.584-4.784c.629 0 1.117-.216 1.464-.648.347-.432.52-1.054.52-1.864 0-.779-.173-1.398-.52-1.856-.347-.459-.84-.688-1.48-.688-.768 0-1.344.272-1.728.816v3.424c.384.544.965.816 1.744.816zm9.168 1.76c-.896 0-1.624-.235-2.184-.704-.56-.47-.84-1.142-.84-2.016 0-.886.32-1.558.96-2.016.64-.459 1.408-.688 2.304-.688.779 0 1.456.144 2.032.432v-.48c0-.982-.539-1.472-1.616-1.472-.896 0-1.76.277-2.592.832l-.56-1.504c.992-.63 2.096-.944 3.312-.944 2.165 0 3.248 1.024 3.248 3.072v5.296h-1.792v-.64c-.576.554-1.333.832-2.272.832zm.336-1.616c.768 0 1.413-.272 1.936-.816v-1.056c-.491-.246-1.072-.368-1.744-.368-.512 0-.936.096-1.272.288-.336.192-.504.474-.504.848 0 .33.139.597.416.8.277.202.667.304 1.168.304zm12.272-6.944c.736 0 1.376.144 1.92.432v3.024h-1.792v-1.744h-.16c-.843 0-1.493.197-1.952.592-.459.394-.688.986-.688 1.776v2.672h2.288v1.616h-5.856v-1.616h1.728v-4.944h-1.728v-1.616h3.44v1.312c.224-.47.592-.838 1.104-1.104a3.61 3.61 0 0 1 1.696-.4zm8.48 8.56c-1.6 0-2.4-.742-2.4-2.224v-4.528h-1.712v-1.616h1.712v-2.496l1.84-.88v3.376h2.784v1.616h-2.784v4.176c0 .629.384.944 1.152.944.448 0 .917-.128 1.408-.384l-.224 1.648c-.469.245-1.061.368-1.776.368zm6.912 2.912l1.248-3.248-3.056-8.032h1.872l1.872 4.992c.085.213.165.469.24.768.021-.075.048-.158.08-.248a9.71 9.71 0 0 0 .096-.288c.032-.102.059-.179.08-.232l1.872-4.992h1.888l-4.288 11.28h-1.904z" fill="#8c8c8c" fill-rule="nonzero"/>
    <g stroke="#262626">
        <path d="M97.893 126.241l-2.967 1.715-11.363 6.571a4.045 4.045 0 0 0-2.026 3.511l-.009 31.881c0 1.372.698 2.653 1.837 3.384.095.081 28.049 16.21 28.156 16.271.388.26 1.227.543 2.062.543 1.518-.019-.419.861 29.966-16.687a4.045 4.045 0 0 0 2.028-3.511c0-34.111.033-31.988-.072-32.571a4.05 4.05 0 0 0-1.966-2.766l-11.533-6.648-6.339-3.654-9.714-5.599a5.005 5.005 0 0 0-4.984 0l-.994.598" fill="#fff" fill-rule="nonzero"/>
        <path d="M145.577 138.101v31.819c0 1.448-.77 2.788-2.028 3.511l-10.197 5.887-6.382 3.686-11.379 6.571a4.183 4.183 0 0 1-2.008.543l.036-33.377v-.009a4.35 4.35 0 0 1 2.19-3.78l11.161-6.441 6.382-3.685 10.431-6.018a1.222 1.222 0 0 1 1.722.541c.045.244.072.497.072.752z" fill="#fff" fill-rule="nonzero"/>
        <path d="M107.251 150.527l4.181 2.417a4.375 4.375 0 0 1 2.187 3.789v.009l-.036 33.375c-.65 0-1.302-.143-1.889-.461l-11.638-6.719-6.304-3.637-10.387-5.996a4.013 4.013 0 0 1-1.801-2.851v-32.65a1.22 1.22 0 0 1 1.827-1.059l10.361 5.985 6.304 3.643 2.317 1.338 4.878 2.817z" fill="#e7fff0" fill-rule="nonzero"/>
        <path d="M132.006 127.934l-6.339-3.654-31.934 18.438.019.012v36.571l6.305 3.637v-36.566l.008.004 31.941-18.442z" fill="#41ff8b" fill-rule="nonzero"/>
        <path d="M127.018 146.483l-.047.027v36.494l6.382-3.687v-36.49l-.001.001-13.45-7.889-6.347 3.542 13.463 8.002z" fill="#41ff8b" fill-rule="nonzero"/>
        <path d="M126.075 140.538c-.769.443-2.814.659-7.826-2.914-1.563-1.109-3.629-2.434-4.761-3.251 4.154-2.664 9.159-5.107 12.657 1.374 1.054 1.958 1.026 3.334.56 4.138a1.702 1.702 0 0 1-.63.653m-24.847-19.913c5.383 2.013 10.207 14.31 10.207 14.31.973.734 3.131 2.387 4.104 3.067.548.38 1.09.758 1.632 1.143 3.287 2.343 5.886 3.502 7.861 3.502.746 0 1.404-.163 1.976-.494.017-.01.031-.025.048-.035l4.272-2.181c1.653-.957 2.846-3.438.778-7.284-1.405-2.61-3.135-4.19-5.151-4.684-2.841-.704-4.911.496-7.791 1.957-.612.282-1.726 1.038-1.726 1.038a232.564 232.564 0 0 0-3.624-6.038c-.239-.391-.478-.781-.711-1.171-.926-1.533-1.876-3.118-3.129-4.475-1.159-1.265-2.908-1.744-4.347-1.19-.065.025-.126.057-.19.081l-.083.043c-.041.019-.081.04-.12.061l-4.006 2.35" fill="#41ff8b" fill-rule="nonzero" stroke-linecap="butt" stroke-miterlimit="1.414"/>
        <path d="M126.075 140.538c-.769.443-2.814.659-7.826-2.914-1.563-1.109-3.629-2.434-4.761-3.251 4.154-2.664 9.159-5.107 12.657 1.374 1.054 1.958 1.026 3.334.56 4.138a1.702 1.702 0 0 1-.63.653zm-14.444-5.465c.973.734 2.935 2.249 3.908 2.929.548.38 1.09.758 1.632 1.143 3.287 2.343 5.886 3.502 7.861 3.502.746 0 1.404-.163 1.976-.494.017-.01.031-.025.048-.035l4.272-2.181c1.653-.957 2.846-3.438.778-7.284-1.405-2.61-3.135-4.19-5.151-4.684-2.841-.704-4.911.496-7.791 1.957-.612.282-1.726 1.038-1.726 1.038a232.564 232.564 0 0 0-3.624-6.038c-.239-.391-.478-.781-.711-1.171-.926-1.533-1.876-3.118-3.129-4.475-1.159-1.265-2.908-1.744-4.347-1.19-.065.025-.126.057-.19.081l-.083.043c-.041.019-.081.04-.12.061l-5.99 3.308" fill="none"/>
        <path d="M110.101 131.942s-2.509-1.1-4.374-2.597c-4.657-3.738-2.848-7.835-3.564-8.056-.799-.25-1.644-.25-2.407.04-1.271.49-2.035 1.691-2.057 3.217 0 .222.011.444.028.665.565 5.658 9.152 7.701 13.801 9.728-.785-1.271-.985-1.923-1.427-2.997z" fill="#41ff8b" fill-rule="nonzero"/>
        <path d="M91.094 141.217l12.995 7.495" fill="none" stroke-miterlimit="1.5"/>
    </g>
    <path d="M396.371 226.753c-.59 0-1.123-.105-1.598-.315a3.49 3.49 0 0 1-1.185-.833 4.51 4.51 0 0 1-.787-1.23 6.4 6.4 0 0 1-.45-1.47 8.914 8.914 0 0 1-.135-1.567 7.8 7.8 0 0 1 .232-1.913c.155-.615.393-1.19.713-1.725.32-.535.755-.965 1.305-1.29.55-.325 1.185-.487 1.905-.487.82 0 1.505.21 2.055.63.55.42.95.94 1.2 1.56l-1.59.765c-.22-.42-.458-.735-.713-.945-.255-.21-.572-.315-.952-.315-.54 0-.99.2-1.35.6-.36.4-.61.867-.75 1.402a6.768 6.768 0 0 0-.21 1.718c0 .99.2 1.857.6 2.602.4.745.97 1.118 1.71 1.118.7 0 1.26-.45 1.68-1.35l1.62.615c-.66 1.62-1.76 2.43-3.3 2.43zm12.555-4.38c0 .44-.02.79-.06 1.05h-5.22c.11.56.332 1.002.667 1.327.335.325.768.488 1.298.488.67 0 1.235-.25 1.695-.75l1.035 1.095c-.72.79-1.635 1.185-2.745 1.185-1.13 0-2.023-.365-2.678-1.095-.655-.73-.982-1.705-.982-2.925 0-1.24.33-2.218.99-2.933.66-.715 1.55-1.072 2.67-1.072.98 0 1.78.307 2.4.922.62.615.93 1.518.93 2.708zm-5.295-.42h3.6c-.05-.56-.228-.983-.533-1.268a1.556 1.556 0 0 0-1.102-.427c-.55 0-.993.15-1.328.45-.335.3-.547.715-.637 1.245zm13.035-3.21c.69 0 1.29.135 1.8.405v2.835h-1.68v-1.635h-.15c-.79 0-1.4.185-1.83.555-.43.37-.645.925-.645 1.665v2.505h2.145v1.515h-5.49v-1.515h1.62v-4.635h-1.62v-1.515h3.225v1.23c.21-.44.555-.785 1.035-1.035a3.39 3.39 0 0 1 1.59-.375zm7.95 8.025c-1.5 0-2.25-.695-2.25-2.085v-4.245h-1.605v-1.515h1.605v-2.34l1.725-.825v3.165h2.61v1.515h-2.61v3.915c0 .59.36.885 1.08.885.42 0 .86-.12 1.32-.36l-.21 1.545c-.44.23-.995.345-1.665.345zm8.595-8.91c-.28 0-.52-.1-.72-.3a1 1 0 0 1-.3-.735c0-.29.1-.533.3-.728.2-.195.44-.292.72-.292.29 0 .535.097.735.292.2.195.3.438.3.728a1 1 0 0 1-.3.735 1 1 0 0 1-.735.3zm.87 7.215h2.115v1.515h-5.955v-1.515h2.115v-4.635h-2.115v-1.515h3.84v6.15zm17.61-7.215c-.28 0-.52-.1-.72-.3a1 1 0 0 1-.3-.735c0-.29.1-.533.3-.728.2-.195.44-.292.72-.292.29 0 .535.097.735.292.2.195.3.438.3.728a1 1 0 0 1-.3.735 1 1 0 0 1-.735.3zm-10.485.015c0-.72.257-1.228.772-1.523.515-.295 1.133-.442 1.853-.442.73 0 1.34.125 1.83.375v1.425c-.43-.18-.915-.27-1.455-.27-.37 0-.675.065-.915.195s-.36.32-.36.57v.72h2.58v1.515h-2.58v4.635h2.04v1.515h-5.415v-1.515h1.65v-4.635h-1.65v-1.515h1.65v-1.05zm11.355 7.2h2.115v1.515h-5.955v-1.515h2.115v-4.635h-2.115v-1.515h3.84v6.15zm8.46 1.695c-1.08 0-1.935-.355-2.565-1.065-.63-.71-.945-1.69-.945-2.94 0-1.24.322-2.22.967-2.94.645-.72 1.503-1.08 2.573-1.08 1.63 0 2.68.695 3.15 2.085l-1.635.555c-.26-.67-.76-1.005-1.5-1.005-.57 0-1.013.215-1.328.645-.315.43-.472 1.01-.472 1.74s.157 1.305.472 1.725c.315.42.748.63 1.298.63.8 0 1.325-.375 1.575-1.125l1.635.51c-.46 1.51-1.535 2.265-3.225 2.265zm8.505 0c-.84 0-1.523-.22-2.048-.66-.525-.44-.787-1.07-.787-1.89 0-.83.3-1.46.9-1.89.6-.43 1.32-.645 2.16-.645.73 0 1.365.135 1.905.405v-.45c0-.92-.505-1.38-1.515-1.38-.84 0-1.65.26-2.43.78l-.525-1.41c.93-.59 1.965-.885 3.105-.885 2.03 0 3.045.96 3.045 2.88v4.965h-1.68v-.6c-.54.52-1.25.78-2.13.78zm.315-1.515c.72 0 1.325-.255 1.815-.765v-.99c-.46-.23-1.005-.345-1.635-.345-.48 0-.878.09-1.193.27-.315.18-.472.445-.472.795 0 .31.13.56.39.75.26.19.625.285 1.095.285zm10.215 1.515c-1.5 0-2.25-.695-2.25-2.085v-4.245h-1.605v-1.515h1.605v-2.34l1.725-.825v3.165h2.61v1.515h-2.61v3.915c0 .59.36.885 1.08.885.42 0 .86-.12 1.32-.36l-.21 1.545c-.44.23-.995.345-1.665.345zm8.595-8.91c-.28 0-.52-.1-.72-.3a1 1 0 0 1-.3-.735c0-.29.1-.533.3-.728.2-.195.44-.292.72-.292.29 0 .535.097.735.292.2.195.3.438.3.728a1 1 0 0 1-.3.735 1 1 0 0 1-.735.3zm.87 7.215h2.115v1.515h-5.955v-1.515h2.115v-4.635h-2.115v-1.515h3.84v6.15zm8.31 1.695c-1.13 0-2.025-.358-2.685-1.073-.66-.715-.99-1.692-.99-2.932 0-1.23.33-2.208.99-2.933.66-.725 1.555-1.087 2.685-1.087 1.14 0 2.037.362 2.692 1.087.655.725.983 1.703.983 2.933 0 1.23-.328 2.205-.983 2.925-.655.72-1.552 1.08-2.692 1.08zm0-1.65c.62 0 1.097-.21 1.432-.63.335-.42.503-.995.503-1.725 0-.73-.168-1.31-.503-1.74-.335-.43-.812-.645-1.432-.645-.61 0-1.085.215-1.425.645-.34.43-.51 1.01-.51 1.74 0 .72.17 1.292.51 1.717.34.425.815.638 1.425.638zm9.78-6.375c.84 0 1.522.252 2.047.757.525.505.788 1.308.788 2.408v4.68h-1.725v-4.32c0-.66-.145-1.14-.435-1.44-.29-.3-.675-.45-1.155-.45-1.13 0-1.695.62-1.695 1.86v4.35h-1.725v-7.665h1.59v.945c.15-.3.442-.563.877-.788a3.073 3.073 0 0 1 1.433-.337zm-407.138 5.845l-.69-2.31h-3.33l-.69 2.31h-1.92l3.435-10.5h1.68l3.435 10.5h-1.92zm-3.54-3.93h2.37l-.93-3.12c-.1-.32-.185-.71-.255-1.17-.12.61-.205 1-.255 1.17l-.93 3.12zm10.47 4.11c-.65 0-1.25-.123-1.8-.368s-.99-.577-1.32-.997l1.125-1.02c.63.61 1.325.915 2.085.915.37 0 .675-.065.915-.195s.36-.325.36-.585c0-.15-.073-.293-.218-.428a1.963 1.963 0 0 0-.502-.337c-.19-.09-.47-.21-.84-.36a1.35 1.35 0 0 0-.098-.045l-.097-.038a2.951 2.951 0 0 0-.105-.037c-.37-.16-.645-.283-.825-.368a7.317 7.317 0 0 1-.653-.36c-.255-.155-.44-.302-.555-.442a2.136 2.136 0 0 1-.307-.533 1.866 1.866 0 0 1-.135-.727c0-.65.28-1.163.84-1.538.56-.375 1.265-.562 2.115-.562 1.19 0 2.145.405 2.865 1.215l-1.155.945c-.55-.46-1.14-.69-1.77-.69-.39 0-.703.057-.938.172-.235.115-.352.278-.352.488 0 .1.04.197.12.292.08.095.22.195.42.3.2.105.365.185.495.24.13.055.35.143.66.263.92.37 1.53.67 1.83.9.53.42.8.965.81 1.635 0 .71-.268 1.265-.803 1.665-.535.4-1.257.6-2.167.6zm9.24 0c-.65 0-1.25-.123-1.8-.368s-.99-.577-1.32-.997l1.125-1.02c.63.61 1.325.915 2.085.915.37 0 .675-.065.915-.195s.36-.325.36-.585c0-.15-.073-.293-.218-.428a1.963 1.963 0 0 0-.502-.337c-.19-.09-.47-.21-.84-.36a1.35 1.35 0 0 0-.098-.045l-.097-.038a2.951 2.951 0 0 0-.105-.037c-.37-.16-.645-.283-.825-.368a7.317 7.317 0 0 1-.653-.36c-.255-.155-.44-.302-.555-.442a2.136 2.136 0 0 1-.307-.533 1.866 1.866 0 0 1-.135-.727c0-.65.28-1.163.84-1.538.56-.375 1.265-.562 2.115-.562 1.19 0 2.145.405 2.865 1.215l-1.155.945c-.55-.46-1.14-.69-1.77-.69-.39 0-.703.057-.938.172-.235.115-.352.278-.352.488 0 .1.04.197.12.292.08.095.22.195.42.3.2.105.365.185.495.24.13.055.35.143.66.263.92.37 1.53.67 1.83.9.53.42.8.965.81 1.635 0 .71-.268 1.265-.803 1.665-.535.4-1.257.6-2.167.6zm12.69-4.395c0 .44-.02.79-.06 1.05h-5.22c.11.56.332 1.002.667 1.327.335.325.768.488 1.298.488.67 0 1.235-.25 1.695-.75l1.035 1.095c-.72.79-1.635 1.185-2.745 1.185-1.13 0-2.023-.365-2.678-1.095-.655-.73-.982-1.705-.982-2.925 0-1.24.33-2.218.99-2.933.66-.715 1.55-1.072 2.67-1.072.98 0 1.78.307 2.4.922.62.615.93 1.518.93 2.708zm-5.295-.42h3.6c-.05-.56-.228-.983-.533-1.268a1.556 1.556 0 0 0-1.102-.427c-.55 0-.993.15-1.328.45-.335.3-.547.715-.637 1.245zm11.745 4.815c-1.5 0-2.25-.695-2.25-2.085v-4.245h-1.605v-1.515h1.605v-2.34l1.725-.825v3.165h2.61v1.515h-2.61v3.915c0 .59.36.885 1.08.885.42 0 .86-.12 1.32-.36l-.21 1.545c-.44.23-.995.345-1.665.345zm-58.68 9.975c.64 0 1.112.222 1.417.667.305.445.458 1.193.458 2.243v4.935h-1.575v-4.68c0-.54-.05-.928-.15-1.163-.1-.235-.285-.352-.555-.352-.26 0-.468.135-.623.405-.155.27-.232.645-.232 1.125v4.665h-1.575v-4.725c0-.98-.24-1.47-.72-1.47-.28 0-.503.135-.668.405-.165.27-.247.645-.247 1.125v4.665h-1.575v-7.665h1.47v1.02c.28-.8.785-1.2 1.515-1.2.32 0 .602.11.847.33.245.22.418.48.518.78.46-.74 1.025-1.11 1.695-1.11zm6.57 8.025c-.84 0-1.523-.22-2.048-.66-.525-.44-.787-1.07-.787-1.89 0-.83.3-1.46.9-1.89.6-.43 1.32-.645 2.16-.645.73 0 1.365.135 1.905.405v-.45c0-.92-.505-1.38-1.515-1.38-.84 0-1.65.26-2.43.78l-.525-1.41c.93-.59 1.965-.885 3.105-.885 2.03 0 3.045.96 3.045 2.88v4.965h-1.68v-.6c-.54.52-1.25.78-2.13.78zm.315-1.515c.72 0 1.325-.255 1.815-.765v-.99c-.46-.23-1.005-.345-1.635-.345-.48 0-.878.09-1.193.27-.315.18-.472.445-.472.795 0 .31.13.56.39.75.26.19.625.285 1.095.285zm10.05-6.51c.84 0 1.522.252 2.047.757.525.505.788 1.308.788 2.408v4.68h-1.725v-4.32c0-.66-.145-1.14-.435-1.44-.29-.3-.675-.45-1.155-.45-1.13 0-1.695.62-1.695 1.86v4.35h-1.725v-7.665h1.59v.945c.15-.3.442-.563.877-.788a3.073 3.073 0 0 1 1.433-.337zm8.115 8.025c-.84 0-1.523-.22-2.048-.66-.525-.44-.787-1.07-.787-1.89 0-.83.3-1.46.9-1.89.6-.43 1.32-.645 2.16-.645.73 0 1.365.135 1.905.405v-.45c0-.92-.505-1.38-1.515-1.38-.84 0-1.65.26-2.43.78l-.525-1.41c.93-.59 1.965-.885 3.105-.885 2.03 0 3.045.96 3.045 2.88v4.965h-1.68v-.6c-.54.52-1.25.78-2.13.78zm.315-1.515c.72 0 1.325-.255 1.815-.765v-.99c-.46-.23-1.005-.345-1.635-.345-.48 0-.878.09-1.193.27-.315.18-.472.445-.472.795 0 .31.13.56.39.75.26.19.625.285 1.095.285zm9.06 4.38l-.93-1.41c1.07-.08 1.807-.245 2.212-.495.405-.25.608-.655.608-1.215v-.45c-.41.47-1.005.705-1.785.705-.94 0-1.705-.348-2.295-1.043-.59-.695-.885-1.687-.885-2.977 0-1.23.295-2.205.885-2.925.59-.72 1.365-1.08 2.325-1.08.73 0 1.315.22 1.755.66v-.48h1.725v6.855c0 1.31-.273 2.257-.818 2.842-.545.585-1.477.923-2.797 1.013zm.405-4.515c.65 0 1.145-.26 1.485-.78v-3.195c-.36-.51-.855-.765-1.485-.765-.57 0-1.005.202-1.305.607-.3.405-.45.993-.45 1.763 0 .73.152 1.307.457 1.732.305.425.738.638 1.298.638zm12.78-2.745c0 .44-.02.79-.06 1.05h-5.22c.11.56.332 1.002.667 1.327.335.325.768.488 1.298.488.67 0 1.235-.25 1.695-.75l1.035 1.095c-.72.79-1.635 1.185-2.745 1.185-1.13 0-2.023-.365-2.678-1.095-.655-.73-.982-1.705-.982-2.925 0-1.24.33-2.218.99-2.933.66-.715 1.55-1.072 2.67-1.072.98 0 1.78.307 2.4.922.62.615.93 1.518.93 2.708zm-5.295-.42h3.6c-.05-.56-.228-.983-.533-1.268a1.556 1.556 0 0 0-1.102-.427c-.55 0-.993.15-1.328.45-.335.3-.547.715-.637 1.245zm13.125-3.21c.64 0 1.112.222 1.417.667.305.445.458 1.193.458 2.243v4.935h-1.575v-4.68c0-.54-.05-.928-.15-1.163-.1-.235-.285-.352-.555-.352-.26 0-.468.135-.623.405-.155.27-.232.645-.232 1.125v4.665h-1.575v-4.725c0-.98-.24-1.47-.72-1.47-.28 0-.503.135-.668.405-.165.27-.247.645-.247 1.125v4.665h-1.575v-7.665h1.47v1.02c.28-.8.785-1.2 1.515-1.2.32 0 .602.11.847.33.245.22.418.48.518.78.46-.74 1.025-1.11 1.695-1.11zm10.65 3.63c0 .44-.02.79-.06 1.05h-5.22c.11.56.332 1.002.667 1.327.335.325.768.488 1.298.488.67 0 1.235-.25 1.695-.75l1.035 1.095c-.72.79-1.635 1.185-2.745 1.185-1.13 0-2.023-.365-2.678-1.095-.655-.73-.982-1.705-.982-2.925 0-1.24.33-2.218.99-2.933.66-.715 1.55-1.072 2.67-1.072.98 0 1.78.307 2.4.922.62.615.93 1.518.93 2.708zm-5.295-.42h3.6c-.05-.56-.228-.983-.533-1.268a1.556 1.556 0 0 0-1.102-.427c-.55 0-.993.15-1.328.45-.335.3-.547.715-.637 1.245zm11.58-3.21c.84 0 1.522.252 2.047.757.525.505.788 1.308.788 2.408v4.68h-1.725v-4.32c0-.66-.145-1.14-.435-1.44-.29-.3-.675-.45-1.155-.45-1.13 0-1.695.62-1.695 1.86v4.35h-1.725v-7.665h1.59v.945c.15-.3.442-.563.877-.788a3.073 3.073 0 0 1 1.433-.337zm9.405 8.025c-1.5 0-2.25-.695-2.25-2.085v-4.245h-1.605v-1.515h1.605v-2.34l1.725-.825v3.165h2.61v1.515h-2.61v3.915c0 .59.36.885 1.08.885.42 0 .86-.12 1.32-.36l-.21 1.545c-.44.23-.995.345-1.665.345zm440.501-15.458l-.736-2.464h-3.552l-.736 2.464h-2.048l3.664-11.2h1.792l3.664 11.2h-2.048zm-3.776-4.192h2.528l-.992-3.328a8.753 8.753 0 0 1-.272-1.248c-.128.65-.218 1.066-.272 1.248l-.992 3.328zm11.872 4.384c-1.6 0-2.4-.742-2.4-2.224v-4.528h-1.712v-1.616h1.712v-2.496l1.84-.88v3.376h2.784v1.616h-2.784v4.176c0 .629.384.944 1.152.944.448 0 .918-.128 1.408-.384l-.224 1.648c-.469.245-1.061.368-1.776.368zm9.104 0c-1.205 0-2.16-.382-2.864-1.144-.704-.763-1.056-1.806-1.056-3.128 0-1.312.352-2.355 1.056-3.128.704-.774 1.659-1.16 2.864-1.16 1.216 0 2.174.386 2.872 1.16.699.773 1.048 1.816 1.048 3.128s-.349 2.352-1.048 3.12c-.698.768-1.656 1.152-2.872 1.152zm0-1.76c.662 0 1.171-.224 1.528-.672.358-.448.536-1.062.536-1.84 0-.779-.178-1.398-.536-1.856-.357-.459-.866-.688-1.528-.688-.65 0-1.157.229-1.52.688-.362.458-.544 1.077-.544 1.856 0 .768.182 1.378.544 1.832.363.453.87.68 1.52.68zm12.08-6.8c.683 0 1.187.237 1.512.712.326.474.488 1.272.488 2.392v5.264h-1.68v-4.992c0-.576-.053-.99-.16-1.24-.106-.251-.304-.376-.592-.376-.277 0-.498.144-.664.432-.165.288-.248.688-.248 1.2v4.976h-1.68v-5.04c0-1.046-.256-1.568-.768-1.568-.298 0-.536.144-.712.432-.176.288-.264.688-.264 1.2v4.976h-1.68v-8.176h1.568v1.088c.299-.854.838-1.28 1.616-1.28.342 0 .643.117.904.352.262.234.446.512.552.832.491-.79 1.094-1.184 1.808-1.184zm7.696-.944a1.05 1.05 0 0 1-.768-.32 1.069 1.069 0 0 1-.32-.784c0-.31.107-.568.32-.776.214-.208.47-.312.768-.312.31 0 .571.104.784.312.214.208.32.466.32.776 0 .309-.106.57-.32.784-.213.213-.474.32-.784.32zm.928 7.696h2.256v1.616h-6.352v-1.616h2.256v-4.944h-2.256v-1.616h4.096v6.56zm9.024 1.808c-1.152 0-2.064-.379-2.736-1.136-.672-.758-1.008-1.803-1.008-3.136 0-1.323.344-2.368 1.032-3.136.688-.768 1.603-1.152 2.744-1.152 1.739 0 2.859.741 3.36 2.224l-1.744.592c-.277-.715-.81-1.072-1.6-1.072-.608 0-1.08.229-1.416.688-.336.458-.504 1.077-.504 1.856 0 .778.168 1.392.504 1.84.336.448.798.672 1.384.672.854 0 1.414-.4 1.68-1.2l1.744.544c-.49 1.61-1.637 2.416-3.44 2.416zm-49.44 19.2c-1.205 0-2.16-.382-2.864-1.144-.704-.763-1.056-1.806-1.056-3.128 0-1.312.352-2.355 1.056-3.128.704-.774 1.659-1.16 2.864-1.16 1.216 0 2.174.386 2.872 1.16.699.773 1.048 1.816 1.048 3.128s-.349 2.352-1.048 3.12c-.698.768-1.656 1.152-2.872 1.152zm0-1.76c.662 0 1.171-.224 1.528-.672.358-.448.536-1.062.536-1.84 0-.779-.178-1.398-.536-1.856-.357-.459-.866-.688-1.528-.688-.65 0-1.157.229-1.52.688-.362.458-.544 1.077-.544 1.856 0 .768.182 1.378.544 1.832.363.453.87.68 1.52.68zm11.984-6.8c.736 0 1.376.144 1.92.432v3.024h-1.792v-1.744h-.16c-.842 0-1.493.197-1.952.592-.458.394-.688.986-.688 1.776v2.672h2.288v1.616h-5.856v-1.616h1.728v-4.944h-1.728v-1.616h3.44v1.312c.224-.47.592-.838 1.104-1.104a3.613 3.613 0 0 1 1.696-.4zm7.44 8.56c-1.12 0-2-.376-2.64-1.128-.64-.752-.96-1.806-.96-3.16 0-1.312.328-2.352.984-3.12.656-.768 1.512-1.152 2.568-1.152.875 0 1.552.261 2.032.784v-3.12l1.84-.848v11.552h-1.84v-.624c-.17.224-.434.416-.792.576-.357.16-.754.24-1.192.24zm.256-1.76c.8 0 1.376-.267 1.728-.8v-3.456c-.384-.534-.97-.8-1.76-.8-.629 0-1.114.218-1.456.656-.341.437-.512 1.061-.512 1.872 0 .768.174 1.381.52 1.84.347.458.84.688 1.48.688zm13.616-2.928c0 .469-.021.842-.064 1.12h-5.568c.118.597.355 1.069.712 1.416.358.346.819.52 1.384.52a2.36 2.36 0 0 0 1.808-.8l1.104 1.168c-.768.842-1.744 1.264-2.928 1.264-1.205 0-2.157-.39-2.856-1.168-.698-.779-1.048-1.819-1.048-3.12 0-1.323.352-2.366 1.056-3.128.704-.763 1.654-1.144 2.848-1.144 1.046 0 1.899.328 2.56.984.662.656.992 1.618.992 2.888zm-5.648-.448h3.84c-.053-.598-.242-1.048-.568-1.352a1.66 1.66 0 0 0-1.176-.456c-.586 0-1.058.16-1.416.48-.357.32-.584.762-.68 1.328zm13.904-3.424c.736 0 1.376.144 1.92.432v3.024h-1.792v-1.744h-.16c-.842 0-1.493.197-1.952.592-.458.394-.688.986-.688 1.776v2.672h2.288v1.616h-5.856v-1.616h1.728v-4.944h-1.728v-1.616h3.44v1.312c.224-.47.592-.838 1.104-1.104a3.613 3.613 0 0 1 1.696-.4zm7.776 8.56a4.672 4.672 0 0 1-1.92-.392c-.586-.262-1.056-.616-1.408-1.064l1.2-1.088c.672.65 1.414.976 2.224.976.395 0 .72-.07.976-.208.256-.139.384-.347.384-.624 0-.16-.077-.312-.232-.456a2.081 2.081 0 0 0-.536-.36 17.97 17.97 0 0 0-.896-.384.935.935 0 0 0-.104-.048l-.104-.04a2.051 2.051 0 0 0-.112-.04 36.626 36.626 0 0 1-.88-.392 7.98 7.98 0 0 1-.696-.384c-.272-.166-.469-.323-.592-.472a2.315 2.315 0 0 1-.328-.568 1.995 1.995 0 0 1-.144-.776c0-.694.299-1.24.896-1.64.598-.4 1.35-.6 2.256-.6 1.27 0 2.288.432 3.056 1.296l-1.232 1.008c-.586-.491-1.216-.736-1.888-.736-.416 0-.749.061-1 .184-.25.122-.376.296-.376.52 0 .106.043.21.128.312.086.101.235.208.448.32.214.112.39.197.528.256.139.058.374.152.704.28.982.394 1.632.714 1.952.96.566.448.854 1.029.864 1.744 0 .757-.285 1.349-.856 1.776-.57.426-1.341.64-2.312.64zm-379.158-20.114l-3.42-10.5h1.98l2.085 7.155c.03.09.067.26.112.51s.078.405.098.465c.12-.62.185-.94.195-.96l2.115-7.17h1.965l-3.42 10.5h-1.71zm9.51.18c-.84 0-1.523-.22-2.048-.66-.525-.44-.787-1.07-.787-1.89 0-.83.3-1.46.9-1.89.6-.43 1.32-.645 2.16-.645.73 0 1.365.135 1.905.405v-.45c0-.92-.505-1.38-1.515-1.38-.84 0-1.65.26-2.43.78l-.525-1.41c.93-.59 1.965-.885 3.105-.885 2.03 0 3.045.96 3.045 2.88v4.965h-1.68v-.6c-.54.52-1.25.78-2.13.78zm.315-1.515c.72 0 1.325-.255 1.815-.765v-.99c-.46-.23-1.005-.345-1.635-.345-.48 0-.878.09-1.193.27-.315.18-.472.445-.472.795 0 .31.13.56.39.75.26.19.625.285 1.095.285zm10.365-.18h2.235v1.515h-6.195v-1.515h2.235v-7.8h-1.785l-.795-1.515h4.305v9.315zm7.875 1.695c-.85 0-1.538-.253-2.063-.758-.525-.505-.787-1.312-.787-2.422v-4.665h1.725v4.29c0 1.27.525 1.905 1.575 1.905 1.13 0 1.695-.625 1.695-1.875v-4.32h1.725v7.665h-1.725v-.735c-.49.61-1.205.915-2.145.915zm13.245-4.395c0 .44-.02.79-.06 1.05h-5.22c.11.56.332 1.002.667 1.327.335.325.768.488 1.298.488.67 0 1.235-.25 1.695-.75l1.035 1.095c-.72.79-1.635 1.185-2.745 1.185-1.13 0-2.023-.365-2.678-1.095-.655-.73-.982-1.705-.982-2.925 0-1.24.33-2.218.99-2.933.66-.715 1.55-1.072 2.67-1.072.98 0 1.78.307 2.4.922.62.615.93 1.518.93 2.708zm-5.295-.42h3.6c-.05-.56-.228-.983-.533-1.268a1.556 1.556 0 0 0-1.102-.427c-.55 0-.993.15-1.328.45-.335.3-.547.715-.637 1.245zm-56.175 14.79c.64 0 1.112.222 1.417.667.305.445.458 1.193.458 2.243v4.935h-1.575v-4.68c0-.54-.05-.928-.15-1.163-.1-.235-.285-.352-.555-.352-.26 0-.468.135-.623.405-.155.27-.232.645-.232 1.125v4.665h-1.575v-4.725c0-.98-.24-1.47-.72-1.47-.28 0-.503.135-.668.405-.165.27-.247.645-.247 1.125v4.665h-1.575v-7.665h1.47v1.02c.28-.8.785-1.2 1.515-1.2.32 0 .602.11.847.33.245.22.418.48.518.78.46-.74 1.025-1.11 1.695-1.11zm6.57 8.025c-.84 0-1.523-.22-2.048-.66-.525-.44-.787-1.07-.787-1.89 0-.83.3-1.46.9-1.89.6-.43 1.32-.645 2.16-.645.73 0 1.365.135 1.905.405v-.45c0-.92-.505-1.38-1.515-1.38-.84 0-1.65.26-2.43.78l-.525-1.41c.93-.59 1.965-.885 3.105-.885 2.03 0 3.045.96 3.045 2.88v4.965h-1.68v-.6c-.54.52-1.25.78-2.13.78zm.315-1.515c.72 0 1.325-.255 1.815-.765v-.99c-.46-.23-1.005-.345-1.635-.345-.48 0-.878.09-1.193.27-.315.18-.472.445-.472.795 0 .31.13.56.39.75.26.19.625.285 1.095.285zm10.05-6.51c.84 0 1.522.252 2.047.757.525.505.788 1.308.788 2.408v4.68h-1.725v-4.32c0-.66-.145-1.14-.435-1.44-.29-.3-.675-.45-1.155-.45-1.13 0-1.695.62-1.695 1.86v4.35h-1.725v-7.665h1.59v.945c.15-.3.442-.563.877-.788a3.073 3.073 0 0 1 1.433-.337zm8.115 8.025c-.84 0-1.523-.22-2.048-.66-.525-.44-.787-1.07-.787-1.89 0-.83.3-1.46.9-1.89.6-.43 1.32-.645 2.16-.645.73 0 1.365.135 1.905.405v-.45c0-.92-.505-1.38-1.515-1.38-.84 0-1.65.26-2.43.78l-.525-1.41c.93-.59 1.965-.885 3.105-.885 2.03 0 3.045.96 3.045 2.88v4.965h-1.68v-.6c-.54.52-1.25.78-2.13.78zm.315-1.515c.72 0 1.325-.255 1.815-.765v-.99c-.46-.23-1.005-.345-1.635-.345-.48 0-.878.09-1.193.27-.315.18-.472.445-.472.795 0 .31.13.56.39.75.26.19.625.285 1.095.285zm9.06 4.38l-.93-1.41c1.07-.08 1.807-.245 2.212-.495.405-.25.608-.655.608-1.215v-.45c-.41.47-1.005.705-1.785.705-.94 0-1.705-.348-2.295-1.043-.59-.695-.885-1.687-.885-2.977 0-1.23.295-2.205.885-2.925.59-.72 1.365-1.08 2.325-1.08.73 0 1.315.22 1.755.66v-.48h1.725v6.855c0 1.31-.273 2.257-.818 2.842-.545.585-1.477.923-2.797 1.013zm.405-4.515c.65 0 1.145-.26 1.485-.78v-3.195c-.36-.51-.855-.765-1.485-.765-.57 0-1.005.202-1.305.607-.3.405-.45.993-.45 1.763 0 .73.152 1.307.457 1.732.305.425.738.638 1.298.638zm12.78-2.745c0 .44-.02.79-.06 1.05h-5.22c.11.56.332 1.002.667 1.327.335.325.768.488 1.298.488.67 0 1.235-.25 1.695-.75l1.035 1.095c-.72.79-1.635 1.185-2.745 1.185-1.13 0-2.023-.365-2.678-1.095-.655-.73-.982-1.705-.982-2.925 0-1.24.33-2.218.99-2.933.66-.715 1.55-1.072 2.67-1.072.98 0 1.78.307 2.4.922.62.615.93 1.518.93 2.708zm-5.295-.42h3.6c-.05-.56-.228-.983-.533-1.268a1.556 1.556 0 0 0-1.102-.427c-.55 0-.993.15-1.328.45-.335.3-.547.715-.637 1.245zm13.125-3.21c.64 0 1.112.222 1.417.667.305.445.458 1.193.458 2.243v4.935h-1.575v-4.68c0-.54-.05-.928-.15-1.163-.1-.235-.285-.352-.555-.352-.26 0-.468.135-.623.405-.155.27-.232.645-.232 1.125v4.665h-1.575v-4.725c0-.98-.24-1.47-.72-1.47-.28 0-.503.135-.668.405-.165.27-.247.645-.247 1.125v4.665h-1.575v-7.665h1.47v1.02c.28-.8.785-1.2 1.515-1.2.32 0 .602.11.847.33.245.22.418.48.518.78.46-.74 1.025-1.11 1.695-1.11zm10.65 3.63c0 .44-.02.79-.06 1.05h-5.22c.11.56.332 1.002.667 1.327.335.325.768.488 1.298.488.67 0 1.235-.25 1.695-.75l1.035 1.095c-.72.79-1.635 1.185-2.745 1.185-1.13 0-2.023-.365-2.678-1.095-.655-.73-.982-1.705-.982-2.925 0-1.24.33-2.218.99-2.933.66-.715 1.55-1.072 2.67-1.072.98 0 1.78.307 2.4.922.62.615.93 1.518.93 2.708zm-5.295-.42h3.6c-.05-.56-.228-.983-.533-1.268a1.556 1.556 0 0 0-1.102-.427c-.55 0-.993.15-1.328.45-.335.3-.547.715-.637 1.245zm11.58-3.21c.84 0 1.522.252 2.047.757.525.505.788 1.308.788 2.408v4.68h-1.725v-4.32c0-.66-.145-1.14-.435-1.44-.29-.3-.675-.45-1.155-.45-1.13 0-1.695.62-1.695 1.86v4.35h-1.725v-7.665h1.59v.945c.15-.3.442-.563.877-.788a3.073 3.073 0 0 1 1.433-.337zm9.405 8.025c-1.5 0-2.25-.695-2.25-2.085v-4.245h-1.605v-1.515h1.605v-2.34l1.725-.825v3.165h2.61v1.515h-2.61v3.915c0 .59.36.885 1.08.885.42 0 .86-.12 1.32-.36l-.21 1.545c-.44.23-.995.345-1.665.345z" fill="#404040" fill-rule="nonzero"/>
    <g stroke="#333" stroke-width="1.16">
        <path d="M481.657 185.786c5.617 0 2.77-3.59 2.77-3.59l-2.77-3.589-2.769 3.589s-2.846 3.59 2.769 3.59zm.764-38.05s-13.598 8.401-19.727 12.217c-5.397 3.362-14.856 9.321-14.856 9.321l-34.642-21.54 34.643-21.538 34.583 21.54h-.001zm-.793 0v31.093" fill="#fff"/>
        <path d="M471.245 154.647v15.297s-4.837 12.754-23.535 12.754c-18.7 0-23.537-12.754-23.537-12.754V154.56l23.666 14.714s9.458-5.959 14.854-9.321c2.209-1.376 5.389-3.347 8.552-5.305v-.001z" fill="#ebf5f7"/>
    </g>
    <g fill-rule="nonzero" stroke="#262626" stroke-width="1.11">
        <path d="M291.194 156.53v8.487c0 2.768-2.39 5.721-6.987 7.935-8.458 4.059-21.144 4.244-28.499.369-3.31-1.661-4.964-3.875-4.964-6.274v-8.487c0 2.214 1.654 4.613 4.964 6.274 7.355 3.875 20.042 3.69 28.499-.37 4.597-2.214 6.987-5.166 6.987-7.934h0z" fill="#fff"/>
        <path d="M284.204 164.573c-8.456 4.071-21.139 4.256-28.492.37-7.353-3.886-6.434-10.178 2.022-14.25 8.456-4.071 21.139-4.256 28.492-.37 7.353 3.887 6.434 10.179-2.022 14.25z" fill="#0971ff"/>
    </g>
    <path d="M278.043 156.718l-8.173-.044c-.143-.001-.262.059-.265.134l-.021.449c-.004.075-.122.136-.265.135l-1.568-.009c-.143 0-.256-.062-.253-.137l.073-1.561c.004-.076.124-.136.268-.135l8.208.083-2.11-1.147-.024.522c-.004.075-.125.136-.269.134l-1.572-.021c-.141-.001-.252-.063-.249-.137l.076-1.607-.801-.436a.734.734 0 0 0-.605-.003l-8.145 4.13c-.17.087-.177.229-.014.318l.761.414 8.269.045c.143 0 .262-.06.265-.135l.021-.449c.004-.075.123-.135.266-.134l1.568.008c.143.001.256.062.252.138l-.073 1.561c-.003.075-.123.135-.267.134l-8.308-.084 2.207 1.2.027-.573c.003-.076.124-.136.269-.134l1.571.02c.142.002.253.063.249.137l-.077 1.652.753.416c.162.088.435.09.605.004l8.144-4.13c.171-.087.178-.23.015-.318" fill="#fff"/>
    <g fill-rule="nonzero" stroke="#262626" stroke-width="1.11">
        <path d="M319.913 162.945v8.487c0 2.768-2.39 5.721-6.987 7.935-8.458 4.06-21.145 4.244-28.5.369-3.309-1.661-4.964-3.875-4.964-6.274v-8.487c0 2.214 1.655 4.613 4.964 6.274 7.355 3.875 20.042 3.69 28.5-.369 4.596-2.214 6.986-5.166 6.986-7.935h.001z" fill="#fff"/>
        <path d="M312.922 170.988c-8.455 4.072-21.139 4.257-28.492.371-7.352-3.887-6.433-10.179 2.022-14.25 8.456-4.072 21.14-4.256 28.492-.37 7.353 3.886 6.434 10.178-2.022 14.249z" fill="#0971ff"/>
        <path d="M312.922 170.988c-8.455 4.072-21.139 4.257-28.492.371-7.352-3.887-6.433-10.179 2.022-14.25 8.456-4.072 21.14-4.256 28.492-.37 7.353 3.886 6.434 10.178-2.022 14.249z" fill="#0971ff"/>
    </g>
    <path d="M306.761 163.133l-8.173-.044c-.143-.001-.261.059-.265.135l-.021.449c-.003.075-.122.135-.265.134l-1.568-.009c-.143 0-.256-.062-.252-.137l.072-1.561c.004-.076.124-.136.268-.134l8.209.083-2.11-1.148-.025.522c-.003.076-.125.136-.269.134l-1.571-.02c-.142-.002-.253-.063-.249-.138l.075-1.607-.801-.436a.734.734 0 0 0-.605-.003l-8.144 4.13c-.171.087-.178.23-.015.318l.761.414 8.27.045c.143.001.261-.06.265-.135l.021-.449c.004-.075.122-.135.265-.134l1.568.008c.143.001.256.063.253.138l-.073 1.561c-.004.076-.124.136-.268.134l-8.307-.084 2.206 1.2.027-.573c.004-.076.125-.136.269-.134l1.572.02c.141.002.252.063.248.138l-.076 1.652.753.415a.73.73 0 0 0 .605.004l8.144-4.13c.17-.086.177-.229.015-.318" fill="#fff"/>
    <g fill-rule="nonzero" stroke="#262626" stroke-width="1.11">
        <path d="M311.42 138.461v8.487c0 2.768-2.39 5.721-6.987 7.935-8.458 4.06-21.145 4.244-28.5.369-3.309-1.661-4.964-3.875-4.964-6.274v-8.487c0 2.214 1.655 4.613 4.964 6.274 7.355 3.875 20.042 3.69 28.5-.369 4.596-2.215 6.986-5.167 6.986-7.935h.001z" fill="#fff"/>
        <path d="M304.429 146.504c-8.455 4.072-21.139 4.256-28.492.37-7.352-3.886-6.433-10.178 2.022-14.249 8.456-4.072 21.14-4.257 28.492-.371 7.353 3.887 6.434 10.179-2.022 14.25z" fill="#0971ff"/>
    </g>
    <path d="M298.268 138.649l-8.173-.044c-.143-.001-.261.059-.265.135l-.021.448c-.004.075-.122.136-.265.135l-1.568-.009c-.143 0-.256-.062-.252-.137l.072-1.561c.004-.076.124-.136.268-.135l8.209.083-2.11-1.147-.025.522c-.003.075-.125.136-.269.134l-1.571-.021c-.142-.001-.253-.062-.249-.137l.075-1.607-.801-.436a.734.734 0 0 0-.605-.003l-8.145 4.13c-.17.087-.177.23-.014.318l.761.414 8.27.045c.143.001.261-.06.265-.135l.021-.449c.004-.075.122-.135.265-.134l1.568.008c.143.001.256.062.253.138l-.073 1.561c-.004.075-.124.135-.268.134l-8.307-.084 2.206 1.2.027-.573c.004-.076.125-.136.269-.134l1.571.02c.142.002.253.063.249.138l-.076 1.652.753.415c.162.089.434.09.604.004l8.144-4.13c.171-.087.178-.23.016-.318" fill="#fff"/>
    <path d="M618.902 142.183l.507.003.505.006.503.008.502.01.5.012.498.014.497.017.495.019.493.021.491.023.489.025.487.027.486.029.483.032.481.033.479.036.477.038.474.039.473.042.47.043.468.046.465.047.463.05.461.051.458.054.456.055.453.057.45.059.448.061.446.063.442.065.44.066.437.068.435.07.431.072.428.074.426.075.423.078.419.078.417.081.413.082.411.084.407.086.404.087.401.089.397.091.394.092.391.094.388.096.384.097.38.099.377.1.373.102.37.103.367.105.362.106.359.108.355.109.351.111.348.112.344.114.339.115.336.116.332.118.328.119.324.121.319.122.316.123.311.125.307.126.303.127.299.129.294.13.29.131.286.132.141.067.14.066.139.068.138.067.136.068.136.068.134.069.133.068.132.069.131.07.13.069.128.07.128.07.126.071.125.071.124.071.123.071.121.072.121.072.119.072.117.072.117.073.116.073.114.073.113.074.112.073.11.074.109.075.109.074.106.075.106.075.104.075.103.076.102.076.1.076.1.076.098.077.096.077.096.077.094.077.092.078.092.077.09.078.089.079.087.078.086.079.085.079.083.079.083.08.08.079.08.08.078.08.077.08.075.081.074.081.072.081.072.081.069.081.069.082.067.082.065.082.065.082.063.082.061.083.06.083.058.083.058.083.055.083.055.084.052.083.052.084.05.085.048.084.047.084.045.085.045.085.042.085.041.085.04.086.038.085.036.086.035.086.034.086.032.086.031.087.029.086.027.087.026.087.025.087.023.087.021.088.02.087.018.088.017.088.015.088.013.088.012.088.011.089.008.088.008.089.005.089.004.089.003.089v.179l-.003.089-.004.089-.005.088-.008.089-.008.089-.011.088-.012.088-.013.089-.015.088-.017.087-.018.088-.02.088-.021.087-.023.087-.025.087-.026.087-.027.087-.029.087-.031.086-.032.086-.034.086-.035.086-.036.086-.038.086-.04.085-.041.085-.042.085-.045.085-.045.085-.047.085-.048.084-.05.084-.052.084-.052.084-.055.083-.055.084-.058.083-.058.083-.06.083-.061.082-.063.083-.065.082-.065.082-.067.082-.069.081-.069.082-.072.081-.072.081-.074.081-.075.08-.077.08-.078.081-.08.079-.08.08-.083.079-.083.08-.085.079-.086.078-.087.079-.089.078-.09.078-.092.078-.092.077-.094.078-.096.077-.096.077-.098.076-.1.077-.1.076-.102.075-.103.076-.104.075-.106.075-.106.075-.109.075-.109.074-.11.074-.112.074-.113.073-.114.074-.116.073-.117.072-.117.073-.119.072-.121.072-.121.071-.123.072-.124.071-.125.071-.126.07-.128.07-.128.07-.13.07-.131.069-.132.069-.133.069-.134.068-.136.068-.136.068-.138.068-.139.067-.14.067-.141.067-.286.132-.29.131-.294.13-.299.128-.303.128-.307.126-.311.124-.316.124-.319.121-.324.121-.328.119-.332.118-.336.117-.339.115-.344.113-.348.113-.351.11-.355.11-.359.107-.362.107-.367.105-.37.103-.373.102-.377.1-.38.099-.384.097-.388.095-.391.094-.394.092-.397.091-.401.089-.404.087-.407.086-.411.084-.413.082-.417.081-.419.079-.423.077-.426.076-.428.073-.431.072-.435.07-.437.068-.44.067-.442.065-.446.062-.448.061-.45.059-.453.058-.456.055-.458.053-.461.052-.463.049-.465.048-.468.045-.47.044-.473.041-.474.04-.477.038-.479.035-.481.034-.483.031-.486.029-.487.028-.489.025-.491.023-.493.021-.495.019-.497.016-.498.015-.5.012-.502.01-.503.008-.505.005-.507.004-.508.001-.509-.001-.506-.004-.505-.005-.504-.008-.502-.01-.5-.012-.498-.015-.497-.016-.495-.019-.493-.021-.491-.023-.489-.025-.487-.028-.485-.029-.483-.031-.482-.034-.479-.035-.476-.038-.475-.04-.472-.041-.471-.044-.467-.045-.466-.048-.463-.049-.461-.052-.458-.053-.455-.055-.454-.058-.45-.059-.448-.061-.445-.062-.443-.065-.44-.067-.437-.068-.434-.07-.432-.072-.428-.073-.426-.076-.422-.077-.42-.079-.417-.081-.413-.082-.41-.084-.408-.086-.404-.087-.4-.089-.398-.091-.394-.092-.391-.094-.387-.095-.384-.097-.381-.099-.377-.1-.373-.102-.37-.103-.366-.105-.363-.107-.359-.107-.355-.11-.351-.11-.348-.113-.343-.113-.34-.115-.336-.117-.332-.118-.328-.119-.323-.121-.32-.121-.316-.124-.311-.124-.307-.126-.303-.128-.299-.128-.294-.13-.29-.131-.285-.132-.142-.067-.14-.067-.138-.067-.138-.068-.137-.068-.135-.068-.135-.068-.133-.069-.132-.069-.131-.069-.13-.07-.128-.07-.128-.07-.126-.07-.125-.071-.124-.071-.122-.072-.122-.071-.12-.072-.119-.072-.118-.073-.117-.072-.115-.073-.115-.074-.113-.073-.111-.074-.111-.074-.109-.074-.108-.075-.107-.075-.106-.075-.104-.075-.103-.076-.102-.075-.1-.076-.099-.077-.098-.076-.097-.077-.095-.077-.094-.078-.093-.077-.091-.078-.09-.078-.089-.078-.088-.079-.086-.078-.085-.079-.083-.08-.082-.079-.081-.08-.079-.079-.078-.081-.077-.08-.076-.08-.073-.081-.073-.081-.071-.081-.07-.082-.069-.081-.067-.082-.065-.082-.064-.082-.063-.083-.062-.082-.06-.083-.058-.083-.057-.083-.056-.084-.054-.083-.053-.084-.051-.084-.05-.084-.049-.084-.047-.085-.045-.085-.044-.085-.043-.085-.041-.085-.039-.085-.038-.086-.037-.086-.035-.086-.034-.086-.032-.086-.03-.086-.029-.087-.028-.087-.026-.087-.024-.087-.023-.087-.022-.087-.019-.088-.019-.088-.016-.087-.015-.088-.014-.089-.012-.088-.01-.088-.009-.089-.007-.089-.006-.088-.004-.089-.002-.089-.001-.09.001-.089.002-.089.004-.089.006-.089.007-.089.009-.088.01-.089.012-.088.014-.088.015-.088.016-.088.019-.088.019-.087.022-.088.023-.087.024-.087.026-.087.028-.087.029-.086.03-.087.032-.086.034-.086.035-.086.037-.086.038-.085.039-.086.041-.085.043-.085.044-.085.045-.085.047-.084.049-.084.05-.085.051-.084.053-.083.054-.084.056-.083.057-.083.058-.083.06-.083.062-.083.063-.082.064-.082.065-.082.067-.082.069-.082.07-.081.071-.081.073-.081.073-.081.076-.081.077-.08.078-.08.079-.08.081-.079.082-.08.083-.079.085-.079.086-.079.088-.078.089-.079.09-.078.091-.077.093-.078.094-.077.095-.077.097-.077.098-.077.099-.076.1-.076.102-.076.103-.076.104-.075.106-.075.107-.075.108-.074.109-.075.111-.074.111-.073.113-.074.115-.073.115-.073.117-.073.118-.072.119-.072.12-.072.122-.072.122-.071.124-.071.125-.071.126-.071.128-.07.128-.07.13-.069.131-.07.132-.069.133-.068.135-.069.135-.068.137-.068.138-.067.138-.068.14-.066.142-.067.285-.132.29-.131.294-.13.299-.129.303-.127.307-.126.311-.125.316-.123.32-.122.323-.121.328-.119.332-.118.336-.116.34-.115.343-.114.348-.112.351-.111.355-.109.359-.108.363-.106.366-.105.37-.103.373-.102.377-.1.381-.099.384-.097.387-.096.391-.094.394-.092.398-.091.4-.089.404-.087.408-.086.41-.084.413-.082.417-.081.42-.078.422-.078.426-.075.428-.074.432-.072.434-.07.437-.068.44-.066.443-.065.445-.063.448-.061.45-.059.454-.057.455-.055.458-.054.461-.051.463-.05.466-.047.467-.046.471-.043.472-.042.475-.039.476-.038.479-.036.482-.033.483-.032.485-.029.487-.027.489-.025.491-.023.493-.021.495-.019.497-.017.498-.014.5-.012.502-.01.504-.008.505-.006.506-.003.509-.001.508.001zm-1.012 1l-.502.003-.501.006-.499.007-.497.01-.496.013-.494.014-.492.016-.49.019-.489.021-.486.022-.485.025-.483.027-.481.03-.478.031-.477.033-.474.035-.472.037-.471.039-.468.042-.465.043-.463.045-.461.047-.458.049-.456.051-.454.053-.451.054-.448.057-.446.058-.443.061-.441.062-.437.064-.435.065-.432.068-.43.069-.426.071-.423.073-.421.075-.417.076-.415.078-.411.079-.408.082-.405.082-.402.085-.399.086-.395.088-.392.09-.388.09-.385.093-.382.094-.378.096-.375.097-.371.099-.367.1-.364.101-.36.103-.356.105-.352.106-.349.107-.345.109-.341.11-.337.111-.333.113-.329.114-.325.115-.32.117-.316.118-.313.119-.308.12-.303.122-.3.123-.295.123-.29.125-.286.127-.282.127-.277.129-.136.064-.136.065-.135.065-.133.065-.131.066-.132.066-.129.066-.129.066-.127.066-.126.067-.126.068-.124.067-.121.067-.122.068-.121.068-.118.068-.117.068-.117.069-.115.069-.114.068-.112.07-.112.069-.109.069-.109.07-.108.07-.106.07-.105.07-.103.071-.103.07-.1.07-.099.071-.1.072-.097.071-.095.071-.094.072-.094.072-.09.071-.091.072-.089.072-.088.072-.087.072-.084.072-.084.073-.081.072-.081.072-.08.073-.078.073-.077.073-.075.072-.073.072-.072.073-.072.074-.069.072-.069.074-.067.072-.064.073-.065.073-.063.073-.06.072-.061.074-.058.073-.056.072-.057.074-.054.073-.052.072-.051.073-.05.072-.049.074-.047.072-.045.071-.045.074-.043.072-.041.072-.04.072-.039.072-.037.072-.036.072-.035.072-.033.072-.032.071-.03.072-.03.072-.027.069-.026.072-.026.071-.024.072-.022.071-.022.072-.019.069-.019.071-.017.072-.016.069-.015.071-.013.072-.012.069-.011.069-.01.074-.009.072-.006.067-.006.072-.005.072-.003.07-.002.07v.145l.002.07.003.069.005.073.006.072.006.066.009.072.01.075.011.069.012.069.013.071.015.072.016.069.017.071.019.072.019.069.022.071.022.072.024.071.026.072.026.072.027.069.03.072.03.071.032.072.033.072.035.072.036.072.037.072.039.071.04.073.041.072.043.072.045.074.045.07.047.073.049.074.05.072.051.072.052.073.054.072.057.074.056.073.058.072.061.074.061.073.062.072.065.074.064.072.067.073.069.073.069.073.072.073.072.074.073.072.075.072.077.073.078.072.08.073.081.073.081.072.084.072.084.072.087.073.088.072.089.072.091.072.09.071.094.072.094.071.095.071.097.071.1.072.099.071.1.07.103.071.103.07.105.071.106.07.108.069.109.07.109.07.112.069.112.069.114.069.115.069.117.069.117.068.118.068.121.068.122.068.121.067.124.067.126.067.126.067.127.067.129.066.129.066.132.066.131.065.133.066.135.065.136.065.136.064.277.129.282.127.286.126.29.125.295.124.3.123.303.121.308.121.313.119.316.118.32.116.325.116.329.114.333.112.337.112.341.11.345.109.349.107.352.106.356.104.36.103.364.102.367.1.371.099.375.097.378.095.382.095.385.092.388.091.392.089.395.088.399.086.402.085.405.083.408.081.411.08.415.078.417.076.421.074.423.073.426.071.43.07.432.067.435.066.437.064.441.062.443.06.446.059.448.056.451.055.454.053.456.051.458.049.461.047.463.045.465.043.468.041.471.039.472.038.474.035.477.033.478.031.481.029.483.027.485.025.486.023.489.021.49.018.492.017.494.014.496.012.497.01.499.008.501.005.502.004.504.001.503-.001.503-.004.5-.005.499-.008.498-.01.495-.012.494-.014.492-.017.491-.018.488-.021.487-.023.484-.025.483-.027.481-.029.479-.031.476-.033.475-.035.472-.038.47-.039.468-.041.465-.043.463-.045.461-.047.458-.049.457-.051.453-.053.451-.055.449-.056.445-.059.443-.06.441-.062.437-.064.435-.066.433-.067.429-.07.426-.071.423-.073.421-.074.417-.076.415-.078.411-.08.408-.081.405-.083.402-.085.399-.086.395-.088.392-.089.388-.091.386-.092.381-.095.379-.095.374-.097.371-.099.367-.1.364-.102.36-.103.357-.104.352-.106.349-.107.344-.109.341-.11.337-.112.333-.112.329-.114.325-.116.32-.116.317-.118.312-.119.308-.121.304-.121.299-.123.295-.124.29-.125.287-.126.281-.127.278-.129.135-.064.136-.065.135-.065.133-.066.132-.065.131-.066.13-.066.129-.067.127-.066.126-.067.125-.067.123-.067.123-.068.121-.067.12-.068.119-.068.117-.068.117-.069.115-.069.114-.069.113-.069.111-.069.11-.07.108-.07.108-.069.106-.07.105-.071.103-.07.103-.071.101-.071.1-.07.097-.071.097-.071.096-.072.095-.071.093-.072.092-.072.091-.072.088-.071.086-.072.087-.072.085-.073.084-.072.083-.073.08-.072.079-.072.078-.073.077-.073.075-.072.074-.073.072-.073.07-.072.072-.075.068-.072.065-.071.066-.074.064-.074.063-.072.061-.074.06-.073.058-.072.057-.073.055-.072.055-.074.052-.073.051-.072.051-.074.049-.072.045-.071.047-.074.044-.072.043-.072.041-.072.04-.073.039-.071.037-.072.036-.072.035-.072.033-.072.032-.072.031-.071.028-.07.028-.071.027-.074.026-.072.023-.069.022-.069.021-.072.021-.074.018-.069.017-.069.016-.071.015-.072.014-.071.012-.069.01-.072.01-.072.008-.069.008-.072.005-.069.005-.07.003-.072.002-.073.001-.07-.001-.07-.002-.072-.003-.073-.005-.069-.005-.069-.008-.072-.008-.07-.01-.071-.01-.072-.012-.069-.014-.072-.015-.071-.016-.072-.017-.069-.018-.069-.021-.074-.021-.071-.022-.069-.023-.07-.026-.071-.027-.074-.028-.072-.028-.069-.031-.072-.032-.071-.033-.072-.035-.072-.036-.072-.037-.072-.039-.072-.04-.072-.041-.072-.043-.072-.044-.073-.047-.074-.045-.07-.049-.073-.051-.073-.051-.073-.052-.072-.055-.074-.055-.073-.057-.072-.058-.073-.06-.072-.061-.074-.063-.073-.065-.073-.065-.074-.065-.071-.068-.073-.072-.074-.07-.073-.072-.072-.074-.073-.075-.072-.077-.073-.078-.074-.079-.072-.08-.072-.083-.072-.084-.073-.085-.072-.086-.073-.087-.071-.089-.072-.09-.072-.092-.071-.093-.072-.095-.072-.096-.071-.097-.071-.097-.071-.1-.071-.101-.071-.103-.07-.103-.071-.105-.07-.106-.07-.108-.07-.108-.07-.11-.069-.111-.069-.113-.07-.114-.068-.115-.069-.117-.069-.117-.068-.119-.069-.12-.067-.121-.068-.123-.068-.123-.067-.125-.067-.126-.067-.127-.066-.129-.066-.13-.067-.131-.065-.132-.066-.133-.065-.135-.065-.136-.065-.135-.064-.278-.129-.281-.127-.287-.127-.29-.125-.295-.123-.299-.123-.304-.122-.308-.12-.312-.119-.317-.118-.32-.117-.325-.115-.329-.114-.333-.113-.337-.111-.341-.11-.344-.109-.349-.107-.352-.106-.357-.105-.36-.103-.364-.101-.367-.1-.371-.099-.374-.097-.379-.096-.381-.094-.386-.093-.388-.091-.392-.089-.395-.088-.399-.086-.402-.085-.405-.082-.408-.082-.411-.079-.415-.078-.417-.076-.421-.075-.423-.073-.426-.071-.429-.069-.433-.068-.435-.065-.437-.064-.441-.062-.443-.061-.445-.058-.449-.057-.451-.054-.453-.053-.457-.051-.458-.049-.461-.047-.463-.045-.465-.043-.468-.042-.47-.039-.472-.037-.475-.035-.476-.033-.479-.031-.481-.03-.483-.027-.484-.025-.487-.022-.488-.021-.491-.019-.492-.016-.494-.014-.495-.013-.498-.01-.499-.007-.5-.006-.503-.003-.503-.001-.504.001z" fill="#262626"/>
    <path d="M601.628 121.221l.098.002.099.004.1.005.1.007.101.008.101.009.101.01.103.012.102.013.104.015.104.016.104.017.105.018.105.02.106.021.106.023.107.023.108.025.108.027.108.027.109.029.109.03.11.032.11.032.111.034.111.035.112.037.112.038.113.039.113.04.114.041.113.043.115.044.115.046.115.046.116.048.116.049.116.05.117.051.118.053.118.054.118.055.118.056.119.058.12.059.12.059.12.062.12.062.121.063.121.065.122.066.122.067.123.068.122.07.123.07.124.072.124.073.124.074.124.075.125.077.125.077.126.079.126.08.126.081.126.082.127.083.127.085.127.085.128.087.128.088.128.088.258.182.258.185.26.19.26.194.262.199.263.203.263.208.265.211.265.216.267.22.267.224.268.229.269.232.269.237.27.241.271.245.272.249.272.253.273.256.273.261.274.265.275.269.274.272.276.277.275.28.276.284.277.288.277.291.277.295.277.299.277.303.278.306.278.31.278.313.278.317.278.32.278.324.278.328.278.331.278.334.278.338.278.341.278.344.277.348.278.351.277.354.276.357.277.361.276.364.276.367.275.37.275.373.274.377.274.379.274.382.272.386.273.388.271.391.271.394.27.397.27.4.269.403.268.406.267.408.266.411.266.414.264.416.264.419.263.422.262.425.26.427.26.429.258.432.258.435.256.437.255.439.253.441.251.441.247.44.245.44.242.439.24.44.237.438.234.439.231.438.228.437.226.437.222.436.22.436.218.435.214.434.212.433.208.433.206.432.203.43.2.43.198.429.194.428.192.427.188.426.186.425.183.423.18.422.177.421.174.42.171.418.169.417.165.416.162.414.16.413.156.411.154.41.15.408.148.406.144.404.142.403.138.401.136.4.132.397.129.395.127.394.123.392.12.389.117.388.114.385.111.383.108.381.105.379.102.377.098.374.096.372.092.37.089.367.086.365.083.362.08.359.077.357.073.355.07.352.067.349.064.346.061.344.057.34.055.338.051.335.047.332.045.329.041.326.038.323.035.32.031.316.028.314.013.155.012.155.011.154.011.153.009.152.009.152.008.15.007.15.006.149.006.148.004.147.004.146.003.146.002.144.001.144.001.143-.001.142-.001.141-.002.14-.003.139-.004.138-.004.138-.006.136-.006.136-.007.134-.008.134-.009.133-.01.132-.01.13-.012.13-.012.129-.013.128-.014.127-.015.126-.015.125-.017.124-.017.124-.019.122-.019.121-.02.12-.02.119-.022.118-.023.117-.023.116-.024.115-.025.114-.026.113-.027.112-.028.111-.028.109-.03.109-.03.108-.031.106-.032.106-.033.104-.034.104-.035.102-.035.101-.037.1-.037.099-.038.098-.04.097-.039.095-.041.095-.042.093-.043.092-.043.091-.045.09-.045.089-.046.088-.047.086-.048.085-.049.084-.049.083-.051.082-.052.081-.052.079-.053.078-.054.077-.055.076-.056.075-.057.073-.058.072-.059.071-.059.07-.061.068-.061.067-.063.066-.063.065-.064.063-.065.063-.066.061-.067.059-.067.059-.069.057-.069.055-.071.055-.071.053-.073.052-.073.051-.074.049-.075.048-.076.047-.077.045-.078.044-.078.042-.079.041-.08.04-.08.038-.081.037-.082.035-.083.034-.083.032-.083.031-.085.029-.085.028-.086.027-.086.025-.087.024-.088.022-.088.021-.089.02-.089.018-.09.017-.091.015-.092.014-.091.013-.093.011-.093.01-.094.008-.094.007-.095.006-.096.004-.096.003-.097.002h-.097l-.098-.001-.098-.003-.099-.004-.1-.005-.1-.006-.1-.008-.101-.009-.102-.011-.102-.012-.103-.013-.103-.014-.104-.016-.105-.017-.104-.019-.106-.02-.106-.021-.106-.022-.107-.024-.107-.025-.108-.026-.109-.028-.109-.028-.109-.031-.11-.031-.11-.033-.111-.034-.111-.035-.112-.036-.112-.038-.113-.039-.113-.04-.113-.042-.114-.043-.115-.044-.114-.045-.116-.047-.115-.047-.117-.049-.116-.05-.117-.052-.117-.053-.118-.053-.118-.055-.119-.057-.119-.057-.119-.059-.12-.06-.12-.061-.121-.062-.121-.064-.121-.065-.122-.065-.122-.067-.122-.069-.123-.069-.123-.071-.124-.071-.123-.073-.125-.074-.124-.076-.125-.076-.125-.078-.125-.078-.126-.08-.126-.081-.127-.082-.127-.084-.127-.084-.127-.086-.128-.086-.128-.088-.128-.089-.257-.181-.259-.186-.259-.19-.261-.194-.262-.199-.262-.203-.264-.207-.265-.212-.265-.215-.266-.221-.268-.224-.268-.228-.268-.233-.27-.237-.27-.24-.271-.245-.272-.249-.272-.253-.273-.257-.273-.261-.274-.264-.274-.269-.275-.273-.275-.276-.276-.28-.276-.284-.277-.288-.276-.291-.277-.296-.278-.299-.277-.302-.278-.306-.278-.31-.278-.313-.278-.317-.278-.321-.278-.324-.278-.327-.278-.331-.278-.334-.278-.338-.278-.341-.278-.345-.277-.347-.277-.351-.277-.354-.277-.358-.277-.361-.276-.363-.275-.367-.276-.371-.275-.373-.274-.376-.274-.379-.273-.383-.273-.385-.272-.388-.272-.392-.271-.394-.27-.397-.27-.4-.268-.403-.268-.405-.268-.408-.266-.411-.266-.414-.264-.417-.264-.419-.263-.422-.261-.424-.261-.427-.26-.43-.258-.432-.258-.434-.256-.437-.255-.44-.253-.441-.25-.44-.248-.44-.245-.44-.242-.44-.24-.439-.236-.439-.234-.438-.231-.438-.229-.438-.225-.436-.223-.437-.22-.435-.217-.435-.215-.434-.211-.434-.209-.432-.206-.432-.203-.431-.2-.43-.197-.429-.195-.428-.191-.427-.189-.425-.186-.425-.183-.423-.18-.423-.177-.421-.174-.42-.171-.418-.168-.417-.166-.416-.162-.414-.159-.412-.157-.412-.153-.409-.151-.408-.147-.406-.145-.405-.141-.403-.139-.401-.135-.399-.133-.397-.129-.396-.126-.394-.124-.391-.12-.39-.117-.387-.114-.386-.111-.383-.108-.381-.105-.379-.102-.376-.098-.375-.096-.372-.092-.369-.089-.367-.086-.365-.083-.362-.08-.36-.076-.357-.074-.354-.07-.352-.067-.349-.064-.347-.061-.343-.057-.341-.054-.338-.051-.335-.048-.332-.044-.329-.042-.325-.038-.323-.034-.32-.032-.317-.028-.313-.013-.156-.012-.154-.011-.154-.011-.153-.009-.153-.009-.151-.008-.151-.007-.149-.006-.149-.005-.148-.005-.147-.004-.147-.003-.145-.002-.145-.001-.143v-.285l.001-.141.002-.14.003-.139.004-.139.005-.137.005-.137.006-.135.008-.135.008-.134.008-.132.01-.132.011-.131.011-.13.012-.129.013-.128.014-.127.015-.126.016-.125.016-.124.018-.123.018-.122.019-.121.02-.12.021-.119.021-.118.023-.118.023-.116.025-.115.025-.114.026-.112.026-.112.028-.111.029-.11.029-.109.031-.107.031-.107.032-.105.033-.105.034-.103.034-.102.036-.101.036-.101.038-.098.038-.098.039-.097.04-.096.041-.094.041-.093.043-.093.043-.091.045-.09.045-.088.046-.088.047-.086.048-.086.049-.084.05-.083.05-.082.052-.08.052-.08.054-.078.054-.077.055-.076.056-.074.057-.073.057-.073.059-.07.06-.07.06-.069.062-.067.062-.066.063-.064.064-.064.065-.062.066-.061.067-.06.068-.058.068-.057.07-.056.07-.054.072-.054.072-.052.073-.05.074-.049.075-.048.076-.047.077-.045.078-.044.078-.043.079-.041.08-.039.081-.038.081-.037.081-.035.083-.034.083-.032.084-.031.084-.03.085-.028.086-.026.086-.026.087-.023.088-.023.088-.021.089-.019.09-.019.09-.016.09-.016.092-.014.092-.012.092-.011.094-.01.093-.009.095-.007.095-.005.095-.005.096-.003.097-.001h.097l.098.001zm-.185.999l-.083.001-.082.003-.081.003-.08.005-.08.006-.078.007-.078.008-.078.01-.076.01-.075.012-.075.012-.074.014-.074.015-.073.016-.071.017-.072.018-.071.02-.069.02-.07.022-.069.022-.067.024-.067.025-.067.026-.067.027-.065.028-.065.029-.063.03-.064.032-.063.033-.063.034-.062.035-.061.036-.061.037-.059.038-.06.04-.058.04-.057.041-.058.043-.056.044-.056.044-.055.046-.055.048-.054.048-.053.048-.052.051-.053.052-.05.051-.052.055-.051.056-.048.055-.05.057-.048.059-.048.06-.047.059-.046.063-.048.065-.044.063-.045.066-.045.068-.043.068-.043.07-.042.069-.043.074-.041.073-.04.073-.04.076-.039.077-.039.079-.038.079-.037.081-.037.082-.036.084-.035.084-.035.086-.034.087-.033.089-.033.089-.031.089-.031.092-.031.095-.03.094-.029.096-.028.095-.028.098-.027.101-.026.1-.025.1-.025.102-.024.106-.023.105-.023.106-.021.106-.02.108-.021.111-.019.111-.019.112-.018.113-.017.114-.016.115-.016.116-.014.117-.014.119-.013.119-.013.121-.011.121-.011.125-.01.123-.009.124-.008.127-.008.127-.007.128-.006.128-.005.13-.005.133-.003.13-.003.133-.002.135-.001.135v.273l.001.137.002.14.003.14.004.139.004.143.005.144.006.142.007.144.008.146.008.146.009.147.01.148.011.15.012.15.012.148.028.306.03.308.034.31.037.315.04.316.044.321.046.324.05.327.053.33.056.333.059.336.063.339.065.342.069.344.072.348.075.35.078.353.082.355.084.359.088.36.091.363.094.367.097.368.1.37.103.373.106.376.11.377.112.38.115.382.119.384.122.387.124.387.128.391.131.392.133.394.137.396.14.399.142.399.146.401.149.404.152.404.154.406.158.409.16.409.164.411.166.413.17.414.172.415.175.416.178.418.181.419.184.421.187.421.19.423.192.424.195.424.199.426.201.427.203.427.208.429.209.429.212.43.216.431.217.431.221.432.224.434.226.433.229.434.232.434.235.435.237.436.24.435.243.436.245.437.249.436.25.437.253.436.254.433.255.43.257.429.257.426.258.423.26.421.26.418.261.415.262.413.263.41.264.407.265.404.266.402.266.399.267.396.268.394.268.39.269.387.27.385.27.382.27.378.272.375.271.373.272.369.273.367.273.363.273.36.273.357.274.354.274.35.274.347.275.344.274.34.275.337.274.334.275.33.275.327.275.324.275.32.274.316.274.313.275.309.274.306.274.302.274.299.273.294.273.291.273.287.272.284.272.28.271.275.271.272.271.269.269.264.27.26.268.257.268.252.267.248.267.244.266.24.265.237.263.231.264.228.262.224.261.219.261.215.26.211.257.207.258.202.256.198.254.193.254.189.252.185.251.18.251.176.123.086.124.085.123.084.123.082.124.082.122.081.122.079.121.078.122.077.121.076.12.074.121.074.119.072.12.072.119.07.117.068.119.068.117.066.117.065.118.065.115.063.116.061.116.061.114.059.114.058.114.057.113.056.114.055.111.053.112.052.111.051.11.049.111.048.11.048.109.046.108.045.107.043.108.042.108.042.106.039.105.039.105.037.104.036.104.035.103.034.103.033.102.031.1.03.102.029.099.027.099.026.099.025.098.024.098.023.096.021.096.021.095.019.094.017.094.017.093.015.093.014.091.013.091.012.09.01.09.009.088.008.088.007.087.006.086.004.086.004.085.002.084.001h.083l.083-.002.082-.002.081-.004.08-.005.079-.005.079-.008.077-.008.078-.009.076-.011.076-.011.075-.013.074-.014.074-.015.072-.016.072-.016.071-.019.071-.019.07-.021.069-.021.069-.023.068-.023.067-.025.067-.026.066-.027.065-.028.065-.03.063-.03.064-.031.063-.033.063-.034.062-.035.062-.037.06-.036.059-.039.06-.039.058-.041.059-.041.056-.042.056-.044.056-.045.056-.046.055-.047.053-.047.053-.05.053-.05.052-.052.052-.053.049-.053.052-.056.05-.056.048-.057.049-.058.046-.059.048-.061.048-.064.046-.063.045-.064.044-.066.045-.067.043-.068.044-.07.041-.069.043-.074.042-.074.039-.073.04-.076.039-.077.039-.078.038-.08.037-.081.037-.082.036-.083.036-.085.034-.086.034-.087.034-.088.032-.09.032-.088.031-.092.031-.095.03-.095.028-.094.028-.096.028-.1.027-.099.026-.099.025-.101.025-.105.024-.103.023-.105.023-.105.021-.107.021-.11.02-.11.02-.111.018-.111.018-.113.017-.114.016-.115.016-.117.015-.117.014-.118.013-.12.012-.12.011-.122.011-.123.01-.125.009-.125.009-.125.008-.127.006-.128.006-.129.005-.13.005-.131.003-.131.003-.135.002-.134.001-.134.001-.136-.001-.137-.001-.138-.002-.14-.002-.139-.004-.139-.005-.143-.005-.144-.006-.142-.007-.144-.007-.147-.009-.146-.009-.147-.01-.147-.011-.151-.011-.149-.013-.149-.027-.306-.031-.307-.034-.311-.036-.314-.041-.317-.043-.32-.047-.325-.05-.326-.053-.33-.056-.334-.059-.336-.062-.338-.066-.342-.069-.344-.072-.348-.075-.35-.078-.354-.082-.355-.084-.358-.088-.361-.091-.363-.094-.366-.096-.369-.1-.37-.104-.373-.106-.376-.109-.377-.113-.38-.115-.382-.119-.384-.121-.386-.125-.388-.128-.391-.13-.392-.134-.393-.137-.397-.139-.398-.143-.399-.146-.402-.149-.403-.151-.405-.155-.406-.158-.408-.16-.41-.164-.41-.166-.413-.17-.414-.171-.415-.176-.417-.178-.418-.181-.419-.184-.42-.186-.422-.19-.422-.193-.424-.195-.424-.198-.426-.201-.427-.204-.428-.207-.428-.209-.429-.213-.43-.215-.431-.218-.432-.221-.432-.223-.433-.227-.433-.229-.434-.232-.435-.234-.435-.237-.435-.24-.436-.243-.436-.246-.436-.248-.437-.251-.437-.253-.435-.254-.433-.255-.431-.256-.429-.257-.425-.259-.423-.259-.421-.26-.418-.262-.415-.262-.413-.263-.41-.264-.407-.265-.405-.265-.402-.267-.399-.266-.396-.268-.393-.269-.39-.268-.388-.27-.384-.27-.382-.271-.378-.271-.376-.272-.373-.272-.369-.272-.366-.273-.364-.273-.36-.274-.356-.274-.354-.273-.35-.274-.347-.275-.344-.275-.341-.275-.337-.274-.334-.275-.33-.275-.327-.274-.323-.275-.32-.275-.317-.274-.313-.274-.309-.275-.305-.274-.303-.273-.298-.274-.295-.272-.291-.273-.287-.273-.283-.272-.28-.271-.276-.271-.272-.27-.268-.27-.264-.27-.261-.268-.256-.268-.252-.267-.248-.266-.244-.267-.241-.264-.236-.265-.232-.263-.228-.262-.223-.261-.219-.26-.215-.26-.212-.258-.206-.257-.202-.256-.198-.255-.193-.253-.19-.253-.184-.251-.18-.25-.177-.123-.085-.125-.085-.124-.084-.122-.083-.123-.081-.123-.081-.122-.079-.121-.078-.121-.077-.122-.076-.12-.075-.12-.073-.12-.073-.119-.071-.119-.07-.119-.069-.118-.068-.117-.066-.117-.065-.117-.064-.116-.063-.116-.062-.115-.06-.114-.06-.115-.058-.114-.057-.113-.055-.113-.055-.113-.053-.111-.052-.11-.051-.111-.049-.111-.049-.109-.047-.109-.046-.109-.045-.107-.043-.108-.043-.107-.041-.106-.04-.105-.038-.105-.038-.105-.036-.104-.035-.103-.034-.103-.032-.102-.031-.101-.03-.1-.029-.1-.028-.1-.026-.098-.025-.098-.024-.097-.023-.097-.021-.096-.02-.095-.019-.094-.018-.094-.016-.093-.015-.093-.015-.091-.012-.091-.012-.09-.011-.089-.009-.089-.008-.087-.007-.088-.005-.086-.005-.086-.003-.085-.002-.084-.001h-.082z" fill="#262626"/>
    <path d="M635.354 121.22l.097.001.096.003.096.005.095.005.094.007.094.009.093.01.093.011.091.012.092.014.091.016.09.016.089.019.089.019.088.021.088.023.087.023.086.026.086.026.085.028.085.03.083.031.083.032.083.034.082.035.081.037.08.038.08.039.079.041.078.043.078.044.077.045.076.047.075.048.074.049.073.05.073.052.071.054.071.054.069.056.069.057.067.058.067.06.066.061.065.062.064.064.063.064.063.066.061.067.061.069.059.07.059.07.058.073.057.073.056.074.055.076.054.077.053.078.052.08.052.08.051.082.049.083.049.084.048.086.047.086.046.088.045.088.045.09.043.091.043.093.042.093.041.094.039.096.04.097.038.098.037.098.037.101.035.101.035.102.034.103.033.105.032.105.031.107.03.107.03.109.028.11.028.111.027.112.026.112.025.114.024.115.023.116.023.118.022.118.02.119.02.12.019.121.019.122.017.123.017.124.015.125.015.126.014.127.013.128.012.129.012.13.01.131.01.132.009.132.008.134.007.135.006.135.006.137.004.137.004.139.003.139.002.14.001.141.001.142-.001.143-.001.143-.002.145-.003.145-.004.147-.004.147-.006.148-.006.149-.007.149-.008.151-.009.151-.009.153-.011.153-.011.154-.012.154-.013.156-.028.313-.031.317-.035.32-.038.323-.041.325-.045.329-.047.332-.051.335-.055.338-.057.341-.061.343-.064.347-.067.349-.07.352-.073.354-.077.357-.08.36-.083.362-.086.365-.089.367-.092.369-.096.372-.098.375-.102.376-.105.379-.108.381-.111.383-.114.386-.117.387-.12.39-.123.391-.127.394-.129.396-.132.397-.136.399-.138.401-.142.403-.144.405-.148.406-.15.408-.154.409-.156.412-.16.412-.162.414-.165.416-.169.417-.171.418-.174.42-.177.421-.18.423-.183.423-.186.425-.188.425-.192.427-.194.428-.198.429-.2.43-.203.431-.206.432-.208.432-.212.434-.214.434-.218.435-.22.435-.222.437-.226.436-.228.438-.231.438-.234.438-.237.439-.24.439-.242.44-.245.44-.247.44-.251.44-.253.441-.255.44-.256.437-.258.434-.258.432-.26.43-.26.427-.262.424-.263.422-.264.419-.264.417-.266.414-.266.411-.267.408-.268.405-.269.403-.27.4-.27.397-.271.394-.271.392-.273.388-.272.385-.274.383-.274.379-.274.376-.275.373-.275.371-.276.367-.276.363-.277.361-.276.358-.277.354-.278.351-.277.347-.278.345-.278.341-.278.338-.278.334-.278.331-.278.327-.278.324-.278.321-.278.317-.278.313-.278.31-.278.306-.277.302-.277.299-.277.296-.277.291-.277.288-.276.284-.275.28-.276.276-.274.273-.275.269-.274.264-.273.261-.273.257-.272.253-.272.249-.271.245-.27.24-.269.237-.269.233-.268.228-.267.224-.267.221-.265.215-.265.212-.263.207-.263.203-.262.199-.26.194-.26.19-.258.186-.258.181-.128.089-.128.088-.128.086-.127.086-.127.084-.127.084-.126.082-.126.081-.126.08-.126.078-.125.078-.125.076-.124.076-.124.074-.124.073-.124.071-.123.071-.122.069-.123.069-.122.067-.122.065-.121.065-.121.064-.12.062-.12.061-.12.06-.12.059-.119.057-.118.057-.118.055-.118.053-.118.053-.117.052-.116.05-.116.049-.116.047-.115.047-.115.045-.115.044-.113.043-.114.042-.113.04-.113.039-.112.038-.112.036-.111.035-.111.034-.11.033-.11.031-.109.031-.109.028-.108.028-.108.026-.108.025-.107.024-.106.022-.106.021-.105.02-.105.019-.104.017-.104.016-.104.014-.102.013-.103.012-.101.011-.101.009-.101.008-.1.006-.1.005-.099.004-.098.003-.098.001h-.097l-.097-.002-.096-.003-.095-.004-.095-.006-.095-.007-.093-.008-.094-.01-.092-.011-.092-.013-.092-.014-.09-.015-.09-.017-.09-.018-.089-.02-.088-.021-.088-.022-.087-.024-.086-.025-.086-.027-.085-.028-.084-.029-.084-.031-.083-.032-.083-.034-.081-.035-.081-.037-.081-.038-.08-.04-.079-.041-.078-.042-.078-.044-.077-.045-.076-.047-.075-.048-.074-.049-.073-.051-.072-.052-.072-.053-.07-.055-.07-.055-.068-.057-.068-.059-.067-.059-.066-.061-.065-.063-.064-.063-.063-.065-.062-.066-.062-.067-.06-.068-.06-.07-.059-.071-.057-.072-.057-.073-.056-.075-.055-.076-.054-.077-.054-.078-.052-.079-.052-.081-.05-.082-.05-.083-.049-.084-.048-.085-.047-.086-.046-.088-.045-.089-.045-.09-.043-.091-.043-.092-.041-.093-.041-.095-.04-.095-.039-.097-.038-.098-.038-.099-.036-.1-.036-.101-.034-.102-.034-.104-.033-.104-.032-.106-.031-.106-.031-.108-.029-.109-.029-.109-.028-.111-.026-.112-.026-.113-.025-.114-.025-.115-.023-.116-.023-.117-.021-.118-.021-.119-.02-.12-.019-.121-.018-.122-.018-.124-.016-.124-.016-.125-.015-.126-.014-.127-.013-.128-.012-.129-.011-.13-.011-.13-.01-.132-.008-.133-.008-.134-.008-.134-.006-.136-.005-.136-.005-.138-.004-.138-.003-.139-.002-.14-.001-.141v-.285l.001-.144.002-.144.003-.146.004-.146.005-.147.005-.148.006-.149.007-.15.008-.15.009-.152.009-.152.011-.153.011-.154.012-.155.013-.155.028-.314.032-.316.034-.32.038-.323.042-.326.044-.329.048-.332.051-.335.054-.338.057-.34.061-.344.064-.346.067-.349.07-.352.074-.355.076-.357.08-.359.083-.362.086-.365.089-.367.092-.37.096-.372.098-.374.102-.377.105-.379.108-.381.111-.383.114-.385.117-.388.12-.389.124-.392.126-.394.129-.395.133-.397.135-.4.139-.401.141-.403.145-.404.147-.406.151-.408.153-.41.157-.411.159-.413.162-.414.166-.416.168-.417.171-.418.174-.42.177-.421.18-.422.183-.423.186-.425.189-.426.191-.427.195-.428.197-.429.2-.43.203-.43.206-.432.209-.433.211-.433.215-.434.217-.435.22-.436.223-.436.225-.437.229-.437.231-.438.234-.439.236-.438.24-.44.242-.439.245-.44.248-.44.25-.441.253-.441.255-.439.256-.437.258-.435.258-.432.26-.429.261-.427.261-.425.263-.422.264-.419.264-.416.266-.414.266-.411.268-.408.268-.406.268-.403.27-.4.27-.397.271-.394.272-.391.272-.388.273-.386.273-.382.274-.379.274-.377.275-.373.276-.37.275-.367.276-.364.277-.361.277-.357.277-.354.277-.351.277-.348.278-.344.278-.341.278-.338.278-.334.278-.331.278-.328.278-.324.278-.32.278-.317.278-.313.278-.31.278-.306.277-.303.278-.299.277-.295.276-.291.277-.288.276-.284.276-.28.275-.277.275-.272.274-.269.274-.265.273-.261.273-.256.272-.253.272-.249.271-.245.27-.241.27-.237.268-.232.268-.229.268-.224.266-.22.265-.216.265-.211.264-.208.262-.203.262-.199.261-.194.259-.19.259-.185.257-.182.128-.088.128-.088.128-.087.127-.085.127-.085.127-.083.127-.082.126-.081.126-.08.125-.079.125-.077.125-.077.124-.075.125-.074.123-.073.124-.072.123-.07.123-.07.122-.068.122-.067.122-.066.121-.065.121-.063.121-.062.12-.062.12-.059.119-.059.119-.058.119-.056.118-.055.118-.054.117-.053.117-.051.116-.05.117-.049.115-.048.116-.046.114-.046.115-.044.114-.043.113-.041.113-.04.113-.039.112-.038.112-.037.111-.035.111-.034.11-.032.11-.032.109-.03.109-.029.109-.027.108-.027.107-.025.107-.023.106-.023.106-.021.106-.02.104-.018.105-.017.104-.016.103-.015.103-.013.102-.012.102-.01.101-.009.1-.008.1-.007.1-.005.099-.004.098-.002.098-.001h.097zm-.176 1.001l-.085.002-.086.003-.086.005-.087.005-.088.007-.088.008-.09.009-.09.011-.091.012-.091.012-.093.015-.093.015-.094.016-.094.018-.095.019-.096.02-.096.021-.098.023-.098.024-.099.025-.099.026-.099.028-.102.029-.1.03-.102.031-.103.032-.103.034-.104.035-.104.036-.105.038-.105.038-.106.04-.108.041-.108.043-.107.043-.108.045-.109.046-.11.047-.111.049-.11.049-.111.051-.112.052-.111.053-.114.055-.113.055-.114.057-.114.058-.114.06-.116.06-.116.062-.115.063-.118.064-.117.065-.117.067-.119.068-.117.068-.119.07-.12.071-.119.073-.121.074-.12.074-.121.076-.122.077-.121.078-.122.079-.122.081-.124.081-.123.083-.123.084-.124.085-.123.085-.251.177-.251.18-.252.184-.254.19-.254.193-.256.198-.258.202-.257.206-.26.212-.261.215-.261.219-.262.223-.264.228-.263.232-.265.236-.266.241-.267.244-.267.248-.268.252-.268.256-.27.261-.269.264-.271.268-.271.272-.271.276-.272.28-.272.283-.273.287-.273.291-.273.295-.274.298-.274.303-.274.305-.275.31-.274.312-.274.317-.275.32-.275.323-.275.327-.275.33-.274.334-.275.337-.274.341-.275.344-.274.347-.274.35-.274.354-.273.356-.273.36-.273.364-.273.366-.272.369-.271.373-.272.376-.27.378-.27.382-.27.384-.269.388-.268.39-.268.393-.267.396-.266.399-.266.402-.265.405-.264.407-.263.41-.262.412-.261.416-.26.418-.26.421-.258.423-.257.425-.257.429-.255.431-.254.433-.253.435-.25.437-.249.437-.245.436-.243.436-.24.436-.237.435-.235.435-.232.435-.229.434-.226.433-.224.433-.221.432-.218.431-.215.432-.212.43-.209.429-.208.428-.203.428-.201.427-.199.426-.195.424-.192.424-.19.422-.187.422-.184.42-.181.419-.178.418-.175.417-.172.415-.17.414-.166.413-.164.41-.16.41-.158.408-.154.406-.152.405-.149.403-.146.402-.142.399-.14.398-.137.397-.133.393-.131.392-.128.391-.124.388-.122.386-.119.384-.115.382-.112.38-.11.377-.106.376-.103.373-.1.37-.097.369-.094.366-.091.363-.088.361-.084.358-.082.355-.078.353-.075.351-.072.348-.069.344-.065.342-.063.338-.059.336-.056.334-.053.33-.05.326-.046.325-.044.32-.04.317-.037.314-.034.311-.03.307-.028.306-.012.149-.012.149-.011.151-.01.147-.009.147-.008.146-.008.147-.007.144-.006.142-.005.144-.004.143-.004.139-.003.139-.002.14-.001.138v.273l.001.134.002.136.003.133.003.13.005.132.005.13.006.129.007.128.008.127.008.127.009.123.01.124.011.124.011.122.013.12.013.12.014.118.014.117.016.117.016.115.017.114.018.113.019.111.019.111.021.111.02.109.021.105.023.107.023.105.024.105.025.103.025.099.026.101.027.101.028.098.028.095.029.095.03.095.031.095.031.092.031.088.033.09.033.088.034.087.035.086.035.085.036.083.037.082.037.081.038.08.039.078.039.077.04.076.04.073.041.074.043.074.042.069.043.07.043.068.045.067.045.066.044.064.048.065.046.062.047.06.048.06.048.058.05.058.048.055.051.055.052.055.05.052.053.052.052.05.053.049.054.048.055.047.055.046.056.045.056.044.058.043.057.04.058.041.06.039.059.038.061.037.061.037.063.035.062.034.063.033.064.031.063.03.065.03.065.028.067.027.067.026.067.025.067.023.069.023.07.022.069.02.071.019.072.019.071.016.073.016.074.015.074.014.075.013.075.011.076.011.078.009.078.008.078.008.08.005.08.005.081.004.082.002.083.002h.082l.084-.001.085-.002.086-.004.086-.004.088-.006.087-.007.089-.008.089-.009.09-.01.091-.012.091-.013.093-.014.093-.015.094-.017.094-.017.095-.019.096-.021.097-.021.097-.023.098-.024.098-.024.1-.027.1-.027.1-.029.101-.03.102-.031.103-.033.103-.034.104-.035.105-.036.105-.037.105-.039.106-.039.107-.042.108-.042.107-.043.109-.045.109-.046.109-.047.111-.049.111-.05.11-.05.111-.052.113-.054.113-.054.113-.056.114-.057.115-.058.114-.059.115-.061.116-.061.116-.063.117-.065.117-.065.117-.066.118-.068.119-.069.119-.07.119-.071.12-.072.12-.074.12-.074.122-.076.121-.077.121-.078.122-.079.123-.081.123-.082.122-.082.124-.084.125-.085.123-.086.25-.176.251-.18.253-.185.253-.189.255-.193.256-.198.257-.202.258-.207.26-.211.26-.215.261-.219.262-.224.263-.228.265-.232.264-.236.267-.24.266-.244.267-.248.268-.252.268-.257.27-.26.27-.265.27-.268.271-.272.271-.275.272-.28.273-.284.273-.287.272-.291.274-.294.273-.299.274-.302.275-.306.274-.309.274-.313.275-.316.275-.32.274-.324.275-.327.275-.33.274-.333.275-.338.275-.34.275-.344.274-.347.273-.35.274-.354.274-.357.273-.36.273-.363.272-.367.272-.369.272-.373.271-.375.271-.378.27-.382.27-.385.268-.387.269-.391.268-.393.266-.396.267-.399.265-.402.265-.404.264-.407.263-.41.262-.413.262-.415.26-.418.259-.421.259-.423.257-.426.256-.428.255-.431.254-.433.253-.436.251-.437.248-.436.246-.437.243-.436.24-.435.237-.436.234-.435.232-.434.229-.434.227-.434.223-.432.221-.433.218-.431.215-.431.213-.43.209-.429.207-.429.204-.427.201-.427.198-.426.195-.424.193-.424.19-.423.186-.421.184-.421.181-.419.178-.418.176-.416.171-.415.17-.414.166-.413.164-.411.16-.409.158-.409.155-.406.151-.404.149-.403.146-.402.143-.4.139-.398.137-.396.134-.394.13-.392.128-.391.125-.387.121-.387.119-.384.115-.382.113-.38.109-.377.106-.376.104-.373.1-.37.096-.368.094-.366.091-.364.088-.361.084-.357.082-.356.078-.353.075-.35.072-.348.069-.344.066-.342.062-.339.059-.336.056-.333.053-.33.05-.327.047-.324.043-.321.041-.316.036-.315.034-.31.031-.308.027-.306.013-.148.011-.15.011-.15.01-.148.009-.147.009-.146.007-.146.007-.144.006-.142.005-.144.005-.143.004-.139.002-.14.002-.14.001-.137.001-.137-.001-.136-.001-.135-.002-.134-.003-.134-.003-.132-.005-.131-.005-.13-.006-.128-.006-.128-.008-.127-.009-.126-.009-.125-.01-.125-.011-.123-.011-.121-.012-.121-.013-.119-.014-.119-.015-.117-.016-.116-.016-.115-.017-.114-.018-.113-.018-.112-.02-.111-.02-.109-.021-.11-.021-.108-.023-.104-.023-.105-.024-.104-.025-.104-.025-.102-.026-.098-.027-.099-.028-.1-.028-.097-.028-.094-.03-.094-.031-.095-.031-.092-.032-.089-.032-.089-.034-.089-.034-.087-.034-.086-.036-.084-.036-.084-.037-.082-.037-.081-.038-.079-.039-.079-.039-.077-.04-.076-.039-.073-.042-.073-.043-.074-.041-.069-.044-.07-.043-.068-.045-.068-.044-.066-.045-.063-.046-.064-.048-.064-.048-.061-.046-.058-.049-.059-.048-.056-.05-.057-.052-.056-.049-.053-.052-.052-.052-.052-.053-.051-.053-.049-.053-.047-.055-.048-.056-.046-.056-.044-.056-.044-.056-.042-.059-.042-.058-.04-.06-.04-.06-.038-.059-.037-.062-.036-.062-.035-.063-.034-.063-.033-.064-.032-.063-.03-.065-.029-.065-.028-.066-.027-.067-.026-.067-.025-.068-.024-.069-.022-.069-.022-.07-.02-.071-.02-.071-.018-.072-.017-.072-.016-.074-.015-.074-.014-.075-.012-.076-.012-.076-.01-.078-.01-.077-.008-.079-.007-.079-.006-.081-.005-.08-.003-.082-.003-.083-.001h-.083l-.084.001z" fill="#262626"/>
    <circle cx="587.817" cy="164.094" r="3.734" fill="#41ff8b" stroke="#262626" stroke-width=".44"/>
    <circle cx="626.699" cy="125.466" r="3.734" fill="#f67069" stroke="#262626" stroke-width=".44"/>
    <circle cx="617.649" cy="155.853" r="5.751" fill="#0c71ff" stroke="#262626" stroke-width=".68"/>
    <circle cx="640.139" cy="176.173" r="3.734" fill="#30cae8" stroke="#262626" stroke-width=".44"/>
    <path d="M453.326 309.709v-40.235" fill="none" stroke="#595959" stroke-width=".91"/>
    <path serif:id="Line" d="M286.573 309.709v-40.235" fill="none" stroke="#595959" stroke-width=".91"/>
    <path serif:id="Line" d="M620.693 268.522v41.187H126.125v-42" fill="none" stroke="#595959"/>
    <path d="M273.06 404.335h188.667v51.875l-188.667-.14v-51.735z" fill="#f7f7f7" fill-rule="nonzero" stroke="#2c2f31" stroke-width=".76"/>
    <path d="M546.768 339.715h145.338v57.238l-145.338-.155v-57.083z" fill="#d6f9dc" fill-rule="nonzero" stroke="#2c2f31" stroke-width=".82"/>
    <path d="M324.836 434.948v-11.2h3.952c1.29 0 2.237.336 2.84 1.008.602.672.904 1.494.904 2.464 0 .918-.315 1.726-.944 2.424-.63.699-1.563 1.048-2.8 1.048h-2.048v4.256h-1.904zm1.904-6.048h2.144c.576 0 1.005-.165 1.288-.496.282-.33.424-.725.424-1.184 0-.437-.136-.826-.408-1.168-.272-.341-.707-.512-1.304-.512h-2.144v3.36zm13.792-2.32c.736 0 1.376.144 1.92.432v3.024h-1.792v-1.744h-.16c-.843 0-1.494.198-1.952.592-.459.395-.688.987-.688 1.776v2.672h2.288v1.616h-5.856v-1.616h1.728v-4.944h-1.728v-1.616h3.44v1.312c.224-.469.592-.837 1.104-1.104a3.623 3.623 0 0 1 1.696-.4zm7.728 8.56c-1.206 0-2.16-.381-2.864-1.144-.704-.762-1.056-1.805-1.056-3.128 0-1.312.352-2.354 1.056-3.128.704-.773 1.658-1.16 2.864-1.16 1.216 0 2.173.387 2.872 1.16.698.774 1.048 1.816 1.048 3.128s-.35 2.352-1.048 3.12c-.699.768-1.656 1.152-2.872 1.152zm0-1.76c.661 0 1.17-.224 1.528-.672.357-.448.536-1.061.536-1.84 0-.778-.179-1.397-.536-1.856-.358-.458-.867-.688-1.528-.688-.651 0-1.158.23-1.52.688-.363.459-.544 1.078-.544 1.856 0 .768.181 1.379.544 1.832.362.454.869.68 1.52.68zm8.96 1.568l-3.184-8.176h1.968l1.888 5.184c.117.363.197.656.24.88.053-.288.133-.581.24-.88l1.872-5.184h1.952l-3.184 8.176h-1.792zm10.816-9.312c-.299 0-.555-.106-.768-.32a1.062 1.062 0 0 1-.32-.784c0-.309.106-.568.32-.776a1.06 1.06 0 0 1 .768-.312c.309 0 .57.104.784.312.213.208.32.467.32.776 0 .31-.107.571-.32.784-.214.214-.475.32-.784.32zm.928 7.696h2.256v1.616h-6.352v-1.616h2.256v-4.944h-2.256v-1.616h4.096v6.56zm8.576 1.808c-1.12 0-2-.376-2.64-1.128-.64-.752-.96-1.805-.96-3.16 0-1.312.328-2.352.984-3.12.656-.768 1.512-1.152 2.568-1.152.874 0 1.552.262 2.032.784v-3.12l1.84-.848v11.552h-1.84v-.624c-.171.224-.435.416-.792.576-.358.16-.755.24-1.192.24zm.256-1.76c.8 0 1.376-.266 1.728-.8v-3.456c-.384-.533-.971-.8-1.76-.8-.63 0-1.115.219-1.456.656-.342.438-.512 1.062-.512 1.872 0 .768.173 1.382.52 1.84.346.459.84.688 1.48.688zm13.616-2.928c0 .47-.022.843-.064 1.12h-5.568c.117.598.354 1.07.712 1.416.357.347.818.52 1.384.52a2.36 2.36 0 0 0 1.808-.8l1.104 1.168c-.768.843-1.744 1.264-2.928 1.264-1.206 0-2.158-.389-2.856-1.168-.699-.778-1.048-1.818-1.048-3.12 0-1.322.352-2.365 1.056-3.128.704-.762 1.653-1.144 2.848-1.144 1.045 0 1.898.328 2.56.984.661.656.992 1.619.992 2.888zm-5.648-.448h3.84c-.054-.597-.243-1.048-.568-1.352a1.663 1.663 0 0 0-1.176-.456c-.587 0-1.059.16-1.416.48-.358.32-.584.763-.68 1.328zm13.904-3.424c.736 0 1.376.144 1.92.432v3.024h-1.792v-1.744h-.16c-.843 0-1.494.198-1.952.592-.459.395-.688.987-.688 1.776v2.672h2.288v1.616h-5.856v-1.616h1.728v-4.944h-1.728v-1.616h3.44v1.312c.224-.469.592-.837 1.104-1.104a3.623 3.623 0 0 1 1.696-.4zm7.776 8.56a4.65 4.65 0 0 1-1.92-.392c-.587-.261-1.056-.616-1.408-1.064l1.2-1.088c.672.651 1.413.976 2.224.976.394 0 .72-.069.976-.208.256-.138.384-.346.384-.624 0-.16-.078-.312-.232-.456a2.116 2.116 0 0 0-.536-.36 18.842 18.842 0 0 0-.896-.384 2.2 2.2 0 0 0-.104-.048l-.104-.04a4.646 4.646 0 0 0-.112-.04c-.395-.17-.688-.301-.88-.392a7.479 7.479 0 0 1-.696-.384c-.272-.165-.47-.322-.592-.472a2.247 2.247 0 0 1-.328-.568 1.991 1.991 0 0 1-.144-.776c0-.693.298-1.24.896-1.64.597-.4 1.349-.6 2.256-.6 1.269 0 2.288.432 3.056 1.296l-1.232 1.008c-.587-.49-1.216-.736-1.888-.736-.416 0-.75.062-1 .184-.251.123-.376.296-.376.52 0 .107.042.211.128.312.085.102.234.208.448.32.213.112.389.198.528.256.138.059.373.152.704.28.981.395 1.632.715 1.952.96.565.448.853 1.03.864 1.744 0 .758-.286 1.35-.856 1.776-.571.427-1.342.64-2.312.64z" fill="#2c2f31" fill-rule="nonzero"/>
    <path d="M571.887 373.281v9.25s-.236 3.327 2.846 3.421c2.831.086 2.558-3.486 2.537-3.465-.022.022 0-6.719 0-6.719s.352-1.574 2.048-1.538c1.696.036 1.911 1.832 1.911 1.832v3.781m-11.465-11.191v4.357h4.239l-.058-4.356-4.181-.001m-1.887-20.136v6.109m7.754-6.109v6.109" fill="none" stroke="#2c2f31" stroke-miterlimit="1.5"/>
    <path d="M563.521 354.448h16.317v8.261s-.378 6.644-8.07 6.644c-7.691 0-8.318-6.606-8.318-6.606l.071-8.299z" fill="#fff"/>
    <path d="M579.838 362.709l-.001.019-.005.055-.01.09-.015.121-.011.072-.012.079-.015.085-.017.092-.019.098-.022.104-.025.109-.027.114-.031.119-.034.124-.038.128-.041.132-.044.135-.049.139-.053.142-.027.072-.029.073-.03.073-.032.074-.032.075-.033.075-.035.075-.036.076-.037.076-.038.076-.04.077-.04.077-.042.077-.044.078-.044.077-.046.078-.048.078-.049.078-.05.078-.052.078-.053.077-.054.078-.056.077-.058.078-.059.077-.06.077-.063.076-.063.076-.066.076-.067.075-.068.075-.071.075-.072.073-.074.074-.075.072-.077.072-.079.072-.081.07-.082.07-.085.069-.086.069-.088.067-.09.066-.092.066-.094.064-.095.064-.098.062-.1.062-.101.06-.104.059-.106.058-.108.056-.11.055-.112.054-.114.053-.116.051-.118.05-.121.048-.123.046-.125.046-.127.043-.13.042-.131.04-.135.039-.136.036-.139.035-.141.034-.143.031-.146.029-.149.028-.151.025-.153.024-.156.021-.158.019-.16.017-.164.015-.166.013-.168.011-.171.008-.174.006-.176.004-.179.001-.179-.001-.176-.004-.174-.006-.171-.008-.169-.011-.167-.012-.163-.015-.162-.017-.159-.019-.156-.022-.154-.023-.152-.025-.149-.028-.148-.029-.144-.031-.143-.033-.14-.035-.137-.036-.136-.039-.133-.04-.131-.041-.129-.043-.127-.045-.125-.047-.122-.048-.12-.049-.119-.051-.116-.052-.114-.054-.112-.055-.109-.056-.108-.057-.106-.059-.104-.06-.102-.061-.1-.062-.098-.063-.097-.064-.094-.065-.092-.066-.091-.067-.089-.068-.087-.069-.085-.069-.083-.071-.082-.07-.08-.072-.078-.072-.076-.073-.075-.074-.073-.074-.072-.074-.069-.075-.069-.075-.066-.076-.065-.076-.064-.076-.062-.077-.06-.077-.059-.077-.058-.077-.056-.077-.054-.078-.053-.077-.052-.078-.05-.077-.049-.077-.048-.077-.046-.078-.045-.076-.044-.077-.042-.076-.041-.076-.04-.076-.039-.075-.037-.075-.036-.075-.035-.074-.034-.073-.033-.073-.032-.072-.03-.072-.058-.141-.054-.138-.05-.135-.046-.131-.042-.128-.039-.123-.035-.118-.032-.114-.029-.108-.025-.103-.023-.098-.021-.091-.017-.085-.016-.078-.013-.071-.02-.121-.013-.089-.007-.055-.002-.019.071-8.299h16.317v8.261zm-15.325-7.261l-.063 7.242.01.065.017.103.011.058.012.065.016.073.018.08.019.083.022.089.026.094.028.101.031.105.034.108.037.111.04.115.044.119.048.122.051.126.026.061.028.064.028.062.03.064.031.066.032.065.032.065.035.068.034.064.036.067.038.068.037.066.039.066.04.068.041.066.043.067.044.068.046.069.044.065.048.067.049.068.049.066.05.065.053.067.054.067.054.065.057.066.056.065.059.064.06.064.061.064.063.064.064.063.066.063.066.061.069.062.07.06.071.06.074.06.075.06.075.057.078.058.08.057.08.055.082.055.085.055.086.053.089.053.088.051.092.051.093.049.095.049.098.048.098.046.101.046.103.044.105.043.108.042.108.041.112.039.114.038.114.037.118.035.121.034.122.033.125.031.127.029.129.028.132.026.134.024.137.023.139.021.142.02.144.017.147.016.149.013.152.012.154.009.158.008.16.005.163.004.165.001.165-.001.163-.004.159-.005.158-.008.154-.009.151-.012.149-.014.146-.015.143-.018.141-.019.138-.021.135-.023.133-.025.13-.026.128-.028.126-.029.123-.031.12-.033.118-.034.117-.035.113-.037.112-.038.109-.039.107-.041.105-.042.102-.043.101-.044.098-.046.098-.046.093-.047.093-.049.091-.05.088-.05.088-.052.085-.052.083-.053.082-.055.079-.054.079-.056.077-.057.074-.056.073-.058.071-.059.07-.059.069-.061.068-.061.066-.061.063-.061.062-.062.061-.063.061-.064.058-.063.057-.064.056-.064.053-.065.054-.066.052-.065.051-.067.049-.066.048-.066.046-.065.045-.067.045-.068.044-.067.042-.067.04-.066.039-.067.04-.068.038-.068.035-.065.036-.068.034-.066.033-.065.033-.068.031-.066.029-.065.03-.066.028-.065.027-.063.026-.065.026-.064.023-.059.047-.128.043-.122.039-.118.036-.117.033-.112.03-.107.026-.104.025-.101.021-.095.019-.088.017-.088.015-.078.012-.07.01-.07.009-.058.013-.1.007-.07.002-.017v-7.222h-14.325z" fill="#2c2f31"/>
    <path d="M601.449 373.295v-11.2h3.952c1.291 0 2.237.336 2.84 1.008.603.672.904 1.493.904 2.464 0 .917-.315 1.725-.944 2.424-.629.699-1.563 1.048-2.8 1.048h-2.048v4.256h-1.904zm1.904-6.048h2.144c.576 0 1.005-.165 1.288-.496a1.76 1.76 0 0 0 .424-1.184c0-.437-.136-.827-.408-1.168-.272-.341-.707-.512-1.304-.512h-2.144v3.36zm12.576 4.432h2.384v1.616h-6.608v-1.616h2.384v-8.32h-1.904l-.848-1.616h4.592v9.936zm8.4 1.808c-.907 0-1.64-.269-2.2-.808-.56-.539-.84-1.4-.84-2.584v-4.976h1.84v4.576c0 1.355.56 2.032 1.68 2.032 1.205 0 1.808-.667 1.808-2v-4.608h1.84v8.176h-1.84v-.784c-.523.651-1.285.976-2.288.976zm9.92 3.056l-.992-1.504c1.141-.085 1.928-.261 2.36-.528.432-.267.648-.699.648-1.296v-.48c-.437.501-1.072.752-1.904.752-1.003 0-1.819-.371-2.448-1.112-.629-.741-.944-1.8-.944-3.176 0-1.312.315-2.352.944-3.12.629-.768 1.456-1.152 2.48-1.152.779 0 1.403.235 1.872.704v-.512h1.84v7.312c0 1.397-.291 2.408-.872 3.032-.581.624-1.576.984-2.984 1.08zm.432-4.816c.693 0 1.221-.277 1.584-.832v-3.408c-.384-.544-.912-.816-1.584-.816-.608 0-1.072.216-1.392.648-.32.432-.48 1.059-.48 1.88 0 .779.163 1.395.488 1.848.325.453.787.68 1.384.68zm9.968-7.744c-.299 0-.555-.107-.768-.32a1.067 1.067 0 0 1-.32-.784c0-.309.107-.568.32-.776a1.06 1.06 0 0 1 .768-.312c.309 0 .571.104.784.312.213.208.32.467.32.776s-.107.571-.32.784c-.213.213-.475.32-.784.32zm.928 7.696h2.256v1.616h-6.352v-1.616h2.256v-4.944h-2.256v-1.616h4.096v6.56zm9.44-6.752c.896 0 1.624.269 2.184.808s.84 1.395.84 2.568v4.992h-1.84v-4.608c0-.704-.155-1.216-.464-1.536-.309-.32-.72-.48-1.232-.48-1.205 0-1.808.661-1.808 1.984v4.64h-1.84v-8.176h1.696v1.008c.16-.32.472-.6.936-.84.464-.24.973-.36 1.528-.36zm9.328 8.56a4.672 4.672 0 0 1-1.92-.392c-.587-.261-1.056-.616-1.408-1.064l1.2-1.088c.672.651 1.413.976 2.224.976.395 0 .72-.069.976-.208.256-.139.384-.347.384-.624 0-.16-.077-.312-.232-.456a2.098 2.098 0 0 0-.536-.36 18.396 18.396 0 0 0-.896-.384 1.814 1.814 0 0 0-.208-.088 4.646 4.646 0 0 0-.112-.04 31.545 31.545 0 0 1-.88-.392 7.98 7.98 0 0 1-.696-.384c-.272-.165-.469-.323-.592-.472a2.265 2.265 0 0 1-.328-.568 1.991 1.991 0 0 1-.144-.776c0-.693.299-1.24.896-1.64.597-.4 1.349-.6 2.256-.6 1.269 0 2.288.432 3.056 1.296l-1.232 1.008c-.587-.491-1.216-.736-1.888-.736-.416 0-.749.061-1 .184s-.376.296-.376.52c0 .107.043.211.128.312s.235.208.448.32c.213.112.389.197.528.256s.373.152.704.28c.981.395 1.632.715 1.952.96.565.448.853 1.029.864 1.744 0 .757-.285 1.349-.856 1.776-.571.427-1.341.64-2.312.64z" fill="#404040" fill-rule="nonzero"/>
    <path d="M272.641 46.822c-.933 0-1.743-.21-2.43-.63a4.208 4.208 0 0 1-1.58-1.71 9.097 9.097 0 0 1-.8-2.29 12.948 12.948 0 0 1-.25-2.61c0-.907.08-1.757.24-2.55.16-.793.42-1.557.78-2.29a4.218 4.218 0 0 1 1.58-1.75c.694-.433 1.514-.65 2.46-.65.947 0 1.764.21 2.45.63.687.42 1.214.99 1.58 1.71a9.02 9.02 0 0 1 .8 2.29c.167.807.25 1.677.25 2.61 0 .907-.083 1.757-.25 2.55a9.676 9.676 0 0 1-.79 2.29 4.212 4.212 0 0 1-1.58 1.75c-.693.433-1.513.65-2.46.65zm-1.62-3c.414.507.954.76 1.62.76.667 0 1.21-.26 1.63-.78.42-.52.7-1.13.84-1.83.14-.7.21-1.497.21-2.39 0-.907-.073-1.713-.22-2.42-.146-.707-.43-1.313-.85-1.82a1.997 1.997 0 0 0-1.61-.76 2 2 0 0 0-1.63.78c-.42.52-.7 1.13-.84 1.83-.14.7-.21 1.497-.21 2.39 0 .907.074 1.713.22 2.42.147.707.427 1.313.84 1.82zm2.62-3.22c-.266.267-.6.4-1 .4s-.733-.137-1-.41c-.266-.273-.4-.61-.4-1.01 0-.387.134-.717.4-.99.267-.273.6-.41 1-.41s.737.137 1.01.41c.274.273.41.603.41.99 0 .4-.14.74-.42 1.02zm6.26 5.98l3.74-5.3-3.48-4.92h2.64l1.6 2.26c.32.48.5.773.54.88.28-.467.467-.76.56-.88l1.6-2.26h2.64l-3.46 4.92 3.72 5.3h-2.64l-1.86-2.62c-.093-.12-.28-.413-.56-.88-.04.107-.22.4-.54.88l-1.84 2.62h-2.66zm17.58.24c-1.44 0-2.58-.473-3.42-1.42-.84-.947-1.26-2.253-1.26-3.92 0-1.653.43-2.96 1.29-3.92.86-.96 2.004-1.44 3.43-1.44 2.174 0 3.574.927 4.2 2.78l-2.18.74c-.346-.893-1.013-1.34-2-1.34-.76 0-1.35.287-1.77.86-.42.573-.63 1.347-.63 2.32 0 .973.21 1.74.63 2.3.42.56.997.84 1.73.84 1.067 0 1.767-.5 2.1-1.5l2.18.68c-.613 2.013-2.046 3.02-4.3 3.02zm16.78-5.86c0 .587-.026 1.053-.08 1.4h-6.96c.147.747.444 1.337.89 1.77.447.433 1.024.65 1.73.65.894 0 1.647-.333 2.26-1l1.38 1.46c-.96 1.053-2.18 1.58-3.66 1.58-1.506 0-2.696-.487-3.57-1.46-.873-.973-1.31-2.273-1.31-3.9 0-1.653.44-2.957 1.32-3.91.88-.953 2.067-1.43 3.56-1.43 1.307 0 2.374.41 3.2 1.23.827.82 1.24 2.023 1.24 3.61zm-7.06-.56h4.8c-.066-.747-.303-1.31-.71-1.69a2.074 2.074 0 0 0-1.47-.57c-.733 0-1.323.2-1.77.6-.446.4-.73.953-.85 1.66zm17.38-4.28c.92 0 1.72.18 2.4.54v3.78h-2.24v-2.18h-.2c-1.053 0-1.866.247-2.44.74-.573.493-.86 1.233-.86 2.22v3.34h2.86v2.02h-7.32v-2.02h2.16v-6.18h-2.16v-2.02h4.3v1.64c.28-.587.74-1.047 1.38-1.38.64-.333 1.347-.5 2.12-.5zm10.6 10.7c-2 0-3-.927-3-2.78v-5.66h-2.14v-2.02h2.14v-3.12l2.3-1.1v4.22h3.48v2.02h-3.48v5.22c0 .787.48 1.18 1.44 1.18.56 0 1.147-.16 1.76-.48l-.28 2.06c-.586.307-1.326.46-2.22.46zm19.06-.24v-14h9.44v2.26h-7.06v3.38h5.14v2.26h-5.14v6.1h-2.38zm19.62-10.46c.92 0 1.72.18 2.4.54v3.78h-2.24v-2.18h-.2c-1.053 0-1.866.247-2.44.74-.573.493-.86 1.233-.86 2.22v3.34h2.86v2.02h-7.32v-2.02h2.16v-6.18h-2.16v-2.02h4.3v1.64c.28-.587.74-1.047 1.38-1.38.64-.333 1.347-.5 2.12-.5zm8.88 10.7c-1.12 0-2.03-.293-2.73-.88-.7-.587-1.05-1.427-1.05-2.52 0-1.107.4-1.947 1.2-2.52.8-.573 1.76-.86 2.88-.86.974 0 1.82.18 2.54.54v-.6c0-1.227-.673-1.84-2.02-1.84-1.12 0-2.2.347-3.24 1.04l-.7-1.88c1.24-.787 2.62-1.18 4.14-1.18 2.707 0 4.06 1.28 4.06 3.84v6.62h-2.24v-.8c-.72.693-1.666 1.04-2.84 1.04zm.42-2.02c.96 0 1.767-.34 2.42-1.02v-1.32c-.613-.307-1.34-.46-2.18-.46-.64 0-1.17.12-1.59.36-.42.24-.63.593-.63 1.06 0 .413.174.747.52 1 .347.253.834.38 1.46.38zm15.46-8.68c.854 0 1.484.297 1.89.89.407.593.61 1.59.61 2.99v6.58h-2.1v-6.24c0-.72-.066-1.237-.2-1.55-.133-.313-.38-.47-.74-.47-.346 0-.623.18-.83.54-.206.36-.31.86-.31 1.5v6.22h-2.1v-6.3c0-1.307-.32-1.96-.96-1.96-.373 0-.67.18-.89.54-.22.36-.33.86-.33 1.5v6.22h-2.1v-10.22h1.96v1.36c.374-1.067 1.047-1.6 2.02-1.6.427 0 .804.147 1.13.44.327.293.557.64.69 1.04.614-.987 1.367-1.48 2.26-1.48zm14.2 4.84c0 .587-.026 1.053-.08 1.4h-6.96c.147.747.444 1.337.89 1.77.447.433 1.024.65 1.73.65.894 0 1.647-.333 2.26-1l1.38 1.46c-.96 1.053-2.18 1.58-3.66 1.58-1.506 0-2.696-.487-3.57-1.46-.873-.973-1.31-2.273-1.31-3.9 0-1.653.44-2.957 1.32-3.91.88-.953 2.067-1.43 3.56-1.43 1.307 0 2.374.41 3.2 1.23.827.82 1.24 2.023 1.24 3.61zm-7.06-.56h4.8c-.066-.747-.303-1.31-.71-1.69a2.074 2.074 0 0 0-1.47-.57c-.733 0-1.323.2-1.77.6-.446.4-.73.953-.85 1.66zm11.48 6.18l-2.62-10.22h2.08l1.3 5.26c.094.4.16.733.2 1 .08-.48.14-.82.18-1.02l1.22-5.24h1.76l1.22 5.26c.067.213.134.553.2 1.02.04-.28.107-.62.2-1.02l1.26-5.26h2.1l-2.64 10.22h-1.76l-1.18-5.12c-.08-.32-.173-.787-.28-1.4a11.12 11.12 0 0 1-.17.81 7.215 7.215 0 0 1-.15.59l-1.12 5.12h-1.8zm15.56.24c-1.506 0-2.7-.477-3.58-1.43-.88-.953-1.32-2.257-1.32-3.91 0-1.64.44-2.943 1.32-3.91.88-.967 2.074-1.45 3.58-1.45 1.52 0 2.717.483 3.59 1.45.874.967 1.31 2.27 1.31 3.91 0 1.64-.436 2.94-1.31 3.9-.873.96-2.07 1.44-3.59 1.44zm0-2.2c.827 0 1.464-.28 1.91-.84.447-.56.67-1.327.67-2.3 0-.973-.223-1.747-.67-2.32-.446-.573-1.083-.86-1.91-.86-.813 0-1.446.287-1.9.86-.453.573-.68 1.347-.68 2.32 0 .96.227 1.723.68 2.29.454.567 1.087.85 1.9.85zm14.98-8.5c.92 0 1.72.18 2.4.54v3.78h-2.24v-2.18h-.2c-1.053 0-1.866.247-2.44.74-.573.493-.86 1.233-.86 2.22v3.34h2.86v2.02h-7.32v-2.02h2.16v-6.18h-2.16v-2.02h4.3v1.64c.28-.587.74-1.047 1.38-1.38.64-.333 1.347-.5 2.12-.5zm12 10.46l-2.92-5.64-1.52 1.46v4.18h-2.3v-13.36l2.3-1.08v7.72l3.56-3.5h2.74l-3.08 2.96 3.74 7.26h-2.52z" fill="#262626" fill-rule="nonzero"/>
    <path d="M396.144 342.239l-.69-2.31h-3.33l-.69 2.31h-1.92l3.435-10.5h1.68l3.435 10.5h-1.92zm-3.54-3.93h2.37l-.93-3.12c-.1-.32-.185-.71-.255-1.17-.12.61-.205 1-.255 1.17l-.93 3.12zm6.945 3.93v-10.5h3.705c1.21 0 2.098.315 2.663.945.565.63.847 1.4.847 2.31 0 .86-.295 1.617-.885 2.272-.59.655-1.465.983-2.625.983h-1.92v3.99h-1.785zm1.785-5.67h2.01c.54 0 .943-.155 1.208-.465.265-.31.397-.68.397-1.11 0-.41-.127-.775-.382-1.095-.255-.32-.663-.48-1.223-.48h-2.01v3.15zm14.025-3.255h-2.205v7.35h2.205v1.575h-6.18v-1.575h2.19v-7.35h-2.19v-1.575h6.18v1.575z" fill="#404040" fill-rule="nonzero"/>
    <circle cx="367.474" cy="336.656" r="6.265" fill="#aab1b5"/>
</svg>
