<svg width="696" viewBox="0 0 696 66" xmlns="http://www.w3.org/2000/svg" fill-rule="evenodd" clip-rule="evenodd" stroke-linecap="round" stroke-linejoin="round">
    <path d="M286.762 20.036c-.455.644-1.08 1.136-1.895 1.459-.833.322-1.78.492-2.86.492-1.099 0-2.065-.265-2.917-.777-.853-.511-1.516-1.25-1.99-2.197-.454-.947-.7-2.046-.7-3.296v-1.174c0-2.027.474-3.6 1.42-4.717.929-1.118 2.274-1.686 3.979-1.686 1.401 0 2.538.36 3.39 1.08.872.72 1.383 1.742 1.573 3.068H285c-.341-1.8-1.402-2.69-3.182-2.69-1.194 0-2.103.417-2.71 1.27-.624.833-.927 2.046-.927 3.618v1.098c0 1.516.34 2.728 1.022 3.618.701.89 1.63 1.326 2.804 1.326.682 0 1.25-.075 1.762-.227.492-.132.909-.398 1.23-.739v-3.03h-3.106v-1.44h4.869v4.944zM295.648 20.813c-.682.776-1.648 1.174-2.936 1.174-1.08 0-1.875-.322-2.443-.928-.55-.625-.834-1.535-.853-2.766v-6.497h1.724v6.46c0 1.515.606 2.272 1.837 2.272 1.308 0 2.179-.492 2.615-1.458v-7.274h1.704v10.002h-1.629l-.019-.985zM304.064 21.987c-1.364 0-2.463-.455-3.315-1.345-.852-.89-1.288-2.084-1.288-3.58v-.303c0-1.004.19-1.875.568-2.652.38-.796.91-1.402 1.591-1.837a4.048 4.048 0 012.217-.663c1.307 0 2.31.435 3.05 1.288.72.852 1.08 2.083 1.08 3.674v.72h-6.782c.019.985.303 1.78.852 2.387.568.606 1.27.91 2.103.91.606 0 1.117-.114 1.553-.36a4.511 4.511 0 001.099-.986l1.042.815c-.834 1.288-2.103 1.932-3.77 1.932zm-.227-8.979c-.682 0-1.27.247-1.724.758-.474.492-.758 1.212-.871 2.103h5v-.114c-.037-.871-.284-1.553-.7-2.027-.417-.473-.985-.72-1.705-.72zM315.766 19.146c0-.474-.17-.834-.53-1.08-.341-.265-.947-.474-1.819-.663-.87-.19-1.553-.398-2.064-.663-.512-.265-.872-.568-1.118-.928a2.184 2.184 0 01-.379-1.27c0-.833.36-1.515 1.042-2.083.701-.568 1.591-.852 2.671-.852 1.137 0 2.046.284 2.766.87.7.588 1.041 1.346 1.041 2.255h-1.704c0-.474-.209-.871-.607-1.212-.397-.341-.89-.512-1.496-.512-.625 0-1.118.133-1.459.417-.36.265-.53.625-.53 1.06 0 .418.152.72.493.929.322.208.909.417 1.761.606.853.19 1.553.417 2.084.682.53.265.928.587 1.174.947.266.379.38.834.38 1.383 0 .89-.36 1.61-1.062 2.14-.72.55-1.648.815-2.784.815-.815 0-1.516-.152-2.14-.436-.607-.284-1.1-.682-1.44-1.174-.341-.512-.53-1.06-.53-1.667h1.723c.019.587.246 1.042.682 1.364.436.34 1.004.511 1.705.511.644 0 1.155-.132 1.553-.398.398-.265.587-.606.587-1.041zM325.534 19.146c0-.474-.17-.834-.53-1.08-.342-.265-.948-.474-1.82-.663-.87-.19-1.553-.398-2.064-.663-.511-.265-.871-.568-1.118-.928a2.184 2.184 0 01-.378-1.27c0-.833.36-1.515 1.041-2.083.701-.568 1.592-.852 2.671-.852 1.137 0 2.046.284 2.766.87.7.588 1.042 1.346 1.042 2.255h-1.705c0-.474-.208-.871-.606-1.212-.398-.341-.89-.512-1.497-.512-.625 0-1.117.133-1.458.417-.36.265-.53.625-.53 1.06 0 .418.15.72.492.929.322.208.91.417 1.761.606.853.19 1.554.417 2.084.682.53.265.928.587 1.175.947.265.379.378.834.378 1.383 0 .89-.36 1.61-1.06 2.14-.72.55-1.648.815-2.785.815-.814 0-1.515-.152-2.14-.436-.607-.284-1.1-.682-1.44-1.174-.341-.512-.53-1.06-.53-1.667h1.723c.02.587.247 1.042.682 1.364.436.34 1.004.511 1.705.511.644 0 1.156-.132 1.553-.398.398-.265.588-.606.588-1.041zM334.497 22.953h-1.459l5.626-14.624h1.459l-5.626 14.624zM347.239 21.798v-8.676h-1.591v-1.326h1.59v-.852c0-1.118.304-1.99.948-2.615.644-.625 1.534-.928 2.709-.928.682 0 1.572.19 2.614.569l-.284 1.44c-.777-.323-1.497-.474-2.198-.474-.738 0-1.269.17-1.59.492-.323.341-.493.834-.493 1.497v.87h2.045v1.327h-2.045v8.676h-1.705zm7.122 0h-1.724V11.796h1.724v10.002zM356.743 16.702c0-1.553.36-2.784 1.08-3.713.72-.928 1.685-1.382 2.86-1.382 1.23 0 2.178.435 2.86 1.288l.095-1.1h1.553v9.756c0 1.307-.379 2.33-1.156 3.069-.757.739-1.799 1.118-3.087 1.118a5.28 5.28 0 01-2.122-.455c-.682-.322-1.212-.739-1.572-1.27l.89-1.022c.72.89 1.63 1.345 2.69 1.345.834 0 1.478-.227 1.932-.701.474-.474.701-1.118.701-1.97v-.871c-.682.795-1.61 1.193-2.803 1.193-1.156 0-2.122-.474-2.842-1.42-.72-.948-1.08-2.236-1.08-3.865zm1.723.208c0 1.118.228 2.008.682 2.652.474.644 1.118.966 1.951.966 1.08 0 1.876-.492 2.368-1.477v-4.565c-.511-.947-1.307-1.42-2.349-1.42-.833 0-1.477.321-1.95.965-.474.644-.702 1.61-.702 2.88zM373.962 20.813c-.682.776-1.648 1.174-2.936 1.174-1.08 0-1.875-.322-2.444-.928-.55-.625-.833-1.535-.852-2.766v-6.497h1.724v6.46c0 1.515.606 2.272 1.837 2.272 1.307 0 2.178-.492 2.614-1.458v-7.274h1.705v10.002h-1.63l-.018-.985zM383.06 13.33a4.08 4.08 0 00-.853-.075c-1.117 0-1.875.492-2.273 1.44v7.103h-1.724V11.796h1.667l.038 1.155c.55-.89 1.345-1.344 2.387-1.344.322 0 .587.037.758.132v1.591zM388.787 21.987c-1.364 0-2.463-.455-3.315-1.345-.852-.89-1.288-2.084-1.288-3.58v-.303c0-1.004.19-1.875.568-2.652.38-.796.91-1.402 1.591-1.837a4.048 4.048 0 012.217-.663c1.307 0 2.31.435 3.05 1.288.72.852 1.08 2.083 1.08 3.674v.72h-6.782c.019.985.303 1.78.852 2.387.568.606 1.27.91 2.103.91.606 0 1.117-.114 1.553-.36a4.511 4.511 0 001.099-.986l1.042.815c-.834 1.288-2.103 1.932-3.77 1.932zm-.227-8.979c-.682 0-1.27.247-1.724.758-.474.492-.758 1.212-.871 2.103h5v-.114c-.037-.871-.284-1.553-.7-2.027-.417-.473-.985-.72-1.705-.72zM398.89 16.702c0-.985.209-1.856.588-2.652a4.258 4.258 0 011.61-1.8c.682-.435 1.477-.643 2.349-.643 1.363 0 2.462.473 3.315 1.42.833.928 1.25 2.198 1.25 3.75v.133c0 .966-.17 1.838-.55 2.614-.378.777-.909 1.383-1.61 1.819-.682.417-1.477.644-2.386.644-1.345 0-2.444-.474-3.296-1.42-.834-.948-1.27-2.198-1.27-3.751v-.114zm1.724.208c0 1.1.265 1.99.777 2.671.511.663 1.212 1.004 2.065 1.004.87 0 1.572-.34 2.083-1.023.512-.682.758-1.629.758-2.86 0-1.099-.265-1.989-.777-2.67-.53-.683-1.212-1.024-2.083-1.024-.834 0-1.516.341-2.046 1.004-.512.682-.777 1.648-.777 2.898zM416.342 20.813c-.682.776-1.648 1.174-2.936 1.174-1.08 0-1.876-.322-2.444-.928-.55-.625-.833-1.535-.852-2.766v-6.497h1.724v6.46c0 1.515.606 2.272 1.837 2.272 1.307 0 2.178-.492 2.614-1.458v-7.274h1.705v10.002h-1.63l-.018-.985zM422.92 9.371v2.425h1.875v1.326h-1.875v6.194c0 .398.076.701.246.91.17.189.455.302.853.302.19 0 .473-.037.814-.113v1.383a4.64 4.64 0 01-1.307.189c-.776 0-1.345-.227-1.742-.7-.38-.455-.569-1.118-.569-1.97v-6.195h-1.837v-1.326h1.837V9.37h1.705z" fill="#fff" fill-rule="nonzero"/>
    <g>
        <path fill="#0c4898" stroke="#f67069" stroke-width="2" d="M17727.2 12792.4h206.354v63.254H17727.2z" transform="matrix(1 0 0 1 -17238.568 -12791.404)"/>
    </g>
    <g>
        <path d="M547.01 38.945v-14.22h4.38c1.26 0 2.38.28 3.36.84a5.79 5.79 0 012.3 2.4c.56 1.04.84 2.22.84 3.54v.66c0 1.32-.28 2.5-.82 3.52-.54 1.04-1.3 1.84-2.3 2.4-.98.56-2.1.86-3.34.86h-4.42zm2.94-11.84v9.48h1.42c1.14 0 2.02-.36 2.62-1.12.6-.74.92-1.82.92-3.2v-.76c0-1.44-.28-2.54-.88-3.28-.6-.76-1.48-1.12-2.64-1.12h-1.44zM559.39 33.565c0-1.04.2-1.98.62-2.8.4-.82.98-1.46 1.74-1.9.76-.46 1.64-.68 2.64-.68 1.42 0 2.58.44 3.48 1.3.9.88 1.42 2.06 1.52 3.56l.02.72c0 1.62-.46 2.92-1.36 3.9-.9.98-2.12 1.48-3.64 1.48s-2.74-.5-3.66-1.46c-.9-.98-1.36-2.32-1.36-4v-.12zm2.82.2c0 1 .2 1.78.58 2.3.38.54.92.8 1.62.8.68 0 1.22-.26 1.6-.78.38-.54.58-1.36.58-2.52 0-.98-.2-1.74-.58-2.28-.38-.54-.92-.82-1.62-.82-.7 0-1.22.28-1.6.8-.38.54-.58 1.38-.58 2.5zM575.53 36.865c.52 0 .94-.14 1.26-.42.34-.3.5-.68.52-1.16h2.64c0 .72-.2 1.38-.58 1.98-.38.6-.92 1.06-1.58 1.38-.66.34-1.4.5-2.22.5-1.5 0-2.7-.48-3.56-1.44-.88-.96-1.32-2.3-1.32-3.98v-.2c0-1.62.44-2.92 1.3-3.88.86-.98 2.06-1.46 3.56-1.46 1.32 0 2.38.38 3.18 1.12.8.76 1.2 1.76 1.22 3h-2.64c-.02-.54-.18-.98-.52-1.32-.32-.34-.74-.52-1.28-.52-.66 0-1.16.24-1.5.72-.32.48-.5 1.26-.5 2.34v.28c0 1.1.18 1.88.5 2.34.34.48.84.72 1.52.72zM587.87 37.865c-.7.86-1.66 1.28-2.9 1.28-1.14 0-2-.34-2.6-.98-.58-.66-.9-1.6-.9-2.86v-6.92h2.82v6.82c0 1.1.5 1.66 1.5 1.66.96 0 1.62-.34 1.98-1v-7.48h2.82v10.56h-2.64l-.08-1.08zM595.39 28.385l.08 1.18c.74-.92 1.76-1.38 3.04-1.38 1.36 0 2.3.54 2.8 1.6.74-1.06 1.8-1.6 3.18-1.6 1.14 0 2 .34 2.56 1 .56.66.84 1.68.84 3.02v6.74h-2.84v-6.74c0-.6-.12-1.04-.36-1.32-.22-.26-.64-.4-1.24-.4-.84 0-1.42.4-1.76 1.2l.02 7.26h-2.82v-6.72c0-.62-.12-1.06-.36-1.34s-.66-.4-1.24-.4c-.8 0-1.38.32-1.74.98v7.48h-2.82v-10.56h2.66zM614.99 39.145c-1.54 0-2.8-.48-3.78-1.44-.98-.94-1.46-2.2-1.46-3.78v-.28c0-1.06.2-2.02.62-2.84.4-.84.98-1.5 1.74-1.94.76-.46 1.62-.68 2.58-.68 1.44 0 2.58.46 3.4 1.36.84.92 1.26 2.2 1.26 3.88v1.16h-6.74c.1.68.38 1.24.82 1.66.46.42 1.04.62 1.76.62 1.08 0 1.92-.4 2.54-1.18l1.38 1.56c-.42.58-.98 1.06-1.72 1.4-.72.32-1.52.5-2.4.5zm-.32-8.68c-.56 0-1 .2-1.36.56-.34.38-.56.92-.66 1.64h3.92v-.24c-.02-.62-.18-1.1-.5-1.44-.34-.34-.8-.52-1.4-.52zM623.53 28.385l.08 1.22c.76-.94 1.78-1.42 3.04-1.42 1.12 0 1.96.32 2.5.98.56.66.84 1.64.84 2.96v6.82h-2.82v-6.76c0-.6-.12-1.04-.38-1.3-.26-.28-.7-.4-1.3-.4-.8 0-1.4.34-1.8 1v7.46h-2.82v-10.56h2.66zM635.51 25.785v2.6h1.8v2.06h-1.8v5.28c0 .38.08.66.22.84.16.16.44.26.86.26.32 0 .6-.04.84-.08v2.14c-.56.18-1.12.26-1.72.26-1.98 0-2.98-1-3.02-3v-5.7h-1.54v-2.06h1.54v-2.6h2.82z" fill="#fff" fill-rule="nonzero"/>
    </g>
    <g>
        <path d="M83.828 178.983l191.172.033" fill="none" stroke="#999" stroke-width=".94" stroke-linecap="butt" stroke-linejoin="miter" transform="matrix(1.44324 0 0 1.44324 88.712 -225.571)"/>
        <path d="M836.115 138.6l11.329 13.216-11.329-13.216zM836.115 138.6l11.329 13.216-11.329-13.216zM835.73 138.856l-11.33 13.217 11.33-13.217z" fill="none" stroke="#999" stroke-width="1.88" transform="matrix(0 .72108 -.72107 0 585.09 -570.011)"/>
    </g>
    <g>
        <path fill="#0c4898" stroke="#0c71ff" stroke-width="2" d="M17727.2 12792.4h206.354v63.254H17727.2z" transform="matrix(1 0 0 1 -17726.202 -12791.404)"/>
    </g>
    <g>
        <path fill="#fff" fill-rule="nonzero" d="M73.075 25.635h2.92v14.22h-2.92zM81.255 29.295l.08 1.18c.74-.92 1.76-1.38 3.04-1.38 1.36 0 2.3.54 2.8 1.6.74-1.06 1.8-1.6 3.18-1.6 1.14 0 2 .34 2.56 1 .56.66.84 1.68.84 3.02v6.74h-2.84v-6.74c0-.6-.12-1.04-.36-1.32-.22-.26-.64-.4-1.24-.4-.84 0-1.42.4-1.76 1.2l.02 7.26h-2.82v-6.72c0-.62-.12-1.06-.36-1.34s-.66-.4-1.24-.4c-.8 0-1.38.32-1.74.98v7.48h-2.82v-10.56h2.66zM105.415 34.675c0 1.62-.38 2.92-1.12 3.9-.74.98-1.72 1.48-2.98 1.48-1.08 0-1.94-.38-2.6-1.12v4.98h-2.82v-14.62h2.62l.1 1.02c.68-.82 1.58-1.22 2.68-1.22 1.3 0 2.3.48 3.04 1.44.72.96 1.08 2.3 1.08 3.98v.16zm-2.82-.22c0-.98-.18-1.74-.52-2.26-.36-.54-.86-.8-1.52-.8-.9 0-1.5.34-1.84 1v4.34c.36.7.96 1.04 1.86 1.04 1.34 0 2.02-1.1 2.02-3.32zM113.035 31.935a6.5 6.5 0 00-1.02-.08c-1.06 0-1.76.36-2.1 1.08v6.92h-2.82v-10.56h2.68l.06 1.26c.58-.98 1.36-1.46 2.36-1.46.32 0 .6.04.88.12l-.04 2.72zM117.375 39.855h-2.82v-10.56h2.82v10.56zm-3-13.3c0-.42.14-.78.42-1.04.3-.28.68-.42 1.16-.42.48 0 .88.14 1.16.42.28.26.42.62.42 1.04 0 .42-.14.78-.42 1.06-.3.26-.68.4-1.16.4-.46 0-.86-.14-1.14-.4-.3-.28-.44-.64-.44-1.06zM122.295 29.295l.08 1.22c.76-.94 1.78-1.42 3.04-1.42 1.12 0 1.96.32 2.5.98.56.66.84 1.64.84 2.96v6.82h-2.82v-6.76c0-.6-.12-1.04-.38-1.3-.26-.28-.7-.4-1.3-.4-.8 0-1.4.34-1.8 1v7.46h-2.82v-10.56h2.66zM134.275 26.695v2.6h1.8v2.06h-1.8v5.28c0 .38.08.66.22.84.16.16.44.26.86.26.32 0 .6-.04.84-.08v2.14c-.56.18-1.12.26-1.72.26-1.98 0-2.98-1-3.02-3v-5.7h-1.54v-2.06h1.54v-2.6h2.82z"/>
    </g>
</svg>
